<?xml version="1.0" encoding="UTF-8" standalone="no"?>
<svg
   xmlns:dc="http://purl.org/dc/elements/1.1/"
   xmlns:cc="http://creativecommons.org/ns#"
   xmlns:rdf="http://www.w3.org/1999/02/22-rdf-syntax-ns#"
   xmlns:svg="http://www.w3.org/2000/svg"
   xmlns="http://www.w3.org/2000/svg"
   xmlns:xlink="http://www.w3.org/1999/xlink"
   xmlns:sodipodi="http://sodipodi.sourceforge.net/DTD/sodipodi-0.dtd"
   xmlns:inkscape="http://www.inkscape.org/namespaces/inkscape"
   width="8.47222in"
   height="6.58333in"
   viewBox="0 0 610 474"
   id="svg2"
   version="1.1"
   inkscape:version="0.48.3.1 r9886"
   sodipodi:docname="plume.svg">
  <metadata
     id="metadata11">
    <rdf:RDF>
      <cc:Work
         rdf:about="">
        <dc:format>image/svg+xml</dc:format>
        <dc:type
           rdf:resource="http://purl.org/dc/dcmitype/StillImage" />
        <dc:title></dc:title>
      </cc:Work>
    </rdf:RDF>
  </metadata>
  <defs
     id="defs9">
    <linearGradient
       id="linearGradient3811">
      <stop
         id="stop3813"
         offset="0"
         style="stop-color:#ffffff;stop-opacity:1;" />
      <stop
         style="stop-color:#9cbaff;stop-opacity:1;"
         offset="0.3442623"
         id="stop3815" />
      <stop
         style="stop-color:#8fd0ff;stop-opacity:1;"
         offset="1"
         id="stop3817" />
    </linearGradient>
    <linearGradient
       id="linearGradient3795">
      <stop
         style="stop-color:#8fd0ff;stop-opacity:1;"
         offset="0"
         id="stop3797" />
      <stop
         id="stop3799"
         offset="0.3442623"
         style="stop-color:#9cbaff;stop-opacity:1;" />
      <stop
         id="stop3801"
         offset="1"
         style="stop-color:#ffffff;stop-opacity:1;" />
    </linearGradient>
    <linearGradient
       id="linearGradient3775">
      <stop
         id="stop3783"
         offset="0"
         style="stop-color:#8fcfff;stop-opacity:0.94117647;" />
      <stop
         style="stop-color:#c7e7ff;stop-opacity:1;"
         offset="0.44262296"
         id="stop3785" />
      <stop
         style="stop-color:#ffffff;stop-opacity:1;"
         offset="1"
         id="stop3779" />
    </linearGradient>
    <linearGradient
       inkscape:collect="always"
       xlink:href="#linearGradient3775"
       id="linearGradient3781"
       x1="58.5"
       y1="212.8364"
       x2="543.29535"
       y2="-22.15513"
       gradientUnits="userSpaceOnUse" />
    <linearGradient
       inkscape:collect="always"
       xlink:href="#linearGradient3811"
       id="linearGradient3793"
       x1="58.5"
       y1="212.8364"
       x2="543.29535"
       y2="-22.15513"
       gradientUnits="userSpaceOnUse" />
  </defs>
  <sodipodi:namedview
     pagecolor="#ffffff"
     bordercolor="#666666"
     borderopacity="1"
     objecttolerance="10"
     gridtolerance="10"
     guidetolerance="10"
     inkscape:pageopacity="0"
     inkscape:pageshadow="2"
     inkscape:window-width="1440"
     inkscape:window-height="844"
     id="namedview7"
     showgrid="false"
     inkscape:zoom="0.79662488"
     inkscape:cx="381.41137"
     inkscape:cy="296.62014"
     inkscape:window-x="0"
     inkscape:window-y="27"
     inkscape:window-maximized="1"
     inkscape:current-layer="svg2" />
  <path
     id="Copie de corps"
     fill="none"
     stroke="black"
     stroke-width="1"
     d="M 59.00,404.00            C 75.00,378.00 74.00,384.00 81.00,336.00              83.00,289.00 101.00,243.00 166.00,210.00              171.75,207.08 178.53,203.92 186.14,200.59              188.66,199.49 185.33,215.00 210.67,245.00              194.00,213.00 194.42,196.20 197.33,195.00              271.51,164.52 402.58,121.93 457.00,101.00              520.00,77.00 560.00,45.00 593.00,19.00              594.00,19.00 491.00,141.00 438.00,181.00              430.35,186.78 413.02,201.38 390.24,219.90              388.90,220.99 355.33,227.00 307.33,226.33              344.67,234.33 383.39,225.45 381.98,226.59              346.85,254.95 301.10,290.45 258.00,317.67              250.53,323.02 229.00,320.00 190.00,315.00              224.00,333.00 248.00,326.33 246.49,326.65              209.25,350.45 171.53,370.64 138.00,381.00              89.00,391.00 91.96,381.75 66.00,406.00              65.00,408.00 59.00,405.00 59.00,404.00 Z"
     style="fill:url(#linearGradient3781);fill-opacity:1.0;stroke:url(#linearGradient3793);stroke-opacity:1;stroke-width:1.64000083999999990;stroke-miterlimit:4;stroke-dasharray:none" />
  <path
     id="tige #1"
     d="m 20,453.25 c 0.2,0.22 9.62,-6.13 16.5,-9 C 36.5,444.38 44.25,435 53,422 102,353 235,241 342,178 449,115 498,111 569,43 499,111 435,119 339,176 243,233 115,335 49,417 c 0,0.25 -28,34.62 -29,36.25 z"
     inkscape:connector-curvature="0"
     style="fill:#ffffff;stroke:#8fcfff;stroke-width:1.60000082;stroke-opacity:1;stroke-miterlimit:4;stroke-dasharray:none" />
</svg>
