  0
SECTION
  2
HEADER
  9
$ACADVER
  1
AC1014
  9
$HANDSEED
  5
FFFF
  9
$MEASUREMENT
 70
     1
  0
ENDSEC
  0
SECTION
  2
TABLES
  0
TABLE
  2
VPORT
  5
8
330
0
100
AcDbSymbolTable
 70
     4
  0
VPORT
  5
2E
330
8
100
AcDbSymbolTableRecord
100
AcDbViewportTableRecord
  2
*ACTIVE
 70
     0
 10
0.0
 20
0.0
 11
1.0
 21
1.0
 12
210.0
 22
148.5
 13
0.0
 23
0.0
 14
10.0
 24
10.0
 15
10.0
 25
10.0
 16
0.0
 26
0.0
 36
1.0
 17
0.0
 27
0.0
 37
0.0
 40
341.0
 41
1.24
 42
50.0
 43
0.0
 44
0.0
 50
0.0
 51
0.0
 71
     0
 72
   100
 73
     1
 74
     3
 75
     0
 76
     0
 77
     0
 78
     0
  0
ENDTAB
  0
TABLE
  2
LTYPE
  5
5
330
0
100
AcDbSymbolTable
 70
     1
  0
LTYPE
  5
14
330
5
100
AcDbSymbolTableRecord
100
AcDbLinetypeTableRecord
  2
BYBLOCK
 70
     0
  3

 72
    65
 73
     0
 40
0.0
  0
LTYPE
  5
15
330
5
100
AcDbSymbolTableRecord
100
AcDbLinetypeTableRecord
  2
BYLAYER
 70
     0
  3

 72
    65
 73
     0
 40
0.0
  0
LTYPE
  5
16
330
5
100
AcDbSymbolTableRecord
100
AcDbLinetypeTableRecord
  2
CONTINUOUS
 70
     0
  3
Solid line
 72
    65
 73
     0
 40
0.0
  0
ENDTAB
  0
TABLE
  2
LAYER
  5
2
100
AcDbSymbolTable
 70
1
  0
LAYER
  5
50
100
AcDbSymbolTableRecord
100
AcDbLayerTableRecord
  2
0
 70
0
  6
CONTINUOUS
  0
ENDTAB
  0
TABLE
  2
STYLE
  5
3
330
0
100
AcDbSymbolTable
 70
     1
  0
STYLE
  5
11
330
3
100
AcDbSymbolTableRecord
100
AcDbTextStyleTableRecord
  2
STANDARD
 70
     0
 40
0.0
 41
1.0
 50
0.0
 71
     0
 42
2.5
  3
txt
  4

  0
ENDTAB
  0
TABLE
  2
VIEW
  5
6
330
0
100
AcDbSymbolTable
 70
     0
  0
ENDTAB
  0
TABLE
  2
UCS
  5
7
330
0
100
AcDbSymbolTable
 70
     0
  0
ENDTAB
  0
TABLE
  2
APPID
  5
9
330
0
100
AcDbSymbolTable
 70
     2
  0
APPID
  5
12
330
9
100
AcDbSymbolTableRecord
100
AcDbRegAppTableRecord
  2
ACAD
 70
     0
  0
ENDTAB
  0
TABLE
  2
DIMSTYLE
  5
A
330
0
100
AcDbSymbolTable
 70
     1
  0
DIMSTYLE
105
27
330
A
100
AcDbSymbolTableRecord
100
AcDbDimStyleTableRecord
  2
ISO-25
 70
     0
  3

  4

  5

  6

  7

 40
1.0
 41
2.5
 42
0.625
 43
3.75
 44
1.25
 45
0.0
 46
0.0
 47
0.0
 48
0.0
140
2.5
141
2.5
142
0.0
143
0.03937007874016
144
1.0
145
0.0
146
1.0
147
0.625
 71
     0
 72
     0
 73
     0
 74
     0
 75
     0
 76
     0
 77
     1
 78
     8
170
     0
171
     3
172
     1
173
     0
174
     0
175
     0
176
     0
177
     0
178
     0
270
     2
271
     2
272
     2
273
     2
274
     3
340
11
275
     0
280
     0
281
     0
282
     0
283
     0
284
     8
285
     0
286
     0
287
     3
288
     0
  0
ENDTAB
  0
TABLE
  2
BLOCK_RECORD
  5
1
330
0
100
AcDbSymbolTable
 70
     1
  0
BLOCK_RECORD
  5
1F
330
1
100
AcDbSymbolTableRecord
100
AcDbBlockTableRecord
  2
*MODEL_SPACE
  0
BLOCK_RECORD
  5
1B
330
1
100
AcDbSymbolTableRecord
100
AcDbBlockTableRecord
  2
*PAPER_SPACE
  0
ENDTAB
  0
ENDSEC
  0
SECTION
  2
BLOCKS
  0
BLOCK
  5
20
330
1F
100
AcDbEntity
  8
0
100
AcDbBlockBegin
  2
*MODEL_SPACE
 70
     0
 10
0.0
 20
0.0
 30
0.0
  3
*MODEL_SPACE
  1

  0
ENDBLK
  5
21
330
1F
100
AcDbEntity
  8
0
100
AcDbBlockEnd
  0
BLOCK
  5
1C
330
1B
100
AcDbEntity
 67
     1
  8
0
100
AcDbBlockBegin
  2
*PAPER_SPACE
  1

  0
ENDBLK
  5
1D
330
1B
100
AcDbEntity
 67
     1
  8
0
100
AcDbBlockEnd
  0
ENDSEC
  0
SECTION
  2
ENTITIES
  0
SPLINE
  5
100
100
AcDbEntity
  8
0
 62
7
100
AcDbSpline
 70
0
 71
3
 72
10
 73
6
 74
4
 40
0.000000
 40
0.000000
 40
0.000000
 40
0.000000
 40
17.338170
 40
31.092957
 40
57.972437
 40
57.972437
 40
57.972437
 40
57.972437
 10
47.200000
 20
150.799760
 30
0.0
 10
50.492470
 20
155.593043
 30
0.0
 10
56.396936
 20
164.188954
 30
0.0
 10
62.189017
 20
182.824064
 30
0.0
 10
63.760480
 20
196.291247
 30
0.0
 10
64.800000
 20
205.199760
 30
0.0
 11
47.200000
 21
150.799760
 31
0.0
 11
56.207407
 21
165.614575
 31
0.0
 11
60.592593
 21
178.651612
 31
0.0
 11
64.800000
 21
205.199760
 31
0.0
  0
SPLINE
  5
101
100
AcDbEntity
  8
0
 62
7
100
AcDbSpline
 70
0
 71
3
 72
10
 73
6
 74
4
 40
0.000000
 40
0.000000
 40
0.000000
 40
0.000000
 40
37.595143
 40
77.733975
 40
127.752660
 40
127.752660
 40
127.752660
 40
127.752660
 10
64.800000
 20
205.199760
 30
0.0
 10
66.179973
 20
217.750171
 30
0.0
 10
69.033289
 20
243.700155
 30
0.0
 10
92.308628
 20
281.616109
 30
0.0
 10
118.351576
 20
297.299009
 30
0.0
 10
132.800000
 20
305.999760
 30
0.0
 11
64.800000
 21
205.199760
 31
0.0
 11
71.585185
 21
242.177538
 31
0.0
 11
92.414815
 21
276.488649
 31
0.0
 11
132.800000
 21
305.999760
 31
0.0
  0
SPLINE
  5
102
100
AcDbEntity
  8
0
 62
7
100
AcDbSpline
 70
0
 71
3
 72
10
 73
6
 74
4
 40
0.000000
 40
0.000000
 40
0.000000
 40
0.000000
 40
5.427217
 40
11.367680
 40
17.786000
 40
17.786000
 40
17.786000
 40
17.786000
 10
132.800000
 20
305.999760
 30
0.0
 10
134.419556
 20
306.805986
 30
0.0
 10
137.811828
 20
308.494681
 30
0.0
 10
143.188552
 20
310.994391
 30
0.0
 10
146.955632
 20
312.661813
 30
0.0
 10
148.912000
 20
313.527760
 30
0.0
 11
132.800000
 21
305.999760
 31
0.0
 11
137.668741
 21
308.397686
 31
0.0
 11
143.051259
 21
310.911167
 31
0.0
 11
148.912000
 21
313.527760
 31
0.0
  0
SPLINE
  5
103
100
AcDbEntity
  8
0
 62
7
100
AcDbSpline
 70
0
 71
3
 72
10
 73
6
 74
4
 40
0.000000
 40
0.000000
 40
0.000000
 40
0.000000
 40
3.787176
 40
16.571990
 40
40.846279
 40
40.846279
 40
40.846279
 40
40.846279
 10
148.912000
 20
313.527760
 30
0.0
 10
149.416555
 20
312.370897
 30
0.0
 10
151.624393
 20
307.308674
 30
0.0
 10
155.421537
 20
294.079689
 30
0.0
 10
163.345609
 20
284.363811
 30
0.0
 10
168.536000
 20
277.999760
 30
0.0
 11
148.912000
 21
313.527760
 31
0.0
 11
150.390815
 21
310.041241
 31
0.0
 11
154.886519
 21
298.072945
 31
0.0
 11
168.536000
 21
277.999760
 31
0.0
  0
SPLINE
  5
104
100
AcDbEntity
  8
0
 62
7
100
AcDbSpline
 70
0
 71
3
 72
10
 73
6
 74
4
 40
0.000000
 40
0.000000
 40
0.000000
 40
0.000000
 40
23.422117
 40
37.047758
 40
42.302236
 40
42.302236
 40
42.302236
 40
42.302236
 10
168.536000
 20
277.999760
 30
0.0
 10
165.360293
 20
285.009384
 30
0.0
 10
160.337142
 20
296.096804
 30
0.0
 10
155.503899
 20
310.202108
 30
0.0
 10
157.350169
 20
316.302090
 30
0.0
 10
157.864000
 20
317.999760
 30
0.0
 11
168.536000
 21
277.999760
 31
0.0
 11
159.324741
 21
299.534575
 31
0.0
 11
156.632593
 21
312.891612
 31
0.0
 11
157.864000
 21
317.999760
 31
0.0
  0
SPLINE
  5
105
100
AcDbEntity
  8
0
 62
7
100
AcDbSpline
 70
0
 71
3
 72
10
 73
6
 74
4
 40
0.000000
 40
0.000000
 40
0.000000
 40
0.000000
 40
75.409939
 40
157.178828
 40
220.939289
 40
220.939289
 40
220.939289
 40
220.939289
 10
157.864000
 20
317.999760
 30
0.0
 10
181.327313
 20
327.024836
 30
0.0
 10
230.232485
 20
345.836029
 30
0.0
 10
300.002164
 20
369.453791
 30
0.0
 10
345.615519
 20
385.965514
 30
0.0
 10
365.600000
 20
393.199760
 30
0.0
 11
157.864000
 21
317.999760
 31
0.0
 11
228.421926
 21
344.612501
 31
0.0
 11
305.580741
 21
371.680353
 31
0.0
 11
365.600000
 21
393.199760
 31
0.0
  0
SPLINE
  5
106
100
AcDbEntity
  8
0
 62
7
100
AcDbSpline
 70
0
 71
3
 72
10
 73
6
 74
4
 40
0.000000
 40
0.000000
 40
0.000000
 40
0.000000
 40
49.389455
 40
91.371828
 40
127.557164
 40
127.557164
 40
127.557164
 40
127.557164
 10
365.600000
 20
393.199760
 30
0.0
 10
380.760084
 20
399.702707
 30
0.0
 10
408.806650
 20
411.733334
 30
0.0
 10
444.426888
 20
435.263849
 30
0.0
 10
464.915450
 20
451.352168
 30
0.0
 10
474.400000
 20
458.799760
 30
0.0
 11
365.600000
 21
393.199760
 31
0.0
 11
410.340741
 21
414.118279
 31
0.0
 11
445.659259
 21
436.814575
 31
0.0
 11
474.400000
 21
458.799760
 31
0.0
  0
SPLINE
  5
107
100
AcDbEntity
  8
0
 62
7
100
AcDbSpline
 70
0
 71
3
 72
10
 73
6
 74
4
 40
0.000000
 40
0.000000
 40
0.000000
 40
0.000000
 40
34.671237
 40
109.524414
 40
179.562773
 40
179.562773
 40
179.562773
 40
179.562773
 10
474.400000
 20
458.799760
 30
0.0
 10
466.971906
 20
449.948162
 30
0.0
 10
443.506991
 20
421.986482
 30
0.0
 10
403.628373
 20
377.222150
 30
0.0
 10
367.745321
 20
344.848627
 30
0.0
 10
350.400000
 20
329.199760
 30
0.0
 11
474.400000
 21
458.799760
 31
0.0
 11
452.029630
 21
432.310871
 31
0.0
 11
401.570370
 21
377.021982
 31
0.0
 11
350.400000
 21
329.199760
 31
0.0
  0
SPLINE
  5
108
100
AcDbEntity
  8
0
 62
7
100
AcDbSpline
 70
0
 71
3
 72
10
 73
6
 74
4
 40
0.000000
 40
0.000000
 40
0.000000
 40
0.000000
 40
10.963932
 40
27.767744
 40
49.278691
 40
49.278691
 40
49.278691
 40
49.278691
 10
350.400000
 20
329.199760
 30
0.0
 10
347.533936
 20
326.931966
 30
0.0
 10
340.275214
 20
321.188450
 30
0.0
 10
327.645974
 20
310.683306
 30
0.0
 10
317.748635
 20
302.611494
 30
0.0
 10
312.192000
 20
298.079760
 30
0.0
 11
350.400000
 21
329.199760
 31
0.0
 11
341.824000
 21
322.368945
 31
0.0
 11
328.837333
 21
311.705241
 31
0.0
 11
312.192000
 21
298.079760
 31
0.0
  0
SPLINE
  5
109
100
AcDbEntity
  8
0
 62
7
100
AcDbSpline
 70
0
 71
3
 72
10
 73
6
 74
4
 40
0.000000
 40
0.000000
 40
0.000000
 40
0.000000
 40
9.322701
 40
32.611061
 40
66.647598
 40
66.647598
 40
66.647598
 40
66.647598
 10
312.192000
 20
298.079760
 30
0.0
 10
309.151965
 20
297.428644
 30
0.0
 10
298.517839
 20
295.151023
 30
0.0
 10
276.305772
 20
293.323321
 30
0.0
 10
257.205027
 20
293.080145
 30
0.0
 10
245.864000
 20
292.935760
 30
0.0
 11
312.192000
 21
298.079760
 31
0.0
 11
303.052741
 21
296.239464
 31
0.0
 11
279.888593
 21
293.837390
 31
0.0
 11
245.864000
 21
292.935760
 31
0.0
  0
SPLINE
  5
10a
100
AcDbEntity
  8
0
 62
7
100
AcDbSpline
 70
0
 71
3
 72
10
 73
6
 74
4
 40
0.000000
 40
0.000000
 40
0.000000
 40
0.000000
 40
29.135051
 40
51.553481
 40
59.952275
 40
59.952275
 40
59.952275
 40
59.952275
 10
245.864000
 20
292.935760
 30
0.0
 10
255.523504
 20
291.609360
 30
0.0
 10
272.615668
 20
289.262341
 30
0.0
 10
292.607306
 20
291.206289
 30
0.0
 10
302.804815
 20
292.401910
 30
0.0
 10
305.584000
 20
292.727760
 30
0.0
 11
245.864000
 21
292.935760
 31
0.0
 11
274.874074
 21
290.240056
 31
0.0
 11
297.240593
 21
291.764797
 31
0.0
 11
305.584000
 21
292.727760
 31
0.0
  0
SPLINE
  5
10b
100
AcDbEntity
  8
0
 62
7
100
AcDbSpline
 70
0
 71
3
 72
10
 73
6
 74
4
 40
0.000000
 40
0.000000
 40
0.000000
 40
0.000000
 40
38.927717
 40
81.127203
 40
123.128528
 40
123.128528
 40
123.128528
 40
123.128528
 10
305.584000
 20
292.727760
 30
0.0
 10
295.439340
 20
284.637742
 30
0.0
 10
274.297389
 20
267.777762
 30
0.0
 10
241.492364
 20
243.078523
 30
0.0
 10
218.079087
 20
227.589864
 30
0.0
 10
206.400000
 20
219.863760
 30
0.0
 11
305.584000
 21
292.727760
 31
0.0
 11
275.041185
 21
268.592649
 31
0.0
 11
241.193481
 21
243.390871
 31
0.0
 11
206.400000
 21
219.863760
 31
0.0
  0
SPLINE
  5
10c
100
AcDbEntity
  8
0
 62
7
100
AcDbSpline
 70
0
 71
3
 72
10
 73
6
 74
4
 40
0.000000
 40
0.000000
 40
0.000000
 40
0.000000
 40
10.077858
 40
28.042256
 40
54.886097
 40
54.886097
 40
54.886097
 40
54.886097
 10
206.400000
 20
219.863760
 30
0.0
 10
203.140182
 20
218.943577
 30
0.0
 10
194.069539
 20
216.383113
 30
0.0
 10
175.604903
 20
219.300615
 30
0.0
 10
160.843376
 20
220.988548
 30
0.0
 10
152.000000
 20
221.999760
 30
0.0
 11
206.400000
 21
219.863760
 31
0.0
 11
196.573630
 21
217.626427
 31
0.0
 11
178.642370
 21
218.717093
 31
0.0
 11
152.000000
 21
221.999760
 31
0.0
  0
SPLINE
  5
10d
100
AcDbEntity
  8
0
 62
7
100
AcDbSpline
 70
0
 71
3
 72
10
 73
6
 74
4
 40
0.000000
 40
0.000000
 40
0.000000
 40
0.000000
 40
25.617845
 40
41.648254
 40
46.826880
 40
46.826880
 40
46.826880
 40
46.826880
 10
152.000000
 20
221.999760
 30
0.0
 10
159.856405
 20
218.549572
 30
0.0
 10
172.628969
 20
212.940424
 30
0.0
 10
188.489113
 20
211.362281
 30
0.0
 10
195.484043
 20
212.421202
 30
0.0
 10
197.192000
 20
212.679760
 30
0.0
 11
152.000000
 21
221.999760
 31
0.0
 11
176.073778
 21
213.240353
 31
0.0
 11
192.056889
 21
212.009834
 31
0.0
 11
197.192000
 21
212.679760
 31
0.0
  0
SPLINE
  5
10e
100
AcDbEntity
  8
0
 62
7
100
AcDbSpline
 70
0
 71
3
 72
10
 73
6
 74
4
 40
0.000000
 40
0.000000
 40
0.000000
 40
0.000000
 40
34.743434
 40
67.514603
 40
97.314455
 40
97.314455
 40
97.314455
 40
97.314455
 10
197.192000
 20
212.679760
 30
0.0
 10
187.338412
 20
206.597719
 30
0.0
 10
168.190590
 20
194.778895
 30
0.0
 10
139.389084
 20
179.665235
 30
0.0
 10
119.752195
 20
172.576036
 30
0.0
 10
110.400000
 20
169.199760
 30
0.0
 11
197.192000
 21
212.679760
 31
0.0
 11
167.410370
 21
194.786723
 31
0.0
 11
138.202963
 21
179.924797
 31
0.0
 11
110.400000
 21
169.199760
 31
0.0
  0
SPLINE
  5
10f
100
AcDbEntity
  8
0
 62
7
100
AcDbSpline
 70
0
 71
3
 72
10
 73
6
 74
4
 40
0.000000
 40
0.000000
 40
0.000000
 40
0.000000
 40
28.091883
 40
42.927707
 40
62.510609
 40
62.510609
 40
62.510609
 40
62.510609
 10
110.400000
 20
169.199760
 30
0.0
 10
101.225881
 20
167.723287
 30
0.0
 10
87.206745
 20
165.467062
 30
0.0
 10
66.050733
 20
162.180869
 30
0.0
 10
57.605185
 20
153.907170
 30
0.0
 10
52.800000
 20
149.199760
 30
0.0
 11
110.400000
 21
169.199760
 31
0.0
 11
82.659556
 21
164.770130
 31
0.0
 11
68.252444
 21
161.229390
 31
0.0
 11
52.800000
 21
149.199760
 31
0.0
  0
SPLINE
  5
110
100
AcDbEntity
  8
0
 62
7
100
AcDbSpline
 70
0
 71
3
 72
10
 73
6
 74
4
 40
0.000000
 40
0.000000
 40
0.000000
 40
0.000000
 40
1.868547
 40
4.559629
 40
6.259915
 40
6.259915
 40
6.259915
 40
6.259915
 10
52.800000
 20
149.199760
 30
0.0
 10
52.201145
 20
148.970024
 30
0.0
 10
50.739817
 20
148.409421
 30
0.0
 10
48.644934
 20
149.398507
 30
0.0
 10
47.603306
 20
150.408646
 30
0.0
 10
47.200000
 20
150.799760
 30
0.0
 11
52.800000
 21
149.199760
 31
0.0
 11
50.992593
 21
148.725686
 31
0.0
 11
48.474074
 21
149.673834
 31
0.0
 11
47.200000
 21
150.799760
 31
0.0
  0
SPLINE
  5
111
100
AcDbEntity
  8
0
 62
4
100
AcDbSpline
 70
0
 71
3
 72
10
 73
6
 74
4
 40
0.000000
 40
0.000000
 40
0.000000
 40
0.000000
 40
2.605333
 40
8.517323
 40
15.043070
 40
15.043070
 40
15.043070
 40
15.043070
 10
16.000000
 20
111.399760
 30
0.0
 10
16.759170
 20
111.821502
 30
0.0
 10
19.241040
 20
113.200256
 30
0.0
 10
23.486882
 20
115.880690
 30
0.0
 10
27.233992
 20
117.664069
 30
0.0
 10
29.200000
 20
118.599760
 30
0.0
 11
16.000000
 21
111.399760
 31
0.0
 11
18.270222
 21
112.677982
 31
0.0
 11
23.367111
 21
115.673538
 31
0.0
 11
29.200000
 21
118.599760
 31
0.0
  0
SPLINE
  5
112
100
AcDbEntity
  8
0
 62
4
100
AcDbSpline
 70
0
 71
3
 72
10
 73
6
 74
4
 40
0.000000
 40
0.000000
 40
0.000000
 40
0.000000
 40
2.929278
 40
10.835489
 40
22.168396
 40
22.168396
 40
22.168396
 40
22.168396
 10
29.200000
 20
118.599760
 30
0.0
 10
29.825623
 20
119.349496
 30
0.0
 10
32.139822
 20
122.122792
 30
0.0
 10
36.588861
 20
128.028309
 30
0.0
 10
40.245838
 20
133.296502
 30
0.0
 10
42.400000
 20
136.399760
 30
0.0
 11
29.200000
 21
118.599760
 31
0.0
 11
31.066667
 21
120.857241
 31
0.0
 11
35.866667
 21
127.139612
 31
0.0
 11
42.400000
 21
136.399760
 31
0.0
  0
SPLINE
  5
113
100
AcDbEntity
  8
0
 62
4
100
AcDbSpline
 70
0
 71
3
 72
13
 73
9
 74
7
 40
0.000000
 40
0.000000
 40
0.000000
 40
0.000000
 40
86.556689
 40
195.915477
 40
303.893706
 40
385.896927
 40
448.643571
 40
515.877960
 40
515.877960
 40
515.877960
 40
515.877960
 10
42.400000
 20
136.399760
 30
0.0
 10
61.313391
 20
158.252843
 30
0.0
 10
104.122630
 20
207.715884
 30
0.0
 10
183.245356
 20
271.578474
 30
0.0
 10
265.105368
 20
328.992162
 30
0.0
 10
339.947878
 20
367.687573
 30
0.0
 10
404.792624
 20
396.835989
 30
0.0
 10
438.015192
 20
425.020799
 30
0.0
 10
455.200000
 20
439.599760
 30
0.0
 11
42.400000
 21
136.399760
 31
0.0
 11
100.740741
 21
200.340501
 31
0.0
 11
184.325926
 21
270.859019
 31
0.0
 11
273.600000
 21
331.599760
 31
0.0
 11
346.103704
 21
369.910871
 31
0.0
 11
401.896296
 21
398.621982
 31
0.0
 11
455.200000
 21
439.599760
 31
0.0
  0
SPLINE
  5
114
100
AcDbEntity
  8
0
 62
4
100
AcDbSpline
 70
0
 71
3
 72
13
 73
9
 74
7
 40
0.000000
 40
0.000000
 40
0.000000
 40
0.000000
 40
69.398520
 40
135.216839
 40
213.282974
 40
312.851037
 40
420.150416
 40
516.018441
 40
516.018441
 40
516.018441
 40
516.018441
 10
455.200000
 20
439.599760
 30
0.0
 10
437.302032
 20
424.723798
 30
0.0
 10
402.429433
 20
395.739310
 30
0.0
 10
336.453217
 20
367.974662
 30
0.0
 10
263.980054
 20
331.379827
 30
0.0
 10
185.960774
 20
276.821646
 30
0.0
 10
106.693825
 20
213.950704
 30
0.0
 10
60.837903
 20
163.979520
 30
0.0
 10
39.200000
 20
140.399760
 30
0.0
 11
455.200000
 21
439.599760
 31
0.0
 11
399.674074
 21
397.970130
 31
0.0
 11
340.592593
 21
368.962723
 31
0.0
 11
271.200000
 21
333.199760
 31
0.0
 11
188.651852
 21
277.525686
 31
0.0
 11
105.748148
 21
209.407167
 31
0.0
 11
39.200000
 21
140.399760
 31
0.0
  0
LWPOLYLINE
  5
115
100
AcDbEntity
  8
0
 62
7
100
AcDbPolyline
 90
2
 70
0
 10
47.200000
 20
150.799760
 30
0.0
 10
47.200000
 20
150.799760
 30
0.0
  0
SPLINE
  5
116
100
AcDbEntity
  8
0
 62
4
100
AcDbSpline
 70
0
 71
3
 72
10
 73
6
 74
4
 40
0.000000
 40
0.000000
 40
0.000000
 40
0.000000
 40
9.360486
 40
26.869903
 40
37.138426
 40
37.138426
 40
37.138426
 40
37.138426
 10
39.200000
 20
140.399760
 30
0.0
 10
37.258300
 20
137.957363
 30
0.0
 10
31.684521
 20
130.946299
 30
0.0
 10
23.844722
 20
121.364801
 30
0.0
 10
18.117246
 20
114.089268
 30
0.0
 10
16.000000
 20
111.399760
 30
0.0
 11
39.200000
 21
140.399760
 31
0.0
 11
33.362963
 21
133.082130
 31
0.0
 11
22.370370
 21
119.453390
 31
0.0
 11
16.000000
 21
111.399760
 31
0.0
  0
LWPOLYLINE
  5
117
100
AcDbEntity
  8
0
 62
4
100
AcDbPolyline
 90
2
 70
0
 10
16.000000
 20
111.399760
 30
0.0
 10
16.000000
 20
111.399760
 30
0.0
  0
ENDSEC
  0
SECTION
  2
OBJECTS
  0
DICTIONARY
  5
C
330
0
100
AcDbDictionary
  3
ACAD_GROUP
350
D
  3
ACAD_MLINESTYLE
350
17
  0
DICTIONARY
  5
D
330
C
100
AcDbDictionary
  0
DICTIONARY
  5
1A
330
C
100
AcDbDictionary
  0
DICTIONARY
  5
17
330
C
100
AcDbDictionary
  3
STANDARD
350
18
  0
DICTIONARY
  5
19
330
C
100
AcDbDictionary
  0
ENDSEC
  0
EOF
