*
G04 Job   : U:\2014\PLUME\PCB\EMETTEUR\PCB\PCB.pcb*
G04 User  : BI-WIN7:Alexis*
G04 Layer : EtchLayerTop.gdo*
G04 Date  : Tue Apr 01 14:22:29 2014*
G04 Mentor Graphics Example Gerber Output Definition*
%ICAS*%
%MOIN*%
%FSLAX24Y24*%
%OFA0.0000B0.0000*%
G90*
G74*
%AMVB_RECTANGLE*
21,1,$1,$2,0,0,$3*
%
%ADD13C,0.00591*%
%ADD11C,0.00787*%
%ADD10C,0.00984*%
%ADD12C,0.01000*%
%ADD14C,0.01181*%
%ADD15C,0.01575*%
%ADD17C,0.02362*%
%ADD16C,0.03150*%
%ADD18C,0.03937*%
%ADD20C,0.05906*%
%ADD34O,0.19685X0.11811*%
%ADD33O,0.11811X0.19685*%
%ADD71VB_RECTANGLE,0.05906X0.05906X180.00000*%
%ADD30VB_RECTANGLE,0.01299X0.07874X270.00000*%
%ADD21VB_RECTANGLE,0.01772X0.06299X270.00000*%
%ADD35VB_RECTANGLE,0.02638X0.05906X180.00000*%
%ADD31VB_RECTANGLE,0.02756X0.01575X180.00000*%
%ADD73VB_RECTANGLE,0.02756X0.01575X90.00000*%
%ADD28VB_RECTANGLE,0.03150X0.12205X180.00000*%
%ADD36VB_RECTANGLE,0.03150X0.12205X270.00000*%
%ADD26VB_RECTANGLE,0.03543X0.06299X90.00000*%
%ADD25VB_RECTANGLE,0.03937X0.02362X180.00000*%
%ADD24VB_RECTANGLE,0.03937X0.02362X270.00000*%
%ADD27VB_RECTANGLE,0.04528X0.12598X270.00000*%
%ADD72VB_RECTANGLE,0.05118X0.07087X180.00000*%
%ADD70VB_RECTANGLE,0.05906X0.01181X180.00000*%
%ADD19VB_RECTANGLE,0.05906X0.01181X90.00000*%
%ADD22VB_RECTANGLE,0.05906X0.08661X270.00000*%
%ADD37VB_RECTANGLE,0.05906X0.14961X0.00000*%
%ADD29VB_RECTANGLE,0.05906X0.18898X180.00000*%
%ADD32VB_RECTANGLE,0.06299X0.05118X0.00000*%
%ADD23VB_RECTANGLE,0.07480X0.20866X0.00000*%
G01*
G36*
X118Y21191D02*
G02X148Y21220I30D01*
G01X352*
Y7885*
G03X412Y7826I60*
G01X1160*
G03X1219Y7885J59*
G01Y8449*
G02X1249Y8479I30*
X1265Y8474J30*
G03X1297Y8464I32J49*
G01X1392*
G02X1422Y8434J30*
X1418Y8418I30*
G03X1400Y8356I100J62*
G01Y8179*
G03X1404Y8147I118*
G02X1405Y8139I29J8*
X1404Y8131I30*
G03X1400Y8100I114J31*
G01Y7923*
G03X1404Y7891I118*
G02X1405Y7883I29J8*
X1404Y7876I30*
G03X1400Y7844I114J32*
G01Y7667*
G03X1404Y7636I118*
G02X1405Y7628I29J8*
X1404Y7620I30*
G03X1400Y7588I114J32*
G01Y7411*
G03X1447Y7317I118*
G02X1459Y7293I18J24*
G01Y7155*
G03X1490Y7103I59*
G02X1506Y7077I14J26*
X1476Y7047I30*
G01X1297*
G03X1265Y7037J59*
G02X1249Y7032I16J25*
X1219Y7062J30*
G01Y7628*
G03X1160Y7687I59*
G01X412*
G03X352Y7628J59*
G01Y5541*
G03X412Y5482I60*
G01X1160*
G03X1219Y5541J59*
G01Y6323*
G02X1249Y6353I30*
X1265Y6348J30*
G03X1297Y6338I32J49*
G01X2164*
G03X2223Y6397J59*
G01Y6988*
G03X2178Y7045I59*
G02X2155Y7074I7J29*
X2172Y7101I30*
G03X2207Y7155I24J54*
G01Y7293*
G02X2219Y7317I30*
G03X2266Y7411I71J94*
G01Y7582*
G02X2296Y7612I30*
G01X2495*
G02X2516Y7604J30*
G01X2564Y7555*
G02X2573Y7534I21J21*
G01Y7244*
G03X2645Y7135I118*
G02X2663Y7112I11J28*
G03Y7110I146J23*
G02X2664Y7105I29J5*
G01Y7064*
G02X2646Y7037I30*
G03X2575Y6929I47J108*
G01Y6535*
G03X2693Y6417I118*
G01X2930*
G03X3048Y6535J118*
G01Y6929*
G03X2977Y7037I118*
G02X2959Y7064I12J27*
G01Y7109*
G02X2977Y7136I30*
G03X3045Y7244I50J108*
G01Y7637*
G03X2927Y7755I118*
G01X2794*
G02X2773Y7764J30*
G01X2754Y7783*
G02X2745Y7804I21J21*
X2775Y7834I30*
G01X2927*
G03X3045Y7952J118*
G01Y8346*
G03X2927Y8464I118*
G01X2690*
G03X2572Y8346J118*
G01Y8322*
G02X2549Y8293I30*
G03X2478Y8254I33J144*
G01X2392Y8168*
G02X2371Y8159I21J21*
G01X2296*
G02X2266Y8189J30*
G01Y8356*
G03X2219Y8450I118*
G02X2207Y8474I18J24*
X2213Y8490I30*
G03X2223Y8523I49J33*
G01Y9114*
G03X2164Y9173I59*
G01X1297*
G03X1265Y9163J59*
G02X1249Y9158I16J25*
X1219Y9188J30*
G01Y9972*
G03X1160Y10031I59*
G01X412*
G03X352Y9972J59*
G01Y21220*
X616*
Y10549*
G03X734Y10431I118*
G01X1325*
G03X1443Y10549J118*
G01Y12045*
G03X1333Y12163I118*
G02X1305Y12192I2J29*
G01Y12373*
G02X1333Y12403I30*
G03X1443Y12521I8J118*
G01Y14017*
G03X1325Y14135I118*
G01X735*
G03X616Y14017J118*
G01Y12521*
G03X726Y12403I119*
G02X754Y12373I2J30*
G01Y12192*
G02X726Y12163I30*
G03X616Y12045I8J118*
G01Y21220*
X675*
Y16728*
G03X793Y16610I118*
G01X1117*
G02X1147Y16580J30*
G01Y16458*
G02X1117Y16428I30*
G01X793*
G03X675Y16310J118*
G01Y14794*
G03X793Y14676I118*
G01X2053*
G03X2153Y14731J118*
G02X2178Y14745I25J16*
G01X2294*
G02X2319Y14731J30*
G03X2419Y14676I100J63*
G01X3005*
G02X3035Y14646J30*
G01Y14387*
G03X3108Y14200I276*
G02X3116Y14179I21J21*
G01Y14165*
G02X3089Y14135I29*
G03X2979Y14017I8J118*
G01Y12521*
G03X3097Y12403I118*
G01X3687*
G03X3805Y12521J118*
G01Y14017*
G03X3695Y14135I118*
G02X3668Y14165I3J30*
G01Y14306*
G03X3594Y14493I276*
G02X3586Y14513I22J20*
G01Y14646*
G02X3616Y14676I30*
G01X3679*
G03X3797Y14794J118*
G01Y15247*
G03X3679Y15365I118*
G01X2419*
G03X2319Y15310J118*
G02X2294Y15296I25J16*
G01X2178*
G02X2153Y15310J30*
G03X2053Y15365I100J63*
G01X793*
G03X675Y15247J118*
G01Y15857*
G03X793Y15739I118*
G01X2053*
G03X2153Y15794J118*
G02X2178Y15808I25J16*
G01X2294*
G02X2319Y15794J30*
G03X2419Y15739I100J63*
G01X3679*
G03X3797Y15857J118*
G01Y16310*
G03X3679Y16428I118*
G01X3354*
G02X3324Y16458J30*
G01Y16580*
G02X3354Y16610I30*
G01X3679*
G03X3797Y16728J118*
G01Y17181*
G03X3679Y17299I118*
G01X2419*
G03X2319Y17244J118*
G02X2294Y17230I25J16*
G01X2178*
G02X2153Y17244J30*
G03X2053Y17299I100J63*
G01X793*
G03X675Y17181J118*
G01Y17791*
G03X793Y17673I118*
G01X2053*
G03X2153Y17728J118*
G02X2178Y17742I25J16*
G01X2294*
G02X2319Y17728J30*
G03X2419Y17673I100J63*
G01X3679*
G03X3797Y17791J118*
G01Y18244*
G03X3679Y18362I118*
G01X2419*
G03X2319Y18307J118*
G02X2294Y18293I25J16*
G01X2178*
G02X2153Y18307J30*
G03X2053Y18362I100J63*
G01X1728*
G02X1698Y18392J30*
G01Y18480*
G03X1608Y18685I275*
G02X1598Y18705I20J22*
G01X1513Y20537*
G03X1395Y20650I118J5*
G01X805*
G03X687Y20532J118*
G01Y19942*
G03X691Y19908I118*
G01X823Y19462*
G02X824Y19453I29J9*
G01Y18798*
G03X905Y18603I276*
G01X1095Y18413*
G02X1104Y18392I21J21*
X1074Y18362I30*
G01X793*
G03X675Y18244J118*
G01Y21220*
X1687*
Y20237*
G03X2100Y19823I413*
X2131Y19825J414*
G01X3973Y19961*
G02X3976I3J30*
G01X4479*
Y17883*
G03X4538Y17824I59*
G01X4774*
G03X4833Y17883J59*
G01Y18276*
G03X4774Y18335I59*
G01X4538*
G03X4479Y18276J59*
G01Y19961*
X5041*
G02X5062Y19952J30*
G01X6179Y18835*
G02X6188Y18814I21J21*
X6158Y18784I30*
G01X6011*
G03X5930Y18753J118*
G02X5910Y18745I20J22*
G01X5788*
G02X5772Y18749J30*
G03X5649Y18784I123J201*
X5413Y18548J236*
X5649Y18312I236*
X5772Y18346J236*
G02X5788Y18351I16J25*
G01X5910*
G02X5930Y18343J30*
G03X6011Y18312I81J87*
G01X6399*
G02X6429Y18282J30*
G01Y18263*
G02X6399Y18233I30*
G01X6011*
G03X5892Y18115J118*
G01Y17878*
G03X6000Y17761I119*
G02X6027Y17731I2J30*
G01Y17462*
G02X6012Y17436I29*
X5998Y17432I14J26*
G01X5997*
X5912*
G02X5897Y17436J30*
G03X5837Y17453I60J101*
G01X5573*
G03X5513Y17436J118*
G02X5498Y17432I15J26*
G01X5497*
X5412*
G02X5397Y17436J30*
X5382Y17462I15J26*
G01Y17712*
G02Y17717I30*
G03X5384Y17745I175J28*
G01Y17764*
G02X5396Y17788I30*
G03X5443Y17883I71J95*
G01Y18276*
G03X5325Y18394I118*
G01X5089*
G03X4971Y18276J118*
G01Y17883*
G03X5017Y17789I118*
G02X5029Y17765I18J24*
Y17762I30*
G03X5027Y17742I176J20*
G01Y17462*
G02X5013Y17436I29*
G03X4955Y17335I60J101*
G01Y16744*
G03X5073Y16626I118*
G01X5337*
G03X5408Y16650J118*
G02X5424Y16656I18J24*
G01X5475Y16660*
G02X5478I3J30*
X5508Y16630J30*
G01Y15706*
G03X5565Y15567I197*
G01X6499Y14633*
G02X6508Y14612I21J21*
G01Y13669*
G02X6497Y13646I30*
G03X6455Y13562I76J91*
G02X6425Y13534I30J2*
X6395Y13561J30*
G03X6337Y13614I58J6*
G01X6073*
G03X6014Y13561J59*
G02X5984Y13534I30J3*
X5954Y13562J30*
G03X5837Y13673I117J7*
G01X5573*
X5572*
X5571*
X5338*
X5337*
X5336*
X5073*
G03X4955Y13555J118*
G01Y12964*
G03X5035Y12852I118*
G02X5056Y12824I9J28*
G01Y12635*
G02X5046Y12613I30*
G03X4967Y12437I157J176*
X5203Y12201I236*
X5286Y12216J236*
G02X5297Y12218I11J28*
X5327Y12188J30*
G01Y12149*
G02X5317Y12127I30*
G03X5238Y11951I157J176*
X5474Y11715I236*
X5534Y11722J236*
G02X5542Y11723I8J29*
X5572Y11694J30*
G03X5587Y11613I236J2*
G02X5589Y11602I28J11*
X5559Y11572I30*
G01X3835*
G02X3805Y11602J30*
G01Y12045*
G03X3687Y12163I118*
G01X3096*
G03X2978Y12045J118*
G01Y10549*
G03X3096Y10431I118*
G01X3687*
G03X3805Y10549J118*
G01Y10991*
G02X3835Y11021I30*
G01X6325*
G02X6355Y10991J30*
G01Y10988*
G02X6335Y10959I30*
G03X6178Y10737I79J222*
X6414Y10501I236*
X6427J236*
G01X6429*
G02X6450Y10492J30*
G01X6591Y10351*
G02X6600Y10330I21J21*
G01Y10079*
G02X6570Y10049I30*
X6549Y10058J30*
G01X5946Y10661*
G02X5937Y10682I21J21*
G01Y10684*
G03Y10697I236J13*
X5706Y10933I236*
G01X5213Y10946*
X5212*
G03X5205I7J236*
X4968Y10710J236*
X5032Y10549I237*
G02X5040Y10528I22J21*
X5037Y10515I30*
G01X5024Y10490*
G02X4997Y10474I27J14*
G01X4191*
G03X4086Y10430J148*
G01X3971Y10315*
G03X3928Y10211I105J104*
G01Y10164*
G02X3906Y10135I30*
G03X3820Y10021I32J114*
G01Y9864*
Y9863*
Y9862*
Y9629*
Y9628*
Y9627*
Y9470*
G03X3909Y9355I118*
G02X3931Y9332I7J29*
G03X3971Y9257I145J30*
G01X4025Y9204*
G02X4034Y9182I21J22*
G01Y9159*
G02X4013Y9131I30*
G03X3931Y9019I37J112*
G01Y8428*
G03X4050Y8310I119*
G01X4313*
G03X4431Y8421J118*
G02X4461Y8449I30J2*
X4491Y8422J30*
G03X4550Y8369I59J6*
G01X4813*
G03X4872Y8422J59*
G02X4902Y8449I30J3*
X4932Y8421J30*
G03X5050Y8310I118J7*
G01X5313*
X5314*
X5315*
X5548*
X5549*
X5550*
X5813*
G03X5931Y8428J118*
G01Y9019*
G03X5889Y9109I118*
G02X5878Y9132I19J23*
G01Y9402*
G02X5883Y9417I30*
G03X5918Y9541I202J124*
X5754Y9766I237*
G02X5742Y9773I9J29*
G01X5688Y9827*
G03X5549Y9885I139J139*
G01X5450*
G02X5421Y9909J30*
G03X5352Y9993I116J24*
G02X5334Y10020I12J27*
G01Y10145*
G03X5291Y10249I147*
G01X5136Y10404*
G02X5127Y10425I21J21*
X5131Y10439I30*
G01X5142Y10460*
G02X5168Y10476I26J14*
X5172J30*
G03X5205Y10474I33J234*
X5218J236*
G01X5219*
G02X5240Y10466J30*
G01X6179Y9527*
G02X6188Y9505I21J22*
G01Y8098*
G03X6231Y7994I148*
G01X6600Y7625*
G02X6609Y7604I21J21*
X6600Y7583I30*
G03X6546Y7498I168J166*
G02X6518Y7479I28J11*
X6497Y7487J30*
G01X6034Y7950*
G03X5930Y7994I104J104*
G01X4210*
G02X4188Y8002J30*
G01X3937Y8254*
G03X3833Y8297I104J105*
G01X3626*
G02X3596Y8327J30*
G01Y8346*
G03X3478Y8464I118*
G01X3242*
G03X3123Y8346J118*
G01Y7952*
G03X3242Y7834I119*
G01X3478*
G03X3596Y7952J118*
G01Y7972*
G02X3626Y8002I30*
G01X3759*
G02X3781Y7993J30*
G01X3984Y7790*
G02X3992Y7769I21J21*
X3984Y7747I29*
G01X3833Y7597*
G02X3812Y7588I21J21*
G01X3626*
G02X3596Y7618J30*
G01Y7637*
G03X3478Y7755I118*
G01X3242*
G03X3124Y7637J118*
G01Y7244*
G03X3242Y7126I118*
G01X3478*
G03X3596Y7244J118*
G01Y7263*
G02X3626Y7293I30*
G01X3696*
G02X3726Y7263J30*
X3720Y7245I30*
G03X3690Y7156I117J89*
G01Y6992*
G02X3681Y6971I30*
G01X3647Y6937*
G02X3626Y6928I21J21*
X3597Y6952J30*
G03X3481Y7047I116J23*
G01X3245*
G03X3127Y6929J118*
G01Y6535*
G03X3245Y6417I118*
G01X3481*
G03X3599Y6535J118*
G01Y6554*
G02X3629Y6584I30*
G01X3651*
G03X3755Y6627J148*
G01X3880Y6752*
G02X3901Y6761I21J21*
X3931Y6731J30*
G01Y6420*
G03X4050Y6302I119*
G01X4313*
G03X4431Y6413J118*
G02X4461Y6441I30J2*
X4491Y6414J30*
G03X4550Y6361I59J6*
G01X4813*
G03X4872Y6420J59*
G01Y7011*
G03X4813Y7070I59*
G01X4550*
G03X4491Y7017J59*
G02X4461Y6990I30J3*
X4431Y7018J30*
G03X4399Y7092I118J7*
G02X4391Y7112I22J20*
X4421Y7142I30*
G01X5442*
G02X5472Y7112J30*
X5464Y7092I30*
G03X5432Y7018I86J81*
G02X5402Y6990I30J2*
X5372Y7017J30*
G03X5313Y7070I59J6*
G01X5050*
G03X4990Y7011J59*
G01Y6420*
G03X5050Y6361I60*
G01X5313*
G03X5372Y6414J59*
G02X5402Y6441I30J3*
X5432Y6413J30*
G03X5442Y6370I118J7*
G02X5445Y6358I27J12*
G01Y6095*
G02X5436Y6074I30*
G01X4233Y4871*
G03X4164Y4704I167J167*
G01Y4362*
G02X4145Y4334I30*
G03X3692Y3673I255J661*
G01Y2885*
G03X4400Y2176I708*
X4649Y2222J709*
G02X4660Y2224I11J28*
X4681Y2215J30*
G01X5107Y1789*
G03X5141Y1760I194J195*
G02X5145Y1757I18J24*
G01X5349Y1553*
G03X5544Y1472I195J195*
X5819Y1748J276*
X5739Y1942I275*
G01X5502Y2179*
G03X5468Y2208I195J195*
G02X5464Y2211I17J24*
G01X5071Y2605*
G02X5062Y2626I21J21*
X5064Y2636I30*
G03X5109Y2885I664J249*
G01Y3673*
G03X4656Y4334I709*
G02X4637Y4362I11J28*
G01Y4594*
G02X4645Y4615I30*
G01X5035Y5005*
G02X5057Y5014I22J21*
X5078Y5005J30*
G01X5220Y4862*
G02X5229Y4841I21J21*
G01Y4683*
G03X5288Y4581I118*
G01Y3620*
G03X5347Y3561I59*
G01X6040*
Y3119*
G03X6075Y2996I236*
G02X6079Y2980I26J16*
G01Y1796*
G03X6137Y1657I197*
G01X6546Y1247*
G03X6686Y1190I140J139*
G01X6695*
G02X6725Y1160J30*
G01Y776*
G03X6843Y658I118*
G01X7158*
G03X7262Y720J118*
G02X7288Y736I26J14*
X7307Y730J30*
G03X7343Y717I36J46*
G01X7658*
G03X7717Y776J59*
G01Y1997*
G03X7658Y2056I59*
G01X7343*
G03X7307Y2043J59*
G02X7288Y2037I19J24*
X7262Y2053J30*
G03X7158Y2115I104J56*
G01X6843*
G03X6725Y1997J118*
G01Y1698*
G02X6695Y1668I30*
X6674Y1677J30*
G01X6481Y1869*
G02X6473Y1890I22J21*
G01Y2980*
G02X6477Y2996I30*
G03X6512Y3119I201J123*
X6276Y3356I236*
X6040Y3119J237*
G01Y3561*
X6607*
G03X6666Y3620J59*
G01Y4073*
G03X6607Y4132I59*
G01X5347*
G03X5288Y4073J59*
G01Y4581*
G03X5347Y4565I59J102*
G01X6607*
G03X6725Y4683J118*
G01Y5136*
G03X6607Y5254I118*
G01X5509*
G02X5488Y5263J30*
G01X5412Y5339*
G02X5403Y5360I21J21*
X5412Y5381I30*
G01X5848Y5818*
G03X5918Y5985I167J167*
G01Y6080*
G02X5948Y6110I30*
X5968Y6102J30*
G03X6134Y6034I166J169*
X6257Y6069J237*
G02X6273Y6074I16J25*
G01X6335*
G02X6355Y6066J30*
G03X6435Y6034I80J87*
G01X6829*
G03X6937Y6105J119*
G02X6965Y6123I28J12*
G01X7024*
G02X7028J30*
G03X7049Y6121I21J146*
G01X7179*
G02X7197Y6115J30*
G03X7268Y6092I71J95*
G01X7858*
G02X7880Y6083J30*
G01X7889Y6074*
G02X7898Y6052I21J22*
G01Y5930*
G02X7875Y5901I30*
G03X7803Y5861I33J144*
G01X7586Y5644*
G02X7565Y5635I21J21*
X7544Y5644J30*
G01X7535Y5653*
G02X7526Y5674I21J21*
X7529Y5687I30*
G03X7552Y5789I213J102*
X7316Y6025I236*
X7080Y5789J236*
Y5776I236*
G01Y5774*
G02X7071Y5753I30*
G01X6946Y5628*
G02X6925Y5619I21J21*
X6908Y5625J30*
G01X6901Y5630*
G02X6888Y5654I17J24*
G01Y5838*
G03X6829Y5897I59*
G01X6435*
G03X6376Y5838J59*
G01Y5601*
G03X6435Y5542I59*
G01X6810*
G02X6827Y5537J30*
G01X6842Y5526*
G02X6855Y5502I17J24*
Y5497I30*
G03X6853Y5474I146J23*
G01Y3742*
G02X6827Y3712I30*
G03X6725Y3595I16J117*
G01Y2375*
G03X6843Y2256I118*
G01X7158*
X7159Y2257*
Y2256*
X7342*
Y2257*
X7343Y2256*
X7658*
X7659Y2257*
Y2256*
X7784*
Y776*
G03X7843Y717I59*
G01X8158*
G03X8194Y730J59*
G02X8213Y736I19J24*
X8239Y720J30*
G03X8343Y658I104J56*
G01X8658*
G03X8762Y720J118*
G02X8788Y736I26J14*
X8807Y730J30*
G03X8843Y717I36J46*
G01X9158*
G03X9217Y776J59*
G01Y1997*
G03X9158Y2056I59*
G01X8843*
G03X8807Y2043J59*
G02X8788Y2037I19J24*
X8762Y2053J30*
G03X8658Y2115I104J56*
G01X8343*
G03X8239Y2053J118*
G02X8213Y2037I26J14*
X8194Y2043J30*
G03X8158Y2056I36J46*
G01X7843*
G03X7784Y1997J59*
G01Y2256*
X7842*
Y2257*
X7843Y2256*
X8158*
X8159Y2257*
Y2256*
X8342*
Y2257*
X8343Y2256*
X8658*
X8659Y2257*
Y2256*
X8842*
Y2257*
X8843Y2256*
X9158*
G03X9276Y2375J119*
G01Y2807*
G02X9306Y2837I30*
G01X9400*
G02X9423Y2827J30*
G03X9599Y2749I176J158*
X9835Y2985J236*
X9599Y3221I236*
X9423Y3142J236*
G02X9400Y3132I23J20*
G01X9306*
G02X9276Y3162J30*
G01Y3595*
G03X9158Y3713I118*
G01X8843*
G03X8769Y3687J118*
G02X8751Y3681I18J24*
X8732Y3687J30*
G03X8674Y3712I74J92*
G02X8648Y3741I4J30*
G03Y3747I147J2*
G01Y3749*
G02X8658Y3771I30*
G03X8736Y3947I158J176*
X8500Y4183I236*
X8263Y3947J236*
X8342Y3771I237*
G02X8352Y3748I20J23*
G01Y3742*
G02X8326Y3712I30*
G03X8269Y3687I17J117*
G02X8251Y3681I18J24*
X8232Y3687J30*
G03X8174Y3712I74J92*
G02X8148Y3742I4J30*
G01Y4049*
G02X8157Y4070I30*
G01X8573Y4486*
G03X8616Y4590I104J104*
G01Y5314*
G02X8646Y5344I30*
G01X8724*
Y4596*
G03X8783Y4537I59*
G01X9019*
G03X9078Y4596J59*
G01Y4990*
G03X9019Y5049I59*
G01X8783*
G03X8724Y4990J59*
G01Y5344*
X8725*
G03X8756Y5348J118*
G02X8764Y5349I8J29*
X8772Y5348J30*
G03X8803Y5344I31J114*
G01X8921*
G03X8953Y5348J118*
G02X8961Y5349I8J29*
X8969Y5348J30*
G03X9000Y5344I31J114*
G01X9118*
G03X9150Y5348J118*
G02X9158Y5349I8J29*
X9166Y5348J30*
G03X9197Y5344I31J114*
G01X9275*
G02X9305Y5314J30*
G01Y5126*
G02X9287Y5098I30*
G03X9216Y4990I47J108*
G01Y4596*
G03X9334Y4478I118*
G01X9571*
G03X9649Y4508J118*
G02X9669Y4516I20J22*
X9699Y4486J30*
G01Y3646*
G03X9742Y3541I148*
G01X9988Y3295*
G02X9997Y3274I21J21*
G01Y2790*
G02X9975Y2762I30*
G03X9889Y2648I32J114*
G01Y2490*
Y2489*
Y2256*
Y2255*
Y2254*
Y2097*
G03X9974Y1983I118*
G02X9996Y1955I8J28*
G01Y1874*
G02X9966Y1844I30*
G01X9946*
G03X9828Y1726J118*
G01Y1490*
G03X9887Y1388I118*
G01Y939*
G03X9946Y880I59*
G01X10340*
G03X10399Y939J59*
G01Y1175*
G03X10340Y1234I59*
G01X9946*
G03X9887Y1175J59*
G01Y1388*
G03X9946Y1372I59J102*
G01X10340*
G03X10458Y1490J118*
G01Y1726*
G03X10340Y1844I118*
G01X10321*
G02X10291Y1874J30*
G01Y1954*
G02X10313Y1983I30*
G03X10401Y2097I31J114*
G01Y2254*
Y2255*
Y2256*
Y2489*
Y2490*
Y2648*
G03X10314Y2762I119*
G02X10292Y2790I8J28*
G01Y3348*
G03X10249Y3452I147*
G01X10003Y3698*
G02X9994Y3719I21J21*
G01Y5373*
G02X10024Y5403I30*
G01X10063*
G02X10087Y5391J30*
G03X10181Y5344I94J71*
G01X10299*
G03X10418Y5462J118*
G01Y5584*
G02X10441Y5613I29*
G03X10512Y5653I33J144*
G01X10857Y5997*
G03X10896Y6068I105J104*
G02X10925Y6092I29J6*
G01X11047*
G03X11166Y6210J118*
G01Y6328*
G03X11161Y6359I119*
G02X11160Y6367I29J8*
X11161Y6375I30*
G03X11166Y6407I114J32*
G01Y6525*
G03X11161Y6556I119*
G02X11160Y6564I29J8*
X11161Y6572I30*
G03X11166Y6603I114J31*
G01Y6722*
G03X11161Y6753I119*
G02X11160Y6761I29J8*
X11161Y6769I30*
G03X11166Y6800I114J31*
G01Y6879*
G02X11195Y6909I29*
G01X11467*
G02X11496Y6879J30*
X11484Y6854I29*
G03X11387Y6663I139J191*
X11465Y6487I236*
G02X11475Y6465I19J22*
G01Y4544*
G02X11467Y4523I29*
G01X11347Y4403*
G03X11306Y4322I105J104*
G02X11288Y4299I30J5*
G03X11215Y4191I46J108*
G01Y3797*
G03X11285Y3689I119*
G02X11302Y3662I12J27*
G01Y3515*
G02X11273Y3485I29*
G01X11135*
G03X11017Y3366J119*
G01Y3288*
G02X10987Y3258I30*
G01X10830*
G03X10740Y3227J147*
G02X10721Y3221I19J24*
G01X10719*
G03X10705I14J236*
X10469Y2985J236*
X10705Y2749I236*
X10936Y2939J236*
G02X10966Y2963I30J6*
G01X10987*
G02X11017Y2933J30*
G01Y1083*
G03X11135Y965I118*
G01X11765*
G03X11883Y1083J118*
G01Y1595*
G03X11765Y1713I118*
G01X11135*
G03X11017Y1595J118*
G01Y2855*
G03X11135Y2737I118*
G01X11765*
G03X11883Y2855J118*
G01Y3366*
G03X11765Y3485I118*
G01X11628*
G02X11598Y3515J30*
G01Y3661*
G02X11616Y3688I30*
G03X11688Y3797I46J109*
G01Y4191*
G03X11663Y4264I118*
G02X11656Y4282I23J18*
X11665Y4303I30*
G01X11727Y4366*
G03X11771Y4470I104J104*
G01Y6465*
G02X11781Y6487I30*
G03X11826Y6542I158J176*
G01Y3797*
G03X11885Y3738I59*
G01X12121*
G03X12180Y3797J59*
G01Y4191*
G03X12121Y4250I59*
G01X11885*
G03X11826Y4191J59*
G01Y6542*
G03X11859Y6663I203J121*
X11762Y6854I236*
G02X11750Y6879I18J25*
X11780Y6909I30*
G01X12450*
Y5334*
G03X12509Y5275I59*
G01X12903*
G03X12962Y5334J59*
G01Y5570*
G03X12903Y5629I59*
G01X12509*
G03X12450Y5570J59*
G01Y6909*
X14047*
G02X14068Y6900J30*
G01X14209Y6759*
G02X14217Y6738I21J21*
G01Y5995*
G02X14188Y5965I29*
G01X14070*
G03X13952Y5847J118*
G01Y5079*
G02X13922Y5050I30*
G01X13487*
G03X13469Y5048J148*
G02X13465I4J30*
G01X13038*
G02X13011Y5066J30*
G03X12903Y5137I108J47*
G01X12509*
G03X12391Y5019J118*
G01Y4782*
G03X12509Y4664I118*
G01X12903*
G03X13011Y4735J118*
G02X13038Y4753I27J12*
G01X13486*
G03X13504Y4754J148*
G02X13508I4J30*
G01X13922*
G02X13952Y4724J30*
G01Y3957*
G03X14070Y3839I118*
G01X14167*
Y2855*
G03X14226Y2752I118*
G01Y1083*
G03X14285Y1024I59*
G01X14915*
G03X14974Y1083J59*
G01Y1595*
G03X14915Y1654I59*
G01X14285*
G03X14226Y1595J59*
G01Y2752*
G03X14285Y2737I59J103*
G01X14915*
G03X15033Y2855J118*
G01Y3366*
G03X14915Y3485I118*
G01X14285*
G03X14167Y3366J119*
G01Y3839*
X14660*
G03X14778Y3957J118*
G01Y5847*
G03X14660Y5965I118*
G01X14543*
G02X14513Y5995J30*
G01Y6811*
G03X14470Y6916I148*
G01X14226Y7159*
G02X14217Y7180I21J21*
X14226Y7202I30*
G01X14470Y7445*
G03X14509Y7516I105J105*
G02X14538Y7540I29J6*
G01X14660*
G03X14778Y7658J118*
G01Y9548*
G03X14660Y9666I118*
G01X14070*
G03X13952Y9548J118*
G01Y7658*
G03X14070Y7540I118*
G01X14074*
G02X14104Y7510J30*
X14095Y7489I30*
G01X14018Y7411*
G02X13997Y7403I21J22*
G01X13003*
G02X12973Y7433J30*
X12974Y7438I30*
G03X12976Y7460I116J22*
G01Y7696*
G03X12858Y7815I118*
G01X12464*
G03X12346Y7696J119*
G01Y7460*
G03X12348Y7437I118*
G02X12349Y7431I29J6*
X12319Y7401I30*
G01X11195*
G02X11166Y7431J30*
G01Y7509*
G03X11118Y7603I119*
G02X11106Y7627I18J24*
G01Y7666*
G02X11136Y7696I30*
G01X11239*
G03X11344Y7739J148*
G01X11374Y7769*
G02X11376Y7771I21J21*
G03X11387Y7782I93J115*
G01X11392Y7786*
G02X11413Y7794I21J21*
X11434Y7785J29*
G03X11519Y7750I85J83*
G01X11912*
G03X12030Y7868J118*
G01Y8104*
G03X11912Y8222I118*
G01X11519*
G03X11410Y8152J118*
G02X11383Y8134I27J12*
G03X11279Y8090J148*
G01X11217Y8028*
G02X11195Y8020I22J21*
X11166Y8049J29*
G01Y8099*
G03X11161Y8131I119*
G02X11160Y8139I29J8*
X11161Y8147I30*
G03X11166Y8178I114J31*
G01Y8296*
G03X11161Y8328I119*
G02X11160Y8336I29J8*
X11161Y8344I30*
G03X11166Y8375I114J31*
G01Y8493*
G03X11047Y8611I119*
G01X10930*
G02X10900Y8641J30*
G01Y8704*
G03Y8711I148*
G01Y8713*
G02X10910Y8735I29*
G03X10988Y8911I158J176*
X10752Y9147I236*
X10516Y8911J236*
X10594Y8735I236*
G02X10604Y8712I20J23*
G01Y8704*
G03Y8694I148*
G02X10605Y8692I29J2*
G01Y8641*
G02X10575Y8611I30*
G01X10457*
G02X10436Y8620J30*
G01X10427Y8629*
G02X10418Y8651I20J22*
G01Y9241*
G03X10414Y9271I119*
G02X10413Y9279I29J8*
X10443Y9309I30*
G01X10594*
G02X10616Y9299J30*
G03X10792Y9220I176J158*
X11028Y9457J237*
X10792Y9693I236*
X10616Y9614J236*
G02X10594Y9604I22J20*
G01X10009*
G02X9979Y9634J30*
X9980Y9641I30*
X9985Y9653I29J7*
G01X10074Y9767*
G02X10097Y9779I23J18*
X10100J30*
G03X10122Y9778I22J235*
X10358Y10014J236*
X10344Y10096I236*
G02X10342Y10106I28J10*
X10372Y10136I30*
G01X10455*
G02X10477Y10126J30*
G03X10653Y10047I176J158*
X10889Y10284J237*
X10653Y10520I236*
X10477Y10441J236*
G02X10455Y10431I22J20*
G01X9445*
G03X9341Y10388J147*
G01X8983Y10031*
G02X8962Y10022I21J21*
X8945Y10027J30*
G03X8877Y10049I68J96*
G01X8483*
G03X8365Y9931J118*
G01Y9694*
G03X8483Y9576I118*
G01X8507*
G02X8536Y9553J30*
G03X8576Y9482I144J33*
G01X8647Y9410*
G02X8656Y9389I21J21*
X8626Y9359I30*
G01X8606*
G03X8575Y9355J118*
G02X8567Y9354I8J29*
X8559Y9355J30*
G03X8528Y9359I31J114*
G01X8410*
G03X8315Y9312J118*
G02X8291Y9300I24J18*
G01X8252*
G02X8228Y9312J30*
G03X8134Y9359I94J71*
G01X8016*
G03X7898Y9241J118*
G01Y9123*
G02X7868Y9094I30*
G01X7867*
G02X7845Y9102J29*
G01X7626Y9321*
G02X7618Y9343I22J22*
G01Y9571*
G02X7636Y9599I30*
G03X7706Y9707I48J108*
G01Y10101*
G03X7588Y10219I118*
G01X7352*
G03X7269Y10185J118*
G02X7248Y10176I21J21*
X7218Y10206J30*
G01Y10903*
G02X7227Y10925I30*
G01X7765Y11463*
G02X7786Y11472I21J21*
G01X7844*
Y9707*
G03X7903Y9648I59*
G01X8139*
G03X8198Y9707J59*
G01Y10101*
G03X8139Y10160I59*
G01X7903*
G03X7844Y10101J59*
G01Y11472*
X7889*
G02X7911Y11462J30*
G03X8087Y11383I176J157*
X8323Y11619J236*
X8087Y11856I236*
X7911Y11777J237*
G02X7889Y11767I22J20*
G01X7713*
G03X7608Y11724J148*
G01X7515Y11631*
G02X7494Y11622I21J21*
X7464Y11652J30*
X7466Y11661I30*
G03X7480Y11749I261J88*
G01Y12901*
G02X7510Y12931I30*
X7531Y12922J30*
G03X7573Y12905I42J42*
G01X7837*
G03X7896Y12964J59*
G01Y13555*
G03X7837Y13614I59*
G01X7573*
G03X7514Y13561J59*
G02X7484Y13534I30J3*
X7454Y13562J30*
G03X7337Y13673I117J7*
G01X7073*
G03X7001Y13649J118*
G02X6986Y13643I18J24*
G01X6934Y13639*
G02X6931I3J30*
X6901Y13669J30*
G01Y14706*
G03X6844Y14845I196*
G01X5910Y15779*
G02X5901Y15800I21J21*
G01Y16630*
G02X5913Y16654I30*
X5931Y16660I18J24*
G01X5933*
X5981Y16658*
G02X5999Y16652I1J30*
G03X6073Y16626I74J92*
G01X6336*
X6337*
X6338*
X6571*
X6572*
X6573*
X6837*
G03X6855Y16627J118*
G02X6860Y16628I5J29*
X6890Y16598J30*
G01Y16470*
G03X6982Y16247I315*
G01X6983Y16246*
G03X7205Y16154I222J223*
X7520Y16469J315*
Y16490I315*
G02Y16493I30J3*
G01Y16658*
G02X7550Y16688I30*
X7557Y16687J30*
G03X7573Y16685I16J57*
G01X7837*
G03X7896Y16744J59*
G01Y17335*
G03X7837Y17394I59*
G01X7573*
G03X7514Y17341J59*
G02X7484Y17314I30J3*
X7454Y17342J30*
G03X7419Y17419I117J7*
G02X7409Y17441I20J22*
X7418Y17462I30*
G01X7429Y17473*
G02X7450Y17481I21J21*
G01X8457*
G02X8478Y17473J29*
G01X8490Y17461*
G02X8498Y17440I21J21*
X8490Y17418I29*
G03X8455Y17342I83J83*
G02X8425Y17314I30J2*
X8395Y17341J30*
G03X8337Y17394I58J6*
G01X8073*
G03X8014Y17335J59*
G01Y16744*
G03X8073Y16685I59*
G01X8337*
G03X8352Y16687J59*
G02X8360Y16688I8J29*
X8390Y16658J30*
G01Y16459*
G03X8705Y16144I315*
X9020Y16459J315*
G01Y16598*
G02X9050Y16628I30*
X9054Y16627J30*
G03X9073Y16626I19J117*
G01X9337*
G03X9346J118*
G01X9347*
X9481Y16631*
X9482Y16632*
G02X9512Y16602J30*
X9507Y16585I30*
G03X9468Y16455I198J130*
X9705Y16219I237*
X9941Y16455J236*
X9891Y16600I236*
G02X9885Y16618I24J18*
X9899Y16644I30*
G03X9911Y16652I62J100*
G02X9930Y16659I19J23*
G01X9977Y16660*
X9978*
G02X9997Y16654J30*
X10008Y16630I19J24*
G01Y15775*
G02X9999Y15754I30*
G01X9065Y14820*
G03X9008Y14681I140J139*
G01Y13669*
G02X8978Y13639I30*
X8975J30*
G01X8924Y13643*
G02X8908Y13649I2J30*
G03X8837Y13673I71J94*
G01X8573*
G03X8455Y13562J118*
G02X8425Y13534I30J2*
X8395Y13561J30*
G03X8337Y13614I58J6*
G01X8073*
G03X8014Y13555J59*
G01Y12964*
G03X8073Y12905I59*
G01X8337*
G03X8378Y12922J59*
G02X8399Y12931I21J21*
X8424Y12917J30*
G01Y10246*
G03X8483Y10187I59*
G01X8877*
G03X8936Y10246J59*
G01Y10482*
G03X8877Y10541I59*
G01X8483*
G03X8424Y10482J59*
G01Y12917*
G02X8429Y12901I25J16*
G01Y11745*
G03X8510Y11550I276*
G01X8956Y11104*
G03X9150Y11023I194J195*
G01X11460*
Y8419*
G03X11519Y8360I59*
G01X11912*
G03X11971Y8419J59*
G01Y8655*
G03X11912Y8714I59*
G01X11519*
G03X11460Y8655J59*
G01Y11023*
X11999*
G02X12002J30*
G03X12025Y11021I32J274*
G02X12054Y10991I1J30*
G01Y10549*
G03X12172Y10431I118*
G01X12405*
Y8011*
G03X12464Y7952I59*
G01X12858*
G03X12917Y8011J59*
G01Y8248*
G03X12858Y8307I59*
G01X12464*
G03X12405Y8248J59*
G01Y10431*
X12763*
G03X12881Y10549J118*
G01Y12045*
G03X12763Y12163I118*
G01X12172*
G03X12054Y12045J118*
G01Y11604*
G02X12024Y11574I30*
G01X10429*
G02X10399Y11604J30*
X10403Y11618I30*
G03X10427Y11723I212J105*
X10191Y11959I236*
X10178J236*
G01X10177*
G02X10155Y11968J30*
G01X10140Y11983*
G03X10036Y12027I104J104*
G01X9892*
G02X9863Y12048J29*
G03X9800Y12123I114J31*
G02X9783Y12150I13J27*
X9792Y12172I30*
G03X9810Y12214I41J42*
G01Y12489*
G03X9751Y12548I59*
G01X9593*
G03X9534Y12495J59*
G02X9505Y12469I29J3*
X9475Y12497J29*
G03X9459Y12548I118J8*
G02X9455Y12563I26J15*
G01Y12753*
G03X9425Y12852I177*
G02X9420Y12869I25J17*
X9427Y12888I30*
G03X9454Y12957I90J76*
G02X9484Y12985I30J2*
X9514Y12958J30*
G03X9573Y12905I59J6*
G01X9837*
G03X9895Y12958J59*
G02X9925Y12985I30J3*
X9955Y12957J30*
G03X10034Y12853I118J7*
G02X10054Y12824I9J29*
G01Y12639*
G02X10044Y12617I29*
G03X9966Y12441I158J176*
X10202Y12204I236*
X10438Y12441J237*
X10360Y12617I236*
G02X10350Y12639I20J22*
G01Y12823*
G02X10371Y12852I30*
X10380Y12853I9J29*
G01X10525Y12854*
X10526*
G02X10535Y12852J30*
X10556Y12824I9J28*
G01Y12527*
G02X10550Y12509I30*
G03X10520Y12420I118J89*
G01Y12229*
G02X10510Y12207I30*
G03X10432Y12031I158J176*
X10668Y11795I236*
X10904Y12031J236*
X10825Y12207I236*
G02X10815Y12229I20J22*
G01Y12349*
G02X10821Y12367I30*
G03X10851Y12455I118J88*
G01Y12823*
G02X10872Y12852I30*
G03X10955Y12964I35J112*
G01Y13555*
G03X10837Y13673I118*
G01X10573*
X10572*
X10571*
X10338*
X10337*
X10336*
X10073*
G03X9955Y13562J118*
G02X9925Y13534I30J2*
X9895Y13561J30*
G03X9837Y13614I58J6*
G01X9573*
G03X9514Y13561J59*
G02X9484Y13534I30J3*
X9454Y13562J30*
G03X9412Y13646I117J7*
G02X9401Y13669I19J23*
G01Y14587*
G02X9410Y14608I30*
G01X10344Y15542*
G03X10401Y15681I139J139*
G01Y16630*
G02X10431Y16660I30*
X10434J30*
G01X10486Y16656*
G02X10501Y16650I3J30*
G03X10573Y16626I72J94*
G01X10837*
G03X10955Y16744J118*
G01Y17335*
G03X10912Y17425I118*
G02X10901Y17448I19J23*
G01Y17750*
X10902Y17751*
G03Y17762I197J11*
G01Y17770*
G02X10910Y17790I30*
G03X10941Y17870I87J80*
G01Y18264*
G03X10823Y18382I118*
G01X10587*
G03X10469Y18264J118*
G01Y17870*
G03X10500Y17790I118*
G02X10508Y17770I22J20*
G01Y17769*
G03Y17762I197J7*
G01Y17448*
G02X10497Y17425I30*
X10478Y17418I19J23*
G01X10432*
X10431*
G02X10412Y17425J30*
G03X10337Y17453I75J90*
G01X10073*
G03X9997Y17425J118*
G02X9978Y17418I19J23*
G01X9932*
X9931*
G02X9913Y17425J30*
X9901Y17448I18J23*
G01Y17620*
G02X9909Y17640I30*
G03X9958Y17770I148J130*
G01Y17780*
G02X9988Y17809I30*
G01X10017*
G03X10135Y17928J119*
G01Y18636*
G03X10017Y18754I118*
G01X9751*
G02X9721Y18784J30*
X9730Y18805I30*
G01X10879Y19954*
G02X10900Y19963I21J21*
G01X11079*
Y17870*
G03X11138Y17811I59*
G01X11374*
G03X11433Y17870J59*
G01Y18264*
G03X11374Y18323I59*
G01X11138*
G03X11079Y18264J59*
G01Y19963*
X11216*
G02X11218J30*
G01X12054Y19901*
Y12521*
G03X12172Y12403I118*
G01X12763*
G03X12881Y12521J118*
G01Y14017*
G03X12860Y14084I118*
G02X12855Y14101I25J17*
X12864Y14122I30*
G01X12953Y14212*
G03X12988Y14254I194J195*
G02X12991Y14258I25J17*
G01X13096Y14363*
G03X13177Y14558I194J195*
G01Y14646*
G02X13207Y14676I30*
G01X13531*
G03X13631Y14731J118*
G02X13657Y14745I26J16*
G01X13779*
G02X13804Y14731J30*
G03X13904Y14676I100J63*
G01X14416*
Y12521*
G03X14526Y12403I118*
G02X14554Y12373I2J30*
G01Y12192*
G02X14526Y12163I30*
G03X14416Y12045I8J118*
G01Y10549*
G03X14534Y10431I118*
G01X15125*
G03X15243Y10549J118*
G01Y12045*
G03X15133Y12163I118*
G02X15105Y12192I2J29*
G01Y12373*
G02X15133Y12403I30*
G03X15243Y12521I8J118*
G01Y14017*
G03X15125Y14135I118*
G01X14534*
G03X14416Y14017J118*
G01Y14676*
X15163*
G03X15282Y14794J118*
G01Y15247*
G03X15163Y15365I119*
G01X13904*
G03X13804Y15310J118*
G02X13779Y15296I25J16*
G01X13657*
G02X13631Y15310J30*
G03X13531Y15365I100J63*
G01X12272*
G03X12154Y15247J118*
G01Y14794*
G03X12272Y14676I118*
G01X12558*
G02X12588Y14646J30*
X12579Y14625I30*
G01X12564Y14610*
G03X12529Y14568I195J195*
G02X12526Y14564I25J17*
G01X12272Y14310*
G03X12195Y14160I195J194*
G02X12167Y14135I29J5*
G03X12054Y14017I5J118*
G01Y19901*
X12154Y19894*
Y16728*
G03X12272Y16610I118*
G01X12596*
G02X12626Y16580J30*
G01Y16458*
G02X12596Y16428I30*
G01X12272*
G03X12154Y16310J118*
G01Y15857*
G03X12272Y15739I118*
G01X13531*
G03X13649Y15849J118*
G02X13679Y15877I30J2*
G01X13756*
G02X13786Y15849J30*
G03X13904Y15739I118J8*
G01X15163*
G03X15282Y15857J118*
G01Y16310*
G03X15163Y16428I119*
G01X14839*
G02X14809Y16458J30*
G01Y16580*
G02X14839Y16610I30*
G01X15163*
G03X15282Y16728J118*
G01Y17181*
G03X15163Y17299I119*
G01X12272*
G03X12154Y17181J118*
G01Y17791*
G03X12272Y17673I118*
G01X13531*
G03X13631Y17728J118*
G02X13657Y17742I26J16*
G01X13779*
G02X13804Y17728J30*
G03X13904Y17673I100J63*
G01X15163*
G03X15282Y17791J118*
G01Y18244*
G03X15163Y18362I119*
G01X14846*
G02X14816Y18392J30*
G01Y20084*
G03X14736Y20279I275*
G01X14581Y20433*
G03X14527Y20475I195J194*
G02X14513Y20496I16J26*
G01X14503Y20554*
G03X14387Y20652I116J20*
G01X13796*
G03X13678Y20534J118*
G01Y19943*
G03X13690Y19892I118*
G01X14262Y18706*
G02X14265Y18693I27J13*
G01Y18392*
G02X14235Y18362I30*
G01X13904*
G03X13804Y18307J118*
G02X13779Y18293I25J16*
G01X13657*
G02X13631Y18307J30*
G03X13531Y18362I100J63*
G01X12272*
G03X12154Y18244J118*
G01Y19894*
X13060Y19826*
G03X13092Y19825I32J413*
X13505Y20239J414*
X13092Y20652I413*
X13060Y20651J413*
G01X11218Y20514*
G02X11216I2J30*
G01X10774*
G03X10579Y20433J275*
G01X9010Y18864*
G03X8942Y18753I195J194*
G02X8914Y18732I28J9*
X8898Y18737J30*
G03X8836Y18754I62J101*
G01X8787*
G02X8757Y18784J30*
G01Y18941*
G03X8729Y19038I177*
G02X8724Y19052I25J16*
G03X8489Y19269I235J19*
X8252Y19033J236*
X8386Y18820I237*
G02X8403Y18793I13J27*
G01Y18784*
G02X8373Y18754I30*
G01X8324*
G03X8206Y18636J118*
G01Y18535*
G02X8176Y18505I30*
X8155Y18514J30*
G01X8133Y18536*
G03X7994Y18594I139J139*
G01X7897*
G02X7873Y18606J30*
G03X7778Y18653I95J71*
G01X7621*
G03X7550Y18630J118*
G02X7533Y18624I17J24*
X7503Y18654J30*
G01Y18782*
G03X7501Y18811I197*
G02X7500Y18815I29J4*
G01Y18852*
G02X7505Y18867I30*
G03X7540Y18991I202J124*
X7303Y19227I237*
X7067Y18991J236*
X7102Y18867I236*
G02X7107Y18852I25J15*
G01Y18784*
G03X7109Y18755I196*
G02Y18751I30J4*
G01Y18259*
G03X7227Y18141I118*
G01X7385*
X7386*
X7619*
X7620*
X7621*
X7778*
G03X7873Y18188J118*
G02X7897Y18200I24J18*
G01X7900*
G02X7921Y18192J30*
G01X7970Y18143*
G03X8109Y18085I139J139*
G01X8176*
G02X8206Y18055J30*
G01Y17928*
G03X8207Y17910I118*
G02X8208Y17905I29J5*
X8178Y17875I30*
G01X7356*
G03X7217Y17818J197*
G01X7065Y17666*
G03X7036Y17628I140J139*
G02X7010Y17614I26J16*
X6980Y17644J30*
G01Y18700*
G03X6899Y18894I275*
G01X5362Y20432*
G03X5167Y20512I195J195*
G01X3976*
G02X3973J30*
G01X2131Y20649*
G03X2100Y20650I31J412*
X1687Y20237J413*
G01Y21220*
X15700*
Y9161*
G03X15810Y8962I236*
G01X16205Y8708*
X16206*
G03X16334Y8669I128J198*
X16510Y8748J237*
G02X16533Y8758I23J20*
G01X16607*
G02X16609J30*
G03X16623Y8757I14J147*
G01X16665*
G02X16695Y8727J30*
X16694Y8725I30*
G03Y8714I118J11*
G01Y8584*
Y8583*
Y8459*
Y8458*
Y8328*
G03Y8317I118*
G02X16695Y8315I29J2*
X16665Y8285I30*
G01X16484*
G02X16479J30*
G03X16454Y8287I25J145*
G01X16199*
G02X16177Y8297J30*
G03X16001Y8376I176J157*
X15764Y8140J236*
X16001Y7904I237*
X16177Y7982J236*
G02X16199Y7992I22J20*
G01X16427*
G02X16432J30*
G03X16457Y7990I25J145*
G01X16665*
G02X16695Y7960J30*
X16694Y7957I30*
G03Y7946I118J11*
G01Y7816*
Y7815*
Y7692*
Y7691*
Y7690*
Y7561*
Y7560*
Y7559*
Y7436*
Y7435*
Y7434*
Y7305*
G03Y7294I118*
G02X16695Y7291I29J3*
X16665Y7261I30*
G01X16512*
G02X16490Y7271J30*
G03X16314Y7350I176J157*
X16178Y7307J236*
G01X16177Y7306*
X15813Y7053*
X15812Y7052*
G03X15710Y6858I134J194*
X15819Y6659I236*
G01X16211Y6404*
X16212*
G03X16341Y6366I129J198*
X16517Y6444J236*
G02X16540Y6454I23J20*
G01X16665*
G02X16695Y6424J30*
X16694Y6422I30*
G03Y6411I118J11*
G01Y6281*
Y6280*
Y6156*
Y6155*
Y6025*
Y6024*
Y5900*
Y5899*
Y5769*
G03Y5758I118*
G02X16695Y5756I29J2*
X16665Y5726I30*
G01X16651*
G02X16644Y5727J30*
G03X16608Y5731I36J144*
G01X16509*
G02X16487Y5741J30*
G03X16311Y5820I176J158*
X16075Y5583J237*
G01Y5582*
Y5069*
Y5068*
Y5067*
G03X16311Y4831I236*
X16487Y4910J236*
G02X16509Y4919I22J20*
G01X16595*
G02X16598J29*
G03X16611I13J147*
G01X16665*
G02X16695Y4889J30*
X16694Y4886I30*
G03Y4875I118J11*
G01Y4745*
G03X16812Y4627I118*
G01X17587*
G02X17616Y4597J30*
G01Y4099*
G02X17591Y4069I29*
G03X17533Y4044I16J117*
G02X17514Y4038I19J24*
X17495Y4044J30*
G03X17422Y4070I73J92*
G01X17107*
G03X16989Y3952J118*
G01Y2732*
G03X17051Y2627I118*
G02X17067Y2601I14J26*
G01Y2574*
G03X17069Y2551I197*
G02Y2548I30J3*
Y2544I30*
G03X17067Y2522I195J22*
G01Y2485*
G02X17051Y2458I30*
G03X16989Y2354I56J104*
G01Y1970*
G02X16959Y1940I30*
G01X16905*
G02X16903J30*
G03X16884Y1941I19J196*
G01X16703*
G02X16688Y1946J30*
G03X16564Y1981I124J202*
X16328Y1744J237*
X16564Y1508I236*
X16688Y1543J236*
G02X16703Y1548I15J25*
G01X16864*
G02X16867J30*
G03X16885Y1547I18J195*
G01X16959*
G02X16989Y1517J30*
G01Y1133*
G03X17049Y1030I118*
G01X17645Y689*
X17646*
G03X17764Y657I118J204*
X17766J236*
G01X17767*
X18263Y659*
X18754Y652*
G03X18759I5J236*
X18992Y849J236*
G01X19038Y1112*
G03X19040Y1133I116J21*
G01Y2321*
G02X19070Y2351I30*
G01X20671*
G02X20700Y2321J30*
G01Y1133*
G03X20754Y1035I119*
G01Y1034*
X21342Y641*
G03X21470Y600I133J195*
G01X21471*
X21968Y588*
X21969*
X22468Y568*
X22469*
G03X22480I11J236*
X22715Y780J236*
G01Y781*
X22751Y1119*
Y1120*
G03X22752Y1133I117J13*
G01Y2312*
G02X22782Y2342I30*
G01X22859*
G03X22999Y2400J197*
G01X24517Y3918*
G02X24538Y3927I21J21*
X24559Y3918J30*
G01X24580Y3898*
G02X24589Y3877I21J21*
X24588Y3872I30*
G03X24587Y3856I117J16*
G01Y2761*
G03X24589Y2740I118*
G02X24590Y2735I29J5*
G01Y1861*
G02X24560Y1831I30*
G01X24412*
G03X24294Y1713J118*
G01Y617*
G03X24412Y499I118*
G01X27029*
G03X27147Y617J118*
G01Y1713*
G03X27029Y1831I118*
G01X26933*
G02X26903Y1861J30*
G01Y2622*
G02X26922Y2650I30*
G03X26998Y2761I42J111*
G01Y3856*
G03X26880Y3974I118*
G01X24705*
G03X24689Y3973J118*
G02X24685I4J29*
X24664Y3981J29*
G01X24643Y4002*
G02X24634Y4023I21J21*
X24643Y4044I30*
G01X24686Y4087*
G03X24743Y4226I140J139*
G01Y4919*
G02X24773Y4949I30*
G01X25157*
G03X25261Y5012J118*
G02X25288Y5028I27J14*
G01X25323*
G03X25347Y5029J197*
G02X25350I3J29*
X25354J29*
G03X25377Y5028I23J196*
G01X25404*
G02X25430Y5012J30*
G03X25535Y4949I105J55*
G01X26755*
G03X26857Y5008J118*
G01X26858*
X27209Y5605*
X27210Y5606*
G03X27243Y5727I203J121*
Y5731I236*
G01Y5732*
X27236Y6225*
Y6226*
X27239Y6719*
Y6720*
G03Y6722I236J2*
X27040Y6955I236*
G01X27039*
X26776Y6999*
X26775*
G03X26755Y7000I20J117*
G01X25577*
G02X25547Y7030J30*
G01Y7751*
G02X25577Y7781I30*
G01X26748*
G03X26851Y7841J118*
G01Y7842*
X27192Y8439*
Y8440*
G03X27224Y8558I204J118*
Y8561I236*
G01X27221Y9054*
Y9055*
X27233Y9551*
Y9552*
G03Y9559I236J7*
X27029Y9793I236*
G01X27028*
X26766Y9830*
Y9831*
G03X26748Y9832I18J117*
G01X25528*
G03X25409Y9714J118*
G01Y9399*
Y9398*
Y9397*
Y9215*
Y9214*
Y8899*
Y8898*
Y8897*
Y8715*
Y8714*
Y8399*
G03X25435Y8325I119*
G02X25442Y8306I23J19*
X25435Y8288I30*
G03X25423Y8269I93J74*
G02X25397Y8253I26J14*
G01X25280*
G02X25254Y8269J30*
G03X25242Y8288I104J55*
G02X25235Y8306I23J18*
X25242Y8325I30*
G03X25268Y8399I92J74*
G01Y8714*
Y8715*
Y8897*
Y8898*
Y8899*
Y9214*
Y9215*
Y9397*
Y9398*
Y9399*
Y9714*
G03X25150Y9832I118*
G01X23929*
G03X23812Y9730J118*
G02X23782Y9704I30J4*
G01X23505*
G03X23400Y9661J148*
G01X22724Y8985*
G03X22681Y8887I105J105*
G02X22651Y8859I30J2*
X22623Y8879J30*
G03X22511Y8960I112J37*
G01X22117*
G03X22009Y8890J118*
G02X21982Y8872I27J12*
G01X21939*
G03X21906Y8868J148*
G02X21899Y8867I7J29*
G01X21892*
G02X21865Y8885J30*
G03X21757Y8956I108J48*
G01X21363*
G03X21255Y8884J119*
G02X21231Y8866I28J12*
G03X21144Y8824I17J147*
G01X21126Y8805*
G02X21104Y8797I22J22*
G01X21017*
G02X20988Y8827J30*
X20996Y8848I29*
G01X21109Y8960*
G03X21152Y9064I105J104*
G01Y9509*
G02X21161Y9530I30*
G01X21260Y9629*
G02X21281Y9638I21J21*
X21304Y9627J30*
G01Y9152*
G03X21363Y9093I59*
G01X21757*
G03X21816Y9152J59*
G01Y9389*
G03X21757Y9448I59*
G01X21363*
G03X21304Y9389J59*
G01Y9627*
G03X21394Y9585I90J77*
G01X21788*
G03X21906Y9704J119*
G01Y9940*
G03X21788Y10058I118*
G01X21394*
G03X21286Y9987J118*
G02X21258Y9969I28J12*
G01X21244*
G03X21139Y9926J147*
G01X20900Y9687*
G03X20857Y9582I104J105*
G01Y9138*
G02X20848Y9117I30*
G01X20792Y9061*
G02X20771Y9053I21J22*
G01X20727*
G02X20708Y9060J30*
G03X20702Y9064I77J90*
G02X20690Y9088I18J24*
Y9091I30*
G03Y9096I59J5*
G01Y9226*
G03X20673Y9268I59*
G02X20664Y9289I21J21*
X20673Y9310I30*
G03X20690Y9352I42J42*
G01Y9482*
G03X20631Y9541I59*
G01X19844*
G03X19785Y9482J59*
G01Y9352*
G03X19802Y9310I59*
G02X19811Y9289I21J21*
X19802Y9268I30*
G03X19785Y9226I42J42*
G01Y9096*
G03Y9091I59*
G02Y9088I30J3*
X19773Y9064I30*
G03X19767Y9060I71J94*
G02X19748Y9053I19J23*
G01X19711*
G02X19708J30*
G03X19693I15J147*
G01X19198*
G02X19176Y9063J30*
G03X19000Y9142I176J157*
X18764Y8906J236*
X19000Y8670I236*
X19176Y8748J236*
G02X19198Y8758I22J20*
G01X19360*
G02X19390Y8728J30*
X19381Y8707I30*
G01X19008Y8334*
G02X18994Y8326I21J21*
G03X18812Y8097I55J229*
X19049Y7860I237*
X19278Y8042J237*
G02X19286Y8056I29J7*
G01X19674Y8443*
G02X19695Y8452I21J21*
G01X19696*
G02X19726Y8422J30*
G01Y8328*
G03X19773Y8234I118*
G02X19785Y8210I18J24*
Y8207I30*
G03Y8202I59J5*
G01Y8072*
G03Y8067I59*
G02Y8065I30J2*
X19773Y8041I30*
G03X19726Y7946I71J95*
G01Y7816*
Y7815*
Y7692*
Y7691*
Y7690*
Y7561*
Y7560*
Y7559*
Y7436*
Y7435*
Y7434*
Y7305*
Y7304*
Y7303*
Y7180*
Y7179*
Y7178*
Y7049*
Y7048*
Y7047*
Y6924*
Y6923*
Y6793*
Y6792*
Y6791*
Y6668*
Y6667*
Y6537*
Y6536*
Y6535*
Y6412*
Y6411*
Y6281*
Y6280*
Y6156*
Y6155*
Y6025*
Y6024*
Y5900*
Y5899*
Y5769*
Y5768*
Y5645*
Y5644*
Y5643*
Y5513*
Y5512*
Y5389*
Y5388*
Y5387*
Y5257*
Y5256*
Y5133*
Y5132*
Y5131*
Y5001*
G03X19737Y4951I118*
G02X19740Y4938I27J13*
X19737Y4926I30*
G03X19727Y4891I107J51*
G02X19697Y4866I30J5*
X19676Y4874J30*
G01X19588Y4963*
G02X19579Y4984I21J21*
G01Y6814*
G03X19536Y6918I148*
G01X18468Y7986*
G03X18363Y8029I105J105*
G01X17747*
G02X17717Y8059J30*
Y8062I30*
G03X17718Y8072I117J10*
G01Y8202*
Y8203*
Y8204*
Y8327*
Y8328*
Y8458*
Y8459*
Y8583*
Y8584*
Y8714*
Y8715*
Y8839*
Y8840*
Y8970*
Y8971*
Y9094*
Y9095*
Y9096*
Y9226*
Y9227*
Y9350*
Y9351*
Y9352*
Y9482*
G03X17600Y9600I118*
G01X16812*
G03X16735Y9572J118*
G02X16716Y9564I19J22*
G01X16645*
G02X16640Y9565J30*
G03X16614Y9567I26J145*
G01X16518*
G02X16496Y9577J30*
G03X16320Y9656I176J157*
X16084Y9420J236*
G02X16054Y9390I30*
X16051J30*
G01X15956Y9397*
X15955*
G03X15936Y9398I19J236*
X15700Y9161J237*
G01Y21220*
X16349*
Y16822*
G03X16467Y16704I118*
G01X16730*
G03X16802Y16728J118*
G02X16818Y16734I18J24*
G01X16869Y16738*
G02X16872I3J29*
X16902Y16709J29*
G01Y15282*
G03X16959Y15143I197*
G01X17893Y14210*
G02X17902Y14189I21J21*
G01Y13747*
G02X17891Y13724I30*
G03X17849Y13641I76J91*
G02X17819Y13613I30J2*
X17789Y13639J30*
G03X17730Y13692I59J6*
G01X17467*
G03X17408Y13639J59*
G02X17378Y13613I30J4*
X17348Y13641J30*
G03X17230Y13751I118J8*
G01X16967*
X16966*
X16965*
X16732*
X16731*
X16730*
X16467*
G03X16349Y13633J118*
G01Y13043*
G03X16429Y12931I118*
G02X16450Y12902I9J29*
G01Y12644*
G02X16440Y12622I30*
G03X16361Y12446I157J176*
X16597Y12209I236*
X16833Y12446J237*
X16755Y12622I236*
G02X16745Y12644I20J22*
G01Y12901*
G02X16766Y12930I30*
X16775Y12931I9J29*
G01X16916Y12933*
X16917*
G02X16926Y12932J30*
X16947Y12903I9J29*
G01Y12264*
G02X16937Y12242I30*
G03X16858Y12066I157J176*
X17094Y11830I236*
X17331Y12066J236*
X17252Y12242I237*
G02X17242Y12264I20J22*
G01Y12896*
G02X17243Y12902I30*
G03X17244Y12906I144J32*
G02X17264Y12929I29J5*
G03X17348Y13035I34J114*
G02X17378Y13063I30J2*
X17408Y13036J30*
G03X17467Y12984I59J7*
G01X17730*
G03X17789Y13036J59*
G02X17819Y13063I30J3*
X17849Y13035J30*
G03X17884Y12958I118J8*
G02X17893Y12937I21J21*
X17890Y12924I30*
G03X17875Y12858I133J66*
G01Y12642*
G02X17865Y12619I30*
G03X17826Y12539I79J88*
G02X17796Y12511I30J2*
X17766Y12538J30*
G03X17708Y12591I58J7*
G01X17550*
G03X17491Y12531J60*
G01Y12256*
G03X17550Y12197I59*
G01X17708*
G03X17766Y12250J59*
G02X17796Y12276I30J3*
X17826Y12248J29*
G03X17863Y12170I118J8*
G02X17872Y12148I21J22*
G03Y12145I148J3*
G01Y12128*
G02X17850Y12099I30*
G03X17764Y11985I32J114*
G01Y11828*
Y11827*
Y11826*
Y11593*
Y11592*
Y11434*
G03X17847Y11321I118*
G02X17868Y11293I9J28*
G01Y10709*
G02X17858Y10686I30*
G03X17779Y10510I157J176*
X18015Y10274I236*
X18252Y10510J236*
X18173Y10686I237*
G02X18163Y10709I20J23*
G01Y11286*
G02X18164Y11293I30*
G03X18165Y11297I144J33*
G02X18187Y11320I29J6*
G03X18276Y11434I29J114*
G01Y11592*
Y11593*
Y11826*
Y11827*
Y11828*
Y11985*
G03X18191Y12099I118*
G02X18169Y12127I8J28*
Y12131I30*
G03X18170Y12146I146J17*
G02X18180Y12168I30*
G03X18219Y12256I79J88*
G01Y12531*
G03X18180Y12619I118*
G02X18170Y12642I20J23*
G01Y12785*
G02X18179Y12806I30*
G01X18203Y12830*
G03X18244Y12906I104J104*
G02X18264Y12929I29J5*
G03X18280Y12936I34J114*
G02X18293Y12938I13J28*
X18323Y12908J30*
G01Y12401*
G03X18404Y12206I276*
G01X19575Y11035*
G03X19770Y10955I195J195*
G01X21335*
Y10255*
G03X21394Y10196I59*
G01X21788*
G03X21847Y10255J59*
G01Y10491*
G03X21788Y10550I59*
G01X21394*
G03X21335Y10491J59*
G01Y10955*
X22058*
Y9157*
G03X22117Y9098I59*
G01X22511*
G03X22570Y9157J59*
G01Y9393*
G03X22511Y9452I59*
G01X22117*
G03X22058Y9393J59*
G01Y10955*
X23299*
G02X23328Y10925J30*
G01Y10549*
G03X23447Y10431I119*
G01X24037*
G03X24155Y10549J118*
G01Y12045*
G03X24037Y12163I118*
G01X23447*
G03X23328Y12045J118*
G01Y11536*
G02X23299Y11506I29*
G01X19896*
G02X19875Y11515J30*
G01X18883Y12507*
G02X18874Y12528I21J21*
G01Y12979*
G02X18904Y13009I30*
X18925Y13001J30*
G03X18967Y12984I42J42*
G01X19230*
G03X19289Y13043J59*
G01Y13633*
G03X19230Y13692I59*
G01X18967*
G03X18908Y13639J59*
G02X18878Y13613I30J4*
X18848Y13641J30*
G03X18730Y13751I118J8*
G01X18467*
G03X18395Y13727J118*
G02X18379Y13721I18J24*
G01X18328Y13717*
G02X18325I3J30*
X18295Y13747J30*
G01Y14282*
G03X18238Y14422I196*
G01X17304Y15355*
G02X17295Y15376I21J21*
G01Y16368*
G02X17325Y16398I30*
X17353Y16379J30*
G03X17574Y16227I221J84*
X17810Y16463J236*
X17743Y16628I236*
G02X17734Y16649I21J21*
X17736Y16660I30*
G03X17744Y16686I137J54*
G02X17764Y16709I29J6*
X17773Y16710I9J29*
G01X17774*
X17932Y16708*
G02X17939Y16707J30*
G03X17967Y16704I28J115*
G01X18230*
G03X18289Y16719J118*
G02X18304Y16723I15J26*
X18334Y16693J30*
X18333Y16686I30*
G03X18327Y16639I191J47*
G01Y16519*
G02X18323Y16504I30*
G03X18288Y16380I201J124*
X18524Y16144I236*
X18760Y16380J236*
X18725Y16504I236*
G02X18721Y16519I26J15*
G01Y16545*
G02X18729Y16566I30*
G01X18738Y16575*
G03X18795Y16709I139J139*
G02X18806Y16731I30J1*
G03X18848Y16815I76J91*
G02X18878Y16843I30J2*
X18908Y16816J30*
G03X18967Y16763I59J6*
G01X19230*
G03X19289Y16822J59*
G01Y17413*
G03X19230Y17472I59*
G01X18967*
G03X18908Y17419J59*
G02X18878Y17392I30J3*
X18848Y17420J30*
G03X18806Y17503I118J7*
G02X18795Y17526I19J23*
G01Y17712*
G02X18804Y17733I30*
G01X18898Y17827*
G03X18952Y17932I139J139*
G02X18982Y17956I30J5*
G01X19074*
G03X19192Y18075J119*
G01Y18429*
G03X19074Y18547I118*
G01X18444*
G03X18412Y18543J118*
G02X18404Y18542I8J29*
X18374Y18572J30*
G01Y18625*
G02X18404Y18655I30*
X18417Y18652J30*
G03X18444Y18645I27J53*
G01X19074*
G03X19133Y18705J60*
G01Y19059*
G03X19074Y19118I59*
G01X18444*
G03X18417Y19112J59*
G02X18404Y19109I13J26*
X18374Y19138J29*
G01Y19215*
G02X18383Y19236I30*
G01X19101Y19954*
G02X19123Y19963I22J21*
G01X19408*
Y13043*
G03X19467Y12984I59*
G01X19730*
G03X19789Y13036J59*
G02X19819Y13063I30J3*
X19849Y13035J30*
G03X19967Y12925I118J8*
G01X20230*
G03X20348Y13035J118*
G02X20378Y13063I30J2*
X20408Y13036J30*
G03X20467Y12984I59J7*
G01X20730*
G03X20789Y13043J59*
G01Y13633*
G03X20730Y13692I59*
G01X20467*
G03X20408Y13639J59*
G02X20378Y13613I30J4*
X20348Y13641J30*
G03X20230Y13751I118J8*
G01X19967*
G03X19849Y13641J118*
G02X19819Y13613I30J2*
X19789Y13639J30*
G03X19730Y13692I59J6*
G01X19467*
G03X19408Y13633J59*
G01Y16822*
G03X19467Y16763I59*
G01X19730*
G03X19789Y16816J59*
G02X19819Y16843I30J3*
X19849Y16815J30*
G03X19907Y16720I118J7*
G02X19921Y16695I16J25*
G01Y16574*
G02X19915Y16555I30*
G03X19862Y16407I184J148*
X20099Y16171I237*
X20335Y16407J236*
X20282Y16555I236*
G02X20276Y16574I24J19*
G01Y16695*
G02X20291Y16721I30*
X20306Y16725I15J26*
G01X20307*
X20401Y16720*
G02X20413Y16717I1J30*
G03X20467Y16704I54J105*
G01X20730*
G03X20805Y16731J118*
G02X20823Y16737I19J24*
G01X20871Y16738*
X20872*
G02X20890Y16732J29*
X20902Y16709I18J23*
G01Y16167*
G02X20893Y16146I30*
G01X20795Y16048*
G02X20781Y16040I21J21*
G03X20600Y15810I55J230*
X20836Y15574I236*
X20908Y15585J236*
G01Y13043*
G03X20967Y12984I59*
G01X21230*
G03X21289Y13043J59*
G01Y13633*
G03X21230Y13692I59*
G01X20967*
G03X20908Y13633J59*
G01Y15585*
G03X21066Y15756I72J225*
G02X21074Y15770I29J7*
G01X21238Y15934*
G03X21295Y16073I139J139*
G01Y16709*
G02X21306Y16731I30*
G03X21348Y16815I76J91*
G02X21378Y16843I30J2*
X21408Y16818J30*
G01Y13043*
G03X21467Y12984I59*
G01X21730*
G03X21789Y13043J59*
G01Y13633*
G03X21730Y13692I59*
G01X21467*
G03X21408Y13633J59*
G01Y16818*
G02Y16816I30J5*
G03X21467Y16763I59J6*
G01X21730*
G03X21789Y16822J59*
G01Y17413*
G03X21730Y17472I59*
G01X21467*
G03X21408Y17419J59*
G02X21378Y17392I30J3*
X21348Y17420J30*
G03X21230Y17531I118J7*
G01X20967*
X20966*
X20965*
X20732*
X20731*
X20730*
X20467*
G03X20393Y17505J118*
G02X20375Y17498I19J23*
G01X20327Y17496*
X20325*
G02X20307Y17503J30*
X20295Y17526I18J23*
G01Y17954*
G02X20325Y17984I30*
G01X20412*
G03X20530Y18102J118*
G01Y18456*
G03X20412Y18575I118*
G01X19782*
G03X19664Y18456J119*
G01Y18102*
G03X19782Y17984I118*
G01X19872*
G02X19902Y17954J30*
G01Y17526*
G02X19891Y17503I30*
G03X19849Y17420I76J90*
G02X19819Y17392I30J2*
X19789Y17419J30*
G03X19730Y17472I59J6*
G01X19467*
G03X19408Y17413J59*
G01Y19963*
X19723*
Y18732*
G03X19782Y18673I59*
G01X20412*
G03X20471Y18732J59*
G01Y19086*
G03X20412Y19145I59*
G01X19782*
G03X19723Y19086J59*
G01Y19963*
X21908*
Y13043*
G03X21967Y12984I59*
G01X22230*
G03X22289Y13043J59*
G01Y13633*
G03X22230Y13692I59*
G01X21967*
G03X21908Y13633J59*
G01Y16822*
G03X21967Y16763I59*
G01X22230*
G03X22289Y16822J59*
G01Y17413*
G03X22230Y17472I59*
G01X21967*
G03X21908Y17413J59*
G01Y19963*
X23285*
Y16728*
G03X23403Y16610I118*
G01X23728*
G02X23758Y16580J30*
G01Y16458*
G02X23728Y16428I30*
G01X23403*
G03X23285Y16310J118*
G01Y14794*
G03X23403Y14676I118*
G01X23424*
G02X23453Y14646J30*
G01Y14165*
G02X23426Y14135I29*
G03X23316Y14017I8J118*
G01Y12521*
G03X23434Y12403I118*
G01X24024*
G03X24142Y12521J118*
G01Y14017*
G03X24033Y14135I118*
G02X24005Y14165I2J30*
G01Y14591*
G02X24015Y14614I30*
G03X24031Y14629I179J210*
G01X24070Y14668*
G02X24091Y14676I21J22*
G01X24663*
G03X24763Y14731J118*
G02X24788Y14745I25J16*
G01X24928*
G02X24953Y14731J30*
G03X25053Y14676I100J63*
G01X25678*
Y12521*
G03X25788Y12403I118*
G02X25816Y12373I2J30*
G01Y12191*
G02X25790Y12161I30*
G03X25691Y12045I19J116*
G01Y10549*
G03X25809Y10431I118*
G01X26399*
G03X26517Y10549J118*
G01Y12045*
G03X26399Y12163I118*
G01X26397*
G02X26367Y12193J30*
G01Y12373*
G02X26395Y12403I30*
G03X26505Y12521I8J118*
G01Y14017*
G03X26387Y14135I118*
G01X25796*
G03X25678Y14017J118*
G01Y14676*
X26313*
G03X26431Y14794J118*
G01Y15247*
G03X26313Y15365I118*
G01X25053*
G03X24953Y15310J118*
G02X24928Y15296I25J16*
G01X24788*
G02X24763Y15310J30*
G03X24663Y15365I100J63*
G01X23403*
G03X23285Y15247J118*
G01Y15857*
G03X23403Y15739I118*
G01X24663*
G03X24763Y15794J118*
G02X24788Y15808I25J16*
G01X24928*
G02X24953Y15794J30*
G03X25053Y15739I100J63*
G01X26313*
G03X26431Y15857J118*
G01Y16310*
G03X26313Y16428I118*
G01X25988*
G02X25959Y16458J30*
G01Y16580*
G02X25988Y16610I29*
G01X26313*
G03X26431Y16728J118*
G01Y17181*
G03X26313Y17299I118*
G01X25053*
G03X24953Y17244J118*
G02X24928Y17230I25J16*
G01X24788*
G02X24763Y17244J30*
G03X24663Y17299I100J63*
G01X23403*
G03X23285Y17181J118*
G01Y17791*
G03X23403Y17673I118*
G01X24663*
G03X24763Y17728J118*
G02X24788Y17742I25J16*
G01X24928*
G02X24953Y17728J30*
G03X25053Y17673I100J63*
G01X26313*
G03X26431Y17791J118*
G01Y18244*
G03X26313Y18362I118*
G01X26027*
G02X25997Y18392J30*
X26006Y18413I30*
G01X26556Y18964*
G03X26637Y19159I195J195*
G01Y19638*
G02X26640Y19651I30*
G01X26762Y19889*
G03X26775Y19943I105J54*
G01Y20534*
G03X26657Y20652I118*
G01X26066*
G03X25950Y20558J118*
G01X25585Y18779*
G02X25576Y18763I30J6*
G01X25488Y18675*
G03X25407Y18480I195J195*
G01Y18392*
G02X25377Y18362I30*
G01X25053*
G03X24953Y18307J118*
G02X24928Y18293I25J16*
G01X24788*
G02X24763Y18307J30*
G03X24663Y18362I100J63*
G01X23403*
G03X23285Y18244J118*
G01Y19963*
X23486*
G02X23488J30*
G01X25330Y19826*
G03X25361Y19825I31J413*
X25775Y20239J414*
X25361Y20652I414*
X25330Y20651J413*
G01X23488Y20514*
G02X23486I2J30*
G01X18996*
G03X18801Y20433J275*
G01X17904Y19536*
G03X17823Y19341I195J195*
G01Y17547*
G02X17793Y17517I30*
X17780Y17520J30*
G03X17730Y17531I50J107*
G01X17467*
X17466*
X17465*
X17232*
X17231*
X17230*
X16967*
G03X16937Y17527J118*
G02X16929Y17526I8J29*
G01X16777Y17524*
X16776*
G02X16766Y17525J30*
X16746Y17554I10J29*
G01Y17648*
G03X16745Y17664I147*
G02Y17667I30J3*
X16755Y17689I30*
G03X16829Y17861I162J172*
X16593Y18097I236*
X16357Y17861J236*
X16435Y17685I236*
G02X16445Y17662I20J23*
G01Y17654*
G03X16450Y17617I148*
G02X16451Y17609I29J8*
G01Y17554*
G02X16430Y17525I30*
G03X16349Y17413I37J112*
G01Y21220*
X27332*
G02X27362Y21191J29*
G01Y148*
G02X27332Y118I30*
G01X148*
G02X118Y148J30*
G01Y21191*
X805Y19942D02*
X1395Y20532D01*
X1483Y18638*
X1265Y18382*
X805Y19942*
X2122D02*
Y20531D01*
X3970Y20394*
Y20079*
X2122Y19942*
X4289Y10178D02*
X4458D01*
Y9491*
G03X4518Y9432I60*
G01X4754*
G03X4813Y9491J59*
G01Y9885*
G03X4754Y9944I59*
G01X4518*
G03X4458Y9885J59*
G01Y10178*
X4932*
G02X4953Y10170J30*
G01X5030Y10092*
G02X5039Y10071I21J21*
G01Y10020*
G02X5021Y9993I30*
G03X4951Y9885I48J108*
G01Y9491*
G03X5069Y9373I118*
G01X5305*
G03X5396Y9415J118*
G02X5415Y9426I23J19*
G01X5450Y9431*
G02X5455Y9432I5J29*
X5485Y9402J30*
G01Y9132*
G02X5455Y9102I30*
X5452J30*
G01X5400Y9107*
G02X5385Y9113I3J30*
G03X5313Y9137I72J94*
G01X5050*
G03X4932Y9026J118*
G02X4902Y8998I30J2*
X4872Y9025J30*
G03X4813Y9078I59J6*
G01X4550*
G03X4491Y9025J59*
G02X4461Y8998I30J3*
X4431Y9026J30*
G03X4350Y9131I118J7*
G02X4329Y9159I9J28*
G01Y9256*
G03X4297Y9348I148*
G02X4290Y9367I23J19*
X4298Y9388I30*
G03X4332Y9470I84J82*
G01Y9627*
Y9628*
Y9629*
Y9862*
Y9863*
Y9864*
Y10021*
G03X4274Y10123I118*
G02X4259Y10148I15J25*
X4289Y10178I30*
G01X6494Y12864D02*
G03X6486Y12885I30D01*
G02X6455Y12957I87J79*
G03X6425Y12985I30J2*
X6395Y12958J30*
G02X6337Y12905I58J6*
G01X6073*
G02X6014Y12958J59*
G03X5984Y12985I30J3*
X5954Y12957J30*
G02X5873Y12852I117J7*
G03X5852Y12824I9J28*
G01Y12499*
G02X5809Y12395I147*
G01X5631Y12216*
G03X5622Y12195I21J21*
G01Y12149*
G03X5632Y12127I30*
G02X5664Y12092I158J176*
G03X5666Y12089I24J18*
G01X5801Y11942*
G03X5823Y11932I22J20*
X5844Y11941J30*
G01X5888Y11984*
G02X5992Y12027I104J104*
G01X6036*
G03X6065Y12049J30*
G02X6127Y12123I114J32*
G03X6144Y12150I13J27*
X6135Y12172I30*
G02X6117Y12214I41J42*
G01Y12490*
G02X6176Y12549I59*
G01X6333*
G02X6392Y12496J59*
G03X6422Y12469I30J3*
X6451Y12497J30*
G02X6467Y12549I118J7*
G03X6471Y12564I26J15*
G01Y12770*
G02X6490Y12851I177*
G03X6494Y12864I26J13*
G01X7209Y6485D02*
G03X7197Y6509I30D01*
G02X7150Y6603I71J94*
G01Y6682*
G03X7120Y6712I30*
G01X6670*
G02X6566Y6755J147*
G01X6404Y6916*
G03X6383Y6925I21J21*
X6354Y6904J30*
G01Y6903*
X6244Y6505*
G03X6243Y6497I29J8*
X6273Y6468I30*
G01X6335*
G03X6355Y6475J29*
G02X6435Y6507I80J86*
G01X6829*
G02X6937Y6436J118*
G03X6965Y6418I28J12*
G01X7048*
G02X7069Y6417J147*
G03X7073Y6416I4J29*
G01X7179*
G03X7209Y6446J30*
G01Y6485*
X10398Y7666D02*
G03X10368Y7696I30D01*
G01X9013*
G03X8990Y7686J30*
G02X8972Y7668I176J158*
G03X8962Y7645I20J23*
G01Y6902*
G03X8992Y6872I30*
G01X9893*
G02X9998Y6829J148*
G01X10291Y6535*
G03X10312Y6526I21J21*
X10341Y6550J30*
G02X10343Y6556I116J25*
G03X10344Y6564I29J8*
X10343Y6572I30*
G02X10339Y6603I114J31*
G01Y6722*
G02X10343Y6753I118*
G03X10344Y6761I29J8*
X10343Y6769I30*
G02X10339Y6800I114J31*
G01Y6918*
G02X10343Y6950I118*
G03X10344Y6958I29J8*
X10343Y6966I30*
G02X10339Y6997I114J31*
G01Y7115*
G02X10343Y7147I118*
G03X10344Y7155I29J8*
X10343Y7163I30*
G02X10339Y7194I114J31*
G01Y7272*
G03X10309Y7302I30*
G01X10171*
G03X10150Y7293J30*
G01X10060Y7204*
G03X10051Y7183I21J21*
G01Y7181*
G02X10052Y7168I236J13*
X9815Y6932I237*
X9579Y7168J236*
X9815Y7404I236*
X9828J236*
G01X9830*
G03X9851Y7413J30*
G01X9993Y7554*
G02X10097Y7598I104J104*
G01X10368*
G03X10398Y7627J29*
G01Y7666*
X13070Y20533D02*
Y19944D01*
X11221Y20081*
Y20396*
X13070Y20533*
X13796Y19943D02*
X14387Y20534D01*
X14698Y18727*
X14383*
X13796Y19943*
X22681Y8559D02*
G03X22651Y8589I30D01*
X22623Y8568J30*
G02X22511Y8488I112J38*
G01X22117*
G02X22009Y8559J118*
G03X21982Y8576I27J12*
G01X21975*
G03X21969J29*
G02X21935Y8572I34J143*
G01X21892*
G03X21865Y8554J30*
G02X21757Y8483I108J47*
G01X21516*
G03X21486Y8453J30*
X21496Y8431I30*
G02X21533Y8353I81J86*
G03X21563Y8325I30J2*
X21592Y8352J30*
G02X21651Y8404I59J7*
G01X21809*
G02X21868Y8345J59*
G01Y8070*
G02X21867Y8063I59*
G03Y8059I30J4*
X21897Y8029I30*
G01X22284*
G03X22307Y8040J30*
G02X22491Y8129I184J147*
X22633Y8081J236*
G03X22651Y8075I18J24*
X22681Y8105J30*
G01Y8559*
X25339Y20533D02*
Y19944D01*
X23491Y20081*
Y20396*
X25339Y20533*
X26066Y20534D02*
X26657Y19943D01*
X25914Y18489*
X25691Y18711*
X26066Y20534*
G37*
G54D10*
X0Y0D02*
X27480D01*
Y21339*
X0*
Y0*
G54D11*
X451Y6584D02*
X323D01*
X451Y8929D02*
X323D01*
X786Y5580D02*
Y5452D01*
Y7588D02*
Y7717D01*
Y7925D02*
Y7796D01*
Y9933D02*
Y10061D01*
X1120Y5944D02*
X1249D01*
X1120Y9568D02*
X1249D01*
X1337Y6437D02*
X1293Y6308D01*
X1337Y6948D02*
X1293Y7077D01*
X1337Y8563D02*
X1293Y8434D01*
X1337Y9074D02*
X1293Y9203D01*
X1557Y7244D02*
X1429D01*
X2108D02*
X2237D01*
X2124Y6437D02*
X2226Y6334D01*
X2124Y6948D02*
X2226Y7051D01*
X2124Y8563D02*
X2252Y8519D01*
X2124Y9074D02*
X2226Y9177D01*
X4557Y9688D02*
X4429D01*
X4577Y18079D02*
X4449D01*
X4589Y6460D02*
X4487Y6357D01*
X4589Y6971D02*
X4487Y7074D01*
X4589Y8467D02*
X4487Y8365D01*
X4589Y8979D02*
X4487Y9081D01*
X4636Y9530D02*
Y9402D01*
Y9845D02*
Y9974D01*
X4656Y17922D02*
Y17794D01*
Y18237D02*
Y18365D01*
X4714Y9688D02*
X4843D01*
X4735Y18079D02*
X4863D01*
X4774Y6460D02*
X4876Y6357D01*
X4774Y6971D02*
X4876Y7074D01*
X4774Y8467D02*
X4876Y8365D01*
X4774Y8979D02*
X4876Y9081D01*
X5089Y6460D02*
X4987Y6357D01*
X5089Y6971D02*
X4987Y7074D01*
X5274Y6460D02*
X5376Y6357D01*
X5274Y6971D02*
X5376Y7074D01*
X5387Y3847D02*
X5258D01*
X5681Y6715D02*
Y7258D01*
X5640Y7300*
X4223*
X4181Y7258*
Y6715*
X5977Y3660D02*
Y3531D01*
Y4034D02*
Y4162D01*
X6112Y13004D02*
X6010Y12902D01*
X6112Y13516D02*
X6010Y13618D01*
X6215Y12254D02*
X6088Y12197D01*
X6215Y12451D02*
X6113Y12553D01*
X6294Y12451D02*
X6396Y12553D01*
X6297Y13004D02*
X6399Y12902D01*
X6297Y13516D02*
X6399Y13618D01*
X6475Y5719D02*
X6346D01*
X6568Y3847D02*
X6696D01*
X6632Y5641D02*
Y5512D01*
Y5798D02*
Y5927D01*
X6790Y5719D02*
X6918D01*
X7382Y816D02*
X7334Y688D01*
X7382Y1957D02*
X7334Y2085D01*
X7612Y13004D02*
X7558Y12877D01*
X7612Y13516D02*
X7510Y13618D01*
X7612Y16783D02*
X7585Y16655D01*
X7612Y17295D02*
X7510Y17397D01*
X7619Y816D02*
X7721Y713D01*
X7619Y1957D02*
X7721Y2060D01*
X7797Y13004D02*
X7899Y12902D01*
X7797Y13516D02*
X7899Y13618D01*
X7797Y16783D02*
X7899Y16681D01*
X7797Y17295D02*
X7899Y17397D01*
X7882Y816D02*
X7780Y713D01*
X7882Y1957D02*
X7780Y2060D01*
X7942Y9904D02*
X7814D01*
X8021Y9746D02*
Y9618D01*
Y10061D02*
Y10190D01*
X8100Y9904D02*
X8228D01*
X8112Y13004D02*
X8010Y12902D01*
X8112Y13516D02*
X8010Y13618D01*
X8112Y16783D02*
X8010Y16681D01*
X8112Y17295D02*
X8010Y17397D01*
X8119Y816D02*
X8167Y688D01*
X8119Y1957D02*
X8167Y2085D01*
X8297Y13004D02*
X8351Y12877D01*
X8297Y13516D02*
X8399Y13618D01*
X8297Y16783D02*
X8324Y16655D01*
X8297Y17295D02*
X8399Y17397D01*
X8523Y10364D02*
X8394D01*
X8680Y10285D02*
Y10157D01*
Y10442D02*
Y10571D01*
X8822Y4793D02*
X8694D01*
X8838Y10364D02*
X8966D01*
X8882Y816D02*
X8834Y688D01*
X8882Y1957D02*
X8834Y2085D01*
X8901Y4636D02*
Y4507D01*
Y4951D02*
Y5079D01*
X8980Y4793D02*
X9108D01*
X9119Y816D02*
X9221Y713D01*
X9119Y1957D02*
X9221Y2060D01*
X9612Y13004D02*
X9510Y12902D01*
X9612Y13516D02*
X9510Y13618D01*
X9633Y12450D02*
X9530Y12552D01*
X9711Y12253D02*
X9838Y12197D01*
X9711Y12450D02*
X9814Y12552D01*
X9797Y13004D02*
X9899Y12902D01*
X9797Y13516D02*
X9899Y13618D01*
X9986Y1057D02*
X9857D01*
X10143Y978D02*
Y850D01*
Y1136D02*
Y1264D01*
X10301Y1057D02*
X10429D01*
X11177Y18067D02*
X11049D01*
X11256Y17910D02*
Y17781D01*
Y18225D02*
Y18353D01*
X11335Y18067D02*
X11463D01*
X11558Y8537D02*
X11430D01*
X11715Y8459D02*
Y8330D01*
Y8616D02*
Y8744D01*
X11873Y8537D02*
X12001D01*
X11924Y3994D02*
X11796D01*
X12003Y3836D02*
Y3708D01*
Y4151D02*
Y4280D01*
X12082Y3994D02*
X12210D01*
X12504Y8130D02*
X12375D01*
X12548Y5452D02*
X12420D01*
X12661Y8051D02*
Y7922D01*
Y8208D02*
Y8337D01*
X12706Y5373D02*
Y5245D01*
Y5530D02*
Y5659D01*
X12819Y8130D02*
X12947D01*
X12863Y5452D02*
X12992D01*
X14324Y1339D02*
X14196D01*
X14600Y1122D02*
Y994D01*
Y1555D02*
Y1684D01*
X14875Y1339D02*
X15004D01*
X17506Y13082D02*
X17404Y12980D01*
X17506Y13594D02*
X17404Y13696D01*
X17589Y12295D02*
X17487Y12193D01*
X17589Y12492D02*
X17487Y12594D01*
X17668Y12295D02*
X17771Y12193D01*
X17668Y12492D02*
X17771Y12594D01*
X17691Y13082D02*
X17793Y12980D01*
X17691Y13594D02*
X17793Y13696D01*
X18483Y18744D02*
X18446Y18616D01*
X18483Y19019D02*
X18446Y19148D01*
X19006Y13082D02*
X18952Y12955D01*
X19006Y13594D02*
X18904Y13696D01*
X19006Y16862D02*
X18904Y16759D01*
X19006Y17373D02*
X18904Y17476D01*
X19034Y18744D02*
X19137Y18642D01*
X19034Y19019D02*
X19137Y19122D01*
X19191Y13082D02*
X19293Y12980D01*
X19191Y13594D02*
X19293Y13696D01*
X19191Y16862D02*
X19293Y16759D01*
X19191Y17373D02*
X19293Y17476D01*
X19506Y13082D02*
X19404Y12980D01*
X19506Y13594D02*
X19404Y13696D01*
X19506Y16862D02*
X19404Y16759D01*
X19506Y17373D02*
X19404Y17476D01*
X19691Y13082D02*
X19793Y12980D01*
X19691Y13594D02*
X19793Y13696D01*
X19691Y16862D02*
X19793Y16759D01*
X19691Y17373D02*
X19793Y17476D01*
X19821Y18909D02*
X19693D01*
X19883Y8112D02*
X19755Y8101D01*
X19883Y8163D02*
X19755Y8174D01*
X19883Y9135D02*
X19755Y9124D01*
X19883Y9186D02*
X19756Y9242D01*
X19883Y9391D02*
X19756Y9335D01*
X19883Y9442D02*
X19781Y9545D01*
X20097Y18771D02*
Y18643D01*
Y19047D02*
Y19175D01*
X20373Y18909D02*
X20501D01*
X20506Y13082D02*
X20404Y12980D01*
X20506Y13594D02*
X20404Y13696D01*
X20592Y9135D02*
X20720Y9124D01*
X20592Y9186D02*
X20718Y9242D01*
X20592Y9391D02*
X20718Y9335D01*
X20592Y9442D02*
X20694Y9545D01*
X20691Y13082D02*
X20793Y12980D01*
X20691Y13594D02*
X20793Y13696D01*
X21006Y13338D02*
X20878D01*
X21099Y13082D02*
Y12954D01*
Y13594D02*
Y13722D01*
X21191Y13338D02*
X21319D01*
X21402Y9271D02*
X21274D01*
X21433Y10373D02*
X21305D01*
X21506Y13338D02*
X21378D01*
X21506Y16862D02*
X21404Y16759D01*
X21506Y17373D02*
X21404Y17476D01*
X21560Y9192D02*
Y9063D01*
Y9349D02*
Y9478D01*
X21591Y10294D02*
Y10166D01*
Y10452D02*
Y10580D01*
X21599Y13082D02*
Y12954D01*
Y13594D02*
Y13722D01*
X21691Y8306D02*
X21588Y8408D01*
X21691Y13338D02*
X21819D01*
X21691Y16862D02*
X21793Y16759D01*
X21691Y17373D02*
X21793Y17476D01*
X21717Y9271D02*
X21846D01*
X21748Y10373D02*
X21877D01*
X21769Y8109D02*
X21898Y8089D01*
X21769Y8306D02*
X21872Y8408D01*
X22006Y13338D02*
X21878D01*
X22006Y17117D02*
X21878D01*
X22099Y13082D02*
Y12954D01*
Y13594D02*
Y13722D01*
Y16862D02*
Y16733D01*
Y17373D02*
Y17502D01*
X22157Y9275D02*
X22028D01*
X22191Y13338D02*
X22319D01*
X22191Y17117D02*
X22319D01*
X22314Y9197D02*
Y9068D01*
Y9354D02*
Y9482D01*
X22472Y9275D02*
X22600D01*
G54D12*
X24589Y849D02*
Y1453D01*
X24817*
X24832*
X24846Y1452*
X24859*
X24871Y1451*
X24882*
X24892Y1450*
X24901Y1448*
X24910Y1447*
X24931Y1442*
X24950Y1437*
X24968Y1429*
X24984Y1419*
X24998Y1408*
X25011Y1394*
X25022Y1379*
X25032Y1361*
X25041Y1341*
X25046Y1321*
X25050Y1300*
X25051Y1278*
X25050Y1259*
X25048Y1241*
X25044Y1224*
X25038Y1207*
X25032Y1191*
X25023Y1176*
X25013Y1161*
X25002Y1148*
X24995Y1141*
X24988Y1135*
X24980Y1130*
X24972Y1125*
X24963Y1120*
X24954Y1115*
X24944Y1112*
X24933Y1108*
X24921Y1105*
X24910Y1102*
X24897Y1100*
X24884Y1098*
X24869Y1096*
X24855Y1095*
X24840*
X24825*
X24669*
Y849*
X24589*
X24669Y1166D02*
X24826D01*
X24844Y1167*
X24861Y1168*
X24877Y1170*
X24892Y1173*
X24905Y1177*
X24917Y1182*
X24927Y1188*
X24936Y1195*
X24943Y1202*
X24950Y1211*
X24955Y1220*
X24960Y1229*
X24963Y1240*
X24966Y1251*
X24967Y1263*
X24968Y1276*
Y1285*
X24967Y1294*
X24965Y1302*
X24963Y1311*
X24960Y1319*
X24957Y1327*
X24953Y1334*
X24949Y1341*
X24939Y1353*
X24927Y1363*
X24913Y1371*
X24898Y1376*
X24893Y1377*
X24886Y1379*
X24878*
X24869Y1380*
X24860Y1381*
X24849*
X24837Y1382*
X24824*
X24669*
Y1166*
X24873Y2992D02*
Y3596D01*
X25141*
X25161*
X25179Y3595*
X25196Y3594*
X25212Y3592*
X25227Y3590*
X25240Y3587*
X25253Y3584*
X25264Y3580*
X25274Y3576*
X25283Y3570*
X25293Y3564*
X25302Y3557*
X25309Y3550*
X25317Y3541*
X25324Y3532*
X25331Y3522*
X25337Y3512*
X25342Y3501*
X25346Y3490*
X25350Y3479*
X25353Y3467*
X25354Y3456*
X25356Y3443*
Y3431*
Y3416*
X25354Y3400*
X25350Y3386*
X25345Y3372*
X25340Y3359*
X25332Y3346*
X25324Y3334*
X25315Y3323*
X25304Y3312*
X25291Y3303*
X25277Y3294*
X25262Y3287*
X25245Y3280*
X25226Y3274*
X25207Y3270*
X25186Y3267*
X25201Y3259*
X25214Y3251*
X25225Y3244*
X25234Y3237*
X25252Y3219*
X25268Y3201*
X25285Y3179*
X25300Y3156*
X25405Y2992*
X25305*
X25225Y3118*
X25216Y3131*
X25208Y3143*
X25200Y3154*
X25193Y3166*
X25186Y3176*
X25180Y3185*
X25173Y3193*
X25167Y3201*
X25156Y3214*
X25146Y3225*
X25136Y3234*
X25126Y3241*
X25118Y3247*
X25109Y3251*
X25099Y3254*
X25090Y3257*
X25082Y3258*
X25072Y3260*
X25060*
X25045*
X24953*
Y2992*
X24873*
X24953Y3329D02*
X25125D01*
X25138*
X25151Y3330*
X25162Y3331*
X25174Y3332*
X25184Y3333*
X25194Y3336*
X25203Y3338*
X25210Y3341*
X25225Y3347*
X25237Y3355*
X25249Y3365*
X25257Y3377*
X25265Y3390*
X25269Y3403*
X25272Y3417*
X25273Y3431*
Y3441*
X25272Y3452*
X25269Y3461*
X25266Y3470*
X25261Y3479*
X25256Y3487*
X25250Y3495*
X25242Y3502*
X25234Y3508*
X25224Y3514*
X25214Y3519*
X25202Y3522*
X25190Y3525*
X25175Y3528*
X25161Y3529*
X25144*
X24953*
Y3329*
X25141Y849D02*
Y1453D01*
X25215*
Y849*
X25141*
X25232Y2126D02*
Y2055D01*
X24832*
Y2067*
X24834Y2080*
X24837Y2093*
X24841Y2106*
X24850Y2127*
X24861Y2147*
X24874Y2167*
X24890Y2186*
X24899Y2196*
X24909Y2207*
X24919Y2217*
X24931Y2229*
X24944Y2241*
X24957Y2252*
X24972Y2265*
X24987Y2278*
X25011Y2297*
X25032Y2316*
X25052Y2334*
X25070Y2350*
X25085Y2366*
X25099Y2380*
X25111Y2393*
X25121Y2406*
X25129Y2418*
X25136Y2429*
X25142Y2441*
X25147Y2452*
X25151Y2463*
X25153Y2474*
X25155Y2484*
X25156Y2495*
X25155Y2506*
X25154Y2516*
X25151Y2526*
X25148Y2536*
X25143Y2545*
X25138Y2554*
X25131Y2562*
X25124Y2569*
X25116Y2577*
X25107Y2582*
X25098Y2588*
X25088Y2592*
X25077Y2595*
X25066Y2598*
X25054Y2599*
X25042Y2600*
X25029Y2599*
X25016Y2598*
X25004Y2595*
X24993Y2591*
X24982Y2587*
X24973Y2581*
X24964Y2575*
X24955Y2568*
X24948Y2559*
X24941Y2550*
X24936Y2540*
X24931Y2529*
X24928Y2517*
X24925Y2505*
X24923Y2492*
Y2479*
X24847Y2486*
X24850Y2507*
X24853Y2526*
X24858Y2545*
X24866Y2561*
X24873Y2577*
X24883Y2591*
X24893Y2604*
X24906Y2616*
X24919Y2627*
X24933Y2636*
X24949Y2643*
X24965Y2650*
X24983Y2655*
X25002Y2658*
X25022Y2660*
X25043Y2661*
X25065Y2660*
X25085Y2658*
X25104Y2654*
X25121Y2649*
X25138Y2642*
X25153Y2634*
X25168Y2624*
X25181Y2613*
X25193Y2600*
X25203Y2587*
X25212Y2574*
X25219Y2559*
X25225Y2543*
X25229Y2528*
X25231Y2511*
X25232Y2493*
X25231Y2475*
X25228Y2457*
X25223Y2440*
X25217Y2422*
X25213Y2413*
X25208Y2404*
X25203Y2395*
X25197Y2386*
X25190Y2377*
X25183Y2367*
X25176Y2358*
X25167Y2348*
X25158Y2338*
X25147Y2327*
X25135Y2315*
X25121Y2303*
X25106Y2288*
X25090Y2274*
X25072Y2258*
X25053Y2242*
X25037Y2229*
X25023Y2216*
X25010Y2205*
X24998Y2195*
X24988Y2186*
X24980Y2179*
X24972Y2171*
X24967Y2166*
X24958Y2156*
X24950Y2146*
X24942Y2136*
X24936Y2126*
X25232*
X25311Y2353D02*
X25312Y2379D01*
X25313Y2404*
X25314Y2427*
X25317Y2449*
X25320Y2470*
X25324Y2490*
X25329Y2508*
X25333Y2525*
X25339Y2541*
X25346Y2556*
X25353Y2570*
X25361Y2583*
X25369Y2595*
X25379Y2606*
X25389Y2616*
X25399Y2626*
X25411Y2634*
X25422Y2641*
X25435Y2647*
X25448Y2652*
X25463Y2656*
X25477Y2659*
X25493Y2660*
X25509Y2661*
X25520Y2660*
X25532*
X25544Y2658*
X25554Y2656*
X25565Y2653*
X25575Y2650*
X25585Y2646*
X25594Y2642*
X25612Y2630*
X25628Y2617*
X25642Y2603*
X25655Y2585*
X25666Y2565*
X25676Y2544*
X25685Y2520*
X25692Y2495*
X25695Y2481*
X25698Y2467*
X25701Y2450*
X25702Y2433*
X25704Y2415*
X25705Y2395*
X25706Y2375*
Y2353*
X25705Y2327*
Y2302*
X25703Y2278*
X25701Y2256*
X25698Y2236*
X25694Y2216*
X25689Y2198*
X25684Y2181*
X25678Y2165*
X25672Y2150*
X25665Y2136*
X25657Y2123*
X25648Y2111*
X25639Y2099*
X25629Y2089*
X25619Y2080*
X25607Y2072*
X25595Y2065*
X25583Y2058*
X25569Y2053*
X25555Y2049*
X25541Y2047*
X25525Y2045*
X25509Y2044*
X25487Y2046*
X25467Y2049*
X25448Y2053*
X25431Y2060*
X25414Y2069*
X25399Y2079*
X25384Y2092*
X25371Y2106*
X25364Y2117*
X25357Y2127*
X25351Y2138*
X25345Y2150*
X25340Y2163*
X25335Y2177*
X25330Y2191*
X25326Y2206*
X25323Y2222*
X25320Y2238*
X25317Y2255*
X25315Y2274*
X25314Y2292*
X25313Y2311*
X25311Y2331*
Y2353*
X25388Y2352D02*
Y2334D01*
Y2317*
X25389Y2300*
X25390Y2284*
X25391Y2269*
X25392Y2255*
X25394Y2241*
X25396Y2228*
X25399Y2216*
X25401Y2205*
X25404Y2194*
X25407Y2185*
X25411Y2176*
X25414Y2168*
X25418Y2161*
X25422Y2154*
X25431Y2143*
X25441Y2133*
X25451Y2124*
X25461Y2118*
X25473Y2112*
X25484Y2108*
X25496Y2106*
X25509Y2105*
X25521Y2106*
X25533Y2108*
X25545Y2112*
X25556Y2118*
X25567Y2125*
X25577Y2133*
X25586Y2143*
X25595Y2154*
X25599Y2161*
X25603Y2168*
X25607Y2177*
X25610Y2186*
X25613Y2195*
X25616Y2206*
X25619Y2217*
X25621Y2229*
X25623Y2241*
X25625Y2255*
X25626Y2269*
X25627Y2284*
X25629Y2300*
Y2317*
X25630Y2334*
Y2352*
Y2370*
X25629Y2388*
Y2405*
X25627Y2421*
X25626Y2436*
X25625Y2450*
X25623Y2464*
X25621Y2477*
X25619Y2489*
X25616Y2500*
X25613Y2510*
X25610Y2520*
X25607Y2529*
X25603Y2536*
X25599Y2544*
X25595Y2551*
X25586Y2562*
X25577Y2572*
X25567Y2580*
X25556Y2587*
X25545Y2592*
X25533Y2597*
X25520Y2599*
X25508Y2600*
X25495Y2599*
X25483Y2597*
X25472Y2594*
X25462Y2589*
X25452Y2582*
X25443Y2575*
X25434Y2567*
X25426Y2556*
X25421Y2549*
X25417Y2541*
X25413Y2532*
X25409Y2523*
X25406Y2513*
X25402Y2502*
X25400Y2490*
X25397Y2478*
X25395Y2464*
X25393Y2451*
X25391Y2436*
X25390Y2421*
X25389Y2405*
X25388Y2388*
Y2370*
Y2352*
X25444Y3211D02*
X25445Y3240D01*
X25448Y3268*
X25454Y3293*
X25461Y3317*
X25471Y3338*
X25482Y3358*
X25496Y3375*
X25512Y3391*
X25526Y3403*
X25542Y3413*
X25557Y3421*
X25575Y3427*
X25592Y3433*
X25611Y3437*
X25630Y3439*
X25650Y3440*
X25671Y3439*
X25693Y3436*
X25713Y3431*
X25732Y3425*
X25749Y3417*
X25767Y3407*
X25782Y3394*
X25797Y3381*
X25811Y3365*
X25822Y3348*
X25832Y3330*
X25840Y3310*
X25846Y3289*
X25851Y3266*
X25854Y3242*
X25855Y3217*
X25854Y3196*
X25853Y3177*
X25851Y3159*
X25848Y3141*
X25845Y3126*
X25840Y3111*
X25835Y3097*
X25829Y3084*
X25823Y3072*
X25815Y3061*
X25807Y3051*
X25798Y3041*
X25788Y3032*
X25778Y3023*
X25767Y3016*
X25755Y3009*
X25743Y3003*
X25731Y2997*
X25718Y2993*
X25705Y2989*
X25692Y2986*
X25677Y2984*
X25664Y2983*
X25650Y2982*
X25627Y2983*
X25606Y2986*
X25585Y2990*
X25566Y2997*
X25549Y3005*
X25532Y3015*
X25516Y3027*
X25501Y3041*
X25488Y3056*
X25476Y3074*
X25467Y3092*
X25458Y3113*
X25452Y3135*
X25448Y3159*
X25445Y3184*
X25444Y3211*
X25520D02*
X25521Y3191D01*
X25523Y3171*
X25526Y3153*
X25530Y3137*
X25534Y3122*
X25541Y3108*
X25549Y3096*
X25557Y3085*
X25566Y3075*
X25576Y3066*
X25587Y3059*
X25599Y3054*
X25611Y3049*
X25623Y3045*
X25636Y3043*
X25650*
X25663*
X25676Y3045*
X25689Y3049*
X25700Y3054*
X25712Y3059*
X25722Y3066*
X25732Y3075*
X25742Y3085*
X25750Y3096*
X25758Y3108*
X25764Y3123*
X25769Y3138*
X25773Y3154*
X25776Y3173*
X25778Y3192*
Y3213*
Y3233*
X25776Y3251*
X25773Y3268*
X25769Y3284*
X25764Y3299*
X25758Y3313*
X25750Y3325*
X25741Y3336*
X25732Y3346*
X25722Y3355*
X25711Y3362*
X25700Y3368*
X25688Y3372*
X25676Y3375*
X25663Y3378*
X25650*
X25636*
X25623Y3376*
X25611Y3372*
X25599Y3368*
X25587Y3362*
X25576Y3355*
X25566Y3346*
X25557Y3336*
X25549Y3326*
X25541Y3313*
X25534Y3299*
X25530Y3284*
X25526Y3268*
X25523Y3250*
X25521Y3231*
X25520Y3211*
X25616Y849D02*
Y913D01*
X25603Y896*
X25589Y881*
X25573Y868*
X25556Y857*
X25539Y850*
X25519Y844*
X25499Y840*
X25478Y839*
X25459Y840*
X25440Y842*
X25423Y847*
X25406Y854*
X25390Y861*
X25376Y870*
X25365Y880*
X25355Y891*
X25348Y903*
X25342Y916*
X25337Y930*
X25333Y946*
X25332Y952*
X25331Y959*
X25330Y966*
X25329Y974*
Y984*
Y993*
X25328Y1004*
Y1015*
Y1287*
X25403*
Y1044*
Y1030*
Y1017*
Y1005*
X25404Y995*
Y986*
X25405Y978*
X25406Y971*
X25407Y965*
X25412Y952*
X25418Y939*
X25426Y929*
X25437Y919*
X25449Y912*
X25462Y907*
X25477Y904*
X25493Y903*
X25509Y904*
X25525Y907*
X25540Y912*
X25555Y920*
X25569Y929*
X25580Y940*
X25589Y952*
X25596Y966*
X25599Y974*
X25602Y983*
X25604Y992*
X25606Y1002*
X25607Y1014*
X25608Y1025*
X25609Y1038*
Y1052*
Y1287*
X25683*
Y849*
X25616*
X25800D02*
Y1287D01*
X25866*
Y1225*
X25877Y1240*
X25890Y1254*
X25905Y1266*
X25921Y1277*
X25930Y1281*
X25939Y1285*
X25948Y1289*
X25958Y1292*
X25967Y1294*
X25978Y1295*
X25988Y1296*
X25999Y1297*
X26011Y1296*
X26022Y1295*
X26033Y1294*
X26043Y1291*
X26053Y1289*
X26062Y1285*
X26071Y1281*
X26078Y1276*
X26093Y1265*
X26105Y1252*
X26115Y1237*
X26123Y1220*
X26129Y1229*
X26136Y1237*
X26143Y1246*
X26150Y1253*
X26158Y1261*
X26166Y1266*
X26174Y1272*
X26182Y1277*
X26191Y1282*
X26199Y1286*
X26209Y1289*
X26218Y1292*
X26228Y1294*
X26237Y1295*
X26247Y1296*
X26258Y1297*
X26274Y1296*
X26289Y1294*
X26303Y1291*
X26316Y1288*
X26327Y1282*
X26339Y1276*
X26349Y1269*
X26358Y1261*
X26366Y1251*
X26374Y1240*
X26379Y1228*
X26384Y1214*
X26388Y1200*
X26391Y1184*
X26392Y1167*
X26393Y1150*
Y849*
X26319*
Y1125*
Y1135*
X26318Y1145*
Y1154*
X26317Y1163*
X26316Y1170*
X26314Y1177*
X26313Y1183*
X26312Y1188*
X26307Y1198*
X26301Y1206*
X26294Y1214*
X26286Y1220*
X26276Y1226*
X26265Y1229*
X26253Y1232*
X26241*
X26229*
X26219Y1230*
X26209Y1228*
X26199Y1225*
X26189Y1220*
X26180Y1215*
X26172Y1209*
X26164Y1201*
X26157Y1193*
X26151Y1184*
X26146Y1173*
X26141Y1161*
X26138Y1149*
X26136Y1135*
X26134Y1119*
Y1103*
Y849*
X26059*
Y1133*
Y1145*
X26058Y1157*
X26057Y1167*
X26055Y1177*
X26052Y1186*
X26049Y1193*
X26046Y1201*
X26042Y1207*
X26036Y1213*
X26031Y1218*
X26025Y1223*
X26017Y1226*
X26010Y1229*
X26001Y1230*
X25992Y1232*
X25982*
X25967Y1231*
X25952Y1228*
X25938Y1223*
X25925Y1216*
X25912Y1206*
X25902Y1196*
X25893Y1183*
X25886Y1167*
X25883Y1159*
X25881Y1150*
X25879Y1139*
X25877Y1129*
X25876Y1117*
X25875Y1104*
Y1090*
X25874Y1076*
Y849*
X25800*
X25912Y3123D02*
X25985Y3134D01*
X25987Y3124*
X25990Y3114*
X25993Y3104*
X25997Y3095*
X26002Y3087*
X26007Y3079*
X26013Y3072*
X26019Y3066*
X26027Y3061*
X26035Y3056*
X26044Y3052*
X26054Y3049*
X26064Y3046*
X26075Y3044*
X26086Y3043*
X26098*
X26111*
X26123Y3044*
X26133Y3046*
X26143Y3048*
X26152Y3051*
X26160Y3055*
X26168Y3059*
X26175Y3064*
X26181Y3069*
X26185Y3075*
X26190Y3080*
X26194Y3087*
X26196Y3092*
X26198Y3099*
X26199Y3105*
Y3113*
Y3119*
X26198Y3124*
X26196Y3130*
X26194Y3135*
X26191Y3140*
X26187Y3144*
X26183Y3149*
X26178Y3152*
X26173Y3155*
X26167Y3157*
X26159Y3160*
X26151Y3163*
X26140Y3167*
X26129Y3170*
X26116Y3174*
X26101Y3178*
X26082Y3183*
X26064Y3188*
X26047Y3192*
X26032Y3197*
X26019Y3201*
X26007Y3205*
X25997Y3209*
X25988Y3213*
X25973Y3221*
X25960Y3231*
X25950Y3242*
X25941Y3255*
X25934Y3268*
X25928Y3283*
X25925Y3298*
X25924Y3313*
X25925Y3328*
X25928Y3342*
X25932Y3355*
X25938Y3368*
X25945Y3379*
X25954Y3391*
X25963Y3400*
X25974Y3409*
X25984Y3416*
X25995Y3421*
X26007Y3426*
X26021Y3431*
X26036Y3434*
X26052Y3437*
X26069Y3439*
X26085Y3440*
X26110Y3439*
X26134Y3436*
X26156Y3431*
X26176Y3425*
X26185Y3421*
X26194Y3417*
X26202Y3412*
X26210Y3407*
X26217Y3402*
X26223Y3397*
X26228Y3391*
X26234Y3385*
X26242Y3371*
X26249Y3355*
X26255Y3337*
X26259Y3317*
X26186Y3307*
X26183Y3323*
X26177Y3337*
X26169Y3349*
X26157Y3360*
X26152Y3364*
X26145Y3368*
X26137Y3371*
X26129Y3374*
X26120Y3376*
X26111Y3378*
X26101*
X26091Y3379*
X26078Y3378*
X26067*
X26057Y3377*
X26047Y3375*
X26038Y3372*
X26031Y3369*
X26023Y3366*
X26018Y3362*
X26012Y3358*
X26008Y3353*
X26005Y3348*
X26001Y3343*
X25999Y3339*
X25997Y3333*
X25996Y3328*
Y3322*
Y3315*
X25998Y3309*
X26001Y3302*
X26005Y3296*
X26010Y3290*
X26016Y3285*
X26024Y3280*
X26033Y3276*
X26037Y3275*
X26042Y3274*
X26048Y3272*
X26055Y3270*
X26064Y3267*
X26074Y3264*
X26086Y3261*
X26099Y3257*
X26118Y3252*
X26136Y3247*
X26152Y3242*
X26166Y3238*
X26179Y3234*
X26191Y3230*
X26201Y3227*
X26209Y3223*
X26224Y3215*
X26237Y3206*
X26248Y3196*
X26258Y3184*
X26266Y3170*
X26271Y3155*
X26274Y3139*
X26276Y3120*
X26275Y3111*
X26274Y3102*
X26273Y3093*
X26270Y3084*
X26267Y3076*
X26263Y3067*
X26259Y3059*
X26254Y3051*
X26248Y3043*
X26242Y3035*
X26235Y3028*
X26228Y3022*
X26220Y3016*
X26211Y3010*
X26201Y3004*
X26192Y3000*
X26170Y2992*
X26148Y2987*
X26124Y2983*
X26099Y2982*
X26078Y2983*
X26059Y2984*
X26041Y2987*
X26024Y2991*
X26008Y2996*
X25994Y3002*
X25981Y3009*
X25969Y3017*
X25958Y3027*
X25948Y3038*
X25940Y3049*
X25932Y3061*
X25925Y3075*
X25920Y3090*
X25915Y3105*
X25912Y3123*
X26061Y2055D02*
X25986D01*
Y2527*
X25972Y2515*
X25956Y2502*
X25937Y2489*
X25916Y2476*
X25895Y2464*
X25875Y2454*
X25856Y2445*
X25838Y2438*
Y2509*
X25868Y2525*
X25897Y2542*
X25923Y2560*
X25947Y2580*
X25958Y2591*
X25969Y2601*
X25978Y2611*
X25987Y2621*
X25995Y2631*
X26002Y2642*
X26008Y2651*
X26013Y2661*
X26061*
Y2055*
X26419Y3253D02*
X26664D01*
X26662Y3266*
X26661Y3279*
X26658Y3290*
X26655Y3301*
X26651Y3311*
X26646Y3320*
X26642Y3328*
X26636Y3336*
X26627Y3346*
X26617Y3355*
X26606Y3362*
X26595Y3368*
X26583Y3373*
X26571Y3376*
X26558Y3378*
X26544Y3379*
X26531Y3378*
X26520Y3377*
X26508Y3374*
X26497Y3370*
X26486Y3365*
X26476Y3359*
X26467Y3352*
X26457Y3345*
X26450Y3335*
X26442Y3326*
X26436Y3315*
X26431Y3304*
X26426Y3293*
X26423Y3280*
X26420Y3267*
X26419Y3253*
X26488Y2055D02*
Y2199D01*
X26226*
Y2267*
X26502Y2659*
X26563*
Y2267*
X26644*
Y2199*
X26563*
Y2055*
X26488*
Y2267D02*
Y2540D01*
X26299Y2267*
X26488*
X26558Y1109D02*
X26803D01*
X26801Y1123*
X26799Y1135*
X26796Y1147*
X26793Y1158*
X26789Y1168*
X26785Y1177*
X26780Y1185*
X26775Y1193*
X26766Y1203*
X26756Y1212*
X26745Y1219*
X26734Y1225*
X26722Y1230*
X26710Y1233*
X26697Y1235*
X26682Y1236*
X26670Y1235*
X26658Y1233*
X26646Y1231*
X26636Y1227*
X26625Y1222*
X26615Y1216*
X26606Y1209*
X26596Y1201*
X26589Y1192*
X26581Y1183*
X26575Y1172*
X26570Y1161*
X26565Y1150*
X26561Y1137*
X26559Y1124*
X26558Y1109*
X26664Y3133D02*
X26740Y3123D01*
X26735Y3107*
X26729Y3091*
X26722Y3077*
X26714Y3064*
X26706Y3051*
X26695Y3039*
X26685Y3029*
X26673Y3019*
X26660Y3010*
X26647Y3003*
X26632Y2996*
X26617Y2991*
X26601Y2987*
X26584Y2984*
X26566Y2983*
X26548Y2982*
X26524Y2983*
X26502Y2986*
X26481Y2990*
X26462Y2997*
X26443Y3005*
X26426Y3015*
X26410Y3028*
X26395Y3041*
X26382Y3056*
X26371Y3074*
X26361Y3092*
X26353Y3112*
X26346Y3134*
X26342Y3157*
X26340Y3181*
X26339Y3207*
X26340Y3234*
X26342Y3259*
X26347Y3283*
X26353Y3305*
X26361Y3326*
X26371Y3345*
X26382Y3362*
X26395Y3379*
X26410Y3393*
X26426Y3405*
X26443Y3416*
X26461Y3424*
X26480Y3431*
X26500Y3436*
X26521Y3439*
X26544Y3440*
X26565Y3439*
X26586Y3436*
X26605Y3431*
X26623Y3425*
X26641Y3416*
X26657Y3406*
X26672Y3394*
X26687Y3380*
X26700Y3364*
X26711Y3347*
X26721Y3328*
X26729Y3308*
X26735Y3286*
X26739Y3263*
X26742Y3238*
X26743Y3211*
Y3208*
Y3203*
Y3198*
X26742Y3192*
X26415*
X26417Y3174*
X26419Y3157*
X26423Y3142*
X26427Y3128*
X26433Y3115*
X26440Y3103*
X26447Y3091*
X26456Y3081*
X26465Y3072*
X26475Y3064*
X26486Y3058*
X26497Y3052*
X26509Y3048*
X26521Y3045*
X26534Y3043*
X26548*
X26558*
X26567Y3044*
X26577Y3046*
X26586Y3048*
X26594Y3051*
X26602Y3055*
X26610Y3059*
X26618Y3064*
X26625Y3070*
X26631Y3077*
X26638Y3084*
X26644Y3092*
X26649Y3101*
X26654Y3111*
X26659Y3122*
X26664Y3133*
X26802Y990D02*
X26879Y980D01*
X26874Y963*
X26868Y948*
X26861Y934*
X26853Y920*
X26844Y908*
X26834Y896*
X26824Y886*
X26812Y876*
X26799Y867*
X26786Y860*
X26771Y853*
X26756Y848*
X26740Y844*
X26723Y841*
X26705Y839*
X26687*
X26663Y840*
X26640Y842*
X26620Y847*
X26600Y854*
X26581Y862*
X26564Y872*
X26548Y884*
X26534Y898*
X26521Y913*
X26509Y930*
X26499Y949*
X26492Y969*
X26485Y991*
X26481Y1014*
X26479Y1038*
X26477Y1064*
X26479Y1091*
X26481Y1116*
X26486Y1140*
X26492Y1162*
X26500Y1183*
X26509Y1202*
X26521Y1219*
X26534Y1236*
X26549Y1250*
X26565Y1262*
X26582Y1273*
X26600Y1281*
X26619Y1288*
X26639Y1292*
X26660Y1295*
X26682Y1297*
X26704Y1295*
X26724Y1293*
X26744Y1288*
X26762Y1282*
X26779Y1273*
X26796Y1263*
X26811Y1250*
X26826Y1237*
X26839Y1221*
X26850Y1204*
X26860Y1185*
X26867Y1165*
X26874Y1143*
X26878Y1119*
X26881Y1095*
Y1068*
Y1064*
Y1060*
Y1054*
Y1049*
X26554*
X26555Y1031*
X26558Y1014*
X26561Y999*
X26566Y985*
X26571Y972*
X26578Y959*
X26586Y948*
X26594Y938*
X26604Y929*
X26614Y921*
X26625Y914*
X26636Y909*
X26648Y905*
X26660Y902*
X26673Y900*
X26687*
X26697*
X26706Y901*
X26715Y903*
X26724Y905*
X26733Y908*
X26741Y912*
X26749Y916*
X26756Y921*
X26763Y927*
X26770Y933*
X26776Y941*
X26782Y949*
X26788Y958*
X26793Y968*
X26798Y979*
X26802Y990*
G54D13*
X1833Y7756D02*
X2256D01*
X2260Y7760*
X2568*
X2809Y7519*
Y7440*
X2808Y8149D02*
X2582D01*
X2444Y8011*
X1833*
X2809Y7440D02*
Y7135D01*
X2812Y7133*
Y6732*
X3360Y8149D02*
X3833D01*
X4136Y7846*
X5930*
X3360Y7440D02*
X3886D01*
X4118Y7673*
X5856*
X4181Y8723D02*
Y9256D01*
X4076Y9362*
Y9549*
X4636Y9688D02*
Y9383D01*
X4681Y9337*
Y8723*
Y6715D02*
X5181D01*
X4681Y8168D02*
Y8723D01*
X5187Y9688D02*
Y10145D01*
X5006Y10326*
X4191*
X4076Y10211*
Y9942*
X5205Y10710D02*
X6336Y9579D01*
Y8098*
X6787Y7647*
X7563*
X5205Y13260D02*
Y12856D01*
X5203Y12855*
Y12437*
X5681Y8723D02*
X5181D01*
X5701Y10697D02*
X6551Y9847D01*
Y8371*
X6881Y8040*
X7563*
X5705Y13260D02*
Y12499D01*
X5474Y12269*
Y11951*
X5856Y7673D02*
X6668Y6861D01*
X5930Y7846D02*
X6718Y7058D01*
X6130Y6978D02*
X5984Y7124D01*
Y7273*
X5761Y7496*
X4178*
X3837Y7156*
Y6918*
X3651Y6732*
X3363*
X6205Y13260D02*
Y12856D01*
X6254Y12806*
Y12352*
X6258Y11880D02*
X5992D01*
X5808Y11696*
X6668Y6861D02*
X6670Y6859D01*
X7563*
X6718Y7058D02*
X6720Y7056D01*
X7563*
X6768Y7417D02*
X6933Y7253D01*
X7563*
X6920Y6626D02*
X7081Y6466D01*
X7563*
X7316Y5789D02*
X7001Y5474D01*
Y2985*
X7563Y6269D02*
X7049D01*
X7048Y6271*
X6632*
X7563Y6269D02*
X8706D01*
X8814Y6377*
Y6682*
X8856Y6724*
X7563Y8237D02*
X6997D01*
X6748Y8487*
Y10404*
X6414Y10737*
X8001Y2985D02*
Y4122D01*
X8469Y4590*
Y5757*
X8021Y9904D02*
Y9825D01*
X8272Y9574*
Y8946*
X8021Y10420D02*
Y9904D01*
X8075Y5757D02*
X7908D01*
X7501Y5350*
Y2985*
X8075Y8946D02*
X7826D01*
X7824Y8948*
X7791*
X7470Y9269*
Y9904*
X8075Y8946D02*
Y8261D01*
X8493Y7844*
X8814*
X8087Y11619D02*
X7713D01*
X7070Y10977*
Y9240*
X7563Y8748*
Y8434*
X8190Y6662D02*
X7563D01*
X8272Y5757D02*
Y4867D01*
X7927Y4522*
X8501Y2985D02*
Y3739D01*
X8500Y3740*
Y3947*
X8680Y9813D02*
Y9586D01*
X8862Y9404*
Y8946*
X8814Y7844D02*
Y6766D01*
X8856Y6724*
X9893*
X10349Y6269*
X10752*
X9453Y5757D02*
Y5353D01*
X9452*
Y4793*
X9599Y2985D02*
X9001D01*
X9671Y11879D02*
X10036D01*
X10191Y11723*
X9705Y13260D02*
Y12856D01*
X9672Y12824*
Y12351*
X9705Y17039D02*
Y16455D01*
X9749Y9690D02*
X9453Y9394D01*
Y8946*
X9847Y5757D02*
Y3646D01*
X10145Y3348*
Y2569*
X10038Y8140D02*
X10247D01*
X10346Y8040*
X10752*
X10122Y10014D02*
X10117Y10009D01*
X9524*
X9256Y9742*
Y8946*
X10143Y1608D02*
Y1987D01*
X10145Y1988*
Y2175*
X10202Y12441D02*
Y12854D01*
X10205Y12856*
Y13260*
X10203Y4948D02*
X10044Y5108D01*
Y5757*
X10653Y10284D02*
X9445D01*
X9059Y9898*
Y8946*
X10705Y13260D02*
Y12856D01*
X10703Y12855*
Y12455*
X10668Y12420*
Y12031*
X10705Y2985D02*
X10830Y3111D01*
X11450*
X10752Y8911D02*
Y8704D01*
Y8434*
Y6269D02*
Y6101D01*
X10408Y5757*
X10240*
X10752Y7056D02*
X14120D01*
X14365Y6811*
Y4902*
X10752Y7450D02*
X10097D01*
X9815Y7168*
X10752Y7647D02*
X9639D01*
X9433Y7441*
X10752Y7844D02*
X11239D01*
X11282Y7886*
X11283*
X11383Y7986*
X11715*
X10752Y7844D02*
X8814D01*
X10792Y9457D02*
X9954D01*
X9847Y9349*
Y8946*
X11452Y3994D02*
Y4299D01*
X11623Y4470*
Y6663*
X11452Y3994D02*
Y3689D01*
X11450Y3687*
Y3111*
X12661Y7255D02*
X14071D01*
X14365Y7550*
Y8603*
X12661Y7255D02*
X12659Y7253D01*
X10752*
X12661Y7255D02*
Y7578D01*
X14365Y4902D02*
X13487D01*
X13486Y4901*
X12706*
X15936Y9161D02*
X16423D01*
X16424*
X17206*
X15946Y6858D02*
X17206D01*
X16001Y8140D02*
X16454D01*
X16457Y8137*
X17206*
X16311Y5067D02*
X16610D01*
X16611Y5066*
X17206*
X16311Y5583D02*
X16608D01*
X16613Y5578*
X17206*
X16314Y7114D02*
X17206D01*
X16320Y9420D02*
X16614D01*
X16617Y9417*
X17206*
X16334Y8906D02*
X16622D01*
X16623Y8905*
X17206*
X16341Y6602D02*
X17206D01*
X16593Y17861D02*
Y17654D01*
X16599Y17648*
Y17117*
X16597Y12446D02*
Y12933D01*
X16599Y12934*
Y13338*
X17094Y12066D02*
Y12930D01*
X17099Y12934*
Y13338*
X17206Y5322D02*
X16516D01*
X16513Y5326*
X17206Y5834D02*
X17708D01*
X17764Y5778*
Y3342*
X17206Y6090D02*
X17845D01*
X18264Y5671*
Y3342*
X17206Y7370D02*
X17962D01*
X18933Y6398*
Y4832*
X19601Y4163*
X21377*
X21476Y4065*
Y3342*
X17206Y7625D02*
X18167D01*
X19186Y6607*
Y4857*
X19728Y4315*
X21813*
X21976Y4151*
Y3342*
X17206Y8393D02*
Y8137D01*
Y8649D02*
Y8393D01*
X17599Y17117D02*
Y16714D01*
X17574Y16689*
Y16463*
X17764Y893D02*
Y1743D01*
X18015Y10510D02*
Y11321D01*
X18020Y11326*
Y11513*
Y11907D02*
Y12145D01*
X18023Y12148*
Y12394*
X18099Y13338D02*
Y12934D01*
X18023Y12858*
Y12394*
X18264Y895D02*
Y1743D01*
X18759Y888D02*
X18764Y894D01*
Y1743*
Y3342D02*
Y5849D01*
X18267Y6346*
X17206*
X19000Y8906D02*
X19693D01*
X19694Y8905*
X20237*
Y5066D02*
X22505D01*
X23163Y5725*
X24546*
X20237Y6602D02*
X22446D01*
X23288Y7444*
Y8221*
X23624Y8556*
X24539*
X20237Y6858D02*
X20780D01*
X20782Y6860*
X22395*
X23071Y7536*
Y8592*
X23535Y9056*
X24539*
X20237Y8393D02*
X20909D01*
X21094Y8208*
X21336*
X20237Y8649D02*
X21178D01*
X21248Y8719*
X21560*
X20237Y8905D02*
X20845D01*
X21004Y9064*
Y9582*
X21244Y9822*
X21591*
X21311Y6346D02*
X20237D01*
X21322Y5848D02*
X21308Y5834D01*
X20237*
X21475Y836D02*
X21476Y838D01*
Y1743*
X21489Y7370D02*
X20237D01*
X21560Y8719D02*
X21935D01*
X21939Y8724*
X22314*
X21739Y6090D02*
X20237D01*
X21976Y825D02*
Y1743D01*
X22013Y7625D02*
X22012D01*
X20237*
X22476Y3342D02*
Y4060D01*
X22466*
X22025Y4502*
X19840*
X19431Y4910*
Y6814*
X18363Y7881*
X17206*
X22480Y804D02*
Y1021D01*
X22476Y1025*
Y1743*
X22491Y7893D02*
X22480Y7881D01*
X20237*
X24539Y9556D02*
X23505D01*
X22829Y8880*
Y7611*
X22331Y7114*
X20237*
X24546Y6225D02*
X23163D01*
X22261Y5322*
X20237*
X24546Y6725D02*
X23191D01*
X22044Y5578*
X20237*
X26104Y11297D02*
X26091Y11309D01*
X26984Y9056D02*
X26138D01*
X26988Y8558D02*
X26986Y8556D01*
X26138*
X26997Y9559D02*
X26994Y9556D01*
X26138*
X27000Y6225D02*
X26145D01*
X27003Y6722D02*
X27000Y6725D01*
X26145*
X27007Y5727D02*
X27005Y5725D01*
X26145*
G54D14*
X5207Y18079D02*
Y17745D01*
X5205Y17742*
Y17039*
X6205Y13955D02*
Y13260D01*
X6207Y17997D02*
Y17741D01*
X6205Y17738*
Y17039*
X6648Y12352D02*
Y12770D01*
X6705Y12827*
Y13260*
X6648Y12352D02*
X6651Y12349D01*
Y11880*
X7493Y501D02*
X7501Y508D01*
Y1386*
X8001*
X7993Y491D02*
X8001Y498D01*
Y1386*
X8580Y18282D02*
Y18941D01*
X8489Y19033*
X9001Y491D02*
Y1386D01*
X9278Y12351D02*
Y12753D01*
X9205Y12827*
Y13260*
X9278Y12351D02*
Y11880D01*
X9277Y11879*
X9705Y14004D02*
Y13260D01*
X17599Y13338D02*
Y12905D01*
X17629Y12875*
Y12394*
X17599Y14048D02*
Y13338D01*
X19099Y14053D02*
Y13338D01*
Y17717D02*
Y17117D01*
X19599Y13338D02*
X19099D01*
X19599Y14053D02*
Y13338D01*
Y17717D02*
Y17117D01*
X20099Y16407D02*
Y17117D01*
X20599Y13338D02*
Y13796D01*
X20597Y13797*
Y14034*
X20599Y13338D02*
X21099D01*
X21599*
X22099*
X21599Y14063D02*
Y13338D01*
Y17757D02*
Y17117D01*
X22099Y17742D02*
Y17117D01*
G54D15*
X5681Y8723D02*
Y9541D01*
Y9555*
X5549Y9688*
X5187*
X6134Y6271D02*
X6632D01*
X6207Y18548D02*
X5649D01*
X6276Y3119D02*
Y1796D01*
X6686Y1386*
X7001*
X6705Y13260D02*
Y14706D01*
X5705Y15706*
Y17039*
X7205D02*
Y17527D01*
X7356Y17678*
X8551*
X8705Y17524*
Y17039*
X7306Y18397D02*
Y18782D01*
X7303Y18784*
Y18991*
X7700Y18397D02*
X7994D01*
X8109Y18282*
X8580*
X7705Y12579D02*
Y13260D01*
Y13965*
Y17039*
X8205Y12589D02*
Y13260D01*
Y13965*
Y17039*
X7705*
X9205Y13260D02*
Y14681D01*
X10205Y15681*
Y17039*
X9761Y18282D02*
Y17770D01*
X9705Y17713*
Y17039*
X10705Y18067D02*
Y17762D01*
Y17039*
X16564Y1744D02*
X16884D01*
X16885Y1743*
X17264*
Y2522*
X17290Y2548*
X17264Y2574*
Y3342*
X17290Y2548D02*
X20967D01*
X18099Y13338D02*
Y14282D01*
X17099Y15282*
Y17117*
X18599D02*
Y16714D01*
X18524Y16639*
Y16380*
X18759Y18252D02*
Y17966D01*
X18599Y17806*
Y17117*
X19049Y8097D02*
X19601Y8649D01*
X20237*
X20097Y18279D02*
Y17994D01*
X20099Y17992*
Y17117*
X20836Y15810D02*
X21099Y16073D01*
Y17117*
X20976Y1743D02*
Y2539D01*
X20967Y2548*
X20976Y2539D02*
X22859D01*
X24546Y4226*
Y5225*
X20976Y3342D02*
Y2562D01*
X20967Y2553*
Y2548*
X24539Y8056D02*
X25350D01*
Y5252D02*
Y8056D01*
Y5252D02*
X25377Y5225D01*
X26145*
X25350Y5252D02*
X25323Y5225D01*
X24546*
X25350Y8056D02*
X26138D01*
G54D16*
X1029Y11297D02*
Y12412D01*
X1030Y12413*
Y13269*
X1423Y16084D02*
X3049D01*
X1423Y16955D02*
Y16084D01*
Y16955D02*
X3049D01*
X1423Y18018D02*
Y18480D01*
X1417*
X1100Y18798*
Y20237*
X1423Y18018D02*
X3049D01*
Y15021D02*
X1423D01*
X3049D02*
X3242D01*
X3311Y14952*
Y14387*
X3392Y14306*
Y13269*
X3049Y16084D02*
Y16955D01*
X5544Y1748D02*
X5307Y1984D01*
X5301*
X4400Y2885*
Y3279*
X6705Y17039D02*
Y18700D01*
X5167Y20237*
X2100*
X7205Y13260D02*
Y11749D01*
X6752Y11297*
X3392*
X9205Y17039D02*
Y18670D01*
X10774Y20239*
X13092*
X12467Y11297D02*
X12034D01*
X12032Y11299*
X9150*
X8705Y11745*
Y13260*
X12467Y13269D02*
Y14116D01*
X12759Y14407*
Y14415*
X12902Y14558*
Y15021*
X14534*
X12902Y16084D02*
X12970Y16153D01*
X14061*
X14130Y16084*
X14534*
X12902Y16955D02*
Y16084D01*
X14534Y16955D02*
Y16084D01*
Y16955D02*
X14130D01*
X14061Y17023*
X12970*
X12902Y16955*
X14534Y18018D02*
X12902D01*
X14534D02*
Y18079D01*
X14541Y18086*
Y20084*
X14386Y20239*
X14092*
X14830Y11297D02*
Y13269D01*
X23729D02*
Y14824D01*
X23836*
X24033Y15021*
X23742Y11297D02*
X23675Y11230D01*
X19770*
X18599Y12401*
Y13338*
X24033Y16084D02*
X25683D01*
X24033Y16955D02*
Y16084D01*
X25349Y20239D02*
X18996D01*
X18099Y19341*
Y17117*
X25349Y20239D02*
X25361D01*
X25683Y15021D02*
X24033D01*
X25683Y16084D02*
Y16955D01*
X24033*
X25683Y18018D02*
X24033D01*
X26091Y11309D02*
Y13269D01*
X26361Y20239D02*
Y19159D01*
X25683Y18480*
Y18018*
G54D17*
X2186Y19096D03*
X2996Y9066D03*
X3005Y4627D03*
Y5732D03*
X3008Y9807D03*
X4384Y15705D03*
X4397Y17036D03*
X4400Y3402D02*
Y3279D01*
Y3402D02*
Y4704D01*
X5057Y5360*
X4648Y19109D03*
X4681Y8168D03*
X4896Y570D03*
X5057Y5360D02*
X5681Y5985D01*
Y6715*
X5057Y5360D02*
X5507Y4910D01*
X5977*
X5203Y12437D03*
X5205Y10710D03*
X5474Y11951D03*
X5544Y1748D03*
X5649Y18548D03*
X5681Y9541D03*
X5701Y10697D03*
X5808Y11696D03*
X5988Y570D03*
X6130Y6978D03*
X6134Y6271D03*
X6205Y13955D03*
X6276Y3119D03*
X6381Y20703D03*
X6414Y10737D03*
X6768Y7417D03*
X6920Y6626D03*
X7197Y14876D03*
X7205Y16469D03*
X7303Y18991D03*
X7316Y5789D03*
X7493Y501D03*
X7674Y20703D03*
X7705Y12579D03*
Y13965D03*
X7750Y10978D03*
X7927Y4522D03*
X7993Y491D03*
X8021Y10420D03*
X8087Y11619D03*
X8190Y6662D03*
X8205Y12589D03*
Y13965D03*
X8489Y19033D03*
X8500Y3947D03*
X8682Y10989D03*
X8705Y16459D03*
X8814Y7844D03*
X8955Y20703D03*
X9001Y491D03*
X9433Y7441D03*
X9599Y2985D03*
X9705Y14004D03*
Y16455D03*
X9749Y9690D03*
X9815Y7168D03*
X10038Y8140D03*
X10100Y10727D03*
X10122Y10014D03*
X10191Y11723D03*
X10202Y12441D03*
X10203Y4948D03*
X10653Y10284D03*
X10668Y12031D03*
X10705Y2985D03*
X10751Y14424D03*
X10752Y8911D03*
X10792Y9457D03*
X10990Y19083D03*
X11417Y15730D03*
X11456Y10727D03*
X11623Y6663D03*
X12221Y9213D03*
X12560Y19058D03*
X12657Y6372D03*
X12808Y4055D03*
X13034Y2944D03*
X13483Y9210D03*
X14899Y6485D03*
X14936Y7239D03*
X15936Y9161D03*
X15946Y6858D03*
X15956Y20716D03*
X15991Y2529D03*
X16001Y8140D03*
X16010Y3905D03*
X16029Y1116D03*
X16164Y15919D03*
X16181Y11213D03*
X16311Y5067D03*
Y5583D03*
X16314Y7114D03*
X16320Y9420D03*
X16334Y8906D03*
X16341Y6602D03*
X16353Y14525D03*
X16513Y5326D03*
X16564Y1744D03*
X16593Y17861D03*
X16597Y12446D03*
X17094Y12066D03*
X17361Y11213D03*
X17574Y16463D03*
X17599Y14048D03*
X17764Y893D03*
X18009Y20716D03*
X18015Y10510D03*
X18264Y895D03*
X18524Y16380D03*
X18759Y888D03*
X18809Y19356D03*
X19000Y8906D03*
X19049Y8097D03*
X19099Y14053D03*
Y17717D03*
X19225Y9456D03*
X19233Y10527D03*
X19367Y7689D03*
X19599Y14053D03*
Y17717D03*
X20081Y12138D03*
Y19506D03*
X20099Y16407D03*
X20552Y20735D03*
X20597Y14034D03*
X20836Y15810D03*
X21253Y12172D03*
X21311Y6346D03*
X21322Y5848D03*
X21475Y836D03*
X21489Y7370D03*
X21549Y18824D03*
X21599Y14063D03*
Y17757D03*
X21739Y6090D03*
X21976Y825D03*
X22013Y7625D03*
X22099Y17742D03*
X22247Y8211D03*
X22384Y12172D03*
X22409Y9986D03*
X22434Y18862D03*
X22474Y20735D03*
X22480Y804D03*
X22491Y7893D03*
X22776Y10593D03*
X23316Y9940D03*
X26984Y9056D03*
X26988Y8558D03*
X26997Y9559D03*
X27000Y6225D03*
X27003Y6722D03*
X27007Y5727D03*
G54D18*
X7205Y17039D02*
Y16470D01*
Y16469*
X8705Y17039D02*
Y16459D01*
G54D19*
X8075Y5757D03*
Y8946D03*
X8272Y5757D03*
Y8946D03*
X8469Y5757D03*
Y8946D03*
X8666Y5757D03*
Y8946D03*
X8862Y5757D03*
Y8946D03*
X9059Y5757D03*
Y8946D03*
X9256Y5757D03*
Y8946D03*
X9453Y5757D03*
Y8946D03*
X9650Y5757D03*
Y8946D03*
X9847Y5757D03*
Y8946D03*
X10044Y5757D03*
Y8946D03*
X10240Y5757D03*
Y8946D03*
G54D20*
X2100Y20237D03*
X13092Y20239D03*
X25361D03*
G54D21*
X1833Y7244D03*
Y7500D03*
Y7756D03*
Y8011D03*
Y8267D03*
G54D22*
X1730Y6693D03*
Y8819D03*
G54D23*
X786Y6584D03*
Y8929D03*
G54D24*
X2808Y8149D03*
X2809Y7440D03*
X2812Y6732D03*
X3360Y8149D03*
Y7440D03*
X3363Y6732D03*
X4636Y9688D03*
X4656Y18079D03*
X5187Y9688D03*
X5207Y18079D03*
X7470Y9904D03*
X8021D03*
X8901Y4793D03*
X9452D03*
X10705Y18067D03*
X11256D03*
X11452Y3994D03*
X12003D03*
G54D25*
X6207Y17997D03*
Y18548D03*
X6632Y5719D03*
Y6271D03*
X8680Y9813D03*
Y10364D03*
X10143Y1057D03*
Y1608D03*
X11715Y7986D03*
Y8537D03*
X12661Y7578D03*
Y8130D03*
X12706Y4901D03*
Y5452D03*
X21560Y8719D03*
Y9271D03*
X21591Y9822D03*
Y10373D03*
X22314Y8724D03*
Y9275D03*
G54D26*
X18759Y18252D03*
Y18882D03*
X20097Y18279D03*
Y18909D03*
G54D27*
X1423Y15021D03*
Y16084D03*
Y16955D03*
Y18018D03*
X3049Y15021D03*
Y16084D03*
Y16955D03*
Y18018D03*
X5977Y3847D03*
Y4910D03*
X12902Y15021D03*
Y16084D03*
Y16955D03*
Y18018D03*
X14534Y15021D03*
Y16084D03*
Y16955D03*
Y18018D03*
X24033Y15021D03*
Y16084D03*
Y16955D03*
Y18018D03*
X25683Y15021D03*
Y16084D03*
Y16955D03*
Y18018D03*
G54D28*
X7001Y1386D03*
Y2985D03*
X7501Y1386D03*
Y2985D03*
X8001Y1386D03*
Y2985D03*
X8501Y1386D03*
Y2985D03*
X9001Y1386D03*
Y2985D03*
X17264Y1743D03*
Y3342D03*
X17764Y1743D03*
Y3342D03*
X18264Y1743D03*
Y3342D03*
X18764Y1743D03*
Y3342D03*
X20976Y1743D03*
Y3342D03*
X21476Y1743D03*
Y3342D03*
X21976Y1743D03*
Y3342D03*
X22476Y1743D03*
Y3342D03*
G54D29*
X14365Y4902D03*
Y8603D03*
G54D30*
X17206Y4810D03*
Y5066D03*
Y5322D03*
Y5578D03*
Y5834D03*
Y6090D03*
Y6346D03*
Y6602D03*
Y6858D03*
Y7114D03*
Y7370D03*
Y7625D03*
Y7881D03*
Y8137D03*
Y8393D03*
Y8649D03*
Y8905D03*
Y9161D03*
Y9417D03*
X20237Y4810D03*
Y5066D03*
Y5322D03*
Y5578D03*
Y5834D03*
Y6090D03*
Y6346D03*
Y6602D03*
Y6858D03*
Y7114D03*
Y7370D03*
Y7625D03*
Y7881D03*
Y8137D03*
Y8393D03*
Y8649D03*
Y8905D03*
Y9161D03*
Y9417D03*
G54D31*
X4076Y9549D03*
Y9942D03*
X10145Y2175D03*
Y2569D03*
X18020Y11513D03*
Y11907D03*
G54D32*
X11450Y1339D03*
Y3111D03*
X14600Y1339D03*
Y3111D03*
G54D33*
X1999Y3279D03*
X4400D03*
G54D34*
X3180Y1389D03*
G54D35*
X4181Y6715D03*
Y8723D03*
X4681Y6715D03*
Y8723D03*
X5181Y6715D03*
Y8723D03*
X5205Y13260D03*
Y17039D03*
X5681Y6715D03*
Y8723D03*
X5705Y13260D03*
Y17039D03*
X6205Y13260D03*
Y17039D03*
X6705Y13260D03*
Y17039D03*
X7205Y13260D03*
Y17039D03*
X7705Y13260D03*
Y17039D03*
X8205Y13260D03*
Y17039D03*
X8705Y13260D03*
Y17039D03*
X9205Y13260D03*
Y17039D03*
X9705Y13260D03*
Y17039D03*
X10205Y13260D03*
Y17039D03*
X10705Y13260D03*
Y17039D03*
X16599Y13338D03*
Y17117D03*
X17099Y13338D03*
Y17117D03*
X17599Y13338D03*
Y17117D03*
X18099Y13338D03*
Y17117D03*
X18599Y13338D03*
Y17117D03*
X19099Y13338D03*
Y17117D03*
X19599Y13338D03*
Y17117D03*
X20099Y13338D03*
Y17117D03*
X20599Y13338D03*
Y17117D03*
X21099Y13338D03*
Y17117D03*
X21599Y13338D03*
Y17117D03*
X22099Y13338D03*
Y17117D03*
G54D36*
X24539Y8056D03*
Y8556D03*
Y9056D03*
Y9556D03*
X24546Y5225D03*
Y5725D03*
Y6225D03*
Y6725D03*
X26138Y8056D03*
Y8556D03*
Y9056D03*
Y9556D03*
X26145Y5225D03*
Y5725D03*
Y6225D03*
Y6725D03*
G54D37*
X1029Y11297D03*
X1030Y13269D03*
X3392Y11297D03*
Y13269D03*
X12467Y11297D03*
Y13269D03*
X14830Y11297D03*
Y13269D03*
X23729D03*
X23742Y11297D03*
X26091Y13269D03*
X26104Y11297D03*
G54D70*
X7563Y6269D03*
Y6466D03*
Y6662D03*
Y6859D03*
Y7056D03*
Y7253D03*
Y7450D03*
Y7647D03*
Y7844D03*
Y8040D03*
Y8237D03*
Y8434D03*
X10752Y6269D03*
Y6466D03*
Y6662D03*
Y6859D03*
Y7056D03*
Y7253D03*
Y7450D03*
Y7647D03*
Y7844D03*
Y8040D03*
Y8237D03*
Y8434D03*
G54D71*
X1100Y20237D03*
X14092Y20239D03*
X26361D03*
G54D72*
X8580Y18282D03*
X9761D03*
G54D73*
X6254Y12352D03*
X6258Y11880D03*
X6648Y12352D03*
X6651Y11880D03*
X7306Y18397D03*
X7700D03*
X9277Y11879D03*
X9278Y12351D03*
X9671Y11879D03*
X9672Y12351D03*
X17629Y12394D03*
X18023D03*
X21336Y8208D03*
X21730D03*
M02*
