; Version : LOCAL
; Job     : U:\2014\PLUME\PCB\RECEPTEUR\RECEPTEUR\PCB\PCB.pcb
; User    : BI-WIN7:Alexis
; Date    : Wed Apr 02 16:32:11 2014
; Format  : 3.3 / Absolute / MM / Leading
; Contents: Thru / Drill / Plated
M48
METRIC,TZ
FMAT,2
ICI,OFF
T02C0.3000
T01C1.6000
%
M71
G90
G93X0Y0
T02
X35908Y1324
X34813Y2500
X30113Y1341
X29050Y1425
X19854Y2458
X14856Y1163
X12988
X10710
X8888Y1140
X8910Y3374
X11348Y2734
X12646Y4215
X16542Y3600
X22541Y3500
X30917Y4373
X32891Y4343
X37079Y4342
X38427Y7589
X38207Y6444
X32876Y6377
X31919Y5375
X30902Y6407
X21507Y5627
X20368Y7427
X18956Y5582
X17954Y7427
X14765Y7404
X13922Y5514
X12191Y6903
X10665Y5468
X8910Y5252
X8865Y7199
X1485Y8179
X2206Y9673
X2965Y8179
X4514Y8201
X6382
X8136Y8156
X10551Y8623
X19474Y8274
X23239Y8179
X24377Y7702
X25615Y7701
X27329Y8494
X28613Y8339
X34789Y8341
X30273Y11094
X25206Y11343
X24072Y11291
X21744Y10457
X19689Y10911
X18627Y11116
X13539Y11598
X12248Y12504
X10772Y14665
X14238Y15155
X16206Y14972
X17180Y14725
X25008Y15204
X26080Y14940
X27303Y12748
X28332Y12930
X31781Y14616
X31911Y13381
X38691Y15602
X37013Y17168
X33220Y16707
X31227Y16901
X31031Y15591
X29852Y15767
X29268Y16846
X25808Y16037
X24710Y16667
X23643Y16913
X23164Y15246
X22951Y16412
X15249Y15943
X10649Y15819
X9594Y17199
X3122Y16891
X1500Y16721
X8864Y17823
X9792Y18979
X14255Y18120
X14827Y19985
X16740Y18554
X17537Y19398
X25030Y18894
X25763Y19668
X31526Y18110
X33968Y18229
X38099Y21396
X24319Y21450
X23340Y22038
X22237Y22707
X20819Y20765
X19495Y22421
X17684Y22518
X15135Y21773
X10973Y21930
X10441Y22794
X8852Y20363
X2213Y23814
X7310Y23803
X11260Y23809
X14221Y23558
X17637Y25362
X18656Y22910
X20574Y23982
X21718Y23564
X22685Y24424
X23298Y23315
X25064Y23564
X29360Y25214
X33941Y23601
X35251Y23577
X38441Y27896
X30820Y27470
X30121Y26626
X29296Y27353
X29160Y26408
X28446Y27342
X27555Y27315
X18837Y26372
X17151Y26385
X9175Y27271
X2182Y25969
X8528Y29229
X19994Y29702
X31646Y29793
X37979Y29858
X39168Y31748
X34557Y31179
X31450Y30843
X30603Y30935
X21866Y33002
X20948Y32618
X19896Y32710
X11214Y32880
X2182Y32763
X7757Y35277
X10207Y33250
X12447Y34723
X12950Y33858
X14318Y34075
X17394Y33958
X20847Y34354
X21575Y33800
X24563Y34009
X27485Y33947
X28617Y33370
X34711Y34209
X35545Y35044
X38699Y33450
X36488Y37230
X33640Y38050
X31230Y37459
X30055Y35575
X28859Y36117
X25464Y38005
X25211Y36343
X18503Y36273
X15422Y37814
X14562Y36752
X8820Y39373
X11018Y38440
X20261Y39121
X21524Y38406
X23883Y40522
X29796Y38202
X31988Y38755
X37601Y40219
X38063Y38503
X39221Y39143
X39519Y42392
X36098Y41343
X29469Y41948
X28327Y41176
X27631Y42807
X26736Y41614
X22508Y41400
X21602Y41681
X18763Y42186
X17864Y41431
X16991Y42957
X15931Y41880
X13462Y40693
X11617Y41456
X8798Y41514
X6055Y44445
X18767Y45131
X20340Y44268
X21390Y44660
X29235Y44977
X31103Y43389
X33927Y45572
X39519Y44894
X39123Y46770
X37097Y45792
X30426Y47916
X20340Y46884
X18961Y46772
X10939Y46063
X6055Y46393
X5387Y48131
X14131Y48577
X14157Y50095
X15680Y48655
X18991Y49111
X19993Y50584
X20450Y49549
X24164Y48314
X26797Y49875
X28315Y48387
X29424Y49374
X34817Y50536
X38970Y50307
X38867Y52511
X31674Y52005
X28042Y50832
X17153Y52667
X15574Y51239
X14724Y52475
X4373Y52767
X2579Y51024
X6372Y54869
X14473Y53586
X15918Y53740
X20910Y55286
X24703Y54910
X30375Y54739
X35056Y54124
X38918Y55022
X37688Y57072
X34254
X31538Y57021
X28873Y57072
X26412Y57021
X23030
X19596Y56919
X14829Y56867
X11036Y56816
X8217Y56662
T01
X17099Y50277
X32204Y48279
X37202Y48275
X27254Y52907
X22256Y52904
X17102Y55280
T00
M30
