*
G04 Job   : U:\2014\PLUME\PCB\EMETTEUR\PCB\PCB.pcb*
G04 User  : BI-WIN7:Alexis*
G04 Layer : SoldermaskTop.gdo*
G04 Date  : Tue Apr 01 14:22:29 2014*
G04 Mentor Graphics Example Gerber Output Definition*
%ICAS*%
%MOIN*%
%FSLAX24Y24*%
%OFA0.0000B0.0000*%
G90*
G74*
%AMVB_RECTANGLE*
21,1,$1,$2,0,0,$3*
%
%ADD13C,0.06496*%
%ADD27O,0.20276X0.12402*%
%ADD26O,0.12402X0.20276*%
%ADD12VB_RECTANGLE,0.06496X0.06496X180.00000*%
%ADD23VB_RECTANGLE,0.01594X0.08169X270.00000*%
%ADD14VB_RECTANGLE,0.02362X0.06890X270.00000*%
%ADD28VB_RECTANGLE,0.03228X0.06496X180.00000*%
%ADD24VB_RECTANGLE,0.03346X0.02165X180.00000*%
%ADD22VB_RECTANGLE,0.03346X0.02165X90.00000*%
%ADD71VB_RECTANGLE,0.03740X0.12795X180.00000*%
%ADD29VB_RECTANGLE,0.03740X0.12795X270.00000*%
%ADD19VB_RECTANGLE,0.04134X0.06890X90.00000*%
%ADD18VB_RECTANGLE,0.04528X0.02953X180.00000*%
%ADD17VB_RECTANGLE,0.04528X0.02953X270.00000*%
%ADD70VB_RECTANGLE,0.05118X0.13189X270.00000*%
%ADD21VB_RECTANGLE,0.05709X0.07677X180.00000*%
%ADD11VB_RECTANGLE,0.06201X0.01476X180.00000*%
%ADD10VB_RECTANGLE,0.06201X0.01476X90.00000*%
%ADD72VB_RECTANGLE,0.06496X0.15551X0.00000*%
%ADD20VB_RECTANGLE,0.06496X0.19488X180.00000*%
%ADD25VB_RECTANGLE,0.06890X0.05709X0.00000*%
%ADD15VB_RECTANGLE,0.06890X0.09252X270.00000*%
%ADD16VB_RECTANGLE,0.08071X0.21457X0.00000*%
G01*
G54D10*
X8075Y5757D03*
Y8946D03*
X8272Y5757D03*
Y8946D03*
X8469Y5757D03*
Y8946D03*
X8666Y5757D03*
Y8946D03*
X8862Y5757D03*
Y8946D03*
X9059Y5757D03*
Y8946D03*
X9256Y5757D03*
Y8946D03*
X9453Y5757D03*
Y8946D03*
X9650Y5757D03*
Y8946D03*
X9847Y5757D03*
Y8946D03*
X10044Y5757D03*
Y8946D03*
X10240Y5757D03*
Y8946D03*
G54D11*
X7563Y6269D03*
Y6466D03*
Y6662D03*
Y6859D03*
Y7056D03*
Y7253D03*
Y7450D03*
Y7647D03*
Y7844D03*
Y8040D03*
Y8237D03*
Y8434D03*
X10752Y6269D03*
Y6466D03*
Y6662D03*
Y6859D03*
Y7056D03*
Y7253D03*
Y7450D03*
Y7647D03*
Y7844D03*
Y8040D03*
Y8237D03*
Y8434D03*
G54D12*
X1100Y20237D03*
X14092Y20239D03*
X26361D03*
G54D13*
X2100Y20237D03*
X13092Y20239D03*
X25361D03*
G54D14*
X1833Y7244D03*
Y7500D03*
Y7756D03*
Y8011D03*
Y8267D03*
G54D15*
X1730Y6693D03*
Y8819D03*
G54D16*
X786Y6584D03*
Y8929D03*
G54D17*
X2808Y8149D03*
X2809Y7440D03*
X2812Y6732D03*
X3360Y8149D03*
Y7440D03*
X3363Y6732D03*
X4636Y9688D03*
X4656Y18079D03*
X5187Y9688D03*
X5207Y18079D03*
X7470Y9904D03*
X8021D03*
X8901Y4793D03*
X9452D03*
X10705Y18067D03*
X11256D03*
X11452Y3994D03*
X12003D03*
G54D18*
X6207Y17997D03*
Y18548D03*
X6632Y5719D03*
Y6271D03*
X8680Y9813D03*
Y10364D03*
X10143Y1057D03*
Y1608D03*
X11715Y7986D03*
Y8537D03*
X12661Y7578D03*
Y8130D03*
X12706Y4901D03*
Y5452D03*
X21560Y8719D03*
Y9271D03*
X21591Y9822D03*
Y10373D03*
X22314Y8724D03*
Y9275D03*
G54D19*
X18759Y18252D03*
Y18882D03*
X20097Y18279D03*
Y18909D03*
G54D20*
X14365Y4902D03*
Y8603D03*
G54D21*
X8580Y18282D03*
X9761D03*
G54D22*
X6254Y12352D03*
X6258Y11880D03*
X6648Y12352D03*
X6651Y11880D03*
X7306Y18397D03*
X7700D03*
X9277Y11879D03*
X9278Y12351D03*
X9671Y11879D03*
X9672Y12351D03*
X17629Y12394D03*
X18023D03*
X21336Y8208D03*
X21730D03*
G54D23*
X17206Y4810D03*
Y5066D03*
Y5322D03*
Y5578D03*
Y5834D03*
Y6090D03*
Y6346D03*
Y6602D03*
Y6858D03*
Y7114D03*
Y7370D03*
Y7625D03*
Y7881D03*
Y8137D03*
Y8393D03*
Y8649D03*
Y8905D03*
Y9161D03*
Y9417D03*
X20237Y4810D03*
Y5066D03*
Y5322D03*
Y5578D03*
Y5834D03*
Y6090D03*
Y6346D03*
Y6602D03*
Y6858D03*
Y7114D03*
Y7370D03*
Y7625D03*
Y7881D03*
Y8137D03*
Y8393D03*
Y8649D03*
Y8905D03*
Y9161D03*
Y9417D03*
G54D24*
X4076Y9549D03*
Y9942D03*
X10145Y2175D03*
Y2569D03*
X18020Y11513D03*
Y11907D03*
G54D25*
X11450Y1339D03*
Y3111D03*
X14600Y1339D03*
Y3111D03*
G54D26*
X1999Y3279D03*
X4400D03*
G54D27*
X3180Y1389D03*
G54D28*
X4181Y6715D03*
Y8723D03*
X4681Y6715D03*
Y8723D03*
X5181Y6715D03*
Y8723D03*
X5205Y13260D03*
Y17039D03*
X5681Y6715D03*
Y8723D03*
X5705Y13260D03*
Y17039D03*
X6205Y13260D03*
Y17039D03*
X6705Y13260D03*
Y17039D03*
X7205Y13260D03*
Y17039D03*
X7705Y13260D03*
Y17039D03*
X8205Y13260D03*
Y17039D03*
X8705Y13260D03*
Y17039D03*
X9205Y13260D03*
Y17039D03*
X9705Y13260D03*
Y17039D03*
X10205Y13260D03*
Y17039D03*
X10705Y13260D03*
Y17039D03*
X16599Y13338D03*
Y17117D03*
X17099Y13338D03*
Y17117D03*
X17599Y13338D03*
Y17117D03*
X18099Y13338D03*
Y17117D03*
X18599Y13338D03*
Y17117D03*
X19099Y13338D03*
Y17117D03*
X19599Y13338D03*
Y17117D03*
X20099Y13338D03*
Y17117D03*
X20599Y13338D03*
Y17117D03*
X21099Y13338D03*
Y17117D03*
X21599Y13338D03*
Y17117D03*
X22099Y13338D03*
Y17117D03*
G54D29*
X24539Y8056D03*
Y8556D03*
Y9056D03*
Y9556D03*
X24546Y5225D03*
Y5725D03*
Y6225D03*
Y6725D03*
X26138Y8056D03*
Y8556D03*
Y9056D03*
Y9556D03*
X26145Y5225D03*
Y5725D03*
Y6225D03*
Y6725D03*
G54D70*
X1423Y15021D03*
Y16084D03*
Y16955D03*
Y18018D03*
X3049Y15021D03*
Y16084D03*
Y16955D03*
Y18018D03*
X5977Y3847D03*
Y4910D03*
X12902Y15021D03*
Y16084D03*
Y16955D03*
Y18018D03*
X14534Y15021D03*
Y16084D03*
Y16955D03*
Y18018D03*
X24033Y15021D03*
Y16084D03*
Y16955D03*
Y18018D03*
X25683Y15021D03*
Y16084D03*
Y16955D03*
Y18018D03*
G54D71*
X7001Y1386D03*
Y2985D03*
X7501Y1386D03*
Y2985D03*
X8001Y1386D03*
Y2985D03*
X8501Y1386D03*
Y2985D03*
X9001Y1386D03*
Y2985D03*
X17264Y1743D03*
Y3342D03*
X17764Y1743D03*
Y3342D03*
X18264Y1743D03*
Y3342D03*
X18764Y1743D03*
Y3342D03*
X20976Y1743D03*
Y3342D03*
X21476Y1743D03*
Y3342D03*
X21976Y1743D03*
Y3342D03*
X22476Y1743D03*
Y3342D03*
G54D72*
X1029Y11297D03*
X1030Y13269D03*
X3392Y11297D03*
Y13269D03*
X12467Y11297D03*
Y13269D03*
X14830Y11297D03*
Y13269D03*
X23729D03*
X23742Y11297D03*
X26091Y13269D03*
X26104Y11297D03*
M02*
