; Version : LOCAL
; Job     : U:\2014\PLUME\PCB\EMETTEUR\PCB\PCB.pcb
; User    : BI-WIN7:Alexis
; Date    : Tue Apr 01 14:20:40 2014
; Format  : 3.3 / Absolute / MM / Leading
; Contents: Thru / Drill / Plated
M48
METRIC,TZ
FMAT,2
ICI,OFF
T05C0.3000
T01C1.0000
%
M71
G90
G93X0Y0
T05
X57098Y2042
X55819Y2094
X54546Y2124
X47648Y2256
X46391Y2274
X45121Y2269
X22862Y1246
X20303
X19033Y1271
X15210Y1448
X12435
X14081Y4439
X40713Y2836
X42073Y4431
X40618Y6425
X33105Y7477
X27190Y7582
X24381
X15941Y7923
X21589Y10025
X40666Y9917
X32531Y10300
X25916Y12569
X20136Y11486
X7633Y11752
Y14559
X18582Y14703
X41430Y12870
Y14182
X41943Y13527
X54157Y14854
X68597Y14546
X68587Y17074
X68580Y15811
X55218Y15469
X54129Y16119
X41507Y16769
X40504Y17419
X37842Y16473
X32148Y16186
X29523Y16925
X20801Y16923
X17578Y16830
X15580Y15927
X15570Y17723
X17192Y18840
X22389Y19923
X23959Y18900
X24931Y18207
X37938Y18387
X41437Y18069
X49193Y19530
X54583Y18719
X55912Y19368
X57128Y20047
X68549Y21737
X56508Y20856
X48383Y20565
X48261Y22621
X41489Y22620
X40642Y20675
X27309Y22633
X25497Y20675
X11891Y20747
X7609Y23029
X7641Y24911
X14431Y24234
X24762Y24613
X27412Y24020
X31042Y23400
X34248Y23394
X40478Y23270
X41452Y23926
X48832Y24017
X56919Y25364
X59224Y25247
X68540Y23003
X68572Y24280
X57852Y26906
X48853Y26739
X45759Y26696
X29098Y27246
X27058Y26120
X25710Y25436
X25653Y27246
X22052Y27913
X20374Y26468
X19684Y27884
X16292Y27272
X14481Y27170
X13220Y27204
X13905Y30355
X14753Y29708
X20541Y29513
X25886Y29777
X41099Y28481
X44098
X56854Y30917
X53983
X51006Y30832
X43420Y30648
X42157Y31612
X27096Y30559
X25913Y31599
X20840Y31976
X19570Y31951
X13216Y31590
X15760Y35446
X19570Y35470
X20840
X54860Y35721
X52316Y35645
X49780Y35695
X48510
X44700Y35683
X41535Y36893
X27308Y36637
X24650Y35569
X18281Y37786
X11136Y39891
X28999Y39955
X41057Y40433
X52924Y40158
X51050Y41673
X47050Y41606
X44638Y41816
X24650Y41796
X22110Y41805
X18302Y41831
X11168Y43272
X42146Y45366
X48510Y45002
X49780
X54860Y45102
X56130Y45065
X56983Y47908
X54734Y47813
X18551Y48237
X14348Y47111
X5553Y48504
X11806Y48536
X21561Y48344
X27915Y48472
X31902Y48408
X47774Y49163
X51006Y49546
X57084Y52667
X52203
X45743Y52619
X40528
X22747Y52587
X19493
X16208
T01
X66958Y51406
X64418
X35792
X33252
X5334Y51401
X2794
T00
M30
