*
G04 Job   : U:\2014\PLUME\PCB\RECEPTEUR\RECEPTEUR\PCB\PCB.pcb*
G04 User  : BI-WIN7:Alexis*
G04 Layer : EtchLayer3.gdo*
G04 Date  : Wed Apr 02 16:32:20 2014*
%ICAS*%
%MOIN*%
%FSLAX24Y24*%
%OFA0.0000B0.0000*%
G90*
G74*
%ADD10C,0.00591*%
%ADD11C,0.02756*%
%ADD12C,0.08661*%
G01*
G36*
X252Y19931D02*
G02X282Y19961I30D01*
G01X426*
Y14789*
G03X623Y14435I417*
G01Y10224*
G03X632Y10157I236*
G01Y3808*
G03X869Y3572I237*
X1105Y3808J236*
X869Y4044I236*
X632Y3808J236*
G01Y10157*
G03X859Y9988I227J67*
X993Y10029J236*
G01Y6650*
G03X1229Y6414I236*
X1466Y6650J236*
X1229Y6886I237*
X993Y6650J236*
G01Y10029*
G03X1095Y10224I134J195*
X859Y10460I236*
X623Y10224J236*
G01Y12899*
G03X859Y12663I236*
X1095Y12899J236*
X859Y13135I236*
X623Y12899J236*
G01Y14435*
G03X843Y14372I220J354*
X1259Y14789J417*
X843Y15205I416*
X426Y14789J416*
G01Y15970*
G03X843Y15553I417*
X1259Y15970J417*
X843Y16386I416*
X426Y15970J416*
G01Y19961*
X801*
G02X825Y19948J30*
G03X1016Y19852I191J140*
X1206Y19948J236*
G02X1230Y19961I24J17*
G01X1641*
Y13258*
G03X1700Y13199I59*
G01X2389*
G03X2448Y13258J59*
G01Y13710*
G03X2389Y13769I59*
G01X1700*
G03X1641Y13710J59*
G01Y19961*
X2148*
Y17498*
G03X2384Y17262I236*
X2620Y17498J236*
X2384Y17734I236*
X2148Y17498J236*
G01Y18265*
G03X2384Y18029I236*
X2620Y18265J236*
X2384Y18501I236*
X2148Y18265J236*
G01Y19961*
X2642*
Y9371*
G03X2878Y9135I236*
X3114Y9371J236*
X2878Y9608I236*
X2642Y9371J237*
G01Y19961*
X2818*
Y13889*
G03X3054Y13652I236*
X3121Y13662J237*
G01Y11508*
G03X3249Y11298I237*
G01Y8017*
G03X3253Y7971I236*
G01Y7017*
G03X3490Y6781I237*
X3509Y6782J236*
G02X3512I3J30*
X3542Y6754J30*
G03X3777Y6535I235J17*
X3918Y6581J236*
G01Y3395*
G03X3962Y3257I236*
G01Y2153*
G03X4199Y1917I237*
X4231Y1919J236*
G01Y1077*
G03X4468Y840I237*
X4704Y1077J237*
X4468Y1313I236*
X4231Y1077J236*
G01Y1919*
G03X4435Y2153I32J234*
X4199Y2389I236*
X3962Y2153J236*
G01Y3257*
G03X4154Y3159I192J138*
X4390Y3395J236*
X4154Y3631I236*
X3918Y3395J236*
G01Y6581*
G03X3956Y6617I141J190*
G01Y6228*
G03X4192Y5992I236*
X4429Y6228J236*
X4192Y6464I237*
X3956Y6228J236*
G01Y6617*
G03X4013Y6771I179J154*
X3777Y7007I236*
X3758J236*
G02X3755Y7006I3J29*
X3725Y7034J30*
G03X3490Y7253I235J17*
X3253Y7017J236*
G01Y7971*
G03X3485Y7781I232J46*
X3619Y7822J236*
G01Y7472*
G03X3855Y7236I236*
X4091Y7472J236*
X3855Y7708I236*
X3619Y7472J236*
G01Y7822*
G03X3721Y8017I134J195*
X3485Y8253I236*
X3249Y8017J236*
G01Y11298*
G03X3358Y11271I109J210*
X3376Y11272J237*
G01Y10736*
G03X3612Y10500I236*
X3848Y10736J236*
X3612Y10973I236*
X3376Y10736J237*
G01Y11272*
G03X3594Y11508I18J236*
X3358Y11744I236*
X3121Y11508J236*
G01Y13662*
G03X3290Y13889I67J227*
X3054Y14125I236*
X2818Y13889J236*
G01Y19961*
X3395*
G02X3425Y19931J30*
G01Y16601*
G02X3403Y16572I30*
G03X3227Y16344I61J228*
X3403Y16116I237*
G02X3425Y16087I8J29*
G01Y15756*
G02X3404Y15727I30*
G03X3236Y15501I69J226*
X3404Y15275I237*
G02X3425Y15246I9J29*
G01Y14567*
G03X3543Y14449I118*
G01X3875*
Y8974*
G03X4071Y8741I236*
G02X4096Y8712I5J29*
X4094Y8703I30*
G03X4084Y8634I226J69*
X4320Y8398I236*
X4556Y8634J236*
X4360Y8867I236*
G02X4335Y8896I5J29*
X4337Y8905I30*
G03X4347Y8974I226J69*
X4302Y9112I236*
G02X4297Y9130I25J18*
X4327Y9160I30*
X4339Y9157J30*
G03X4433Y9138I94J217*
X4563Y9177J236*
G01Y2718*
G03X4743Y2488I237*
G01Y1659*
G03X4979Y1423I236*
X5215Y1659J236*
X4979Y1896I236*
X4743Y1659J237*
G01Y2488*
G03X4800Y2482I57J230*
X5036Y2718J236*
X4800Y2954I236*
X4563Y2718J236*
G01Y9177*
G03X4586Y9194I130J197*
G01Y4923*
G03X4822Y4687I236*
X5058Y4923J236*
X4822Y5159I236*
X4586Y4923J236*
G01Y9194*
G03X4669Y9374I153J180*
X4433Y9610I236*
X4197Y9374J236*
X4241Y9236I236*
G02X4247Y9218I24J18*
X4217Y9188I30*
X4205Y9191J30*
G03X4111Y9210I94J217*
X3875Y8974J236*
G01Y14449*
X4179*
Y12945*
G03X4415Y12709I236*
X4651Y12945J236*
X4415Y13181I236*
X4179Y12945J236*
G01Y14449*
X4664*
Y13671*
G03X4851Y13440I237*
G02X4875Y13410I6J30*
X4873Y13401I30*
G03X4862Y13330I226J71*
X5094Y13094I237*
G01Y4566*
G03X5245Y4346I236*
G01Y2171*
G03X5481Y1934I236*
X5717Y2171J237*
X5481Y2407I236*
X5245Y2171J236*
G01Y4346*
G03X5330Y4330I85J220*
X5567Y4566J236*
X5330Y4802I237*
X5094Y4566J236*
G01Y13094*
G03X5099I5J236*
X5335Y13330J236*
X5148Y13561I236*
G02X5124Y13590I6J29*
X5126Y13599I30*
G03X5137Y13671I225J72*
X4901Y13907I236*
X4664Y13671J236*
G01Y14449*
X5369*
Y5966*
G03X5577Y5732I236*
G01Y2915*
G03X5813Y2679I236*
X6049Y2915J236*
X5813Y3151I236*
X5577Y2915J236*
G01Y5732*
G03X5605Y5730I28J234*
X5842Y5966J236*
X5828Y6045I237*
G02X5826Y6055I28J10*
X5856Y6085I30*
X5873Y6080J30*
G03X6004Y6041I131J197*
X6144Y6087J236*
G01Y5895*
G03X6276Y5683I236*
G01Y1417*
G03X6512Y1181I236*
X6749Y1417J236*
X6512Y1654I237*
X6276Y1417J237*
G01Y5683*
G03X6380Y5658I104J212*
X6617Y5895J237*
X6380Y6131I237*
X6144Y5895J236*
G01Y6087*
G03X6240Y6277I140J190*
X6004Y6513I236*
X5768Y6277J236*
X5781Y6198I236*
G02X5783Y6188I28J10*
X5753Y6158I30*
X5736Y6163J30*
G03X5605Y6203I131J197*
X5369Y5966J237*
G01Y14449*
X5376*
Y7134*
G03X5612Y6898I236*
X5848Y7134J236*
X5612Y7370I236*
X5376Y7134J236*
G01Y14449*
X5472*
G02X5501Y14425J30*
G03X5601Y14273I232J44*
G01Y7868*
G03X5837Y7632I236*
X6074Y7868J236*
X5837Y8104I237*
X5601Y7868J236*
G01Y14273*
G03X5723Y14233I132J196*
G01Y8572*
G03X5959Y8336I236*
X6195Y8572J236*
X5959Y8808I236*
X5723Y8572J236*
G01Y14233*
G03X5733I10J236*
X5965Y14425J236*
G02X5994Y14449I29J6*
G01X6033*
G02X6056Y14438J30*
G01X6355Y14080*
Y7305*
G03X6591Y7068I236*
X6827Y7305J237*
X6591Y7541I236*
X6355Y7305J236*
G01Y14080*
X6668Y13704*
G03X6759Y13661I91J76*
G01X6788*
G02X6818Y13631J30*
G01Y13629*
G02X6795Y13599I30*
G03X6612Y13369I53J230*
X6708Y13179I236*
G01Y9985*
G03X6832Y9777I236*
G01Y2924*
G03X7068Y2688I236*
X7227Y2749J236*
G01Y2198*
G03X7463Y1961I236*
X7580Y1992J237*
G01Y968*
G03X7816Y732I236*
X8053Y968J236*
X7816Y1204I237*
X7580Y968J236*
G01Y1992*
G03X7699Y2198I117J206*
X7463Y2434I236*
X7227Y2198J236*
G01Y2749*
G03X7305Y2924I159J175*
X7068Y3160I237*
X6832Y2924J236*
G01Y9777*
G03X6944Y9749I112J208*
X7097Y9805J236*
G01Y4376*
G03X7334Y4140I237*
X7431Y4161J236*
G01Y3258*
G03X7667Y3021I236*
X7756Y3039J237*
G02X7768Y3041I12J28*
X7798Y3011J30*
X7796Y3001I30*
G03X7783Y2924I223J77*
X8019Y2688I236*
X8231Y2820J236*
G01Y2216*
G03X8467Y1979I236*
X8638Y2052J237*
G01Y1378*
G03X8874Y1142I236*
X9110Y1378J236*
X8874Y1614I236*
X8638Y1378J236*
G01Y2052*
G03X8704Y2216I171J164*
X8467Y2452I237*
X8231Y2216J236*
G01Y2820*
G03X8255Y2924I212J104*
X8019Y3160I236*
X7930Y3143J236*
G02X7918Y3140I12J27*
X7888Y3170J30*
X7890Y3180I30*
G03X7903Y3258I223J78*
X7667Y3494I236*
X7431Y3258J236*
G01Y4161*
G03X7492Y4201I97J215*
G02X7512Y4209I20J22*
X7539Y4192J30*
G03X7752Y4059I213J104*
X7988Y4296J237*
X7752Y4532I236*
X7593Y4471J236*
G02X7573Y4463I20J22*
X7546Y4480J30*
G03X7334Y4612I212J104*
X7097Y4376J236*
G01Y9805*
G03X7109Y9816I153J180*
G01Y9020*
G03X7345Y8783I236*
X7409Y8792J237*
G02X7417Y8793I8J29*
X7446Y8771J30*
G03X7675Y8591I229J56*
X7911Y8827J236*
X7675Y9063I236*
X7611Y9055J236*
G02X7603Y9054I8J28*
X7574Y9076J29*
G03X7345Y9256I229J56*
X7109Y9020J236*
G01Y9816*
G03X7180Y9985I165J169*
X6944Y10221I236*
X6708Y9985J236*
G01Y13179*
G03X6848Y13133I140J190*
X7084Y13369J236*
X6901Y13599I236*
G02X6877Y13629I6J30*
G01Y13631*
G02X6907Y13661I30*
G01X7180*
Y10383*
G03X7416Y10147I236*
X7652Y10383J236*
X7416Y10619I236*
X7180Y10383J236*
G01Y13661*
X7635*
Y11694*
G03X7864Y11457I236*
G01Y9442*
G03X7960Y9251I236*
G01Y8175*
G03X8197Y7939I237*
X8324Y7977J236*
G01Y4117*
G03X8561Y3881I237*
X8797Y4117J236*
X8561Y4353I236*
X8324Y4117J236*
G01Y7977*
G03X8433Y8175I127J198*
X8197Y8412I236*
X7960Y8175J237*
G01Y9251*
G03X8100Y9205I140J191*
X8265Y9272J237*
G02X8286Y9281I21J21*
X8315Y9254J30*
G03X8505Y9045I235J23*
G02X8530Y9016I5J29*
X8528Y9007I30*
G03X8519Y8940I227J67*
X8755Y8704I236*
X8799Y8708J236*
G01Y6461*
G03X8961Y6237I237*
G02X8982Y6209I9J28*
X8971Y6185I30*
G03X8884Y6002I149J183*
X8913Y5889I236*
G01Y3220*
G03X9149Y2984I236*
X9311Y3048J236*
G02X9331Y3056I20J22*
X9361Y3027J30*
G03X9597Y2796I236J5*
X9814Y2937J236*
G02X9841Y2955I27J12*
X9868Y2937J30*
G03X10085Y2796I217J95*
X10321Y3032J236*
X10085Y3268I236*
X9869Y3127J236*
G02X9841Y3109I28J12*
X9814Y3127J30*
G03X9597Y3269I217J95*
X9436Y3204J237*
G02X9415Y3196I21J22*
X9385Y3226J30*
G03X9149Y3456I236J6*
X8913Y3220J236*
G01Y5889*
G03X9120Y5766I207J113*
X9241Y5799J236*
G01Y4445*
G03X9477Y4209I236*
X9681Y4326J236*
G02X9707Y4341I26J15*
X9731Y4329J30*
G03X9924Y4229I193J137*
X10160Y4466J237*
X9924Y4702I236*
X9720Y4585J236*
G02X9694Y4570I26J15*
X9669Y4583J30*
G03X9477Y4682I192J138*
X9241Y4445J237*
G01Y5799*
G03X9356Y6002I121J203*
X9194Y6226I236*
G02X9174Y6255I10J29*
X9185Y6278I30*
G03X9264Y6401I149J183*
G02X9293Y6423I29J8*
G01X9295*
G03X9308Y6422I13J236*
X9464Y6481J237*
G02X9483Y6488I19J23*
X9511Y6470J30*
G03X9728Y6326I217J92*
X9879Y6380J236*
G02X9898Y6387I19J23*
X9928Y6357J30*
X9927Y6352I30*
G03X9924Y6314I234J38*
X9932Y6253I237*
G02X9933Y6245I29J8*
X9903Y6216I30*
X9897J29*
G03X9846Y6222I51J230*
X9609Y5986J236*
X9846Y5749I237*
X10000Y5807J237*
G02X10020Y5815I20J22*
X10048Y5796J30*
G03X10268Y5646I220J86*
X10504Y5882J236*
X10346Y6105I236*
G02X10326Y6133I10J28*
X10334Y6153I30*
G03X10397Y6314I173J161*
X10161Y6550I236*
X10010Y6496J236*
G02X9991Y6489I19J23*
X9961Y6519J30*
X9962Y6524I30*
G03X9965Y6562I234J38*
X9728Y6798I237*
X9573Y6740J236*
G02X9553Y6733I20J22*
X9526Y6751J29*
G03X9308Y6895I218J92*
X9080Y6719J236*
G02X9051Y6697I29J8*
G01X9049*
G03X9036I13J236*
X8799Y6461J236*
G01Y8708*
G03X8911Y8763I44J232*
G02X8930Y8770I19J23*
X8960Y8740J30*
Y8733I30*
G03X8953Y8676I229J57*
X9189Y8440I236*
X9295Y8465J236*
G02X9308Y8468I13J27*
X9338Y8439J30*
G03X9574Y8209I236J6*
X9618Y8213J236*
G01Y7438*
G03X9854Y7202I236*
X10091Y7438J236*
X9854Y7675I237*
X9618Y7438J237*
G01Y8213*
G03X9810Y8445I44J232*
X9574Y8681I236*
X9468Y8656J236*
G02X9455Y8653I13J27*
X9425Y8682J30*
G03X9258Y8902I236J6*
G02X9237Y8931I9J29*
X9257Y8959I30*
G03X9409Y9179I84J220*
X9173Y9416I236*
X8936Y9179J237*
X8937Y9160I237*
G02Y9158I30J2*
X8907Y9128I30*
X8890Y9133J30*
G03X8800Y9172I135J193*
G02X8776Y9201I6J29*
X8777Y9210I30*
G03X8787Y9277I227J67*
X8550Y9514I237*
X8386Y9447J237*
G02X8365Y9438I21J21*
X8335Y9465J30*
G03X8100Y9678I235J23*
X7864Y9442J236*
G01Y11457*
G03X7871I7J237*
X8108Y11694J237*
X7871Y11930I237*
X7635Y11694J236*
G01Y13661*
X7964*
G02X7993Y13631J30*
X7991Y13620I29*
G03X7971Y13525I217J95*
X8208Y13289I237*
X8229Y13290J236*
G02X8232I3J30*
X8262Y13265J30*
G03X8355Y13116I232J42*
G02X8367Y13092I18J24*
X8337Y13062I30*
X8327Y13064J30*
G03X8247Y13078I80J222*
X8011Y12842J236*
X8247Y12606I236*
X8469Y12761J236*
G02X8497Y12781I28J10*
X8510Y12778J30*
G03X8609Y12756I99J215*
X8845Y12993J237*
X8730Y13195I236*
G02X8716Y13221I16J26*
X8717Y13231I30*
G03X8730Y13307I223J76*
X8494Y13543I236*
X8472Y13542J236*
G02X8469I3J30*
X8440Y13567J30*
G03X8424Y13620I232J42*
G02X8422Y13631I28J11*
X8452Y13661I30*
G01X9631*
Y9277*
G03X9868Y9041I237*
X10104Y9277J236*
X9868Y9513I236*
X9631Y9277J236*
G01Y13661*
X10513*
Y5019*
G03X10523Y4950I236*
G01Y3344*
G03X10760Y3108I237*
X10996Y3344J236*
X10760Y3580I236*
X10523Y3344J236*
G01Y4950*
G03X10749Y4783I226J69*
X10985Y5019J236*
X10749Y5255I236*
X10513Y5019J236*
G01Y13661*
X10584*
Y13365*
G03X10612Y13254I237*
G01Y10754*
G03X10848Y10518I236*
X11085Y10754J236*
X10848Y10990I237*
X10612Y10754J236*
G01Y13254*
G03X10821Y13129I209J111*
X10982Y13192J236*
G02X11002Y13200I20J22*
X11032Y13170J30*
Y13167I30*
G03X11030Y13138I235J29*
X11244Y12902I237*
G01Y10397*
G03X11480Y10160I236*
X11517Y10163J237*
G01Y6207*
G03X11682Y5982I236*
G01Y4368*
G03X11919Y4132I237*
X11930J236*
G01Y2523*
G03X11936Y2470I236*
G01Y1722*
G03X12172Y1486I236*
X12408Y1722J236*
X12172Y1958I236*
X11936Y1722J236*
G01Y2470*
G03X12166Y2286I230J53*
X12330Y2353J237*
G01Y2116*
G03X12567Y1880I237*
X12713Y1931J236*
G01Y1710*
G03X12949Y1474I236*
X13185Y1710J236*
X12949Y1946I236*
X12713Y1710J236*
G01Y1931*
G03X12803Y2116I146J185*
X12567Y2352I236*
X12330Y2116J236*
G01Y2353*
G03X12402Y2523I164J170*
X12166Y2759I236*
X11930Y2523J236*
G01Y4132*
G03X12155Y4368I11J236*
X11919Y4604I236*
X11682Y4368J236*
G01Y5982*
G03X11753Y5971I71J225*
X11942Y6066J236*
G02X11966Y6078I24J17*
X11995Y6059J29*
G03X12217Y5902I222J79*
X12270Y5908J236*
G02X12277Y5909I7J29*
X12307Y5879J30*
X12303Y5865I30*
G03X12276Y5754I209J111*
X12442Y5529I236*
G02X12463Y5500I9J29*
X12448Y5474I30*
G03X12327Y5268I115J206*
X12563Y5032I236*
X12707Y5081J236*
G01Y2511*
G03X12943Y2274I236*
X13179Y2511J237*
X12943Y2747I236*
X12707Y2511J236*
G01Y5081*
G03X12799Y5268I144J187*
X12633Y5494I236*
G02X12612Y5522I9J28*
X12628Y5548I30*
G03X12748Y5754I116J206*
X12512Y5991I236*
X12459Y5985J237*
G02X12452Y5984I7J29*
X12422Y6014J30*
X12426Y6028I30*
G03X12453Y6138I209J110*
X12303Y6358I236*
G02X12284Y6386I11J28*
X12285Y6390I30*
G01Y6393*
G02X12312Y6418I30J4*
G03X12530Y6654I18J236*
X12436Y6843I236*
G02X12424Y6867I18J24*
X12449Y6897I30*
G03X12648Y7130I37J233*
X12412Y7366I236*
X12176Y7130J236*
X12270Y6941I236*
G02X12282Y6917I18J24*
X12257Y6887I30*
G03X12058Y6654I37J233*
X12208Y6434I236*
G02X12227Y6406I11J28*
Y6402I30*
G01X12226Y6399*
G02X12199Y6374I29J4*
G03X12027Y6279I18J236*
G02X12003Y6267I24J18*
X11975Y6287J30*
G03X11753Y6444I222J80*
X11517Y6207J237*
G01Y10163*
G03X11684Y10277I37J234*
G02X11710Y10292I26J15*
X11727Y10287J30*
G03X11859Y10247I132J196*
X12095Y10483J236*
X11859Y10719I236*
X11806Y10713J236*
G02X11799Y10712I7J29*
X11769Y10742J30*
Y10745I30*
G03X11770Y10769I235J24*
X11534Y11005I236*
X11298Y10769J236*
X11345Y10628I236*
G02X11351Y10610I24J18*
X11339Y10586I30*
G03X11244Y10397I141J189*
G01Y12902*
G03X11267Y12901I23J236*
X11503Y13138J237*
X11267Y13374I236*
X11105Y13310J236*
G02X11085Y13302I20J22*
X11055Y13332J30*
Y13336I30*
G03X11057Y13365I234J29*
X10821Y13601I236*
X10584Y13365J236*
G01Y13661*
X11812*
Y12179*
G03X12048Y11943I236*
X12177Y11981J236*
G02X12193Y11985I16J25*
X12214Y11977J29*
G03X12274Y11933I168J166*
G02X12290Y11906I14J27*
X12282Y11886I30*
G03X12223Y11729I177J157*
X12459Y11493I236*
X12695Y11729J236*
X12567Y11939I236*
G02X12551Y11966I14J27*
X12558Y11986I30*
G03X12618Y12143I176J157*
X12382Y12379I236*
X12254Y12341J236*
G02X12238Y12336I16J25*
X12216Y12345J30*
G03X12048Y12415I168J166*
X11812Y12179J236*
G01Y13661*
X12843*
Y6578*
G03X13079Y6341I236*
X13154Y6354J237*
G01Y5756*
G03X13649Y5261I495*
X14145Y5756J495*
X13649Y6251I496*
X13154Y5756J495*
G01Y6354*
G03X13315Y6578I75J224*
X13079Y6814I236*
X12843Y6578J236*
G01Y13661*
X13435*
G02X13465Y13631J30*
G01Y13601*
G02X13461Y13586I30*
G03X13429Y13468I205J118*
X13461Y13351I237*
G02X13465Y13336I26J15*
G01Y12795*
G03X13583Y12677I118*
G01X13642*
Y9282*
G03X13878Y9046I236*
X14115Y9282J236*
X13878Y9519I237*
X13642Y9282J237*
G01Y12677*
X14336*
Y6759*
G03X14362Y6651I236*
G01Y1709*
G03X14598Y1473I236*
X14834Y1709J236*
X14598Y1945I236*
X14362Y1709J236*
G01Y6651*
G03X14572Y6523I210J108*
X14806Y6726J236*
G01Y2537*
G03X15042Y2301I236*
X15278Y2537J236*
X15198Y2715I236*
G02X15188Y2737I20J22*
X15208Y2765I30*
G03X15365Y2988I79J223*
X15129Y3224I236*
X14893Y2988J236*
X14973Y2810I236*
G02X14983Y2788I20J22*
X14963Y2760I30*
G03X14806Y2537I79J223*
G01Y6726*
G03X14808Y6759I234J33*
X14572Y6995I236*
X14336Y6759J236*
G01Y12677*
X14716*
Y11755*
G03X14898Y11525I236*
G01Y10983*
G03X14996Y10791I236*
G01Y6142*
G03X15232Y5906I236*
X15469Y6142J236*
X15232Y6379I237*
X14996Y6142J237*
G01Y10791*
G03X15134Y10747I138J192*
X15370Y10983J236*
X15134Y11219I236*
X14898Y10983J236*
G01Y11525*
G03X14952Y11519I54J230*
X15188Y11755J236*
X14952Y11991I236*
X14716Y11755J236*
G01Y12677*
X15199*
G02X15229Y12647J30*
X15224Y12631I30*
G03X15184Y12499I196J132*
X15420Y12263I236*
X15657Y12499J236*
X15617Y12631I237*
G02X15612Y12647I25J16*
X15642Y12677I30*
G01X15726*
G02X15756Y12647J30*
G01Y282*
G02X15726Y252I30*
G01X14253*
G02X14223Y282J30*
X14240Y309I30*
G03X14373Y521I103J212*
X14137Y758I236*
X13901Y521J237*
X14034Y309I236*
G02X14051Y282I13J27*
X14021Y252I30*
G01X11957*
G02X11928Y282J30*
X11946Y310I29*
G03X12092Y528I90J218*
X11856Y764I236*
X11681Y687J236*
G02X11659Y677I22J20*
X11634Y691J30*
G03X11437Y797I197J130*
X11201Y561J236*
X11437Y325I236*
X11611Y402J236*
G02X11633Y411I22J21*
X11658Y398J30*
G03X11765Y310I198J130*
G02X11784Y282I11J28*
X11754Y252I30*
G01X6049*
G02X6019Y282J30*
X6026Y302I30*
G03X6085Y458I177J156*
X5849Y694I236*
X5613Y458J236*
X5672Y302I236*
G02X5679Y282I23J20*
X5649Y252I30*
G01X5313*
G02X5283Y282J30*
X5291Y302I30*
G03X5350Y458I178J156*
X5113Y694I237*
X4877Y458J236*
X4936Y302I236*
G02X4944Y282I22J20*
X4914Y252I30*
G01X4416*
G02X4386Y282J30*
X4394Y302I30*
G03X4453Y458I177J156*
X4217Y694I236*
X3980Y458J236*
X4039Y302I237*
G02X4047Y282I22J20*
X4017Y252I30*
G01X3706*
G02X3677Y282J30*
X3683Y301I29*
G03X3735Y449I184J148*
X3499Y685I236*
X3319Y601J236*
G02X3296Y591I23J20*
X3266Y621J30*
G01Y1167*
G02X3296Y1197I30*
X3320Y1185J30*
G03X3508Y1092I188J143*
X3744Y1328J236*
X3508Y1565I236*
X3320Y1471J237*
G02X3296Y1460I24J19*
X3266Y1490J30*
G01Y1907*
G02X3296Y1937I30*
X3320Y1925J30*
G03X3508Y1831I188J143*
X3744Y2068J237*
X3508Y2304I236*
X3320Y2211J236*
G02X3296Y2199I24J18*
X3266Y2229J30*
G01Y2652*
G02X3296Y2682I30*
X3318Y2673J30*
G03X3490Y2598I172J161*
X3726Y2834J236*
X3490Y3071I236*
X3449Y3067J237*
G02X3443Y3066I6J29*
X3413Y3096J30*
X3416Y3109I30*
G03X3439Y3211I213J102*
X3203Y3447I236*
X2967Y3211J236*
X3013Y3070I236*
G02X3019Y3053I24J17*
X2989Y3023I30*
G01X2712*
G02X2682Y3053J30*
X2690Y3072I30*
G03X2749Y3229I177J157*
X2513Y3465I236*
X2276Y3229J236*
X2336Y3072I237*
G02X2343Y3053I23J19*
X2313Y3023I30*
G01X1977*
G02X1947Y3053J30*
X1954Y3072I30*
G03X2013Y3229I177J157*
X1777Y3465I236*
X1541Y3229J236*
X1600Y3072I236*
G02X1608Y3053I22J19*
X1578Y3023I30*
G01X1374*
G02X1344Y3053J30*
X1351Y3071I30*
G03X1404Y3220I184J149*
X1167Y3456I237*
X931Y3220J236*
X984Y3071I236*
G02X990Y3053I23J18*
X961Y3023I29*
G01X791*
G02X762Y3053J30*
X768Y3071I29*
G03X821Y3220I183J149*
X585Y3456I236*
X348Y3220J236*
X401Y3071I237*
G02X408Y3053I23J18*
X378Y3023I30*
G01X282*
G02X252Y3053J30*
G01Y19931*
Y20150D02*
G02X261Y20171I30D01*
G01X1486Y21392*
Y20774*
G03X1722Y20538I236*
X1958Y20774J236*
X1722Y21011I236*
X1486Y20774J237*
G01Y21392*
X2273Y22176*
Y21602*
G03X2509Y21366I236*
X2745Y21602J236*
X2509Y21838I236*
X2273Y21602J236*
G01Y22176*
X2766Y22668*
G02X2787Y22677I21J21*
G01X2999*
Y22308*
G03X3235Y22072I236*
X3471Y22308J236*
X3235Y22544I236*
X2999Y22308J236*
G01Y22677*
X4071*
Y18135*
G03X4101Y18018I236*
G01Y15134*
G03X4338Y14898I237*
X4574Y15134J236*
X4338Y15370I236*
X4101Y15134J236*
G01Y18018*
G03X4307Y17899I206J117*
X4543Y18135J236*
X4307Y18371I236*
X4071Y18135J236*
G01Y22677*
X4109*
Y22369*
G03X4345Y22132I236*
X4581Y22369J237*
X4345Y22605I236*
X4109Y22369J236*
G01Y22677*
X5064*
Y16021*
G03X5300Y15784I236*
X5536Y16021J237*
X5300Y16257I236*
X5064Y16021J236*
G01Y22677*
X5327*
Y19125*
G03X5564Y18889I237*
X5800Y19125J236*
X5564Y19361I236*
X5327Y19125J236*
G01Y22677*
X5337*
Y19723*
G03X5573Y19486I236*
X5810Y19723J237*
X5573Y19959I237*
X5337Y19723J236*
G01Y22677*
X5560*
Y20659*
G03X5797Y20423I237*
X5836Y20426J236*
G01Y14887*
G03X6072Y14651I236*
X6308Y14887J236*
X6072Y15124I236*
X5836Y14887J237*
G01Y20426*
G03X5895Y20445I39J233*
G01Y20173*
G03X5937Y20039I237*
G01Y19156*
G03X6036Y18964I236*
G01Y16488*
G03X6272Y16252I236*
X6508Y16488J236*
X6272Y16724I236*
X6036Y16488J236*
G01Y18964*
G03X6173Y18919I137J192*
X6410Y19156J237*
X6173Y19392I237*
X5937Y19156J236*
G01Y20039*
G03X6132Y19937I195J134*
X6177Y19941J236*
G02X6183Y19942I6J29*
X6213Y19912J30*
X6212Y19906I30*
G03X6200Y19794I520J112*
X6732Y19263I532*
X7151Y19467J531*
G01Y16609*
G03X7387Y16372I236*
X7623Y16609J237*
X7387Y16845I236*
X7151Y16609J236*
G01Y19467*
G03X7229Y19605I419J327*
G01Y18414*
G03X7465Y18178I236*
X7701Y18414J236*
X7465Y18650I236*
X7229Y18414J236*
G01Y19605*
G03X7241Y19640I497J189*
G01Y19335*
G03X7477Y19099I236*
X7713Y19335J236*
X7477Y19571I236*
X7241Y19335J236*
G01Y19640*
G03X7263Y19794I509J154*
X6732Y20326I531*
X6408Y20215J532*
G02X6389Y20209I19J24*
X6360Y20232J30*
G03X6132Y20409I228J59*
X5895Y20173J236*
G01Y20445*
G03X6033Y20659I98J214*
X5797Y20896I236*
X5560Y20659J237*
G01Y22677*
X5775*
G02X5805Y22647J30*
X5782Y22618I30*
G03X5602Y22389I56J229*
X5838Y22153I236*
X6031Y22252J236*
G01Y21158*
G03X6267Y20921I236*
X6503Y21158J237*
X6490Y21235I236*
G02X6488Y21245I28J10*
X6517Y21275I30*
G01Y20735*
G03X6753Y20499I236*
X6990Y20735J236*
X6753Y20971I237*
X6517Y20735J236*
G01Y21275*
X6518*
G02X6530Y21273J30*
G03X6733Y21232I203J491*
X7264Y21764J532*
X6733Y22295I531*
X6201Y21764J531*
X6311Y21441I532*
G02X6317Y21423I24J18*
X6287Y21393I30*
X6285J30*
G03X6267Y21394I18J235*
X6031Y21158J236*
G01Y22252*
G03X6074Y22389I193J137*
X5894Y22618I236*
G02X5872Y22647I8J29*
X5902Y22677I30*
G01X7596*
G02X7626Y22647J30*
X7610Y22620I30*
G03X7479Y22409I105J211*
X7635Y22187I236*
G01Y19915*
G03X7741Y19718I236*
G01Y15402*
G03X7977Y15166I236*
X8213Y15402J236*
X7977Y15638I236*
X7741Y15402J236*
G01Y19718*
G03X7772Y19701I130J197*
G01Y17428*
G03X8008Y17192I236*
X8237Y17373J236*
G01X8238Y17375*
Y15121*
G03X8474Y14884I236*
X8710Y15121J237*
X8474Y15357I236*
X8238Y15121J236*
G01Y17375*
G02X8267Y17396I29J9*
X8269J30*
G01Y16410*
G03X8505Y16174I236*
X8741Y16410J236*
X8505Y16646I236*
X8269Y16410J236*
G01Y17396*
G02X8284Y17391I2J30*
G03X8421Y17347I137J192*
X8658Y17583J236*
X8421Y17819I237*
X8192Y17638J236*
G02X8163Y17615I29J7*
X8145Y17621J30*
G03X8008Y17665I137J193*
X7772Y17428J237*
G01Y18458*
G03X8008Y18222I236*
X8244Y18458J236*
X8008Y18695I236*
X7772Y18458J237*
G01Y19701*
G03X7833Y19682I99J214*
G02X7858Y19652I5J30*
X7853Y19636I30*
G03X7815Y19508I198J128*
X8051Y19271I236*
X8288Y19508J237*
X8090Y19741I237*
G02X8065Y19770I5J29*
X8070Y19786I30*
G03X8108Y19915I199J129*
X7871Y20151I237*
X7635Y19915J236*
G01Y22187*
G03X7715Y22173I80J222*
X7951Y22409J236*
X7820Y22620I236*
G02X7803Y22647I13J27*
X7833Y22677I30*
G01X7996*
Y21766*
G03X8231Y21530I236*
G01Y20828*
G03X8762Y20297I531*
X9167Y20484J531*
G01Y15953*
G03X9403Y15717I236*
X9639Y15953J236*
X9403Y16190I236*
X9167Y15953J237*
G01Y20484*
G03X9277Y20697I405J344*
G01Y19021*
G03X9513Y18785I236*
X9689Y18863J236*
G01Y14308*
G03X9925Y14072I236*
X10162Y14308J236*
X9925Y14545I237*
X9689Y14308J237*
G01Y18863*
G03X9750Y19021I176J158*
X9513Y19257I237*
X9277Y19021J236*
G01Y20697*
G03X9294Y20828I515J131*
X8762Y21360I532*
X8231Y20828J532*
G01Y21530*
X8232*
G03X8469Y21766J236*
X8232Y22002I237*
X7996Y21766J236*
G01Y22677*
X8889*
G02X8919Y22647J30*
X8909Y22625I30*
G03X8831Y22449I158J176*
X9067Y22213I236*
X9303Y22449J236*
X9225Y22625I236*
G02X9215Y22647I20J22*
X9245Y22677I30*
G01X9489*
Y21618*
G03X9726Y21382I237*
X9789Y21390J236*
G01Y14962*
G03X10025Y14726I236*
X10261Y14962J236*
X10025Y15199I236*
X9789Y14962J237*
G01Y21390*
G03X9962Y21618I63J228*
X9726Y21854I236*
X9489Y21618J236*
G01Y22677*
X10221*
G02X10251Y22647J30*
X10241Y22625I30*
G03X10162Y22449I158J176*
X10198Y22324I237*
G01Y20829*
G03X10290Y20532I532*
G01Y16383*
G03X10526Y16147I236*
X10762Y16383J236*
X10526Y16620I236*
X10290Y16383J237*
G01Y20532*
G03X10314Y20499I440J297*
G01Y19636*
G03X10550Y19400I236*
X10786Y19636J236*
X10550Y19872I236*
X10314Y19636J236*
G01Y20499*
G03X10730Y20298I416J330*
X10804Y20303J531*
G01Y20013*
G03X10912Y19814I236*
G01Y19050*
G03X11148Y18814I236*
X11366Y18959J236*
G01Y16515*
G03X11495Y16305I236*
G01Y15040*
G03X11731Y14804I236*
X11967Y15040J236*
X11731Y15276I236*
X11495Y15040J236*
G01Y16305*
G03X11602Y16279I107J210*
X11838Y16515J236*
X11602Y16751I236*
X11366Y16515J236*
G01Y18959*
G03X11384Y19050I218J91*
X11148Y19286I236*
X10912Y19050J236*
G01Y19814*
G03X11040Y19776I128J199*
X11276Y20013J237*
X11040Y20249I236*
X10804Y20013J236*
G01Y20303*
G03X11261Y20829I74J526*
X10730Y21361I531*
X10198Y20829J532*
G01Y22324*
G03X10399Y22213I201J125*
X10635Y22449J236*
X10557Y22625I236*
G02X10547Y22647I20J22*
X10577Y22677I30*
G01X11169*
G02X11199Y22647J30*
X11191Y22627I30*
G03X11131Y22469I176J158*
X11348Y22234I236*
G01Y19439*
G03X11584Y19202I236*
X11743Y19263J237*
G01Y18865*
G03X11979Y18628I236*
X12009Y18630J237*
G01Y17082*
G03X12059Y16937I236*
G01Y14748*
G03X12295Y14511I236*
X12532Y14748J237*
X12295Y14984I237*
X12059Y14748J236*
G01Y16937*
G03X12245Y16846I186J145*
X12482Y17082J236*
X12245Y17318I237*
X12009Y17082J236*
G01Y18630*
G03X12174Y18732I30J235*
G02X12199Y18745I25J17*
X12225Y18731J30*
G03X12679Y18476I454J276*
X13008Y18590J531*
G01Y14980*
G03X13244Y14744I236*
X13480Y14980J236*
X13244Y15217I236*
X13008Y14980J237*
G01Y18590*
G03X13121Y18713I329J417*
G01Y17942*
G03X13357Y17706I236*
X13593Y17942J236*
X13357Y18178I236*
X13121Y17942J236*
G01Y18713*
G03X13210Y19007I442J294*
X12679Y19539I531*
X12153Y19084J532*
G02X12123Y19058I30J4*
X12107Y19063J30*
G03X11979Y19101I128J198*
X11743Y18865J236*
G01Y19263*
G03X11820Y19439I159J176*
X11584Y19675I236*
X11348Y19439J236*
G01Y22234*
G03X11367Y22233I19J235*
X11603Y22469J236*
X11543Y22627I236*
G02X11535Y22647I22J20*
X11565Y22677I30*
G01X11722*
Y21551*
G03X11959Y21315I237*
X12195Y21551J236*
X11959Y21787I236*
X11722Y21551J236*
G01Y22677*
X12239*
G02X12269Y22647J30*
X12259Y22625I30*
G03X12180Y22449I157J176*
X12234Y22300I236*
G01Y20475*
G03X12470Y20238I236*
X12706Y20475J237*
X12470Y20711I236*
X12234Y20475J236*
G01Y22300*
G03X12416Y22213I182J149*
X12653Y22449J236*
X12574Y22625I237*
G02X12564Y22647I20J22*
X12594Y22677I30*
G01X13288*
G02X13318Y22647J30*
X13310Y22627I30*
G03X13250Y22469I176J158*
X13471Y22234I236*
G01Y19896*
G03X13708Y19660I237*
X13944Y19896J236*
X13708Y20132I236*
X13471Y19896J236*
G01Y22234*
G03X13486Y22233I15J235*
X13565Y22247J236*
G01Y21309*
G03X13802Y21072I237*
X14038Y21309J237*
X13802Y21545I236*
X13565Y21309J236*
G01Y22247*
G03X13722Y22469I79J222*
X13662Y22627I236*
G02X13654Y22647I22J20*
X13684Y22677I30*
G01X14115*
Y19006*
G03X14129Y18884I531*
G01Y14657*
G03X14365Y14421I236*
X14601Y14657J236*
X14365Y14894I236*
X14129Y14657J237*
G01Y18884*
G03X14369Y18553I517J122*
G01Y18029*
G03X14567Y17795I236*
G01Y15834*
G03X14804Y15598I237*
X15040Y15834J236*
X14804Y16070I236*
X14567Y15834J236*
G01Y17795*
G03X14605Y17792I38J234*
X14841Y18029J237*
X14605Y18265I236*
X14369Y18029J236*
G01Y18553*
G03X14646Y18475I277J453*
X15167Y18898J531*
G01Y18414*
G03X15205Y18284I236*
G01Y15411*
G03X15441Y15175I236*
X15678Y15411J236*
X15441Y15647I237*
X15205Y15411J236*
G01Y18284*
G03X15403Y18177I198J130*
X15639Y18414J237*
X15403Y18650I236*
X15167Y18414J236*
G01Y18898*
G03X15178Y19006I521J108*
X14646Y19538I532*
X14115Y19006J532*
G01Y22677*
X14640*
G02X14670Y22647J30*
X14662Y22627I30*
G03X14602Y22469I176J158*
X14838Y22233I236*
X15066Y22407J236*
G01Y20674*
G03X15106Y20542I236*
G01Y19806*
G03X15342Y19570I236*
X15579Y19806J236*
X15342Y20042I237*
X15106Y19806J236*
G01Y20542*
G03X15302Y20437I196J132*
X15538Y20674J237*
X15302Y20910I236*
X15066Y20674J236*
G01Y22407*
G03X15074Y22469I228J62*
X15014Y22627I236*
G02X15006Y22647I22J20*
X15036Y22677I30*
G01X15086*
Y21662*
G03X15322Y21426I236*
X15558Y21662J236*
X15322Y21899I236*
X15086Y21662J237*
G01Y22677*
X15726*
G02X15756Y22647J30*
G01Y17882*
G02X15726Y17852I30*
X15707Y17858J30*
G03X15559Y17911I148J183*
X15323Y17675J236*
X15559Y17438I236*
X15707Y17491J237*
G02X15726Y17497I19J23*
X15756Y17468J29*
G01Y16897*
G02X15726Y16867I30*
X15707Y16874J30*
G03X15559Y16926I148J184*
X15323Y16690J236*
X15559Y16454I236*
X15707Y16506J236*
G02X15726Y16513I19J23*
X15756Y16483J30*
G01Y12825*
G02X15726Y12795I30*
G01X13613*
G02X13583Y12825J30*
G01Y13207*
G02X13613Y13237I30*
X13619J30*
G03X13666Y13232I47J231*
X13902Y13468J236*
X13893Y13533I236*
G02X13892Y13541I29J8*
X13922Y13571I30*
X13930Y13569J30*
G03X13994Y13561I64J228*
X14230Y13797J236*
X13994Y14033I236*
X13758Y13797J236*
X13767Y13732I236*
G02X13768Y13724I29J8*
X13738Y13694I30*
X13730Y13695J30*
G03X13666Y13704I64J227*
X13619Y13700J236*
G02X13613Y13699I6J29*
X13583Y13729J30*
G01Y13780*
X12012*
G02X11982Y13809J29*
X11992Y13832I30*
G03X12069Y14006I159J174*
X11833Y14242I236*
X11596Y14006J236*
X11673Y13832I237*
G02X11683Y13809I20J23*
X11653Y13780I30*
G01X6773*
G02X6750Y13790J29*
G01X6102Y14567*
X5967*
G02X5940Y14583J30*
G03X5733Y14706I207J114*
X5526Y14583J237*
G02X5499Y14567I27J14*
G01X3573*
G02X3543Y14597J30*
G01Y15255*
G02X3562Y15282I30*
G03X3709Y15501I89J219*
X3562Y15720I236*
G02X3543Y15747I11J27*
G01Y16102*
G02X3561Y16129I30*
G03X3700Y16344I97J215*
X3561Y16559I236*
G02X3543Y16587I12J28*
G01Y20079*
X1281*
G02X1251Y20106J30*
G03X1016Y20325I235J18*
X780Y20106J237*
G02X750Y20079I30J3*
G01X282*
G02X252Y20109J30*
G01Y20150*
G37*
G54D10*
X2186Y13547D02*
X2132Y13613D01*
X2130Y13615*
X2129Y13616*
X2128*
X2125Y13615*
X2122Y13614*
X2120Y13612*
X2119Y13610*
X2118Y13607*
X2119Y13604*
X2172Y13540*
Y13413*
X2122Y13351*
X2049*
X1999Y13412*
Y13477*
X1998Y13480*
X1996Y13482*
X1994Y13484*
X1991*
X1988*
X1985Y13482*
X1984Y13480*
X1983Y13477*
Y13412*
X1933Y13351*
X1860*
X1810Y13413*
Y13540*
X1863Y13604*
Y13607*
Y13610*
X1862Y13612*
X1859Y13614*
X1857Y13615*
X1854Y13616*
X1853*
X1852Y13615*
X1850Y13613*
X1796Y13547*
X1795Y13546*
Y13545*
X1794Y13544*
Y13543*
Y13410*
Y13408*
X1795Y13407*
Y13406*
X1796Y13405*
X1850Y13338*
X1852Y13337*
X1853*
X1854Y13336*
X1856*
X1937*
X1938*
X1941Y13337*
X1943*
X1944Y13338*
X1991Y13396*
X2038Y13338*
X2039*
X2040Y13337*
X2041*
X2044Y13336*
X2045*
X2126*
X2128*
X2129Y13337*
X2131*
X2132Y13338*
X2186Y13405*
X2187Y13406*
Y13407*
Y13408*
X2188*
Y13409*
Y13410*
Y13543*
X2187Y13544*
Y13546*
X2186Y13547*
G54D11*
X585Y3220D03*
X590Y6583D03*
X859Y10224D03*
Y12899D03*
X869Y3808D03*
X871Y9376D03*
X1016Y20088D03*
X1167Y3220D03*
X1229Y6650D03*
X1722Y20774D03*
X1777Y3229D03*
X2121Y18949D03*
X2384Y17498D03*
Y18265D03*
X2509Y21602D03*
X2513Y3229D03*
X2878Y9371D03*
X3054Y13889D03*
X3203Y3211D03*
X3235Y22308D03*
X3358Y11508D03*
X3464Y16344D03*
X3473Y15501D03*
X3485Y8017D03*
X3490Y7017D03*
Y2834D03*
X3499Y449D03*
X3508Y1328D03*
Y2068D03*
X3612Y10736D03*
X3777Y6771D03*
X3855Y7472D03*
X4019Y13091D03*
X4111Y8974D03*
X4154Y3395D03*
X4192Y6228D03*
X4199Y2153D03*
X4217Y458D03*
X4241Y5774D03*
X4307Y18135D03*
X4320Y8634D03*
X4338Y15134D03*
X4345Y22369D03*
X4415Y12945D03*
X4433Y9374D03*
X4468Y1077D03*
X4574Y16321D03*
X4800Y2718D03*
X4822Y4923D03*
X4901Y13671D03*
X4979Y1659D03*
X5099Y13330D03*
X5113Y458D03*
X5300Y16021D03*
X5330Y4566D03*
X5481Y2171D03*
X5564Y19125D03*
X5573Y19723D03*
X5599Y9275D03*
X5605Y5966D03*
X5612Y7134D03*
X5637Y13415D03*
X5698Y21097D03*
X5733Y14469D03*
X5797Y20659D03*
X5813Y2915D03*
X5837Y7868D03*
X5838Y22389D03*
X5849Y458D03*
X5959Y8572D03*
X6004Y6277D03*
X6072Y14887D03*
X6132Y20173D03*
X6173Y19156D03*
X6267Y21158D03*
X6272Y16488D03*
X6380Y5895D03*
X6512Y1417D03*
X6591Y7305D03*
X6689Y16912D03*
X6752Y10388D03*
X6753Y20735D03*
X6764Y5797D03*
X6848Y13369D03*
X6905Y7637D03*
X6944Y9985D03*
X6962Y8865D03*
X7033Y16312D03*
X7068Y2924D03*
X7284Y14281D03*
X7334Y4376D03*
X7345Y9020D03*
X7387Y16609D03*
X7388Y17768D03*
X7416Y10383D03*
X7463Y2198D03*
X7465Y18414D03*
X7477Y19335D03*
X7667Y3258D03*
X7675Y8827D03*
X7715Y22409D03*
X7752Y4296D03*
X7816Y968D03*
X7833Y12878D03*
X7871Y19915D03*
Y11694D03*
X7977Y15402D03*
X8008Y17428D03*
Y18458D03*
X8019Y2924D03*
X8051Y19508D03*
X8100Y9442D03*
X8197Y8175D03*
X8208Y13525D03*
X8232Y21766D03*
X8247Y12842D03*
X8421Y17583D03*
X8467Y2216D03*
X8474Y15121D03*
X8494Y13307D03*
X8505Y16410D03*
X8550Y9277D03*
X8561Y4117D03*
X8609Y12993D03*
X8755Y8940D03*
X8861Y16299D03*
X8874Y1378D03*
X8931Y9616D03*
X9036Y6461D03*
X9067Y22449D03*
X9120Y6002D03*
X9149Y3220D03*
X9173Y9179D03*
X9189Y8676D03*
X9308Y6659D03*
X9403Y15953D03*
X9477Y4445D03*
X9513Y19021D03*
X9574Y8445D03*
X9597Y3032D03*
X9670Y13390D03*
X9726Y21618D03*
X9728Y6562D03*
X9846Y5986D03*
X9854Y7438D03*
X9868Y9277D03*
X9924Y4466D03*
X9925Y14308D03*
X10025Y14962D03*
X10085Y3032D03*
X10143Y7743D03*
X10161Y6314D03*
X10268Y5882D03*
X10399Y22449D03*
X10526Y16383D03*
X10550Y19636D03*
X10749Y5019D03*
X10760Y3344D03*
X10821Y13365D03*
X10848Y10754D03*
X10878Y16853D03*
X11040Y20013D03*
X11148Y19050D03*
X11152Y16211D03*
X11154Y5091D03*
X11199Y10765D03*
X11265Y3283D03*
X11267Y13138D03*
X11362Y14219D03*
X11367Y22469D03*
X11437Y561D03*
X11480Y10397D03*
X11510Y17707D03*
X11523Y6632D03*
X11534Y10769D03*
X11559Y9927D03*
X11584Y19439D03*
X11602Y16515D03*
X11731Y15040D03*
X11753Y6207D03*
X11833Y14006D03*
X11856Y528D03*
X11859Y10483D03*
X11919Y4368D03*
X11959Y21551D03*
X11979Y18865D03*
X12048Y12179D03*
X12134Y10815D03*
X12166Y2523D03*
X12172Y1722D03*
X12217Y6138D03*
X12245Y17082D03*
X12294Y6654D03*
X12295Y14748D03*
X12382Y12143D03*
X12412Y7130D03*
X12416Y22449D03*
X12459Y11729D03*
X12470Y20475D03*
X12512Y5754D03*
X12563Y5268D03*
X12567Y2116D03*
X12594Y15258D03*
X12943Y2511D03*
X12949Y1710D03*
X13079Y6578D03*
X13244Y14980D03*
X13357Y17942D03*
X13363Y9292D03*
X13373Y7177D03*
X13486Y22469D03*
X13605Y12275D03*
X13666Y13468D03*
X13696Y3284D03*
X13706Y984D03*
X13708Y19896D03*
X13802Y21309D03*
X13878Y9282D03*
X13994Y13797D03*
X14137Y521D03*
X14212Y16277D03*
X14365Y14657D03*
X14572Y6759D03*
X14598Y1709D03*
X14605Y18029D03*
X14804Y15834D03*
X14838Y22469D03*
X14952Y11755D03*
X14986Y15159D03*
X15000Y8424D03*
X15042Y2537D03*
X15129Y2988D03*
X15134Y10983D03*
X15232Y6142D03*
X15236Y13169D03*
X15302Y20674D03*
X15322Y21662D03*
X15342Y19806D03*
X15403Y18414D03*
X15420Y12499D03*
X15441Y15411D03*
X15559Y16690D03*
Y17675D03*
G54D12*
X6732Y19794D03*
X6733Y21764D03*
X8762Y20828D03*
X10730Y20829D03*
X12679Y19007D03*
X14646Y19006D03*
M02*
