*
G04 Job   : U:\2014\PLUME\PCB\RECEPTEUR\RECEPTEUR\PCB\PCB.pcb*
G04 User  : BI-WIN7:Alexis*
G04 Layer : EtchLayerTop.gdo*
G04 Date  : Wed Apr 02 16:32:20 2014*
G04 Mentor Graphics Example Gerber Output Definition*
%ICAS*%
%MOIN*%
%FSLAX24Y24*%
%OFA0.0000B0.0000*%
G90*
G74*
%AMVB_RECTANGLE*
21,1,$1,$2,0,0,$3*
%
%ADD12C,0.00591*%
%ADD10C,0.00984*%
%ADD14C,0.02362*%
%ADD13C,0.03150*%
%ADD11C,0.03937*%
%ADD15C,0.08661*%
%ADD29VB_RECTANGLE,0.01181X0.07480X90.00000*%
%ADD26VB_RECTANGLE,0.02362X0.03937X270.00000*%
%ADD25VB_RECTANGLE,0.02638X0.05906X270.00000*%
%ADD21VB_RECTANGLE,0.02756X0.01575X180.00000*%
%ADD20VB_RECTANGLE,0.02756X0.01575X90.00000*%
%ADD27VB_RECTANGLE,0.03150X0.12205X270.00000*%
%ADD16VB_RECTANGLE,0.03543X0.06299X180.00000*%
%ADD19VB_RECTANGLE,0.03543X0.08661X270.00000*%
%ADD23VB_RECTANGLE,0.03937X0.02362X0.00000*%
%ADD22VB_RECTANGLE,0.03937X0.02362X90.00000*%
%ADD70VB_RECTANGLE,0.03937X0.03150X270.00000*%
%ADD24VB_RECTANGLE,0.04724X0.04331X180.00000*%
%ADD71VB_RECTANGLE,0.05906X0.12205X270.00000*%
%ADD28VB_RECTANGLE,0.06299X0.05118X180.00000*%
%ADD72VB_RECTANGLE,0.07480X0.01181X90.00000*%
%ADD18VB_RECTANGLE,0.11811X0.06299X180.00000*%
%ADD17VB_RECTANGLE,0.21654X0.03937X180.00000*%
G01*
G36*
X252Y5436D02*
G02X282Y5466I30D01*
G01X1472*
G03X1531Y5525J59*
G01Y5840*
G03X1509Y5886I59*
G02X1498Y5909I19J23*
X1515Y5936I30*
G03X1571Y6025I43J89*
G01Y6340*
G03X1472Y6438I99*
G01X974*
G02X946Y6458J30*
G03X925Y6491I84J30*
G01X916Y6500*
G03X853Y6526I63J63*
G01X835*
G02X805Y6556J30*
X806Y6559I30*
G03X807Y6583I216J24*
X731Y6748I217*
G02X721Y6771I20J23*
X751Y6800I30*
G01X1472*
G03X1518Y6822J59*
G02X1541Y6833I23J19*
X1571Y6803J30*
G01Y6731*
G03X1597Y6668I89*
G01X1728Y6537*
G03X1791Y6511I63J63*
G01X3041*
G02X3062Y6502J30*
G01X3075Y6489*
G02X3084Y6468I21J21*
X3054Y6438I30*
G01X1850*
G03X1752Y6340J98*
G01Y6025*
G03X1782Y5954I98*
G02X1791Y5932I21J22*
X1782Y5911I30*
G03X1752Y5840I68J71*
G01Y5525*
G03X1782Y5454I98*
G02X1791Y5432I21J22*
X1782Y5411I30*
G03X1752Y5340I68J71*
G01Y5025*
G03X1782Y4954I98*
G02X1791Y4932I21J22*
X1782Y4911I30*
G03X1752Y4840I68J71*
G01Y4525*
G03X1782Y4454I98*
G02X1791Y4432I21J22*
X1782Y4411I30*
G03X1752Y4340I68J71*
G01Y4025*
G03X1850Y3926I98*
G01X3071*
G03X3169Y4025J99*
G01Y4340*
G03X3139Y4411I98*
G02X3130Y4432I21J21*
X3139Y4454I30*
G03X3169Y4525I68J71*
G01Y4840*
G03X3139Y4911I98*
G02X3130Y4932I21J21*
X3139Y4954I30*
G03X3169Y5025I68J71*
G01Y5340*
G03X3139Y5411I98*
G02X3130Y5432I21J21*
X3139Y5454I30*
G03X3169Y5525I68J71*
G01Y5539*
G02X3199Y5569I30*
X3220Y5560J30*
G01X5214Y3566*
G03X5277Y3540I63J63*
G01X6167*
Y2108*
G03X6266Y2009I99*
G01X6896*
G03X6994Y2108J99*
G01Y2620*
G03X6896Y2718I98*
G01X6266*
G03X6167Y2620J98*
G01Y3540*
X7683*
G02X7704Y3532J30*
G01X7712Y3524*
G02X7721Y3503I21J21*
X7691Y3473I30*
X7688J30*
G03X7667Y3474I21J215*
X7450Y3258J216*
X7563Y3068I217*
G02X7578Y3041I15J27*
G01Y2585*
G03X7604Y2523I89*
G01X8659Y1468*
G02X8668Y1447I21J21*
X8666Y1439I30*
G03X8658Y1378I208J61*
X8874Y1162I216*
X8935Y1170J216*
G02X8943Y1171I8J29*
X8964Y1163J30*
G01X9279Y848*
G03X9301Y832I63J63*
G02X9317Y806I14J26*
G01Y336*
G03X9326Y295I98*
G02X9329Y282I27J13*
X9299Y252I30*
G01X7012*
G02X6982Y282J30*
X6985Y295I30*
G03X6994Y336I89J41*
G01Y848*
G03X6896Y946I98*
G01X6266*
G03X6167Y848J98*
G01Y336*
G03X6176Y295I99*
G02X6179Y282I27J13*
X6149Y252I30*
G01X3296*
G02X3266Y282J30*
G01Y3023*
X282*
G02X252Y3053J30*
G01Y3936*
G02X282Y3966I30*
G01X1472*
G03X1531Y4025J59*
G01Y4340*
G03X1509Y4386I59*
G02X1498Y4409I19J23*
X1515Y4436I30*
G03X1571Y4525I43J89*
G01Y4840*
G03X1515Y4928I99*
G02X1498Y4955I13J27*
X1509Y4979I30*
G03X1531Y5025I37J46*
G01Y5340*
G03X1472Y5399I59*
G01X282*
G02X252Y5429J30*
G01Y5436*
Y20150D02*
G02X261Y20171I30D01*
G01X343Y20253*
Y18356*
G03X441Y18258I98*
G01X510*
G02X539Y18228J30*
G01Y18149*
G02X535Y18133I29*
G03X520Y18080I83J53*
G01Y17923*
G03X580Y17832I98*
G02X598Y17805I12J27*
X580Y17777I30*
G03X520Y17687I38J90*
G01Y17529*
G03X618Y17431I98*
G01X622*
G02X639Y17426J30*
G03X714Y17395I117J182*
G02X730Y17387I6J29*
G01X803Y17313*
G03X956Y17250I153J153*
G01X1084*
G03X1137Y17257J216*
G02X1145Y17258I8J29*
G01X1249*
G02X1263Y17254J30*
G03X1307Y17244I44J88*
G01X1898*
G03X1996Y17342J98*
G01Y17606*
G03X1898Y17705I98*
G01X1307*
G03X1263Y17694J99*
G02X1249Y17691I14J27*
G01X1091*
G03X1058Y17688J217*
G02X1054I4J30*
X1033Y17697J30*
G01X968Y17761*
G03X939Y17786I153J153*
G02X926Y17810I17J24*
X941Y17837I30*
G03X992Y17923I47J86*
G01Y18080*
G03X977Y18133I98*
G02X973Y18149I25J16*
G01Y18228*
G02X1002Y18258I29*
G01X1071*
G03X1076J216*
G01X1077*
X1248*
Y17842*
G03X1307Y17783I59*
G01X1898*
G03X1957Y17842J59*
G01Y18106*
G03X1898Y18165I59*
G01X1307*
G03X1248Y18106J59*
G01Y18258*
X1249*
G02X1263Y18254J30*
G03X1307Y18244I44J88*
G01X1898*
G03X1996Y18342J98*
G01Y18606*
G03X1936Y18697I98*
G02X1918Y18724I12J27*
X1936Y18752I30*
G03X1942Y18754I38J90*
G02X1956Y18758I14J26*
G01X2013*
G02X2026Y18755J30*
G03X2121Y18733I95J194*
X2337Y18949J216*
X2274Y19102I216*
G01X2249Y19127*
G03X2096Y19191I153J153*
G01X1956*
G02X1942Y19194J30*
G03X1898Y19205I44J88*
G01X1307*
G03X1209Y19106J99*
G01Y18842*
G03X1269Y18752I98*
G02X1287Y18724I12J28*
X1269Y18697I30*
G03X1263Y18694I38J91*
G02X1249Y18691I14J27*
G01X1071*
G03X1066J217*
G01X1065*
X441*
G03X343Y18592J99*
G01Y20253*
X382Y20292*
Y18907*
G03X441Y18848I59*
G01X835*
G03X894Y18907J59*
G01Y19143*
G03X835Y19202I59*
G01X441*
G03X382Y19143J59*
G01Y20292*
X1446Y21352*
Y20114*
G03X1741Y19819I295*
X2036Y20114J295*
X1741Y20410I295*
X1446Y20114J296*
G01Y21352*
X2766Y22668*
G02X2787Y22677I21J21*
G01X2884*
Y19563*
G03X2943Y19504I59*
G01X3179*
G03X3238Y19563J59*
G01Y19957*
G03X3179Y20016I59*
G01X2943*
G03X2884Y19957J59*
G01Y22677*
X4753*
Y21712*
G03X4812Y21653I59*
G01X4969*
G03X5015Y21674J59*
G02X5038Y21685I23J19*
X5068Y21655J30*
G01Y21623*
G03X5069Y21595I216*
G02X5070Y21591I29J4*
G01Y21334*
G02X5051Y21307I30*
G03X4991Y21216I38J91*
G01Y20231*
G03X5089Y20133I98*
G01X5483*
G03X5581Y20231J98*
G01Y20468*
G03X5483Y20566I98*
G01X5089*
G03X4991Y20468J98*
G01Y20980*
G03X5089Y20881I98*
G01X5677*
G02X5679J30*
G03X5698Y20880I19J216*
X5914Y21097J217*
X5851Y21250I216*
G01X5850Y21251*
G03X5697Y21314I153J153*
G01X5533*
G02X5503Y21344J30*
G01Y21621*
G03X5501Y21649I217*
G02Y21653I30J4*
G01Y21849*
G03X5466Y21967I217*
G02X5461Y21983I25J16*
G01Y21987*
G03X5363Y22086I98*
G01X5205*
G03X5107Y21987J99*
G01Y21983*
G02X5102Y21967I30*
G03X5086Y21936I182J118*
G02X5058Y21918I28J12*
X5028Y21948J30*
G01Y21987*
G03X4969Y22046I59*
G01X4812*
G03X4753Y21987J59*
G01Y22677*
X6200*
Y19794*
G03X6732Y19263I532*
X7172Y19496J531*
G01Y17768*
G03X7388Y17552I216*
X7605Y17768J216*
X7388Y17985I217*
X7172Y17768J217*
G01Y19496*
G03X7263Y19794I440J298*
X6732Y20326I531*
X6200Y19794J532*
G01Y22677*
X6201*
Y21764*
G03X6733Y21232I532*
X7264Y21764J532*
X6733Y22295I531*
X6201Y21764J531*
G01Y22677*
X8231*
Y20828*
G03X8645Y20310I531*
G01Y16299*
G03X8861Y16083I216*
X9078Y16299J216*
X8861Y16516I217*
X8645Y16299J217*
G01Y20310*
G03X8762Y20297I117J518*
X8773J531*
G01Y18082*
G03X8832Y18023I59*
G01X10208*
G03X10267Y18082J59*
G01Y18805*
G03X10208Y18864I59*
G01X8832*
G03X8773Y18805J59*
G01Y20297*
G03X9294Y20828I11J531*
X8762Y21360I532*
X8231Y20828J532*
G01Y22677*
X10198*
Y20829*
G03X10662Y20302I532*
G01Y16853*
G03X10878Y16637I216*
X11095Y16853J216*
X10878Y17070I217*
X10662Y16853J217*
G01Y20302*
G03X10730Y20298I68J527*
X11261Y20829J531*
X10730Y21361I531*
X10198Y20829J532*
G01Y22677*
X11293*
Y17707*
G03X11510Y17491I217*
X11726Y17707J216*
X11510Y17924I216*
X11293Y17707J217*
G01Y22677*
X12147*
Y19007*
G03X12679Y18476I532*
X13210Y19007J531*
X12679Y19539I531*
X12147Y19007J532*
G01Y22677*
X12820*
Y21540*
G03X12868Y21482I59*
G01Y20383*
G03X12927Y20324I59*
G01X14115*
Y19006*
G03X14646Y18475I531*
X15178Y19006J531*
X14646Y19538I532*
X14115Y19006J532*
G01Y20324*
X14368*
G03X14427Y20383J59*
G01Y21105*
G03X14368Y21164I59*
G01X12927*
G03X12868Y21105J59*
G01Y21482*
G03X12879Y21481I11J58*
G01X14615*
G03X14675Y21540J59*
G01Y22262*
G03X14615Y22321I60*
G01X12879*
G03X12820Y22262J59*
G01Y22677*
X15726*
G02X15756Y22647J30*
G01Y282*
G02X15726Y252I30*
G01X11915*
G02X11885Y282J30*
G01Y289*
G02X11908Y318I30*
G03X12072Y528I52J210*
X11960Y718I216*
G02X11944Y744I14J26*
G01Y824*
G03X11918Y887I88*
G01X11197Y1608*
G03X11134Y1634I63J62*
G01X9721*
G02X9700Y1643J30*
G01X9127Y2216*
G02X9118Y2237I21J21*
G01Y2873*
G03X9092Y2935I88*
G01X7984Y4043*
G03X7922Y4069I62J62*
G01X7900*
G02X7871Y4099J30*
X7882Y4123I29*
G03X7968Y4296I130J173*
X7856Y4485I216*
G02X7840Y4512I14J27*
G01Y4677*
G02X7842Y4688I30*
G03X7844Y4693I82J33*
G02X7872Y4713I28J10*
X7878J30*
G03X7898Y4711I20J96*
G01X8016*
G03X8029Y4712J98*
G02X8033I4J30*
X8063Y4682J30*
G01Y4390*
G03X8089Y4327I89*
G01X8216Y4201*
G03X8279Y4175I63J62*
G01X8316*
G02X8346Y4145J30*
X8345Y4141I30*
G03X8344Y4117I216J24*
X8561Y3901I217*
X8698Y3950J216*
G01Y3688*
G03X8757Y3629I59*
G01X9033*
G03X9092Y3688J59*
G01Y3845*
G03X9033Y3904I59*
G01X8757*
G03X8698Y3845J59*
G01Y3950*
G03X8723Y3974I137J167*
G02X8745Y3984I22J20*
X8748J30*
G03X8757Y3983I9J97*
G01X9033*
G03X9131Y4081J98*
G01Y4200*
G02X9140Y4221I30*
G01X9200Y4281*
G03X9226Y4338I62J63*
G02X9256Y4366I30J2*
X9283Y4350J30*
G03X9356Y4266I194J95*
G01Y2108*
G03X9415Y2049I59*
G01X10045*
G03X10104Y2108J59*
G01Y2620*
G03X10045Y2679I59*
G01X9415*
G03X9356Y2620J59*
G01Y4266*
G03X9410Y4239I121J179*
G02X9431Y4211I9J28*
G01Y3992*
G03X9530Y3894I99*
G01X9923*
G03X10022Y3992J98*
G02X10052Y4022I30*
G03X10099Y4035J88*
G02X10115Y4040I16J25*
X10130Y4035J30*
G03X10180Y4022I50J85*
G01X10456*
G03X10554Y4120J98*
G01Y4278*
G03X10456Y4376I98*
G01X10437*
G02X10407Y4406J30*
G01Y4695*
G02X10423Y4722I30*
G03X10476Y4809I45J87*
G01Y5068*
G02X10499Y5097I30*
G03X10539Y5120I22J86*
G01X10643Y5224*
G02X10664Y5233I21J21*
G01X10875*
G02X10896Y5224J30*
G01X10939Y5181*
G02X10948Y5160I21J21*
X10946Y5151I30*
G03X10938Y5091I208J60*
X11154Y4874I216*
X11371Y5091J217*
X11154Y5307I217*
X11094Y5298J216*
G02X11085Y5297I9J29*
X11064Y5306J30*
G01X10986Y5384*
G03X10924Y5410I62J63*
G01X10615*
G03X10552Y5384J89*
G01X10527Y5359*
G02X10506Y5350I21J21*
X10476Y5380J30*
G01Y5557*
G03X10473Y5583I98*
G02X10472Y5591I29J8*
X10502Y5621I30*
X10510Y5620J30*
G03X10535Y5616I25J95*
G01X11283*
G03X11371Y5669J99*
G02X11397Y5685I26J14*
G01X11431*
G03X11493Y5711J89*
G01X11568Y5786*
G02X11589Y5795I21J21*
G01X11962*
G03X12025Y5821J88*
G01X12127Y5923*
G02X12148Y5931I21J22*
X12156Y5930J30*
G03X12217Y5921I61J208*
X12304Y5940J217*
G02X12316Y5942I12J28*
X12339Y5930J30*
G01X12343Y5926*
G02X12349Y5908I24J18*
X12343Y5889I30*
G03X12296Y5754I169J135*
X12482Y5540I216*
G02X12508Y5513I4J30*
G01X12509Y5503*
G02Y5500I30J3*
X12489Y5472I30*
G03X12347Y5268I74J204*
X12386Y5144I216*
G02X12392Y5126I24J18*
X12362Y5097I30*
G01X12134*
G03X12035Y4998J99*
G01Y4408*
G03X12134Y4309I99*
G01X13354*
G03X13452Y4408J99*
G01Y4998*
G03X13413Y5077I98*
G02X13401Y5101I18J24*
X13431Y5131I30*
G01X13441*
G02X13462Y5122J30*
G01X13940Y4645*
G02X13948Y4624I22J21*
X13924Y4594I30*
G03X13846Y4498I21J96*
G01Y4018*
G02X13816Y3988I30*
X13795Y3997J30*
G01X13574Y4218*
G03X13512Y4244I62J63*
G01X11144*
G03X11081Y4218J89*
G01X10566Y3702*
G02X10545Y3694I21J22*
X10515Y3724J30*
G01Y3725*
Y3726*
Y3884*
G03X10456Y3943I59*
G01X10180*
G03X10121Y3884J59*
G01Y3726*
G03X10180Y3667I59*
G01X10456*
X10458*
X10459*
G02X10489Y3637J30*
X10480Y3616I30*
G01X10256Y3393*
G02X10235Y3384I21J21*
G01X10008*
G02X9978Y3414J30*
X9980Y3423I30*
G03X9982Y3441I57J18*
G01Y3677*
G03X9923Y3736I59*
G01X9530*
G03X9470Y3677J59*
G01Y3441*
G03X9530Y3382I60*
G01X9749*
G02X9779Y3352J30*
X9770Y3331I30*
G01X9688Y3248*
G02X9666Y3239I22J21*
X9658Y3240J30*
G03X9597Y3249I61J208*
X9381Y3032J217*
X9597Y2816I216*
X9808Y2980J216*
G02X9837Y3003I29J7*
G01X9845*
G02X9874Y2980J30*
G03X10085Y2815I211J52*
X10275Y2928J217*
G02X10301Y2943I26J15*
G01X13489*
Y984*
G03X13706Y768I217*
X13923Y984J216*
X13706Y1201I217*
X13489Y984J217*
G01Y2943*
X14498*
G02X14519Y2935J30*
G01X14772Y2682*
Y921*
G03X15067Y626I295*
X15362Y921J295*
X15067Y1216I295*
X14772Y921J295*
G01Y2682*
X14827Y2627*
G02X14835Y2606I21J21*
X14834Y2598I29*
G03X14826Y2537I208J61*
X15042Y2320I216*
X15259Y2537J217*
X15158Y2720I217*
G02X15144Y2745I15J25*
X15168Y2775I29*
G03X15345Y2988I39J213*
X15129Y3204I216*
X15068Y3196J216*
G02X15060Y3195I8J28*
X15039Y3203J29*
G01X14878Y3364*
G03X14815Y3390I63J63*
G01X14415*
G02X14393Y3399J30*
G01X14034Y3758*
G02X14025Y3779I21J21*
X14055Y3809I30*
G01X15165*
G03X15263Y3908J99*
G01Y4498*
G03X15165Y4597I98*
G01X14235*
G02X14206Y4616J29*
G03X14186Y4649I83J29*
G01X14077Y4758*
G02X14068Y4779I21J21*
X14098Y4809I30*
G01X14099*
G03X14102I3J99*
G01X15165*
G03X15263Y4908J99*
G01Y5498*
G03X15165Y5597I98*
G01X14158*
G02X14128Y5626J29*
X14129Y5634I30*
G03X14145Y5756I480J122*
X13649Y6251I496*
X13154Y5756J495*
X13350Y5362I495*
G02X13361Y5338I19J24*
X13331Y5308I30*
G01X13096*
G02X13075Y5317J30*
G01X12728Y5664*
G02X12719Y5685I21J21*
X12720Y5694I30*
G03X12729Y5754I208J60*
X12512Y5971I217*
X12425Y5953J217*
G02X12413Y5950I12J27*
X12390Y5962J30*
G01X12386Y5966*
G02X12380Y5985I24J19*
X12387Y6003I30*
G03X12434Y6138I170J135*
X12217Y6355I217*
X12023Y6234J217*
G02X11996Y6217I27J13*
X11967Y6242J30*
G03X11753Y6424I214J35*
X11699Y6417J217*
G02X11691Y6416I8J29*
X11665Y6432J30*
G01X11663Y6436*
G02X11659Y6450I26J14*
X11669Y6472I30*
G03X11739Y6632I146J160*
X11644Y6812I216*
G02X11631Y6836I17J24*
X11661Y6866I30*
G01X11675*
G02X11697Y6857J30*
G01X11780Y6774*
G03X11799Y6760I63J63*
G02X11806Y6755I15J27*
G01X11969Y6591*
G03X12031Y6565I62J63*
G01X12078*
G02X12104Y6550J29*
G03X12294Y6437I190J104*
X12511Y6654J217*
X12395Y6845I217*
G02X12379Y6872I14J27*
X12380Y6879I30*
G01X12383Y6891*
G02X12412Y6913I29J8*
G03X12628Y7130J217*
X12440Y7345I216*
G02X12414Y7374I4J29*
X12426Y7398I30*
G03X12450Y7446I36J48*
G01Y7688*
G02X12470Y7716I29*
G01X12496Y7725*
G02X12506Y7726I10J28*
X12527Y7718J29*
G01X12540Y7704*
G02X12549Y7683I21J21*
G01Y7447*
G03X12648Y7348I99*
G01X12805*
G03X12903Y7447J99*
G01Y7722*
G03X12805Y7821I98*
G01X12700*
G02X12671Y7844J30*
G03X12648Y7885I86J22*
G01X12643Y7889*
G02X12635Y7910I22J21*
X12665Y7940I30*
G01X12982*
Y7447*
G03X13041Y7388I59*
G01X13185*
G02X13211Y7374J30*
G01X13219Y7362*
G02X13223Y7345I25J17*
X13215Y7325I29*
G03X13157Y7177I158J148*
X13373Y6960I216*
X13590Y7177J217*
X13373Y7393I217*
X13303Y7382J216*
G02X13293Y7380I10J28*
X13268Y7394J30*
G01X13259Y7407*
G02X13255Y7424I26J17*
X13256Y7431I30*
G03X13258Y7447I57J16*
G01Y7722*
G03X13199Y7782I59*
G01X13041*
G03X12982Y7722J60*
G01Y7940*
X13077*
G03X13136Y7999J59*
G01Y8432*
G03X13125Y8466I59*
G02X13120Y8483I25J17*
X13133Y8508I30*
G03X13176Y8589I56J81*
G01Y8687*
G02X13206Y8717I30*
G01X13231*
X13232*
G03X13270Y8726J89*
G02X13283Y8729I13J27*
X13312Y8699J30*
G01Y8693*
G03X13411Y8595I99*
G01X13568*
G03X13667Y8693J98*
G01Y8969*
G03X13568Y9067I99*
G01X13514*
G02X13484Y9097J30*
X13495Y9121I30*
G03X13579Y9292I132J171*
X13363Y9508I216*
X13146Y9292J216*
X13318Y9080I217*
G02X13342Y9051I6J29*
X13335Y9032I30*
G03X13312Y8969I76J63*
G01Y8950*
G02X13283Y8920I29*
G01X13257*
G03X13219Y8911J89*
G02X13206Y8908I13J27*
X13176Y8938J30*
G01Y9022*
G03X13077Y9121I99*
G01X12644*
G02X12623Y9130J30*
G01X12523Y9230*
G03X12460Y9256I63J63*
G01X12450*
G02X12420Y9286J30*
X12421Y9296I30*
G03X12425Y9317I55J21*
G01Y9592*
G03X12366Y9651I59*
G01X12209*
G03X12150Y9592J59*
G01Y9317*
G03X12153Y9296I59*
G02X12155Y9286I28J10*
X12125Y9256I30*
G01X12097*
G02X12067Y9286J30*
X12068Y9293I30*
G03X12071Y9317I96J24*
G01Y9592*
G03X12036Y9668I99*
G02X12025Y9691I19J23*
X12036Y9714I30*
G03X12071Y9789I64J75*
G01Y10065*
G03X11972Y10163I99*
G01X11815*
G03X11729Y10112J98*
G02X11703Y10097I26J15*
X11685Y10103J30*
G03X11579Y10142I126J176*
G02X11552Y10172I3J30*
X11570Y10199I30*
G03X11676Y10304I90J198*
G02X11703Y10322I27J12*
X11722Y10315J30*
G03X11859Y10266I137J168*
X12075Y10483J217*
X12060Y10562I216*
G02X12058Y10573I28J11*
X12088Y10603I30*
X12094Y10602J30*
G03X12134Y10598I40J213*
X12150Y10599J217*
G01Y9789*
G03X12209Y9730I59*
G01X12366*
G03X12425Y9789J59*
G01Y10065*
G03X12366Y10124I59*
G01X12209*
G03X12150Y10065J59*
G01Y10599*
G03X12350Y10815I16J216*
X12134Y11031I216*
X11996Y10982J216*
G02X11977Y10975I19J23*
X11947Y11005J30*
G01Y11346*
G02X11956Y11367I30*
G01X12221Y11632*
G02X12243Y11641I22J21*
X12269Y11625J30*
G03X12459Y11513I190J104*
X12675Y11729J216*
X12536Y11932I216*
G02X12517Y11960I11J28*
X12527Y11982I30*
G03X12598Y12143I145J161*
X12382Y12359I216*
X12253Y12316J216*
G02X12235Y12311I18J25*
X12212Y12321J30*
G03X12048Y12396I164J142*
X11832Y12179J217*
X11840Y12119I216*
G02X11842Y12111I28J8*
X11833Y12090I30*
G01X11471Y11729*
G03X11445Y11666I63J63*
G01Y10985*
G02X11430Y10959I29*
G03X11385Y10926I104J190*
G02X11365Y10918I20J22*
X11344Y10925J30*
G03X11199Y10981I145J160*
X11041Y10912J216*
G02X11019Y10902I22J20*
X10998Y10911J30*
G03X10848Y10971I150J157*
X10632Y10754J217*
X10640Y10694I216*
G02X10642Y10685I28J9*
X10612Y10656I30*
G01X10535*
G03X10510Y10652J99*
G02X10502Y10651I8J29*
X10472Y10681J30*
X10473Y10689I30*
G03X10476Y10715I95J26*
G01Y11423*
G02X10485Y11445I30*
G01X10774Y11733*
G03X10800Y11796I63J63*
G01Y11852*
G02X10821Y11881I30*
G03X10881Y11936I31J93*
G02X10908Y11954I27J12*
X10936Y11936J30*
G03X11026Y11876I90J38*
G01X11184*
G03X11282Y11974J98*
G01Y12250*
G03X11210Y12345I98*
G02X11190Y12365I8J29*
G03X11183Y12381I85J26*
G02X11179Y12395I26J14*
X11194Y12421I30*
G03X11243Y12506I50J85*
G01Y12900*
G03X11144Y12998I99*
G01X10908*
G03X10810Y12900J98*
G01Y12506*
G03X10908Y12408I98*
G01X10915*
G02X10943Y12388J30*
G03X10959Y12360I83J29*
G02X10966Y12341I23J19*
X10957Y12320I30*
G03X10936Y12289I69J70*
G02X10908Y12270I28J11*
X10881Y12289J30*
G03X10790Y12348I91J39*
G01X10633*
G03X10534Y12250J98*
G01Y11974*
G03X10602Y11881I99*
G02X10623Y11852I9J29*
G01Y11845*
G02X10614Y11824I30*
G01X10360Y11570*
G02X10339Y11561I21J21*
G01X10260*
G03X10189Y11531J98*
G02X10167Y11522I22J21*
G01X10077*
G02X10055Y11531J30*
G03X10030Y11550I71J68*
G02X10014Y11576I14J26*
G01Y11853*
G02X10034Y11881I30*
G03X10100Y11974I32J93*
G01Y12250*
G03X10033Y12344I98*
G02X10012Y12372I9J28*
G01Y13137*
G03X9986Y13199I89*
G01X9886Y13299*
G02X9877Y13321I21J22*
X9878Y13329I30*
G03X9887Y13390I208J61*
X9670Y13606I217*
X9454Y13390J216*
X9670Y13173I216*
X9731Y13182J217*
G02X9739Y13183I8J29*
X9760Y13174J30*
G01X9826Y13109*
G02X9835Y13087I21J22*
G01Y12372*
G02X9814Y12344I30*
G03X9746Y12250I31J94*
G01Y11974*
G03X9816Y11880I99*
G02X9837Y11852I9J28*
G01Y11590*
G02X9807Y11560I30*
X9802J30*
G03X9787Y11561I15J97*
G01X9669*
G03X9654Y11560J98*
G02X9650I4J30*
X9620Y11590J30*
G01Y12858*
G03X9594Y12921I89*
G01X8927Y13588*
G03X8864Y13614I63J63*
G01X8424*
G02X8397Y13629J30*
G03X8208Y13742I189J104*
X8147Y13733J217*
G02X8139Y13732I8J29*
X8117Y13741J30*
G01X7768Y14090*
G03X7706Y14116I62J63*
G01X7491*
G02X7461Y14146J30*
X7466Y14162I30*
G03X7501Y14281I182J119*
X7284Y14497I217*
X7068Y14281J216*
X7103Y14162I216*
G02X7108Y14146I25J16*
X7078Y14116I30*
G01X4878*
G03X4815Y14090J89*
G01X4352Y13627*
G03X4326Y13565I63J62*
G01Y13161*
G02X4311Y13135I30*
G03X4279Y13114I104J190*
G02X4261Y13107I18J23*
X4231Y13131J30*
G03X4019Y13307I212J40*
X3845Y13220J216*
G02X3821Y13208I24J18*
X3791Y13238J30*
G01Y14433*
G03X3739Y14558I177*
G01X3088Y15209*
G03X2963Y15261I125J125*
G01X2227*
G02X2198Y15284J30*
G03X2102Y15359I96J23*
G01X1236*
G03X1138Y15261J98*
G01Y15148*
G02X1108Y15118I30*
X1090Y15124J30*
G03X843Y15205I247J335*
X426Y14789J416*
X843Y14372I417*
X1090Y14454J417*
G02X1108Y14459I18J24*
X1138Y14430J29*
G01Y14316*
G03X1165Y14249I98*
G02X1173Y14228I22J21*
X1143Y14198I30*
G01X1118*
G03X1059Y14139J59*
G01Y13745*
G03X1118Y13686I59*
G01X1433*
G03X1492Y13745J59*
G01Y14139*
G03X1482Y14171I59*
G02X1478Y14188I25J17*
X1507Y14218I29*
G01X1837*
Y12704*
G03X1896Y12645I59*
G01X3077*
G03X3136Y12704J59*
G01Y13334*
G03X3077Y13393I59*
G01X1896*
G03X1837Y13334J59*
G01Y14218*
X2102*
G03X2201Y14316J98*
G01Y14671*
G03X2141Y14761I99*
G02X2123Y14789I12J28*
X2141Y14816I30*
G03X2198Y14884I39J91*
G02X2227Y14907I29J7*
G01X2877*
G02X2898Y14898J30*
G01X3428Y14368*
G02X3437Y14347I21J21*
G01Y12526*
G02X3428Y12505I30*
G01X3124Y12201*
G02X3102Y12192I22J21*
G01X2812*
G02X2782Y12220J30*
G03X2684Y12310I98J8*
G01X518*
G03X420Y12212J98*
G01Y11818*
G03X459Y11739I98*
G01Y11031*
G03X518Y10972I59*
G01X1837*
Y9909*
G03X1896Y9850I59*
G01X3077*
G03X3136Y9909J59*
G01Y10539*
G03X3077Y10598I59*
G01X1896*
G03X1837Y10539J59*
G01Y10972*
X2684*
G03X2743Y11031J59*
G01Y11424*
G03X2684Y11484I59*
G01X518*
G03X459Y11424J60*
G01Y11739*
G03X518Y11720I59J79*
G01X2684*
G03X2782Y11810J98*
G02X2812Y11838I30J2*
G01X3188*
G03X3313Y11890J177*
G01X3739Y12315*
G03X3791Y12441I125J126*
G01Y12944*
G02X3821Y12973I30*
X3845Y12961J29*
G03X4019Y12874I174J130*
X4154Y12922J217*
G02X4173Y12928I19J24*
X4202Y12904J30*
G03X4415Y12728I213J41*
X4632Y12945J217*
X4519Y13135I217*
G02X4504Y13161I15J26*
G01Y13516*
G02X4512Y13537I30*
G01X4635Y13659*
G02X4656Y13668I21J21*
X4686Y13642J30*
G03X4875Y13456I215J29*
G02X4901Y13426I3J30*
X4899Y13414I29*
G03X4882Y13330I200J84*
X5099Y13113I217*
X5315Y13330J217*
X5306Y13391I216*
G02X5305Y13399I29J8*
X5314Y13420I30*
G01X5373Y13479*
G02X5394Y13488I21J21*
X5397J30*
G01Y12389*
G03X5456Y12330I59*
G01X5731*
G03X5790Y12389J59*
G01Y12546*
G03X5731Y12605I59*
G01X5456*
G03X5397Y12546J59*
G01Y13488*
G02X5424Y13458I3J30*
Y13453I30*
G03X5420Y13415I213J38*
X5637Y13199I217*
X5698Y13207J216*
G02X5706Y13209I8J28*
X5727Y13200J30*
G01X5886Y13040*
G02X5895Y13019I21J21*
G01Y12212*
G02X5886Y12191I30*
G01X5873Y12177*
G02X5851Y12168I22J21*
X5823Y12187J30*
G03X5731Y12251I92J34*
G01X5456*
G03X5357Y12153J98*
G01Y11995*
G03X5456Y11897I99*
G01X5475*
G02X5505Y11867J30*
G01Y11635*
G03X5506Y11624I89*
G02Y11620I30J4*
G01Y11576*
G02X5490Y11550I30*
G03X5437Y11463I45J87*
G01Y10715*
G03X5440Y10689I98*
G02X5441Y10681I28J8*
X5412Y10651I29*
X5404Y10652J30*
G03X5378Y10656I26J95*
G01X4630*
G03X4541Y10600J99*
G02X4521Y10584I26J14*
G03X4479Y10561I20J86*
G01X4370Y10452*
G03X4344Y10390I63J62*
G01Y9590*
G02X4329Y9564I29*
G03X4217Y9374I104J190*
X4433Y9157I216*
X4493Y9166J217*
G02X4502Y9167I9J29*
X4531Y9137J30*
G01Y9061*
G03X4532Y9047I99*
G02X4533Y9043I29J4*
X4503Y9013I30*
X4482Y9022J30*
G01X4467Y9037*
G03X4404Y9063I63J63*
G01X4327*
G02X4301Y9078J30*
G03X4111Y9191I190J104*
X3894Y8978J217*
G02X3864Y8949I30*
X3843Y8957J29*
G01X3837Y8963*
G02X3829Y8984I21J21*
G01Y10402*
G03X3803Y10465I89*
G01X3745Y10523*
G02X3736Y10544I21J21*
X3747Y10567I30*
G03X3829Y10736I135J169*
X3612Y10953I217*
X3396Y10736J217*
X3508Y10546I216*
G02X3524Y10523I14J26*
G03X3550Y10467I88J7*
G01X3643Y10374*
G02X3651Y10353I22J21*
G01Y9054*
G02X3621Y9024I30*
X3600Y9033J30*
G01X3200Y9434*
G03X3137Y9460I63J63*
G01X3094*
G02X3068Y9475J30*
G03X2878Y9588I190J104*
X2661Y9371J217*
X2670Y9311I217*
G02X2671Y9303I29J8*
X2641Y9273I30*
G01X1850*
G03X1752Y9174J99*
G01Y8859*
G03X1782Y8789I98*
G02X1791Y8767I21J22*
X1782Y8745I30*
G03X1752Y8674I68J71*
G01Y8635*
G02X1722Y8606I30*
G01X1701*
G03X1639Y8580J89*
G01X1597Y8538*
G03X1586Y8525I63J63*
G02X1561Y8512I25J17*
X1531Y8542J30*
G01Y8674*
G03X1509Y8721I59*
G02X1498Y8744I19J23*
X1515Y8771I30*
G03X1571Y8859I43J88*
G01Y9174*
G03X1472Y9273I99*
G01X1107*
G02X1077Y9303J30*
X1078Y9312I30*
G03X1088Y9376I207J64*
X871Y9592I217*
X655Y9376J216*
X664Y9312I216*
G02X666Y9303I28J9*
X636Y9273I30*
G01X282*
G02X252Y9303J30*
G01Y13656*
G02X282Y13686I30*
G01X567*
G03X626Y13745J59*
G01Y14139*
G03X567Y14198I59*
G01X282*
G02X252Y14228J30*
G01Y16530*
G02X282Y16560I30*
G01X426*
Y15970*
G03X843Y15553I417*
X1259Y15960J417*
G02X1289Y15989I30J1*
G01X2102*
G03X2185Y16035J99*
G02X2210Y16048I25J16*
G01X2319*
G03X2472Y16112J217*
G01X3146Y16786*
G03X3209Y16939I153J153*
G01Y17228*
G02X3239Y17258I30*
G01X3257*
G02X3271Y17254J30*
G03X3315Y17244I44J88*
G01X3906*
G03X4004Y17342J98*
G01Y17356*
G02X4034Y17386I30*
G01X4357*
Y16321*
G03X4574Y16105I217*
X4790Y16321J216*
X4574Y16538I216*
X4357Y16321J217*
G01Y17386*
X6473*
Y16912*
G03X6689Y16696I216*
X6816Y16737J216*
G01Y16312*
G03X7033Y16095I217*
X7249Y16312J217*
X7033Y16528I216*
X6816Y16312J216*
G01Y16737*
G03X6906Y16912I127J175*
X6689Y17129I217*
X6473Y16912J217*
G01Y17386*
X6997*
G02X7018Y17377J30*
G01X9818Y14577*
G03X9881Y14551I63J62*
G01X10179*
Y11974*
G03X10238Y11915I59*
G01X10396*
G03X10455Y11974J59*
G01Y12250*
G03X10396Y12309I59*
G01X10238*
G03X10179Y12250J59*
G01Y14551*
X10298*
Y12506*
G03X10357Y12447I59*
G01X10593*
G03X10652Y12506J59*
G01Y12900*
G03X10593Y12959I59*
G01X10357*
G03X10298Y12900J59*
G01Y14551*
X10461*
G02X10483Y14542J30*
G01X11299Y13726*
G03X11361Y13700I62J63*
G01X11362*
G02X11383Y13691J30*
G01X13746Y11329*
Y8693*
G03X13805Y8634I59*
G01X13962*
G03X14021Y8693J59*
G01Y8969*
G03X13962Y9028I59*
G01X13805*
G03X13746Y8969J59*
G01Y11329*
X14783Y10292*
Y8424*
G03X15000Y8207I217*
X15216Y8424J217*
X15000Y8640I216*
X14783Y8424J216*
G01Y10292*
X15314Y9761*
G02X15323Y9740I21J21*
G01Y7832*
G02X15314Y7811I30*
G01X15170Y7667*
G03X15144Y7604I62J63*
G01Y6359*
G02X15128Y6332I30*
G03X15016Y6142I104J190*
X15232Y5926I216*
X15449Y6142J216*
X15337Y6332I217*
G02X15321Y6359I14J27*
G01Y7555*
G02X15330Y7576I30*
G01X15474Y7720*
G03X15500Y7783I63J63*
G01Y9789*
G03X15474Y9851I89*
G01X11474Y13851*
G03X11411Y13877I63J62*
G01X11410*
G02X11389Y13886J30*
G01X11323Y13952*
G02X11314Y13973I21J21*
X11344Y14003I30*
X11346J30*
G03X11362I16J216*
X11578Y14219J216*
X11362Y14436I216*
X11145Y14219J217*
X11146Y14204I217*
G02Y14202I30J2*
X11116Y14172I30*
X11095Y14180J30*
G01X10737Y14538*
G02X10728Y14560I21J22*
X10746Y14587I30*
G01X11013Y14705*
X11283Y14834*
X11508Y15124*
G02X11526Y15134I24J19*
G01X11729Y15178*
X12115Y15267*
X12357Y15388*
G02X12370Y15391I13J27*
X12400Y15361J30*
X12397Y15349I30*
G03X12377Y15258I197J91*
X12594Y15041I217*
X12810Y15258J217*
X12639Y15470I216*
G02X12616Y15499I6J29*
X12632Y15526I29*
G01X12650Y15535*
X13389Y16104*
Y12275*
G03X13605Y12059I216*
X13822Y12275J216*
X13605Y12492I217*
X13389Y12275J217*
G01Y16104*
X13643Y16300*
X13995Y16639*
Y16277*
G03X14212Y16060I217*
X14428Y16277J217*
X14212Y16493I216*
X13995Y16277J216*
G01Y16639*
X14357Y16987*
X14769Y17558*
Y15159*
G03X14986Y14942I217*
X15019Y14945J217*
G01Y13169*
G03X15236Y12953I217*
X15453Y13169J216*
X15236Y13386I217*
X15019Y13169J217*
G01Y14945*
G03X15202Y15159I33J214*
X14986Y15375I216*
X14769Y15159J216*
G01Y17558*
X14808Y17612*
X15000Y18025*
X14658Y17737*
G02X14654Y17735I20J23*
G01X14152Y17427*
G02X14148Y17424I16J25*
G01X13824Y17287*
X13822*
X12191Y16699*
X11839Y16537*
X11508Y16300*
X11421Y16198*
G02X11399Y16187I22J19*
X11369Y16216J30*
G03X11152Y16427I217J5*
X10936Y16211J216*
X11152Y15994I216*
X11269Y16028J217*
G02X11285Y16033I16J25*
X11315Y16003J30*
X11312Y15991I30*
G01X11285Y15927*
X11218Y15675*
X11183Y15270*
G02X11177Y15255I30J2*
G01X11027Y15051*
X11026Y15050*
X10687Y14635*
G02X10664Y14624I23J19*
X10643Y14633J30*
G01X10573Y14702*
G03X10511Y14728I62J63*
G01X9930*
G02X9909Y14737J30*
G01X7108Y17537*
G03X7046Y17563I62J63*
G01X4034*
G02X4004Y17593J30*
G01Y17606*
G03X3906Y17705I98*
G01X3315*
G03X3271Y17694J99*
G02X3257Y17691I14J27*
G01X3239*
G02X3209Y17721J30*
G01Y17796*
G02X3239Y17826I30*
X3265Y17811J30*
G03X3315Y17783I50J31*
G01X3906*
G03X3965Y17842J59*
G01Y18106*
G03X3906Y18165I59*
G01X3315*
G03X3265Y18137J59*
G02X3239Y18123I26J16*
X3209Y18153J30*
G01Y18296*
G02X3239Y18326I30*
X3265Y18311J30*
G03X3315Y18283I50J31*
G01X3906*
G03X3965Y18342J59*
G01Y18606*
G03X3906Y18665I59*
G01X3315*
G03X3265Y18637J59*
G02X3239Y18623I26J16*
X3209Y18653J30*
G01Y18707*
G02X3218Y18728I30*
G01X3238Y18748*
G02X3259Y18757I21J21*
X3272Y18754J30*
G03X3315Y18744I43J88*
G01X3906*
G03X4004Y18842J98*
G01Y19106*
G03X3906Y19205I98*
G01X3857*
G02X3827Y19234J29*
G01Y19447*
G02Y19451I30*
G03X3828Y19475I215J24*
G01Y19953*
G02X3837Y19974I30*
G01X3843Y19981*
G03X3905Y20107I153J153*
G02X3935Y20133I30J4*
G01X4459*
G03X4558Y20231J98*
G01Y20468*
G03X4521Y20544I99*
G02X4510Y20568I19J24*
X4513Y20580I30*
G03X4518Y20605I54J25*
G01Y20842*
G03X4513Y20867I59*
G02X4510Y20880I27J13*
X4521Y20903I30*
G03X4558Y20980I62J77*
G01Y21216*
G03X4459Y21314I99*
G01X3733*
G03X3580Y21251J216*
G01X3538Y21209*
G03X3474Y21056I153J153*
G01Y20621*
Y20619*
G03Y20604I216J15*
G01Y20545*
G02X3444Y20515I30*
X3421Y20526J30*
G03X3375Y20547I46J38*
G01X3218*
G03X3159Y20488J59*
G01Y20213*
G03X3218Y20154I59*
G01X3375*
G02X3405Y20124J30*
X3404Y20115I30*
G03X3395Y20055I208J60*
G01Y19500*
G02Y19497I30*
G03X3394Y19473I215J24*
G01Y19234*
G02X3364Y19205I30*
G01X3315*
G03X3271Y19194J99*
G02X3257Y19191I14J27*
G01X3158*
G03X3004Y19127J217*
G01X2840Y18963*
G03X2776Y18809I153J154*
G01Y17041*
G02X2767Y17020I30*
G01X2238Y16490*
G02X2217Y16482I21J21*
G01X2210*
G02X2185Y16495J29*
G03X2102Y16541I83J53*
G01X1507*
G02X1478Y16571J30*
X1482Y16587I29*
G03X1492Y16619I49J32*
G01Y17013*
G03X1433Y17072I59*
G01X1118*
G03X1059Y17013J59*
G01Y16619*
G03X1118Y16560I59*
G01X1143*
G02X1173Y16530J30*
X1165Y16510I30*
G03X1138Y16442I71J68*
G01Y16329*
G02X1108Y16299I30*
X1090Y16305J30*
G03X843Y16386I247J335*
X426Y15970J416*
G01Y16560*
X567*
G03X626Y16619J59*
G01Y17013*
G03X567Y17072I59*
G01X282*
G02X252Y17102J30*
G01Y20150*
X1571Y8303D02*
G03X1541Y8333I30D01*
X1518Y8322J30*
G02X1472Y8300I46J37*
G01X282*
G03X252Y8271J29*
G01Y8263*
G03X282Y8233I30*
G01X1472*
G02X1518Y8212J59*
G03X1541Y8201I23J19*
X1571Y8231J30*
G01Y8303*
X5843Y13580D02*
X6775D01*
Y12035*
G03X6835Y11976I60*
G01X7189*
G03X7248Y12035J59*
G01Y12664*
G03X7189Y12724I59*
G01X6835*
G03X6775Y12664J60*
G01Y13580*
X7320*
G02X7342Y13571J30*
G01X7779Y13134*
G02X7788Y13113I21J21*
X7767Y13084I30*
G03X7617Y12878I66J206*
X7833Y12662I216*
X8005Y12746J216*
G02X8029Y12758I24J18*
X8055Y12742J30*
G03X8130Y12660I192J100*
G02X8144Y12634I16J26*
X8114Y12604I30*
G01X8017*
G03X7958Y12545J59*
G01Y12388*
G03X8017Y12329I59*
G01X8292*
G03X8351Y12388J59*
G01Y12540*
G02X8381Y12570I30*
X8403Y12561J30*
G01X8844Y12120*
G02X8852Y12099I22J21*
G01Y11590*
G02X8822Y11560I30*
X8818J30*
G03X8803Y11561I15J97*
G01X8685*
G03X8655Y11556J98*
G02X8646Y11555I9J29*
X8636Y11556J30*
G03X8606Y11561I30J93*
G01X8488*
G03X8458Y11556J98*
G02X8449Y11555I9J29*
X8440Y11556J30*
G03X8409Y11561I31J93*
G01X8291*
G03X8277Y11560J98*
G02X8272I5J30*
X8242Y11590J30*
G01Y11866*
G02X8272Y11896I30*
G01X8292*
G03X8391Y11994J98*
G01Y12152*
G03X8292Y12250I99*
G01X8017*
G03X7918Y12152J98*
G01Y11994*
G03X8017Y11896I99*
G01X8035*
G02X8065Y11866J30*
G01Y11590*
G02X8035Y11560I30*
X8031J30*
G03X8016Y11561I15J97*
G01X7898*
G03X7867Y11556J98*
G02X7858Y11555I9J29*
X7849Y11556J30*
G03X7819Y11561I30J93*
G01X7701*
G03X7671Y11556J98*
G02X7661Y11555I10J29*
X7652Y11556J30*
G03X7622Y11561I30J93*
G01X7504*
G03X7474Y11556J98*
G02X7465Y11555I9J29*
X7455Y11556J30*
G03X7425Y11561I30J93*
G01X7307*
G03X7277Y11556J98*
G02X7268Y11555I9J29*
X7259Y11556J30*
G03X7228Y11561I31J93*
G01X7110*
G03X7080Y11556J98*
G02X7071Y11555I9J29*
X7062Y11556J30*
G03X7031Y11561I31J93*
G01X6913*
G03X6883Y11556J98*
G02X6874Y11555I9J29*
X6865Y11556J30*
G03X6835Y11561I30J93*
G01X6717*
G03X6686Y11556J98*
G02X6677Y11555I9J29*
X6668Y11556J30*
G03X6638Y11561I30J93*
G01X6520*
G03X6489Y11556J98*
G02X6480Y11555I9J29*
X6471Y11556J30*
G03X6441Y11561I30J93*
G01X6323*
G03X6293Y11556J98*
G02X6283Y11555I10J29*
X6274Y11556J30*
G03X6244Y11561I30J93*
G01X6126*
G03X6096Y11556J98*
G02X6087Y11555I9J29*
X6077Y11556J30*
G03X6047Y11561I30J93*
G01X5934*
G02X5904Y11591J30*
X5913Y11612I30*
G01X6205Y11904*
G03X6218Y11921I63J62*
G02X6244Y11936I26J15*
G01X6559*
G03X6657Y12035J99*
G01Y12664*
G03X6559Y12763I98*
G01X6205*
G03X6126Y12724J99*
G02X6102Y12712I24J18*
X6072Y12742J30*
G01Y13068*
G03X6046Y13131I88*
G01X5852Y13325*
G02X5844Y13346I21J21*
X5845Y13355I29*
G03X5853Y13415I208J60*
X5818Y13534I216*
G02X5813Y13550I25J16*
X5843Y13580I30*
G01X9012Y1599D02*
G03X9004Y1621I30D01*
G01X8697Y1927*
G02X8671Y1990I63J63*
G01Y2552*
G03X8662Y2574I30*
G01X7933Y3303*
G03X7912Y3311I21J21*
X7882Y3282J29*
Y3279I30*
G02X7883Y3258I215J21*
X7771Y3068I216*
G03X7755Y3041I14J27*
G01Y2635*
G03X7764Y2613I30*
G01X8784Y1593*
G03X8805Y1585I21J22*
X8814Y1586J30*
G02X8874Y1595I60J208*
X8969Y1573J217*
G03X8982Y1570I13J26*
X9012Y1599J29*
G01X9602Y8026D02*
G03X9572Y8056I30D01*
G01X8762*
G02X8700Y8082J89*
G01X7943Y8839*
G03X7921Y8848I22J21*
X7892Y8819J30*
G02X7675Y8611I217J8*
X7615Y8619J216*
G03X7606Y8621I9J28*
X7585Y8612J30*
G01X7118Y8145*
G02X7055Y8119I63J62*
G01X5947*
G03X5917Y8089J30*
X5934Y8062I30*
G02X6054Y7868I97J194*
X5837Y7652I217*
X5648Y7764J216*
G03X5621Y7779I27J14*
G01X5584*
G02X5526Y7801J89*
G03X5506Y7809I20J22*
X5476Y7779J30*
G01Y7683*
G02X5472Y7653I98*
G03X5470Y7644I28J9*
X5472Y7635I30*
G02X5476Y7604I94J31*
G01Y7486*
G02X5472Y7456I98*
G03X5470Y7447I28J9*
X5472Y7438I30*
G02X5476Y7408I94J30*
G01Y7289*
G02X5472Y7259I98*
G03X5470Y7250I28J9*
X5472Y7241I30*
G02X5476Y7211I94J30*
G01Y7093*
G02X5472Y7062I98*
G03X5470Y7053I28J9*
X5472Y7044I30*
G02X5476Y7014I94J30*
G01Y6896*
G02X5472Y6866I98*
G03X5470Y6856I28J10*
X5472Y6847I30*
G02X5476Y6817I94J30*
G01Y6699*
G02X5472Y6669I98*
G03X5470Y6659I28J10*
X5472Y6650I30*
G02X5476Y6620I94J30*
G01Y6502*
G02X5472Y6472I98*
G03X5470Y6463I28J9*
X5472Y6453I30*
G02X5476Y6423I94J30*
G01Y6305*
G02X5472Y6275I98*
G03X5470Y6266I28J9*
X5472Y6257I30*
G02X5476Y6226I94J31*
G01Y6108*
G02X5446Y6037I98*
G03X5437Y6016I21J21*
G01Y5925*
G03X5446Y5904I30*
G02X5476Y5833I68J71*
G01Y5715*
G02X5473Y5689I98*
G03X5472Y5681I29J8*
X5502Y5651I30*
X5510Y5652J30*
G02X5535Y5656I25J95*
G01X5654*
G02X5684Y5651J99*
G03X5693Y5649I9J28*
X5702Y5651J30*
G02X5732Y5656I30J94*
G01X5850*
G02X5865Y5654J99*
G03X5870I5J30*
X5900Y5684J30*
G01Y6055*
G02Y6066I88*
G03X5901Y6070I29J4*
X5887Y6095I30*
G02X5787Y6277I117J182*
X6004Y6493I217*
X6220Y6277J216*
X6108Y6087I216*
G03X6092Y6063I14J26*
G02X6081Y6026I88J7*
G03X6077Y6012I26J14*
G01Y5684*
G03X6107Y5654I30*
X6111J30*
G02X6126Y5656I15J97*
G01X6244*
G02X6249Y5655J99*
G01X6250*
G03X6280Y5685J30*
X6266Y5711I30*
G02X6164Y5895I114J184*
X6380Y6111I216*
X6581Y5977J216*
G03X6608Y5959I27J12*
X6627Y5965J30*
G02X6764Y6014I137J168*
X6980Y5797J217*
X6957Y5699I216*
G03X6953Y5685I26J14*
X6983Y5656I30*
G01X7031*
G02X7062Y5651J99*
G03X7071Y5649I9J28*
X7080Y5651J30*
G02X7110Y5656I30J94*
G01X7228*
G02X7259Y5651J99*
G03X7268Y5649I9J28*
X7277Y5651J30*
G02X7307Y5656I30J94*
G01X7425*
G02X7455Y5651J99*
G03X7465Y5649I10J28*
X7474Y5651J30*
G02X7504Y5656I30J94*
G01X7622*
G02X7652Y5651J99*
G03X7661Y5649I9J28*
X7671Y5651J30*
G02X7701Y5656I30J94*
G01X7819*
G02X7849Y5651J99*
G03X7858Y5649I9J28*
X7867Y5651J30*
G02X7898Y5656I31J94*
G01X8016*
G02X8046Y5651J99*
G03X8055Y5649I9J28*
X8064Y5651J30*
G02X8094Y5656I30J94*
G01X8213*
G02X8243Y5651J99*
G03X8252Y5649I9J28*
X8261Y5651J30*
G02X8291Y5656I30J94*
G01X8409*
G02X8424Y5654J99*
G03X8429I5J30*
X8459Y5684J30*
G01Y6603*
G03X8450Y6624I30*
G01X7867Y7207*
G03X7846Y7216I21J21*
G01X6807*
G03X6781Y7200J30*
G02X6591Y7088I190J105*
X6374Y7305J217*
X6591Y7521I217*
X6670Y7506J216*
G03X6681Y7504I11J28*
X6711Y7534J30*
X6708Y7547I30*
G02X6688Y7637I197J90*
X6905Y7854I217*
X7121Y7637J217*
X7012Y7449I216*
G03X6997Y7423I15J26*
X7027Y7393I30*
G01X7895*
G02X7957Y7367J88*
G01X8610Y6715*
G02X8636Y6652I63J63*
G01Y6259*
G03X8666Y6229I30*
X8687Y6238J30*
G01X8820Y6371*
G03X8829Y6392I21J21*
X8828Y6401I30*
G02X8819Y6461I208J60*
X9036Y6678I217*
X9063Y6676J217*
G03X9066I3J30*
X9096Y6700J30*
G02X9204Y6848I212J41*
G03X9220Y6875I14J27*
G01Y7595*
G02X9246Y7657I88*
G01X9593Y8005*
G03X9602Y8026I21J21*
G01X10443Y5872D02*
G03X10442Y5881I30D01*
G02X10437Y5911I93J30*
G01Y6030*
G02X10438Y6044I98*
G03Y6049I29J5*
X10409Y6079I29*
G01X10307*
G02X10249Y6100J88*
G03X10230Y6107I19J23*
X10222Y6106J30*
G02X10161Y6097I61J208*
X9944Y6314J217*
X9976Y6428I217*
G03X9981Y6443I25J15*
X9951Y6473I30*
G01X9945*
G03X9918Y6458J30*
G02X9728Y6345I190J104*
X9520Y6502J217*
G03X9492Y6524I28J8*
X9469Y6514J30*
G02X9308Y6442I161J145*
X9281Y6444J217*
G03X9278I3J30*
X9248Y6420J30*
G02X9141Y6272I212J41*
G03X9126Y6246I15J26*
X9152Y6217I30*
G02X9336Y6002I32J215*
X9120Y5786I216*
X9067Y5792J216*
G03X9059Y5793I8J29*
X9029Y5763J30*
G01Y5684*
G03X9059Y5654I30*
X9064J30*
G02X9079Y5656I15J97*
G01X9197*
G02X9227Y5651J99*
G03X9236Y5649I9J28*
X9245Y5651J30*
G02X9276Y5656I31J94*
G01X9394*
G02X9424Y5651J99*
G03X9433Y5649I9J28*
X9442Y5651J30*
G02X9472Y5656I30J94*
G01X9591*
G02X9621Y5651J99*
G03X9630Y5649I9J28*
X9639Y5651J30*
G02X9669Y5656I30J94*
G01X9787*
G02X9818Y5651J99*
G03X9827Y5649I9J28*
X9836Y5651J30*
G02X9866Y5656I30J94*
G01X9984*
G02X10055Y5625J99*
G03X10077Y5616I22J21*
G01X10167*
G03X10189Y5625J30*
G02X10260Y5656I71J68*
G01X10378*
G02X10404Y5652J99*
G03X10412Y5651I8J29*
X10441Y5681J30*
X10440Y5689I29*
G02X10437Y5715I95J26*
G01Y5833*
G02X10442Y5863I98*
G03X10443Y5872I29J9*
G01X10476Y7591D02*
G03X10467Y7612I30D01*
G02X10448Y7638I68J71*
G03X10422Y7654I26J14*
G01X10399*
G02X10386J88*
G03X10382Y7655I4J29*
G01X10359*
G03X10333Y7639J30*
G02X10143Y7527I190J104*
X9926Y7743J216*
X10143Y7960I217*
X10333Y7847J217*
G03X10359Y7832I26J15*
G01X10398*
G02X10406J89*
G03X10408Y7831I2J29*
X10438Y7861J30*
Y7866I30*
G02X10437Y7880I97J14*
G01Y7998*
G02X10442Y8028I98*
G03X10443Y8037I29J9*
X10442Y8047I30*
G02X10437Y8077I93J30*
G01Y8195*
G02X10438Y8210I98*
G03Y8214I29J4*
X10409Y8244I29*
G01X10095*
G03X10074Y8235J30*
G01X9406Y7567*
G03X9397Y7546I21J21*
G01Y6875*
G03X9412Y6848I30*
G02X9516Y6718I104J189*
G03X9545Y6697I29J9*
X9567Y6707J30*
G02X9728Y6778I161J145*
X9918Y6666J216*
G03X9945Y6651I27J14*
G01X10229*
G02X10240Y6650J89*
G03X10244I4J30*
G01X10409*
G03X10438Y6680J30*
Y6684I29*
G02X10437Y6699I97J15*
G01Y6817*
G02X10442Y6847I98*
G03X10443Y6856I29J9*
X10442Y6866I30*
G02X10437Y6896I93J30*
G01Y7014*
G02X10442Y7044I98*
G03X10443Y7053I29J9*
X10442Y7062I30*
G02X10437Y7093I93J31*
G01Y7211*
G02X10442Y7241I98*
G03X10443Y7250I29J9*
X10442Y7259I30*
G02X10437Y7289I93J30*
G01Y7408*
G02X10467Y7478I98*
G03X10476Y7500I21J22*
G01Y7591*
Y9559D02*
G03X10467Y9581I30D01*
G02X10437Y9652I68J71*
G01Y9770*
G02X10442Y9800I98*
G03X10443Y9809I29J9*
X10442Y9818I30*
G02X10437Y9848I93J30*
G01Y9967*
G02X10442Y9997I98*
G03X10443Y10006I29J9*
X10442Y10015I30*
G02X10437Y10045I93J30*
G01Y10163*
G02X10442Y10194I98*
G03X10443Y10203I29J9*
X10442Y10212I30*
G02X10437Y10242I93J30*
G01Y10360*
G02X10442Y10390I98*
G03X10443Y10400I29J10*
X10442Y10409I30*
G02X10437Y10439I93J30*
G01Y10557*
G02X10440Y10583I98*
G03X10441Y10591I28J8*
X10412Y10621I29*
X10404Y10620J30*
G02X10378Y10616I26J95*
G01X10260*
G02X10189Y10646J99*
G03X10167Y10656I22J20*
G01X10077*
G03X10055Y10646J30*
G02X9984Y10616I71J69*
G01X9866*
G02X9851Y10617J99*
G03X9847Y10618I4J29*
X9817Y10588J30*
G01Y9430*
G02X9791Y9368I89*
G01X9724Y9301*
G03X9716Y9280I22J21*
G01Y8704*
G02X9701Y8656I89*
G03X9696Y8639I25J17*
X9708Y8616I30*
G02X9736Y8589I134J171*
G03X9758Y8579I22J20*
X9788Y8609J30*
G01Y8814*
G02X9814Y8876I88*
G01X10120Y9183*
G02X10183Y9209I63J63*
G01X10409*
G03X10438Y9239J30*
Y9243I29*
G02X10437Y9258I97J15*
G01Y9376*
G02X10467Y9447I98*
G03X10476Y9469I21J22*
G01Y9559*
X12083Y4037D02*
G03X12053Y4066I30D01*
G01X11193*
G03X11172Y4058J29*
G01X10347Y3233*
G02X10284Y3207I63J62*
G03X10254Y3177J30*
X10260Y3159I30*
G02X10275Y3136I175J127*
G03X10301Y3121I26J14*
G01X11057*
G03X11087Y3150J29*
X11082Y3167I30*
G02X11048Y3283I183J116*
X11265Y3499I217*
X11455Y3387J216*
G03X11481Y3372I26J14*
G01X12045*
G03X12075Y3401J29*
Y3403I30*
G02X12074Y3408I59J5*
G01Y3998*
G02X12080Y4024I60*
G03X12083Y4037I27J13*
G01X12469Y7800D02*
G03X12460Y7821I30D01*
G01X12390Y7892*
G03X12369Y7900I21J22*
G01X11975*
G03X11954Y7892J30*
G01X11936Y7874*
G02X11933Y7871I63J62*
G03X11924Y7850I21J21*
X11954Y7820I30*
G01X11997*
G02X12095Y7721J99*
G01Y7446*
G02X11997Y7347I98*
G01X11839*
G02X11741Y7446J99*
G01Y7472*
G03X11721Y7500I30*
G02X11688Y7521I30J83*
G01X11564Y7645*
G03X11543Y7654I21J21*
G01X11397*
G03X11371Y7638J30*
G02X11352Y7612I88J45*
G03X11342Y7591I20J21*
G01Y7500*
G03X11352Y7478I30*
G02X11382Y7408I69J70*
G01Y7289*
G02X11381Y7275I99*
G03X11380Y7270I29J5*
X11410Y7240I30*
G01X11675*
G02X11733Y7219J88*
G03X11752Y7211I19J22*
G01X12126*
G03X12136Y7213J30*
G02X12167Y7218I31J83*
G01X12196*
G03X12222Y7234J30*
G02X12327Y7329I190J104*
G03X12345Y7357I12J28*
X12315Y7387I30*
G01X12233*
G02X12174Y7446J59*
G01Y7721*
G02X12233Y7780I59*
G01X12390*
G02X12420Y7772J59*
G03X12435Y7768I15J26*
X12444Y7770J30*
G01X12449Y7771*
G03X12469Y7800I10J29*
G01X14102Y4908D02*
X15165D01*
Y5498*
X14102*
Y4908*
G37*
G54D10*
X0Y0D02*
Y20415D01*
X2522Y22929*
X15874*
Y0*
X0*
G54D11*
X1741Y20114D03*
X15067Y921D03*
G54D12*
X409Y13775D02*
Y13656D01*
Y14109D02*
Y14228D01*
Y16649D02*
Y16530D01*
Y16984D02*
Y17102D01*
X471Y19025D02*
X352D01*
X537Y13942D02*
X656D01*
X537Y16816D02*
X656D01*
X548Y11228D02*
X429D01*
X638Y18937D02*
Y18818D01*
Y19114D02*
Y19232D01*
X805Y19025D02*
X924D01*
X862Y4054D02*
Y3936D01*
Y4182D02*
Y3815D01*
X869Y3808*
X862Y4182D02*
X1561D01*
Y5182*
X862*
Y5310D02*
Y5429D01*
Y5554D02*
Y5436D01*
Y5682D02*
Y5182D01*
Y6182D02*
Y6428D01*
X853Y6437*
X737*
X590Y6583*
X862Y6889D02*
Y6771D01*
Y8017D02*
Y8517D01*
Y8145D02*
Y8263D01*
Y8389D02*
Y8271D01*
Y9017D02*
Y9367D01*
X871Y9376*
X1148Y13775D02*
X1055Y13682D01*
X1148Y14109D02*
X1055Y14202D01*
X1148Y16649D02*
X1055Y16556D01*
X1148Y16984D02*
X1055Y17076D01*
X1229Y6650D02*
X983D01*
X862Y6771*
Y7017*
X1337Y17974D02*
X1218D01*
X1404Y13775D02*
X1496Y13682D01*
X1404Y14109D02*
X1521Y14154D01*
X1404Y16649D02*
X1521Y16605D01*
X1404Y16984D02*
X1496Y17076D01*
X1443Y4182D02*
X1561D01*
X1443Y5182D02*
X1561D01*
X1443Y5682D02*
X1561D01*
X1443Y8593D02*
X1561D01*
X1601Y11060D02*
Y10942D01*
Y11395D02*
Y11513D01*
X1602Y17872D02*
Y17753D01*
Y18077D02*
Y18195D01*
X1660Y8475D02*
Y6731D01*
X1791Y6600*
X3090*
X4507Y5183*
X5594*
X1868Y17974D02*
X1987D01*
X1926Y10224D02*
X1807D01*
X1926Y13019D02*
X1807D01*
X2461Y8517D02*
X1701D01*
X1660Y8475*
X2487Y9938D02*
Y9820D01*
Y10509D02*
Y10628D01*
Y12734D02*
Y12615D01*
Y13304D02*
Y13423D01*
X2654Y11228D02*
X2773D01*
X2878Y9371D02*
X3137D01*
X4176Y8333*
X5004*
X2972Y19760D02*
X2854D01*
X3048Y10224D02*
X3166D01*
X3048Y13019D02*
X3166D01*
X3061Y19593D02*
Y19474D01*
Y19927D02*
Y20046D01*
X3149Y19760D02*
X3268D01*
X3247Y20242D02*
X3155Y20150D01*
X3247Y20459D02*
X3155Y20551D01*
X3345Y17872D02*
X3252Y17779D01*
X3345Y18077D02*
X3252Y18169D01*
X3345Y18372D02*
X3252Y18279D01*
X3345Y18577D02*
X3252Y18669D01*
X3346Y20242D02*
X3360Y20124D01*
X3346Y20459D02*
X3438Y20551D01*
X3485Y8017D02*
X2461D01*
X3490Y7017D02*
X2461D01*
X3610Y17474D02*
X7046D01*
X9881Y14639*
X10511*
X11361Y13789*
X11411*
X15411Y9789*
Y7783*
X15232Y7604*
Y6142*
X3612Y10736D02*
Y10530D01*
X3740Y10402*
Y8935*
X4042Y8634*
X4320*
X3855Y7472D02*
X3648D01*
X3604Y7517*
X2461*
X3876Y17872D02*
X3969Y17779D01*
X3876Y18077D02*
X3969Y18169D01*
X3876Y18372D02*
X3969Y18279D01*
X3876Y18577D02*
X3969Y18669D01*
X4415Y12945D02*
Y13565D01*
X4878Y14027*
X7706*
X8208Y13525*
X4430Y20635D02*
X4548Y20600D01*
X4430Y20812D02*
X4548Y20848D01*
X4433Y9374D02*
Y10390D01*
X4541Y10498*
X5004*
X4841Y21849D02*
X4723D01*
X4890Y21741D02*
Y21623D01*
Y21958D02*
Y22076D01*
X4940Y21953D02*
X5058D01*
X5004Y5774D02*
X4241D01*
X5004Y6167D02*
X4500D01*
X4440Y6228*
X4192*
X5004Y6364D02*
X4526D01*
X4228Y6663*
Y7949*
X3159Y9017*
X2461*
X5004Y8136D02*
X5617D01*
X5688Y8207*
X7055*
X7675Y8827*
X5004Y8726D02*
X5805D01*
X5959Y8572*
X5004Y8923D02*
X4455D01*
X4404Y8974*
X4111*
X5277Y3629D02*
X3224Y5682D01*
X2461*
X5330Y4566D02*
X5637D01*
X5791Y4721*
Y5183*
X5348Y5971D02*
X5467D01*
X5387Y3981D02*
X3186Y6182D01*
X2461*
X5485Y12468D02*
X5367D01*
X5594Y12074D02*
Y11635D01*
Y11634*
Y11089*
Y12418D02*
Y12300D01*
Y12517D02*
Y12635D01*
X5637Y13415D02*
X5984Y13068D01*
Y12163*
X5895Y12074*
X5594*
X5702Y12468D02*
X5820D01*
X5837Y7868D02*
X5584D01*
X5513Y7939*
X5004*
X5988Y5183D02*
Y6055D01*
X6004Y6070*
Y6277*
X6382Y12350D02*
Y12212D01*
X6142Y11972*
Y11966*
X5791Y11616*
Y11089*
X6382Y5183D02*
Y5686D01*
X6380Y5688*
Y5895*
X6591Y7305D02*
X7895D01*
X8547Y6652*
Y5183*
X6864Y12350D02*
X6746D01*
X7012Y12064D02*
Y11946D01*
Y12350D02*
X7309D01*
X7725Y11934*
Y11840*
X7871Y11694*
X7012Y12635D02*
Y12753D01*
X7159Y12350D02*
X7278D01*
X7334Y4376D02*
X7563Y4606D01*
Y5183*
X7345Y9020D02*
X6185Y10180D01*
Y11089*
X7416Y10383D02*
Y9491D01*
X8762Y8145*
X9611*
X9876Y8410*
Y8814*
X10183Y9120*
X10909*
X7667Y3258D02*
Y2585D01*
X8874Y1378*
X7732Y3629D02*
X5277D01*
X7752Y4296D02*
Y4712D01*
X7760Y4721*
Y5183*
X7922Y3981D02*
X5387D01*
X8046Y12467D02*
X7928D01*
X8080Y12516D02*
Y12634D01*
X8154Y5183D02*
Y4721D01*
X8152Y4719*
Y4390*
X8279Y4263*
X8414*
X8561Y4117*
X8154Y11089D02*
Y11905D01*
X8155Y11906*
Y12073*
Y12417D02*
Y12299D01*
X8208Y13525D02*
X8864D01*
X9531Y12858*
Y11089*
X8247Y12842D02*
X8941Y12148D01*
Y11089*
X8263Y12467D02*
X8381D01*
X8350Y11089D02*
Y9692D01*
X8100Y9442*
X8494Y13307D02*
X8060D01*
X7515Y13852*
X5082*
X4901Y13671*
X8494Y13307D02*
X8701D01*
X9335Y12673*
Y11089*
X8547D02*
Y10023D01*
X8553Y10018*
Y9811*
X8550Y9809*
Y9277*
X8609Y12993D02*
X9138Y12464D01*
Y11089*
X8609Y12993D02*
X8389D01*
X8297Y13085*
X7953*
X7369Y13669*
X5437*
X5099Y13330*
X8744Y5183D02*
Y6170D01*
X9036Y6461*
X8760Y1990D02*
Y2602D01*
X7732Y3629*
X8787Y3767D02*
X8668D01*
X8874Y1378D02*
X9342Y911D01*
X9353*
X9671Y592*
X9730*
X8895Y3717D02*
Y3599D01*
Y3816D02*
Y3934D01*
Y4160D02*
X8954D01*
X9138Y4344*
Y5183*
X8941D02*
Y5823D01*
X9120Y6002*
X9003Y3767D02*
X9122D01*
X9030Y2188D02*
Y2873D01*
X7922Y3981*
X9138Y11089D02*
Y9493D01*
X8795Y9151*
Y9147*
X8755Y9106*
Y8940*
X9173Y9179D02*
X9335Y9341D01*
Y11089*
X9178Y18280D02*
Y18233D01*
X8911*
Y18241*
X8912Y18250*
X8914Y18259*
X8917Y18267*
X8923Y18281*
X8930Y18294*
X8939Y18307*
X8949Y18320*
X8956Y18327*
X8962Y18334*
X8969Y18341*
X8977Y18349*
X8985Y18357*
X8994Y18365*
X9004Y18373*
X9014Y18381*
X9030Y18394*
X9044Y18407*
X9057Y18419*
X9069Y18430*
X9080Y18440*
X9089Y18450*
X9096Y18459*
X9103Y18467*
X9109Y18475*
X9113Y18482*
X9117Y18490*
X9120Y18498*
X9123Y18505*
X9125Y18512*
X9126Y18519*
Y18526*
Y18533*
X9125Y18541*
X9124Y18547*
X9121Y18554*
X9118Y18559*
X9115Y18565*
X9110Y18571*
X9105Y18576*
X9100Y18581*
X9094Y18585*
X9088Y18588*
X9081Y18591*
X9074Y18593*
X9067Y18595*
X9059Y18596*
X9050*
X9042*
X9033Y18595*
X9026Y18593*
X9018Y18591*
X9011Y18588*
X9005Y18584*
X8999Y18580*
X8993Y18575*
X8988Y18569*
X8983Y18563*
X8980Y18556*
X8977Y18549*
X8974Y18541*
X8973Y18533*
X8972Y18524*
X8971Y18515*
X8920Y18520*
X8922Y18534*
X8925Y18547*
X8928Y18559*
X8933Y18570*
X8938Y18581*
X8944Y18591*
X8952Y18599*
X8960Y18607*
X8969Y18614*
X8978Y18620*
X8989Y18625*
X9000Y18630*
X9011Y18633*
X9024Y18635*
X9037Y18637*
X9052*
X9066*
X9079Y18635*
X9092Y18632*
X9104Y18629*
X9115Y18624*
X9125Y18619*
X9135Y18612*
X9143Y18605*
X9151Y18596*
X9158Y18588*
X9164Y18579*
X9169Y18569*
X9172Y18559*
X9175Y18548*
X9177Y18537*
Y18525*
X9176Y18513*
X9175Y18501*
X9172Y18489*
X9167Y18478*
X9165Y18472*
X9161Y18466*
X9158Y18460*
X9154Y18454*
X9150Y18448*
X9145Y18441*
X9140Y18435*
X9134Y18428*
X9128Y18422*
X9121Y18415*
X9113Y18406*
X9104Y18398*
X9094Y18389*
X9083Y18379*
X9071Y18369*
X9058Y18358*
X9047Y18349*
X9038Y18341*
X9029Y18333*
X9021Y18326*
X9015Y18320*
X9009Y18315*
X9004Y18311*
X9001Y18307*
X8995Y18300*
X8989Y18294*
X8984Y18287*
X8980Y18280*
X9178*
X9189Y8676D02*
X9493Y8981D01*
Y10103*
X9531Y10141*
Y11089*
X9230Y18431D02*
X9231Y18449D01*
Y18465*
X9232Y18481*
X9234Y18496*
X9236Y18510*
X9239Y18523*
X9242Y18535*
X9245Y18546*
X9249Y18557*
X9253Y18567*
X9258Y18576*
X9263Y18585*
X9269Y18593*
X9275Y18600*
X9282Y18607*
X9289Y18613*
X9296Y18619*
X9304Y18624*
X9313Y18628*
X9322Y18631*
X9331Y18634*
X9341Y18635*
X9351Y18637*
X9362*
X9370*
X9378Y18636*
X9385Y18635*
X9392Y18634*
X9399Y18632*
X9406Y18630*
X9413Y18627*
X9419Y18624*
X9431Y18617*
X9441Y18608*
X9451Y18598*
X9459Y18586*
X9467Y18573*
X9474Y18559*
X9479Y18543*
X9484Y18526*
X9486Y18517*
X9488Y18507*
X9490Y18496*
X9491Y18485*
X9492Y18473*
X9493Y18460*
Y18446*
Y18431*
Y18414*
Y18398*
X9491Y18382*
X9490Y18367*
X9488Y18354*
X9485Y18341*
X9482Y18328*
X9479Y18317*
X9475Y18306*
X9470Y18296*
X9466Y18287*
X9461Y18278*
X9455Y18270*
X9449Y18263*
X9442Y18256*
X9435Y18250*
X9428Y18244*
X9420Y18239*
X9411Y18235*
X9402Y18232*
X9393Y18229*
X9383Y18228*
X9373Y18226*
X9362*
X9348Y18227*
X9334Y18229*
X9322Y18232*
X9310Y18236*
X9299Y18242*
X9289Y18249*
X9279Y18258*
X9270Y18267*
X9265Y18274*
X9261Y18281*
X9257Y18289*
X9253Y18296*
X9249Y18305*
X9246Y18314*
X9243Y18324*
X9240Y18334*
X9238Y18344*
X9236Y18355*
X9234Y18367*
X9233Y18379*
X9232Y18391*
X9231Y18404*
X9230Y18417*
Y18431*
X9281D02*
Y18419D01*
Y18407*
X9282Y18396*
X9283Y18386*
Y18376*
X9284Y18366*
X9285Y18357*
X9287Y18348*
X9289Y18341*
X9290Y18333*
X9292Y18326*
X9294Y18320*
X9296Y18314*
X9299Y18308*
X9302Y18304*
X9304Y18299*
X9310Y18292*
X9317Y18285*
X9323Y18279*
X9330Y18275*
X9338Y18271*
X9345Y18269*
X9354Y18267*
X9362*
X9370*
X9378Y18269*
X9386Y18271*
X9393Y18275*
X9400Y18280*
X9407Y18285*
X9413Y18292*
X9419Y18299*
X9422Y18304*
X9425Y18309*
X9427Y18314*
X9430Y18320*
X9431Y18326*
X9433Y18333*
X9435Y18341*
X9437Y18349*
X9438Y18357*
X9439Y18366*
X9440Y18376*
X9441Y18386*
X9442Y18396*
Y18407*
X9443Y18419*
Y18431*
Y18443*
X9442Y18455*
Y18466*
X9441Y18477*
X9440Y18487*
X9439Y18496*
X9438Y18506*
X9437Y18514*
X9435Y18522*
X9433Y18530*
X9431Y18536*
X9430Y18543*
X9427Y18549*
X9425Y18554*
X9422Y18559*
X9419Y18563*
X9413Y18571*
X9407Y18578*
X9400Y18583*
X9393Y18588*
X9386Y18591*
X9378Y18594*
X9370Y18596*
X9361*
X9353*
X9345Y18594*
X9337Y18592*
X9331Y18589*
X9324Y18585*
X9318Y18580*
X9312Y18574*
X9307Y18567*
X9304Y18562*
X9301Y18557*
X9298Y18551*
X9295Y18545*
X9293Y18538*
X9291Y18531*
X9289Y18523*
X9287Y18515*
X9286Y18506*
X9285Y18497*
X9283Y18487*
Y18477*
X9282Y18466*
X9281Y18455*
Y18443*
Y18431*
X9445Y2364D02*
X9326D01*
X9477Y4445D02*
X9728Y4697D01*
Y5183*
X9487Y1262D02*
X8760Y1990D01*
X9559Y3559D02*
X9441D01*
X9574Y8445D02*
Y8652D01*
X9627Y8704*
Y9329*
X9728Y9430*
Y11089*
X9672Y1546D02*
X9030Y2188D01*
X9726Y3470D02*
Y3352D01*
Y3648D02*
Y3766D01*
X9728Y6562D02*
X10229D01*
X10230Y6561*
X10909*
X9730Y18233D02*
X9680D01*
Y18548*
X9671Y18539*
X9660Y18531*
X9647Y18522*
X9633Y18514*
X9619Y18506*
X9606Y18499*
X9593Y18493*
X9581Y18488*
Y18536*
X9602Y18546*
X9620Y18557*
X9638Y18570*
X9654Y18583*
X9661Y18590*
X9669Y18597*
X9675Y18604*
X9681Y18611*
X9686Y18617*
X9691Y18624*
X9694Y18630*
X9698Y18637*
X9730*
Y18233*
Y2137D02*
Y2019D01*
Y2590D02*
Y2709D01*
X9894Y3559D02*
X10012D01*
X9923Y12112D02*
Y13137D01*
X9670Y13390*
X9924Y4466D02*
Y4719D01*
X9925Y4721*
Y5183*
Y11089D02*
Y11892D01*
X9923Y11894*
Y12112*
X10015Y18233D02*
Y18329D01*
X9840*
Y18374*
X10024Y18635*
X10065*
Y18374*
X10119*
Y18329*
X10065*
Y18233*
X10015*
Y18374D02*
Y18556D01*
X9889Y18374*
X10015*
X10016Y2364D02*
X10134D01*
X10085Y3032D02*
X14547D01*
X15042Y2537*
X10122Y5528D02*
Y5646D01*
Y10744D02*
Y10626D01*
Y11433D02*
Y11552D01*
X10210Y3805D02*
X10091D01*
X10268Y5882D02*
X10122Y5736D01*
Y5183*
X10268Y12112D02*
X10149D01*
X10317Y12004D02*
Y11885D01*
Y12112D02*
Y12053D01*
X10122Y11858*
Y11089*
X10317Y12221D02*
Y12339D01*
X10318Y3756D02*
Y3637D01*
Y3854D02*
Y3973D01*
Y4199D02*
X10141D01*
X10052Y4110*
X9726*
X10318Y4199D02*
Y4720D01*
X10319Y4721*
Y5183*
X10366Y12112D02*
X10485D01*
X10387Y12703D02*
X10268D01*
X10426Y3805D02*
X10545D01*
X10475Y12535D02*
Y12417D01*
Y12703D02*
X10682D01*
X10769Y12790*
Y12905*
X10853Y12988*
X11117*
X11267Y13138*
X10475Y12703D02*
X10387D01*
Y12417*
X10317Y12348*
Y12112*
X10475Y12870D02*
Y12989D01*
X10564Y12703D02*
X10682D01*
X10565Y7545D02*
X10446D01*
X10565Y9514D02*
X10446D01*
X10711Y12112D02*
Y11796D01*
X10319Y11404*
Y11089*
X10848Y10754D02*
X10909Y10693D01*
Y10498*
Y5774D02*
X11431D01*
X11540Y5883*
X11962*
X12217Y6138*
X10909Y6167D02*
X10307D01*
X10161Y6314*
X10909Y6364D02*
X11381D01*
X11537Y6207*
X11753*
X10909Y6955D02*
X11725D01*
X11843Y6837*
X11849*
X12031Y6654*
X12294*
X10909Y7742D02*
X11592D01*
X11751Y7583*
X11918*
X10909Y7742D02*
X10399D01*
X10398Y7743*
X10143*
X10909Y7939D02*
X11870D01*
X11873Y7936*
X12152Y8215*
X12172*
X10909Y8136D02*
X11521D01*
X11667Y8282*
Y9014*
X11820Y9167*
X12460*
X12821Y8806*
X12841*
X10909Y8333D02*
X10046D01*
X9308Y7595*
Y6659*
X10909Y9317D02*
X11372D01*
X11509Y9454*
X11894*
X10909Y9908D02*
X11540D01*
X11559Y9927*
X11026Y12703D02*
Y12417D01*
X11105Y12339*
Y12112*
X11069Y14872D02*
X11071Y14873D01*
X11073Y14874*
X11074Y14875*
X11076Y14876*
X11078Y14877*
X11080Y14878*
X11082Y14879*
X11083Y14880*
X11085Y14881*
X11087Y14882*
X11091Y14884*
X11095Y14887*
X11099Y14889*
X11103Y14892*
X11107Y14894*
X11111Y14896*
X11115Y14899*
X11119Y14901*
X11123Y14903*
X11127Y14906*
X11132Y14908*
X11136Y14911*
X11141Y14913*
X11145Y14915*
X11150Y14918*
X11154Y14920*
X11159Y14922*
X11164Y14924*
X11168Y14926*
X11173Y14929*
X11154Y5091D02*
X10924Y5321D01*
X10615*
X10477Y5183*
X10319*
X11173Y14929D02*
X11174Y14930D01*
X11176Y14932*
X11177Y14934*
X11179Y14936*
X11180Y14938*
X11182Y14939*
X11183Y14941*
X11185Y14943*
X11186Y14945*
X11188Y14946*
X11192Y14951*
X11195Y14956*
X11199Y14961*
X11203Y14966*
X11207Y14971*
X11211Y14976*
X11214Y14981*
X11218Y14986*
X11222Y14991*
X11225Y14996*
X11231Y15003*
X11236Y15010*
X11241Y15018*
X11246Y15025*
X11251Y15032*
X11257Y15040*
X11262Y15047*
X11267Y15054*
X11272Y15061*
X11277Y15069*
X11252Y15100D02*
X11247Y15095D01*
X11243Y15089*
X11238Y15083*
X11233Y15077*
X11229Y15071*
X11224Y15066*
X11220Y15060*
X11215Y15054*
X11210Y15048*
X11206Y15043*
X11197Y15032*
X11188Y15021*
X11180Y15011*
X11171Y15000*
X11162Y14989*
X11154Y14978*
X11145Y14968*
X11136Y14957*
X11128Y14946*
X11119Y14935*
X11114Y14929*
X11109Y14923*
X11104Y14916*
X11099Y14910*
X11094Y14904*
X11089Y14897*
X11084Y14891*
X11079Y14885*
X11074Y14878*
X11069Y14872*
X11254Y7545D02*
X11372D01*
X11277Y15069D02*
X11322Y15120D01*
X11366Y15172*
X11411Y15223*
X11456Y15275*
X11502Y15325*
X11548Y15376*
X11594Y15426*
X11641Y15475*
X11688Y15524*
X11736Y15572*
X11798Y15632*
X11861Y15691*
X11925Y15748*
X11990Y15805*
X12056Y15861*
X12122Y15915*
X12189Y15969*
X12257Y16023*
X12326Y16075*
X12394Y16128*
X12463Y16179*
X12531Y16229*
X12600Y16279*
X12670Y16328*
X12740Y16377*
X12810Y16424*
X12881Y16471*
X12953Y16517*
X13025Y16562*
X13097Y16606*
X13153Y16638*
X13209Y16670*
X13265Y16702*
X13322Y16733*
X13379Y16763*
X13436Y16793*
X13494Y16822*
X13552Y16851*
X13610Y16879*
X13668Y16908*
X13713Y16929*
X13758Y16950*
X13803Y16971*
X13847Y16993*
X13892Y17015*
X13936Y17037*
X13980Y17060*
X14023Y17084*
X14066Y17108*
X14108Y17134*
X14152Y17162*
X14196Y17192*
X14238Y17223*
X14281Y17254*
X14323Y17287*
X14364Y17320*
X14405Y17354*
X14446Y17388*
X14487Y17422*
X14527Y17456*
X11315Y15182D02*
X11322Y15194D01*
X11330Y15205*
X11338Y15216*
X11345Y15228*
X11353Y15239*
X11360Y15251*
X11367Y15263*
X11373Y15275*
X11380Y15287*
X11386Y15299*
X11390Y15309*
X11394Y15319*
X11398Y15329*
X11402Y15339*
X11405Y15349*
X11409Y15360*
X11412Y15370*
X11415Y15380*
X11418Y15391*
X11420Y15402*
X11425Y15422*
X11429Y15443*
X11433Y15464*
X11437Y15485*
X11440Y15506*
X11443Y15526*
X11446Y15547*
X11448Y15568*
X11451Y15590*
X11453Y15611*
X11359Y15170D02*
X11357Y15169D01*
X11356*
X11355Y15168*
X11353*
X11352Y15167*
X11350*
X11349Y15166*
X11347*
X11346*
X11345*
X11343*
X11340*
X11338Y15167*
X11336*
X11334Y15168*
X11332Y15169*
X11330Y15170*
X11328Y15171*
X11327Y15172*
X11325Y15173*
X11324Y15174*
X11323Y15175*
X11322Y15176*
X11321Y15177*
X11320Y15178*
X11319Y15179*
X11318*
X11317Y15180*
X11316Y15181*
X11315Y15182*
X11437Y561D02*
X11291Y707D01*
Y708*
X10736Y1262*
X9487*
X11453Y15611D02*
X11457Y15640D01*
X11460Y15670*
X11464Y15699*
X11468Y15729*
X11472Y15758*
X11477Y15787*
X11483Y15816*
X11490Y15845*
X11498Y15874*
X11507Y15902*
X11518Y15931*
X11530Y15961*
X11543Y15990*
X11558Y16018*
X11574Y16046*
X11591Y16072*
X11610Y16099*
X11629Y16124*
X11649Y16148*
X11671Y16172*
X11699Y16200*
X11728Y16226*
X11758Y16251*
X11789Y16275*
X11821Y16298*
X11854Y16320*
X11887Y16342*
X11921Y16363*
X11955Y16384*
X11989Y16404*
X11480Y10397D02*
X11672Y10589D01*
Y10615*
X11741Y10683*
Y11502*
X12382Y12143*
X11523Y6632D02*
Y6636D01*
X11401Y6758*
X10909*
X11559Y9927D02*
X11894D01*
X11812Y15327D02*
X11791Y15324D01*
X11769Y15320*
X11747Y15317*
X11726Y15313*
X11704Y15310*
X11682Y15306*
X11660Y15303*
X11638Y15299*
X11616Y15296*
X11594Y15292*
X11582Y15290*
X11570Y15288*
X11559Y15286*
X11547Y15284*
X11536Y15282*
X11524Y15279*
X11513Y15276*
X11502Y15273*
X11491Y15269*
X11480Y15264*
X11467Y15258*
X11454Y15250*
X11441Y15242*
X11429Y15233*
X11417Y15223*
X11405Y15213*
X11393Y15203*
X11382Y15192*
X11370Y15181*
X11359Y15170*
X11856Y528D02*
Y824D01*
X11134Y1546*
X9672*
X11859Y10483D02*
Y11395D01*
X12194Y11729*
X12459*
X11894Y9454D02*
Y9927D01*
X11989Y16404D02*
X11993Y16406D01*
X11996Y16408*
X12000Y16410*
X12004Y16412*
X12008Y16414*
X12012Y16416*
X12016Y16418*
X12019Y16419*
X12023Y16421*
X12027Y16423*
X12031Y16425*
X12036Y16427*
X12040Y16429*
X12044Y16431*
X12048Y16433*
X12052Y16435*
X12057Y16437*
X12061Y16439*
X12065Y16441*
X12069Y16443*
X12074Y16445*
X12079Y16447*
X12083Y16449*
X12088Y16451*
X12092Y16453*
X12097Y16455*
X12102Y16457*
X12106Y16459*
X12111Y16461*
X12116Y16464*
X12048Y12179D02*
X11902Y12033D01*
X11901*
X11534Y11666*
Y10769*
X12116Y16464D02*
X12117Y16461D01*
X12118Y16458*
X12119Y16455*
X12120Y16453*
X12122Y16450*
X12123Y16447*
X12124Y16444*
X12125Y16442*
X12126Y16439*
X12127Y16436*
X12131Y16427*
X12134Y16417*
X12138Y16408*
X12141Y16398*
X12145Y16389*
X12148Y16379*
X12151Y16370*
X12155Y16360*
X12159Y16351*
X12163Y16342*
X12171Y16325*
X12180Y16308*
X12189Y16292*
X12200Y16276*
X12211Y16260*
X12222Y16244*
X12234Y16229*
X12246Y16214*
X12258Y16199*
X12270Y16184*
X12140Y15743D02*
X12158Y15735D01*
X12177Y15727*
X12196Y15719*
X12214Y15711*
X12233Y15704*
X12252Y15697*
X12271Y15690*
X12290Y15684*
X12310Y15679*
X12329Y15674*
X12342Y15671*
X12354Y15669*
X12367Y15667*
X12379Y15665*
X12392Y15664*
X12405Y15663*
X12417*
X12430*
X12443*
X12455Y15664*
X12459Y15665*
X12463*
X12467*
X12472Y15666*
X12476Y15667*
X12480*
X12484Y15668*
X12488*
X12492Y15669*
X12496*
X12163Y3437D02*
X12045Y3419D01*
X12163Y3969D02*
X12045Y4005D01*
X12172Y8215D02*
X12191D01*
X12585Y7822*
Y7785*
X12726Y7644*
Y7585*
X12186Y16499D02*
X12242Y16520D01*
X12297Y16541*
X12352Y16563*
X12408Y16584*
X12463Y16605*
X12519Y16626*
X12575Y16647*
X12630Y16667*
X12686Y16688*
X12742Y16708*
X12802Y16730*
X12863Y16752*
X12924Y16773*
X12984Y16794*
X13045Y16816*
X13106Y16837*
X13167Y16858*
X13228Y16879*
X13288Y16900*
X13349Y16921*
X13397Y16938*
X13444Y16955*
X13491Y16972*
X13538Y16989*
X13586Y17006*
X13633Y17023*
X13680Y17040*
X13727Y17057*
X13775Y17074*
X13822Y17091*
X12238Y9346D02*
X12120Y9314D01*
X12238Y9563D02*
X12146Y9655D01*
X12238Y9927D02*
X12120D01*
X12263Y7583D02*
X12144D01*
X12270Y16184D02*
X12263Y16200D01*
X12255Y16217*
X12248Y16234*
X12240Y16250*
X12233Y16267*
X12226Y16284*
X12218Y16301*
X12211Y16318*
X12204Y16336*
X12198Y16353*
X12194Y16364*
X12190Y16374*
X12186Y16385*
X12183Y16395*
X12181Y16406*
X12178Y16416*
X12177Y16427*
X12176Y16437*
Y16448*
Y16459*
X12177Y16463*
X12178Y16467*
Y16471*
X12179Y16475*
X12180Y16479*
X12181Y16483*
X12183Y16487*
X12184Y16491*
X12185Y16495*
X12186Y16499*
X12287Y9454D02*
Y9927D01*
Y9819D02*
Y9700D01*
Y10035D02*
Y10154D01*
X12312Y7475D02*
Y7357D01*
Y7692D02*
Y7810D01*
X12337Y9346D02*
X12455Y9314D01*
X12337Y9563D02*
X12429Y9655D01*
X12337Y9927D02*
X12455D01*
X12361Y7583D02*
X12479D01*
X12412Y7130D02*
X12167D01*
X12160Y7123*
X11704*
X11675Y7152*
X10909*
X12496Y15669D02*
X12472Y15655D01*
X12449Y15641*
X12426Y15626*
X12403Y15612*
X12379Y15598*
X12356Y15584*
X12332Y15570*
X12309Y15556*
X12285Y15542*
X12261Y15529*
X12239Y15516*
X12216Y15503*
X12193Y15491*
X12171Y15479*
X12148Y15467*
X12125Y15455*
X12102Y15444*
X12078Y15433*
X12055Y15422*
X12031Y15412*
X12010Y15402*
X11988Y15393*
X11966Y15385*
X11944Y15376*
X11923Y15368*
X11901Y15359*
X11879Y15351*
X11857Y15343*
X11834Y15335*
X11812Y15327*
X12512Y5754D02*
X13047Y5219D01*
X13490*
X14123Y4587*
Y4203*
X14555*
X12568Y15726D02*
X12561Y15724D01*
X12553Y15722*
X12545Y15720*
X12537Y15718*
X12530Y15716*
X12522Y15714*
X12514Y15712*
X12506Y15711*
X12499Y15709*
X12491Y15708*
X12477Y15707*
X12463*
X12449*
X12435*
X12421Y15708*
X12406Y15710*
X12392Y15711*
X12378Y15713*
X12364Y15715*
X12350Y15717*
X12329Y15720*
X12307Y15723*
X12286Y15725*
X12265Y15728*
X12244Y15731*
X12224Y15733*
X12203Y15736*
X12182Y15738*
X12161Y15740*
X12140Y15743*
X12744Y4703D02*
X12559D01*
Y5264*
X12563Y5268*
X12841Y8028D02*
Y7910D01*
Y8215D02*
X13048D01*
Y7910*
X13120Y7838*
Y7585*
X12841Y8215D02*
X12821D01*
X12510Y8527*
X12451*
X12172Y8806*
X12841D02*
X13231D01*
X13257Y8831*
X13490*
X12879Y16301D02*
X12902Y16298D01*
X12925Y16295*
X12947Y16292*
X12970Y16290*
X12993Y16287*
X13016Y16285*
X13039Y16283*
X13062Y16282*
X13085Y16281*
X13107Y16280*
X13125*
X13143Y16281*
X13160*
X13178Y16282*
X13196Y16284*
X13213Y16285*
X13231Y16287*
X13248Y16288*
X13266Y16290*
X13284Y16292*
X13290Y16293*
X13297Y16294*
X13303*
X13310Y16295*
X13316Y16296*
X13323Y16297*
X13330*
X13336Y16298*
X13343Y16299*
X13349Y16300*
X12993Y21690D02*
Y22093D01*
X13145*
X13155*
X13164Y22092*
X13173*
X13181*
X13188Y22091*
X13195Y22090*
X13201*
X13207Y22089*
X13221Y22086*
X13234Y22082*
X13246Y22077*
X13256Y22070*
X13266Y22062*
X13275Y22053*
X13282Y22043*
X13289Y22031*
X13294Y22018*
X13298Y22005*
X13300Y21991*
X13301Y21976*
Y21964*
X13299Y21951*
X13296Y21940*
X13293Y21929*
X13288Y21918*
X13282Y21908*
X13276Y21898*
X13268Y21889*
X13264Y21885*
X13259Y21881*
X13254Y21877*
X13249Y21874*
X13243Y21871*
X13236Y21868*
X13230Y21865*
X13222Y21863*
X13215Y21860*
X13207Y21859*
X13198Y21857*
X13189Y21856*
X13180Y21855*
X13171Y21854*
X13160*
X13150*
X13047*
Y21690*
X12993*
X13034Y20533D02*
Y20936D01*
X13213*
X13226*
X13238Y20935*
X13250Y20934*
X13260Y20933*
X13270Y20931*
X13279Y20930*
X13288Y20928*
X13295Y20925*
X13302Y20922*
X13308Y20919*
X13314Y20915*
X13320Y20910*
X13325Y20905*
X13331Y20899*
X13335Y20893*
X13340Y20887*
X13344Y20880*
X13347Y20872*
X13350Y20865*
X13352Y20857*
X13354Y20850*
X13355Y20842*
X13356Y20834*
Y20826*
Y20815*
X13355Y20805*
X13353Y20796*
X13349Y20786*
X13345Y20778*
X13341Y20769*
X13335Y20761*
X13329Y20754*
X13321Y20746*
X13313Y20740*
X13304Y20734*
X13294Y20730*
X13282Y20725*
X13270Y20721*
X13257Y20719*
X13243Y20716*
X13253Y20711*
X13262Y20706*
X13269Y20701*
X13275Y20696*
X13287Y20685*
X13298Y20672*
X13309Y20658*
X13319Y20643*
X13389Y20533*
X13322*
X13269Y20617*
X13263Y20626*
X13258Y20634*
X13253Y20641*
X13248Y20649*
X13243Y20656*
X13239Y20661*
X13234Y20667*
X13231Y20672*
X13223Y20681*
X13216Y20689*
X13210Y20694*
X13203Y20699*
X13197Y20703*
X13192Y20706*
X13185Y20708*
X13179Y20710*
X13174Y20711*
X13167*
X13159Y20712*
X13149*
X13088*
Y20533*
X13034*
X13047Y21901D02*
X13151D01*
X13163Y21902*
X13175Y21903*
X13185Y21904*
X13195Y21906*
X13204Y21909*
X13212Y21912*
X13218Y21916*
X13224Y21921*
X13229Y21925*
X13234Y21931*
X13237Y21937*
X13240Y21944*
X13243Y21951*
X13245Y21958*
Y21966*
X13246Y21975*
Y21981*
X13245Y21987*
X13244Y21992*
X13243Y21998*
X13241Y22003*
X13239Y22009*
X13236Y22013*
X13233Y22018*
X13226Y22026*
X13218Y22033*
X13209Y22038*
X13199Y22042*
X13196*
X13191Y22043*
X13186Y22044*
X13180*
X13174Y22045*
X13166*
X13158*
X13150*
X13047*
Y21901*
X13048Y8215D02*
X13166D01*
X13071Y7585D02*
X12952D01*
X13088Y20758D02*
X13202D01*
X13211*
X13219*
X13227Y20759*
X13235Y20760*
X13242Y20761*
X13248Y20762*
X13254Y20764*
X13259Y20765*
X13269Y20770*
X13277Y20775*
X13285Y20782*
X13291Y20790*
X13295Y20798*
X13299Y20807*
X13301Y20816*
Y20826*
Y20833*
X13300Y20839*
X13299Y20846*
X13296Y20852*
X13293Y20857*
X13290Y20863*
X13286Y20868*
X13281Y20873*
X13275Y20877*
X13269Y20881*
X13262Y20884*
X13254Y20887*
X13245Y20889*
X13236Y20890*
X13226Y20891*
X13215*
X13088*
Y20758*
X13120Y7476D02*
Y7358D01*
Y7693D02*
Y7811D01*
X13169Y7585D02*
X13288D01*
X13349Y16300D02*
X13325Y16281D01*
X13301Y16262*
X13277Y16242*
X13253Y16223*
X13229Y16204*
X13205Y16185*
X13181Y16166*
X13157Y16147*
X13133Y16129*
X13109Y16110*
X13082Y16089*
X13056Y16069*
X13030Y16049*
X13003Y16029*
X12977Y16009*
X12950Y15989*
X12923Y15969*
X12896Y15950*
X12869Y15931*
X12842Y15911*
X12815Y15892*
X12788Y15873*
X12761Y15855*
X12733Y15836*
X12706Y15818*
X12678Y15799*
X12651Y15781*
X12623Y15763*
X12596Y15744*
X12568Y15726*
X13361Y21690D02*
Y22093D01*
X13411*
Y21690*
X13361*
X13401Y16342D02*
X13394Y16340D01*
X13387Y16339*
X13380Y16337*
X13373Y16336*
X13365Y16334*
X13358Y16333*
X13351Y16331*
X13344Y16330*
X13337Y16329*
X13329Y16327*
X13311Y16324*
X13293Y16322*
X13275Y16319*
X13257Y16317*
X13238Y16315*
X13220Y16314*
X13202Y16312*
X13184Y16311*
X13165Y16310*
X13147Y16308*
X13120Y16307*
X13093Y16306*
X13067Y16305*
X13040Y16304*
X13013*
X12986Y16303*
X12959*
X12933Y16302*
X12906*
X12879Y16301*
X13415Y20679D02*
X13416Y20698D01*
X13418Y20717*
X13421Y20734*
X13427Y20750*
X13433Y20764*
X13440Y20777*
X13450Y20789*
X13460Y20799*
X13470Y20807*
X13480Y20813*
X13491Y20819*
X13502Y20823*
X13514Y20827*
X13526Y20830*
X13539Y20831*
X13552*
X13567*
X13581Y20829*
X13594Y20826*
X13607Y20822*
X13619Y20816*
X13630Y20809*
X13641Y20801*
X13651Y20792*
X13660Y20781*
X13667Y20770*
X13674Y20758*
X13679Y20745*
X13683Y20731*
X13686Y20716*
X13688Y20700*
X13689Y20683*
X13688Y20669*
Y20656*
X13686Y20644*
X13684Y20633*
X13682Y20622*
X13679Y20612*
X13676Y20603*
X13672Y20594*
X13668Y20587*
X13662Y20579*
X13657Y20572*
X13651Y20566*
X13645Y20559*
X13638Y20554*
X13631Y20549*
X13623Y20544*
X13614Y20540*
X13606Y20536*
X13597Y20533*
X13589Y20531*
X13580Y20529*
X13571Y20528*
X13562Y20527*
X13552Y20526*
X13537Y20527*
X13523Y20529*
X13509Y20532*
X13497Y20536*
X13485Y20542*
X13473Y20548*
X13463Y20556*
X13453Y20566*
X13444Y20576*
X13436Y20587*
X13430Y20600*
X13425Y20614*
X13421Y20628*
X13418Y20644*
X13416Y20661*
X13415Y20679*
X13466D02*
Y20665D01*
X13468Y20652*
X13469Y20641*
X13472Y20630*
X13475Y20620*
X13480Y20611*
X13485Y20602*
X13490Y20595*
X13497Y20588*
X13503Y20583*
X13510Y20578*
X13518Y20574*
X13526Y20571*
X13534Y20569*
X13543Y20567*
X13552*
X13561*
X13570Y20569*
X13578Y20571*
X13586Y20574*
X13594Y20578*
X13601Y20583*
X13607Y20588*
X13614Y20595*
X13619Y20602*
X13624Y20611*
X13629Y20620*
X13632Y20630*
X13634Y20641*
X13636Y20654*
X13638Y20667*
Y20680*
Y20694*
X13636Y20706*
X13634Y20717*
X13632Y20728*
X13629Y20738*
X13624Y20747*
X13619Y20755*
X13613Y20763*
X13607Y20769*
X13600Y20775*
X13593Y20780*
X13586Y20783*
X13578Y20787*
X13569Y20789*
X13561Y20790*
X13552Y20791*
X13543Y20790*
X13534Y20789*
X13526Y20787*
X13518Y20783*
X13510Y20780*
X13503Y20775*
X13497Y20769*
X13490Y20763*
X13485Y20756*
X13480Y20747*
X13475Y20738*
X13472Y20728*
X13469Y20717*
X13468Y20705*
X13466Y20693*
Y20679*
X13678Y21690D02*
Y21733D01*
X13669Y21721*
X13660Y21711*
X13649Y21703*
X13638Y21696*
X13626Y21690*
X13613Y21686*
X13600Y21684*
X13586Y21683*
X13573Y21684*
X13561Y21686*
X13549Y21689*
X13538Y21693*
X13527Y21698*
X13518Y21704*
X13510Y21711*
X13504Y21718*
X13499Y21726*
X13495Y21734*
X13491Y21744*
X13489Y21755*
X13488Y21759*
Y21763*
X13487Y21768*
Y21773*
X13486Y21780*
Y21786*
Y21793*
Y21801*
Y21982*
X13536*
Y21820*
Y21810*
Y21802*
Y21794*
Y21787*
X13537Y21781*
Y21776*
X13538Y21771*
X13539Y21768*
X13541Y21759*
X13546Y21750*
X13551Y21743*
X13558Y21737*
X13566Y21732*
X13575Y21729*
X13585Y21727*
X13596Y21726*
X13606Y21727*
X13617Y21729*
X13627Y21732*
X13637Y21737*
X13646Y21744*
X13654Y21751*
X13660Y21759*
X13665Y21768*
X13667Y21773*
X13668Y21779*
X13670Y21786*
X13671Y21792*
X13672Y21800*
X13673Y21808*
Y21816*
Y21825*
Y21982*
X13723*
Y21690*
X13678*
X13696Y3284D02*
X13449D01*
X13447Y3285*
X12317*
X12315Y3283*
X11265*
X13702Y16587D02*
X13695Y16582D01*
X13689Y16576*
X13682Y16571*
X13675Y16565*
X13668Y16560*
X13662Y16555*
X13655Y16549*
X13648Y16544*
X13641Y16539*
X13635Y16533*
X13624Y16525*
X13614Y16516*
X13604Y16508*
X13594Y16500*
X13583Y16491*
X13573Y16483*
X13563Y16474*
X13553Y16466*
X13543Y16458*
X13532Y16449*
X13519Y16438*
X13506Y16428*
X13493Y16417*
X13480Y16406*
X13467Y16395*
X13454Y16385*
X13441Y16374*
X13428Y16363*
X13414Y16353*
X13401Y16342*
X13727Y20620D02*
X13776Y20628D01*
X13777Y20621*
X13779Y20614*
X13781Y20608*
X13784Y20602*
X13787Y20596*
X13790Y20591*
X13794Y20587*
X13799Y20583*
X13804Y20579*
X13809Y20576*
X13815Y20573*
X13821Y20571*
X13828Y20569*
X13836Y20568*
X13843Y20567*
X13851*
X13860*
X13868Y20568*
X13875Y20569*
X13881Y20570*
X13887Y20572*
X13893Y20575*
X13898Y20578*
X13902Y20581*
X13906Y20584*
X13909Y20588*
X13912Y20592*
X13915Y20596*
X13916Y20600*
X13918Y20604*
Y20609*
X13919Y20613*
X13918Y20618*
Y20621*
X13917Y20625*
X13915Y20628*
X13913Y20631*
X13910Y20635*
X13908Y20637*
X13904Y20640*
X13901Y20642*
X13897Y20643*
X13892Y20645*
X13886Y20647*
X13879Y20650*
X13872Y20652*
X13863Y20654*
X13853Y20657*
X13840Y20660*
X13828Y20663*
X13817Y20667*
X13807Y20670*
X13798Y20672*
X13790Y20675*
X13784Y20678*
X13778Y20680*
X13768Y20686*
X13759Y20693*
X13752Y20700*
X13746Y20708*
X13742Y20717*
X13738Y20727*
X13736Y20737*
X13735Y20747*
X13736Y20757*
X13738Y20766*
X13740Y20775*
X13744Y20783*
X13749Y20791*
X13755Y20799*
X13761Y20805*
X13768Y20811*
X13775Y20815*
X13782Y20819*
X13790Y20822*
X13800Y20826*
X13810Y20828*
X13821Y20830*
X13832Y20831*
X13843*
X13859*
X13875Y20829*
X13890Y20826*
X13903Y20822*
X13909Y20819*
X13915Y20816*
X13921Y20813*
X13926Y20810*
X13930Y20806*
X13934Y20803*
X13938Y20799*
X13942Y20795*
X13947Y20785*
X13952Y20775*
X13956Y20763*
X13958Y20750*
X13910Y20743*
X13908Y20754*
X13904Y20763*
X13898Y20771*
X13891Y20778*
X13887Y20781*
X13882Y20784*
X13877Y20786*
X13872Y20788*
X13866Y20789*
X13860Y20790*
X13853Y20791*
X13846*
X13838*
X13831Y20790*
X13823Y20789*
X13817Y20788*
X13811Y20787*
X13806Y20785*
X13801Y20782*
X13797Y20780*
X13794Y20777*
X13791Y20774*
X13789Y20770*
X13786Y20767*
X13785Y20764*
X13784Y20761*
X13783Y20757*
Y20753*
Y20748*
X13784Y20744*
X13786Y20740*
X13789Y20736*
X13792Y20732*
X13797Y20728*
X13802Y20725*
X13808Y20722*
X13810*
X13814Y20721*
X13818Y20720*
X13823Y20718*
X13829Y20717*
X13835Y20715*
X13843Y20712*
X13852Y20710*
X13864Y20706*
X13876Y20703*
X13887Y20700*
X13896Y20697*
X13905Y20694*
X13913Y20692*
X13919Y20689*
X13925Y20687*
X13935Y20682*
X13944Y20676*
X13951Y20669*
X13958Y20661*
X13963Y20652*
X13967Y20642*
X13969Y20631*
Y20619*
Y20613*
Y20606*
X13968Y20600*
X13966Y20594*
X13964Y20589*
X13961Y20583*
X13958Y20578*
X13955Y20572*
X13951Y20567*
X13947Y20562*
X13942Y20557*
X13938Y20553*
X13932Y20549*
X13926Y20545*
X13920Y20541*
X13914Y20538*
X13899Y20533*
X13884Y20530*
X13869Y20527*
X13852Y20526*
X13838Y20527*
X13825Y20528*
X13813Y20530*
X13802Y20532*
X13791Y20535*
X13782Y20540*
X13773Y20544*
X13765Y20550*
X13758Y20556*
X13751Y20563*
X13746Y20571*
X13741Y20579*
X13736Y20589*
X13732Y20598*
X13729Y20609*
X13727Y20620*
X13800Y21690D02*
Y21982D01*
X13845*
Y21941*
X13852Y21951*
X13861Y21960*
X13870Y21968*
X13881Y21975*
X13887Y21978*
X13893Y21981*
X13899Y21983*
X13906Y21985*
X13912Y21986*
X13919Y21988*
X13926*
X13933*
X13941*
X13949*
X13956Y21986*
X13962Y21985*
X13969Y21983*
X13975Y21981*
X13981Y21978*
X13986Y21975*
X13996Y21968*
X14004Y21959*
X14010Y21949*
X14015Y21937*
X14020Y21944*
X14024Y21949*
X14029Y21955*
X14034Y21960*
X14039Y21964*
X14044Y21968*
X14050Y21972*
X14055Y21975*
X14061Y21979*
X14067Y21981*
X14073Y21983*
X14079Y21985*
X14086Y21986*
X14092Y21988*
X14099*
X14106*
X14116*
X14126Y21987*
X14136Y21985*
X14144Y21983*
X14152Y21979*
X14160Y21975*
X14166Y21970*
X14173Y21964*
X14178Y21958*
X14183Y21951*
X14187Y21943*
X14190Y21934*
X14193Y21924*
X14195Y21914*
Y21902*
X14196Y21890*
Y21690*
X14146*
Y21874*
Y21881*
Y21888*
Y21894*
X14145Y21899*
X14144Y21904*
X14143Y21909*
Y21913*
X14141Y21916*
X14139Y21923*
X14135Y21928*
X14130Y21933*
X14124Y21938*
X14117Y21941*
X14110Y21944*
X14102Y21945*
X14094Y21946*
X14087Y21945*
X14080Y21944*
X14073Y21943*
X14066Y21940*
X14060Y21938*
X14054Y21934*
X14049Y21930*
X14043Y21925*
X14039Y21920*
X14034Y21913*
X14031Y21906*
X14028Y21898*
X14026Y21890*
X14024Y21881*
X14023Y21870*
Y21860*
Y21690*
X13973*
Y21879*
Y21888*
Y21895*
X13972Y21902*
X13971Y21909*
X13969Y21914*
X13967Y21920*
X13964Y21925*
X13962Y21929*
X13958Y21933*
X13954Y21936*
X13950Y21939*
X13945Y21941*
X13940Y21943*
X13935Y21944*
X13928Y21945*
X13922Y21946*
X13912Y21945*
X13902Y21943*
X13892Y21939*
X13884Y21934*
X13875Y21928*
X13868Y21921*
X13862Y21912*
X13858Y21902*
X13856Y21897*
X13854Y21890*
X13853Y21884*
X13852Y21877*
X13851Y21869*
X13850Y21860*
Y21851*
Y21841*
Y21690*
X13800*
X13822Y17091D02*
X13858Y17106D01*
X13893Y17122*
X13929Y17137*
X13965Y17153*
X14000Y17169*
X14035Y17185*
X14070Y17202*
X14105Y17219*
X14140Y17237*
X14174Y17256*
X14203Y17272*
X14232Y17288*
X14260Y17305*
X14288Y17323*
X14316Y17341*
X14344Y17359*
X14371Y17377*
X14398Y17396*
X14425Y17415*
X14452Y17434*
X14475Y17451*
X14498Y17468*
X14521Y17485*
X14544Y17502*
X14566Y17520*
X14589Y17537*
X14611Y17555*
X14634Y17572*
X14656Y17590*
X14678Y17607*
X13834Y8831D02*
X13716D01*
X13883Y8723D02*
Y8604D01*
Y8939D02*
Y9058D01*
X13933Y8831D02*
X14051D01*
X14065Y20707D02*
X14229D01*
X14227Y20716*
X14226Y20724*
X14224Y20732*
X14222Y20739*
X14219Y20746*
X14217Y20752*
X14214Y20757*
X14210Y20762*
X14204Y20769*
X14197Y20775*
X14190Y20780*
X14182Y20784*
X14175Y20787*
X14166Y20789*
X14158Y20791*
X14148*
X14140*
X14132Y20789*
X14124Y20788*
X14117Y20785*
X14110Y20782*
X14103Y20778*
X14097Y20773*
X14091Y20768*
X14086Y20762*
X14081Y20756*
X14077Y20748*
X14073Y20741*
X14070Y20733*
X14068Y20725*
X14066Y20716*
X14065Y20707*
X14228Y20627D02*
X14279Y20620D01*
X14276Y20609*
X14272Y20599*
X14267Y20590*
X14262Y20581*
X14256Y20572*
X14249Y20565*
X14242Y20557*
X14234Y20551*
X14226Y20545*
X14217Y20540*
X14207Y20536*
X14197Y20533*
X14186Y20530*
X14175Y20528*
X14163Y20527*
X14151Y20526*
X14135Y20527*
X14120Y20529*
X14106Y20532*
X14094Y20536*
X14081Y20542*
X14069Y20548*
X14059Y20557*
X14049Y20566*
X14040Y20576*
X14033Y20587*
X14026Y20600*
X14021Y20613*
X14017Y20628*
X14014Y20643*
X14012Y20659*
Y20676*
Y20694*
X14014Y20711*
X14017Y20727*
X14021Y20742*
X14027Y20756*
X14033Y20769*
X14041Y20780*
X14049Y20791*
X14059Y20800*
X14070Y20809*
X14081Y20816*
X14093Y20821*
X14106Y20826*
X14119Y20829*
X14133Y20831*
X14148*
X14162*
X14176Y20829*
X14189Y20826*
X14201Y20822*
X14213Y20816*
X14224Y20809*
X14234Y20801*
X14244Y20792*
X14253Y20781*
X14260Y20770*
X14266Y20757*
X14271Y20744*
X14276Y20729*
X14279Y20713*
X14281Y20697*
Y20679*
Y20677*
Y20674*
Y20670*
Y20666*
X14062*
X14064Y20654*
X14065Y20643*
X14068Y20633*
X14071Y20624*
X14074Y20615*
X14079Y20607*
X14084Y20599*
X14090Y20593*
X14096Y20587*
X14103Y20581*
X14110Y20577*
X14117Y20573*
X14125Y20570*
X14133Y20569*
X14142Y20567*
X14151*
X14158*
X14164Y20568*
X14170Y20569*
X14176Y20570*
X14182Y20572*
X14187Y20575*
X14192Y20578*
X14197Y20581*
X14202Y20585*
X14206Y20589*
X14211Y20594*
X14215Y20600*
X14218Y20606*
X14222Y20613*
X14225Y20620*
X14228Y20627*
X14306Y21864D02*
X14469D01*
X14468Y21873*
X14467Y21881*
X14465Y21889*
X14463Y21896*
X14460Y21903*
X14457Y21909*
X14454Y21914*
X14450Y21919*
X14444Y21926*
X14438Y21932*
X14430Y21936*
X14423Y21941*
X14415Y21944*
X14407Y21946*
X14398Y21947*
X14389Y21948*
X14380Y21947*
X14373Y21946*
X14365Y21945*
X14358Y21942*
X14351Y21939*
X14344Y21935*
X14338Y21930*
X14331Y21925*
X14326Y21919*
X14321Y21912*
X14317Y21905*
X14314Y21898*
X14310Y21890*
X14308Y21882*
X14306Y21873*
Y21864*
X14469Y21784D02*
X14520Y21777D01*
X14516Y21766*
X14512Y21756*
X14508Y21747*
X14502Y21738*
X14497Y21729*
X14490Y21721*
X14483Y21714*
X14475Y21708*
X14466Y21702*
X14458Y21697*
X14448Y21693*
X14438Y21690*
X14427Y21687*
X14415Y21685*
X14404Y21684*
X14391Y21683*
X14376Y21684*
X14361Y21686*
X14347Y21689*
X14334Y21693*
X14321Y21699*
X14310Y21705*
X14299Y21714*
X14289Y21723*
X14281Y21733*
X14273Y21744*
X14267Y21757*
X14262Y21770*
X14257Y21784*
X14254Y21800*
X14253Y21816*
X14252Y21833*
X14253Y21851*
X14254Y21868*
X14258Y21884*
X14262Y21899*
X14267Y21912*
X14273Y21925*
X14281Y21937*
X14290Y21948*
X14300Y21957*
X14310Y21966*
X14322Y21973*
X14334Y21978*
X14346Y21983*
X14360Y21986*
X14374Y21988*
X14389*
X14403*
X14417Y21986*
X14430Y21983*
X14442Y21979*
X14453Y21973*
X14464Y21966*
X14475Y21958*
X14484Y21949*
X14493Y21938*
X14501Y21927*
X14507Y21914*
X14512Y21901*
X14516Y21886*
X14519Y21870*
X14521Y21854*
Y21836*
Y21834*
Y21831*
Y21827*
Y21823*
X14303*
X14304Y21811*
X14306Y21800*
X14308Y21790*
X14311Y21781*
X14315Y21772*
X14319Y21764*
X14325Y21756*
X14330Y21749*
X14336Y21744*
X14343Y21738*
X14350Y21734*
X14358Y21730*
X14365Y21727*
X14374Y21725*
X14382Y21724*
X14391*
X14398*
X14404Y21725*
X14411Y21726*
X14417Y21727*
X14422Y21729*
X14428Y21732*
X14433Y21735*
X14438Y21738*
X14443Y21742*
X14447Y21746*
X14451Y21751*
X14455Y21757*
X14459Y21763*
X14462Y21770*
X14465Y21777*
X14469Y21784*
X14527Y17456D02*
X14485Y17421D01*
X14443Y17386*
X14400Y17351*
X14357Y17317*
X14314Y17283*
X14271Y17250*
X14226Y17218*
X14182Y17187*
X14136Y17157*
X14090Y17128*
X14046Y17102*
X14000Y17078*
X13954Y17054*
X13908Y17031*
X13861Y17008*
X13814Y16986*
X13767Y16964*
X13720Y16943*
X13672Y16922*
X13625Y16900*
X13569Y16874*
X13513Y16848*
X13458Y16821*
X13403Y16794*
X13348Y16766*
X13293Y16738*
X13239Y16709*
X13185Y16679*
X13132Y16649*
X13078Y16618*
X13011Y16578*
X12945Y16537*
X12879Y16495*
X12813Y16452*
X12748Y16408*
X12683Y16364*
X12619Y16319*
X12555Y16273*
X12492Y16227*
X12429Y16180*
X12361Y16129*
X12293Y16078*
X12226Y16026*
X12160Y15974*
X12094Y15921*
X12029Y15867*
X11964Y15813*
X11901Y15757*
X11838Y15701*
X11776Y15644*
X11721Y15592*
X11667Y15539*
X11614Y15486*
X11561Y15432*
X11509Y15377*
X11457Y15322*
X11405Y15267*
X11354Y15212*
X11303Y15156*
X11252Y15100*
X14678Y17607D02*
X14661Y17587D01*
X14643Y17566*
X14626Y17545*
X14608Y17524*
X14591Y17503*
X14573Y17482*
X14555Y17461*
X14538Y17440*
X14520Y17420*
X14502Y17399*
X14464Y17354*
X14425Y17310*
X14386Y17265*
X14347Y17221*
X14308Y17177*
X14268Y17134*
X14228Y17091*
X14187Y17048*
X14146Y17005*
X14105Y16963*
X14066Y16925*
X14026Y16886*
X13987Y16848*
X13946Y16810*
X13906Y16773*
X13866Y16735*
X13825Y16698*
X13784Y16661*
X13743Y16624*
X13702Y16587*
X15129Y2988D02*
X14815Y3301D01*
X14365*
X13512Y4155*
X11144*
X10284Y3295*
X9860*
X9597Y3032*
G54D13*
X638Y18474D02*
X756D01*
Y17608D02*
X815D01*
X956Y17466*
X1084*
X1091Y17474*
X1602*
X756Y18002D02*
Y18474D01*
X1071*
X1602*
Y18974D02*
Y18474D01*
X2121Y18949D02*
X2096Y18974D01*
X1602*
X2993Y17474D02*
Y16939D01*
X2319Y16265*
X1669*
X3610Y17474D02*
X2993D01*
X3610Y18974D02*
X3158D01*
X2993Y18809*
Y17474*
X3612Y19760D02*
Y19475D01*
X3610Y19473*
Y18974*
X3690Y20350D02*
Y20134D01*
X3612Y20055*
Y19760*
X4263Y20350D02*
X3918D01*
X3917*
X3690*
X4263Y21098D02*
X3733D01*
X3691Y21056*
Y20605*
X3690Y20604*
Y20350*
X5286Y21098D02*
Y21621D01*
X5284Y21623*
Y21849*
X5698Y21097D02*
X5697Y21098D01*
X5286*
G54D14*
X585Y3220D03*
X590Y6583D03*
X859Y10224D03*
Y12899D03*
X869Y3808D03*
X871Y9376D03*
X1016Y20088D03*
X1167Y3220D03*
X1229Y6650D03*
X1601Y12015D02*
X3188D01*
X3614Y12441*
Y14433*
X2963Y15084*
X1669*
X1722Y20774D03*
X1777Y3229D03*
X2121Y18949D03*
X2384Y17498D03*
Y18265D03*
X2509Y21602D03*
X2513Y3229D03*
X2878Y9371D03*
X3054Y13889D03*
X3203Y3211D03*
X3235Y22308D03*
X3358Y11508D03*
X3464Y16344D03*
X3473Y15501D03*
X3485Y8017D03*
X3490Y7017D03*
Y2834D03*
X3499Y449D03*
X3508Y1328D03*
Y2068D03*
X3612Y10736D03*
X3777Y6771D03*
X3855Y7472D03*
X4019Y13091D03*
X4111Y8974D03*
X4154Y3395D03*
X4192Y6228D03*
X4199Y2153D03*
X4217Y458D03*
X4241Y5774D03*
X4307Y18135D03*
X4320Y8634D03*
X4338Y15134D03*
X4345Y22369D03*
X4415Y12945D03*
X4433Y9374D03*
X4468Y1077D03*
X4574Y16321D03*
X4800Y2718D03*
X4822Y4923D03*
X4901Y13671D03*
X4979Y1659D03*
X5099Y13330D03*
X5113Y458D03*
X5300Y16021D03*
X5330Y4566D03*
X5481Y2171D03*
X5564Y19125D03*
X5573Y19723D03*
X5599Y9275D03*
X5605Y5966D03*
X5612Y7134D03*
X5637Y13415D03*
X5698Y21097D03*
X5733Y14469D03*
X5797Y20659D03*
X5813Y2915D03*
X5837Y7868D03*
X5838Y22389D03*
X5849Y458D03*
X5959Y8572D03*
X6004Y6277D03*
X6072Y14887D03*
X6132Y20173D03*
X6173Y19156D03*
X6267Y21158D03*
X6272Y16488D03*
X6380Y5895D03*
X6512Y1417D03*
X6591Y7305D03*
X6689Y16912D03*
X6752Y10388D03*
X6753Y20735D03*
X6764Y5797D03*
X6848Y13369D03*
X6905Y7637D03*
X6944Y9985D03*
X6962Y8865D03*
X7033Y16312D03*
X7068Y2924D03*
X7284Y14281D03*
X7334Y4376D03*
X7345Y9020D03*
X7387Y16609D03*
X7388Y17768D03*
X7416Y10383D03*
X7463Y2198D03*
X7465Y18414D03*
X7477Y19335D03*
X7667Y3258D03*
X7675Y8827D03*
X7715Y22409D03*
X7752Y4296D03*
X7816Y968D03*
X7833Y12878D03*
X7871Y19915D03*
Y11694D03*
X7977Y15402D03*
X8008Y17428D03*
Y18458D03*
X8019Y2924D03*
X8051Y19508D03*
X8100Y9442D03*
X8197Y8175D03*
X8208Y13525D03*
X8232Y21766D03*
X8247Y12842D03*
X8421Y17583D03*
X8467Y2216D03*
X8474Y15121D03*
X8494Y13307D03*
X8505Y16410D03*
X8550Y9277D03*
X8561Y4117D03*
X8609Y12993D03*
X8755Y8940D03*
X8861Y16299D03*
X8874Y1378D03*
X8931Y9616D03*
X9036Y6461D03*
X9067Y22449D03*
X9120Y6002D03*
X9149Y3220D03*
X9173Y9179D03*
X9189Y8676D03*
X9308Y6659D03*
X9403Y15953D03*
X9477Y4445D03*
X9513Y19021D03*
X9574Y8445D03*
X9597Y3032D03*
X9670Y13390D03*
X9726Y21618D03*
X9728Y6562D03*
X9846Y5986D03*
X9854Y7438D03*
X9868Y9277D03*
X9924Y4466D03*
X9925Y14308D03*
X10025Y14962D03*
X10085Y3032D03*
X10143Y7743D03*
X10161Y6314D03*
X10268Y5882D03*
X10399Y22449D03*
X10526Y16383D03*
X10550Y19636D03*
X10749Y5019D03*
X10760Y3344D03*
X10821Y13365D03*
X10848Y10754D03*
X10878Y16853D03*
X11040Y20013D03*
X11148Y19050D03*
X11152Y16211D03*
X11154Y5091D03*
X11199Y10765D03*
X11265Y3283D03*
X11267Y13138D03*
X11362Y14219D03*
X11367Y22469D03*
X11437Y561D03*
X11480Y10397D03*
X11510Y17707D03*
X11523Y6632D03*
X11534Y10769D03*
X11559Y9927D03*
X11584Y19439D03*
X11602Y16515D03*
X11731Y15040D03*
X11753Y6207D03*
X11833Y14006D03*
X11856Y528D03*
X11859Y10483D03*
X11919Y4368D03*
X11959Y21551D03*
X11979Y18865D03*
X12048Y12179D03*
X12134Y10815D03*
X12166Y2523D03*
X12172Y1722D03*
X12217Y6138D03*
X12245Y17082D03*
X12294Y6654D03*
X12295Y14748D03*
X12382Y12143D03*
X12412Y7130D03*
X12416Y22449D03*
X12459Y11729D03*
X12470Y20475D03*
X12512Y5754D03*
X12563Y5268D03*
X12567Y2116D03*
X12594Y15258D03*
X12943Y2511D03*
X12949Y1710D03*
X13079Y6578D03*
X13244Y14980D03*
X13357Y17942D03*
X13363Y9292D03*
X13373Y7177D03*
X13486Y22469D03*
X13605Y12275D03*
X13666Y13468D03*
X13696Y3284D03*
X13706Y984D03*
X13708Y19896D03*
X13802Y21309D03*
X13878Y9282D03*
X13994Y13797D03*
X14137Y521D03*
X14212Y16277D03*
X14365Y14657D03*
X14572Y6759D03*
X14598Y1709D03*
X14605Y18029D03*
X14804Y15834D03*
X14838Y22469D03*
X14952Y11755D03*
X14986Y15159D03*
X15000Y8424D03*
X15042Y2537D03*
X15129Y2988D03*
X15134Y10983D03*
X15232Y6142D03*
X15236Y13169D03*
X15302Y20674D03*
X15322Y21662D03*
X15342Y19806D03*
X15403Y18414D03*
X15420Y12499D03*
X15441Y15411D03*
X15559Y16690D03*
Y17675D03*
G54D15*
X6732Y19794D03*
X6733Y21764D03*
X8762Y20828D03*
X10730Y20829D03*
X12679Y19007D03*
X14646Y19006D03*
G54D16*
X6382Y12350D03*
X7012D03*
G54D17*
X1601Y11228D03*
Y12015D03*
G54D18*
X2487Y10224D03*
Y13019D03*
G54D19*
X1669Y14493D03*
Y15084D03*
Y16265D03*
G54D20*
X3297Y20350D03*
X3690D03*
X4890Y21849D03*
X5284D03*
X9923Y12112D03*
X10317D03*
X10711D03*
X11105D03*
X11894Y9454D03*
Y9927D03*
X11918Y7583D03*
X12287Y9454D03*
Y9927D03*
X12312Y7583D03*
X12726Y7585D03*
X13120D03*
X13490Y8831D03*
X13883D03*
G54D21*
X756Y17608D03*
Y18002D03*
X5594Y12074D03*
Y12468D03*
X8155Y12073D03*
Y12467D03*
X8895Y3767D03*
Y4160D03*
X10318Y3805D03*
Y4199D03*
G54D22*
X3061Y19760D03*
X3612D03*
X10475Y12703D03*
X11026D03*
G54D23*
X638Y18474D03*
Y19025D03*
X9726Y3559D03*
Y4110D03*
G54D24*
X12172Y8215D03*
Y8806D03*
X12841Y8215D03*
Y8806D03*
G54D25*
X1602Y17474D03*
Y17974D03*
Y18474D03*
Y18974D03*
X3610Y17474D03*
Y17974D03*
Y18474D03*
Y18974D03*
G54D26*
X4263Y20350D03*
Y20724D03*
Y21098D03*
X5286Y20350D03*
Y21098D03*
G54D27*
X862Y4182D03*
Y4682D03*
Y5182D03*
Y5682D03*
Y6182D03*
Y7017D03*
Y7517D03*
Y8017D03*
Y8517D03*
Y9017D03*
X2461Y4182D03*
Y4682D03*
Y5182D03*
Y5682D03*
Y6182D03*
Y7017D03*
Y7517D03*
Y8017D03*
Y8517D03*
Y9017D03*
G54D28*
X6581Y592D03*
Y2364D03*
X9730Y592D03*
Y2364D03*
G54D29*
X5004Y5774D03*
Y5971D03*
Y6167D03*
Y6364D03*
Y6561D03*
Y6758D03*
Y6955D03*
Y7152D03*
Y7348D03*
Y7545D03*
Y7742D03*
Y7939D03*
Y8136D03*
Y8333D03*
Y8530D03*
Y8726D03*
Y8923D03*
Y9120D03*
Y9317D03*
Y9514D03*
Y9711D03*
Y9908D03*
Y10104D03*
Y10301D03*
Y10498D03*
X10909Y5774D03*
Y5971D03*
Y6167D03*
Y6364D03*
Y6561D03*
Y6758D03*
Y6955D03*
Y7152D03*
Y7348D03*
Y7545D03*
Y7742D03*
Y7939D03*
Y8136D03*
Y8333D03*
Y8530D03*
Y8726D03*
Y8923D03*
Y9120D03*
Y9317D03*
Y9514D03*
Y9711D03*
Y9908D03*
Y10104D03*
Y10301D03*
Y10498D03*
G54D70*
X409Y13942D03*
Y16816D03*
X1276Y13942D03*
Y16816D03*
G54D71*
X12744Y3703D03*
Y4703D03*
X14555Y4203D03*
G54D72*
X5594Y5183D03*
Y11089D03*
X5791Y5183D03*
Y11089D03*
X5988Y5183D03*
Y11089D03*
X6185Y5183D03*
Y11089D03*
X6382Y5183D03*
Y11089D03*
X6579Y5183D03*
Y11089D03*
X6776Y5183D03*
Y11089D03*
X6972Y5183D03*
Y11089D03*
X7169Y5183D03*
Y11089D03*
X7366Y5183D03*
Y11089D03*
X7563Y5183D03*
Y11089D03*
X7760Y5183D03*
Y11089D03*
X7957Y5183D03*
Y11089D03*
X8154Y5183D03*
Y11089D03*
X8350Y5183D03*
Y11089D03*
X8547Y5183D03*
Y11089D03*
X8744Y5183D03*
Y11089D03*
X8941Y5183D03*
Y11089D03*
X9138Y5183D03*
Y11089D03*
X9335Y5183D03*
Y11089D03*
X9531Y5183D03*
Y11089D03*
X9728Y5183D03*
Y11089D03*
X9925Y5183D03*
Y11089D03*
X10122Y5183D03*
Y11089D03*
X10319Y5183D03*
Y11089D03*
M02*
