*
G04 Job   : U:\2014\PLUME\PCB\RECEPTEUR\RECEPTEUR\PCB\PCB.pcb*
G04 User  : BI-WIN7:Alexis*
G04 Layer : EtchLayerBottom.gdo*
G04 Date  : Wed Apr 02 16:32:20 2014*
G04 Mentor Graphics Example Gerber Output Definition*
%ICAS*%
%MOIN*%
%FSLAX24Y24*%
%OFA0.0000B0.0000*%
G90*
G74*
%AMVB_RECTANGLE*
21,1,$1,$2,0,0,$3*
%
%ADD12C,0.00591*%
%ADD10C,0.00984*%
%ADD13C,0.01969*%
%ADD16C,0.02362*%
%ADD15C,0.02598*%
%ADD14C,0.03150*%
%ADD11C,0.03937*%
%ADD17C,0.08661*%
%ADD23VB_RECTANGLE,0.03937X0.03937X0.00000*%
%ADD30VB_RECTANGLE,0.18110X0.18110X270.00000*%
%ADD25VB_RECTANGLE,0.00787X0.03150X0.00000*%
%ADD73VB_RECTANGLE,0.00787X0.03150X270.00000*%
%ADD28VB_RECTANGLE,0.01181X0.07874X90.00000*%
%ADD71VB_RECTANGLE,0.02362X0.03937X90.00000*%
%ADD21VB_RECTANGLE,0.02756X0.00984X0.00000*%
%ADD22VB_RECTANGLE,0.02756X0.00984X90.00000*%
%ADD70VB_RECTANGLE,0.02756X0.01575X180.00000*%
%ADD24VB_RECTANGLE,0.02756X0.01575X270.00000*%
%ADD27VB_RECTANGLE,0.03150X0.00984X180.00000*%
%ADD26VB_RECTANGLE,0.03150X0.00984X90.00000*%
%ADD72VB_RECTANGLE,0.03543X0.06299X0.00000*%
%ADD31VB_RECTANGLE,0.03543X0.06299X90.00000*%
%ADD19VB_RECTANGLE,0.03937X0.02362X180.00000*%
%ADD18VB_RECTANGLE,0.03937X0.02362X270.00000*%
%ADD20VB_RECTANGLE,0.03937X0.07087X0.00000*%
%ADD29VB_RECTANGLE,0.04724X0.04331X90.00000*%
G01*
G36*
X252Y20150D02*
G02X261Y20171I30D01*
G01X374Y20284*
Y6583*
G03X590Y6367I216*
X807Y6583J216*
X590Y6800I217*
X374Y6583J217*
G01Y20284*
X426Y20336*
Y14789*
G03X655Y14417I417*
G01Y9376*
G03X871Y9159I216*
X915Y9163J217*
G01Y4838*
G03X1210Y4543I295*
X1506Y4838J295*
X1210Y5133I296*
X915Y4838J295*
G01Y9163*
G03X1088Y9376I44J213*
X871Y9592I217*
X655Y9376J216*
G01Y14417*
G03X843Y14372I188J372*
X1259Y14789J417*
X843Y15205I416*
X426Y14789J416*
G01Y15970*
G03X843Y15553I417*
X1259Y15970J417*
X843Y16386I416*
X426Y15970J416*
G01Y20336*
X469Y20379*
Y17184*
G03X528Y17125I59*
G01X1269*
G03X1328Y17184J59*
G01Y18921*
G03X1269Y18980I59*
G01X528*
G03X469Y18921J59*
G01Y20379*
X1902Y21807*
Y13743*
G03X1961Y13684I59*
G01X2702*
G03X2761Y13743J59*
G01Y16958*
G03X2702Y17017I59*
G01X1961*
G03X1902Y16958J59*
G01Y21807*
X1904Y21809*
Y18949*
G03X2121Y18733I217*
X2337Y18949J216*
X2121Y19166I216*
X1904Y18949J217*
G01Y21809*
X2766Y22668*
G02X2787Y22677I21J21*
G01X5481*
Y21097*
G03X5698Y20880I217*
X5914Y21097J217*
X5698Y21313I216*
X5481Y21097J216*
G01Y22677*
X14271*
Y21659*
G03X14567Y21363I296*
X14862Y21659J296*
X14567Y21954I295*
X14271Y21659J295*
G01Y22677*
X15726*
G02X15756Y22647J30*
G01Y11476*
G02X15726Y11446I30*
X15700Y11460J30*
G03X15617Y11507I83J51*
G01X15223*
G03X15124Y11409J98*
G02X15094Y11380I30*
G01X15016*
G02X14991Y11393J29*
G03X14976Y11411I83J53*
G02X14967Y11433I21J22*
G01Y11435*
G03Y11439I59J4*
G01Y11537*
G03X14908Y11596I59*
G01X14632*
G03X14573Y11537J59*
G01Y11439*
G03Y11435I59*
G01Y11433*
G02X14564Y11411I30*
G03X14534Y11351I68J71*
G02X14505Y11324I29J3*
X14475Y11354J30*
G01Y11488*
G03X14438Y11542I59*
G02X14419Y11570I11J28*
G01Y11571*
Y11576*
G02X14449Y11606I30*
G01X14465*
G03X14563Y11704J98*
G01Y11980*
G03X14465Y12078I98*
G01X14367*
G03X14329Y12071J98*
G02X14317Y12069I12J27*
X14306Y12071J29*
G03X14268Y12078I38J91*
G01X14170*
G03X14147Y12076J98*
G02X14141Y12075I6J29*
X14111Y12105J30*
G01Y12296*
G02X14119Y12317I30*
G01X14271Y12468*
G03X14297Y12531I63J63*
G01Y13354*
G02X14327Y13384I30*
X14356Y13359J30*
G03X14453Y13276I97J16*
G01X14561*
G02X14591Y13246J30*
G01Y13091*
G03X14631Y13012I99*
G01Y12697*
G03X14690Y12638I59*
G01X14965*
G03X15024Y12697J59*
G01Y12854*
G03X14965Y12914I59*
G01X14690*
G03X14631Y12854J60*
G01Y13012*
G03X14690Y12992I59J79*
G01X14965*
G03X15035Y13022J99*
G02X15057Y13030I22J21*
X15078Y13021J29*
G03X15164Y12965I158J148*
G01Y11724*
G03X15223Y11665I59*
G01X15617*
G03X15676Y11724J59*
G01Y11960*
G03X15617Y12019I59*
G01X15223*
G03X15164Y11960J59*
G01Y12965*
G03X15236Y12953I72J204*
X15453Y13169J216*
X15353Y13352I217*
G02X15339Y13377I16J25*
G01Y13493*
G03X15334Y13523I98*
G02X15333Y13532I29J9*
X15334Y13541I30*
G03X15339Y13572I93J31*
G01Y13690*
G03X15334Y13720I98*
G02X15333Y13729I29J9*
X15334Y13738I30*
G03X15339Y13769I93J31*
G01Y13887*
G03X15334Y13917I98*
G02X15333Y13926I29J9*
X15334Y13935I30*
G03X15339Y13965I93J30*
G01Y14083*
G03X15334Y14114I98*
G02X15333Y14123I29J9*
X15334Y14132I30*
G03X15339Y14162I93J30*
G01Y14280*
G03X15248Y14378I98*
G02X15221Y14408I2J30*
G01Y14409*
Y14567*
G03X15161Y14657I99*
G02X15142Y14685I11J28*
X15161Y14712I30*
G03X15221Y14803I39J91*
G01Y14960*
G03X15189Y15033I99*
G02X15179Y15055I20J22*
X15182Y15067I30*
G03X15202Y15159I196J92*
X14995Y15375I216*
G02X14967Y15405I2J30*
X14975Y15426I30*
G01X15345Y15796*
G03X15371Y15858I63J62*
G01Y17741*
G03X15345Y17804I89*
G01X14862Y18287*
G02X14853Y18308I21J21*
X14854Y18317I30*
G03X14863Y18377I208J60*
G01Y18502*
G02X14880Y18528I30*
G03X15178Y19006I234J478*
X14646Y19538I532*
X14255Y19366J532*
G01X13986Y19074*
G02X13964Y19065I22J21*
G01X13930*
G02X13905Y19079J30*
G03X13822Y19124I83J54*
G01X13429*
G03X13330Y19025J99*
G01Y18890*
G02X13300Y18860I30*
X13272Y18882J30*
G01X13188Y19160*
G03X12679Y19539I509J153*
X12166Y19149J532*
G01X11978Y18470*
G03X11975Y18444I95J26*
G01Y18442*
Y18441*
G02X11966Y18420I30*
G01X11953Y18408*
G03X11928Y18345I63J63*
G01Y14442*
G03X11953Y14379I88*
G01X12089Y14244*
G02X12098Y14223I21J21*
G01Y13330*
G02X12068Y13300I30*
G03X11970Y13201J99*
G01Y12808*
G03X12068Y12709I98*
G01X12304*
G03X12403Y12808J99*
G01Y13098*
G02X12433Y13128I30*
X12454Y13119J30*
G01X12464Y13109*
G03X12500Y13087I63J63*
G02X12521Y13059I9J28*
G01Y12808*
G03X12619Y12709I98*
G01X12856*
G03X12904Y12722J99*
G02X12918Y12726I14J26*
X12939Y12717J30*
G01X12954Y12702*
G03X13017Y12676I63J63*
G01X13042*
G02X13072Y12646J30*
G01Y12568*
G03X13109Y12491I99*
G02X13120Y12468I19J23*
X13090Y12438I30*
G01X12219*
G03X12156Y12412J89*
G01X12139Y12395*
G02X12117Y12386I22J21*
X12109Y12387J30*
G03X12048Y12396I61J208*
X11902Y12338J217*
G02X11882Y12331I20J22*
X11852Y12360J29*
G01Y12410*
G03X11753Y12508I99*
G01X11360*
G03X11275Y12460J98*
G02X11249Y12445I26J15*
X11234Y12449J30*
G03X11192Y12460I42J78*
G01X11153*
G02X11127Y12474J30*
G03X11113Y12491I82J54*
G02X11103Y12513I20J22*
G01Y12515*
G03X11104Y12519I58J4*
G01Y12617*
G03X11045Y12676I59*
G01X10769*
G03X10710Y12617J59*
G01Y12519*
G03Y12515I59*
G01Y12513*
G02X10701Y12491I30*
G03X10671Y12431I68J71*
G02X10641Y12405I30J4*
X10611Y12435J30*
G01Y12568*
G03X10575Y12623I59*
G02X10556Y12650I11J27*
G01Y12651*
Y12657*
G02X10586Y12686I30J1*
G01X10602*
G03X10700Y12785J99*
G01Y13060*
G03X10602Y13159I98*
G01X10503*
G03X10465Y13151J99*
G02X10454Y13149I11J28*
X10443Y13151J30*
G03X10405Y13159I38J91*
G01X10306*
G03X10284Y13156J99*
G02X10277Y13155I7J29*
X10247Y13185J30*
G01Y13188*
G02X10256Y13209I30*
G01X10426Y13378*
G03X10452Y13441I63J63*
G01Y14473*
G02X10460Y14494I30*
G01X10461Y14495*
G02X10482Y14504I21J21*
X10512Y14474J30*
G01Y14426*
G03X10611Y14327I99*
G01X10719*
G02X10749Y14297J30*
G01Y14139*
G03X10789Y14061I99*
G01Y13746*
G03X10848Y13686I59*
G01X11123*
G03X11182Y13746J60*
G01Y13903*
G03X11123Y13962I59*
G01X10848*
G03X10789Y13903J59*
G01Y14061*
G03X10848Y14041I59J78*
G01X11123*
G03X11181Y14059J98*
G02X11198Y14065I17J24*
X11218Y14057J30*
G03X11300Y14011I144J162*
G01Y12725*
G03X11360Y12666I60*
G01X11753*
G03X11812Y12725J59*
G01Y12961*
G03X11753Y13020I59*
G01X11360*
G03X11300Y12961J59*
G01Y14011*
G03X11362Y14003I62J208*
X11578Y14219J216*
X11505Y14382I216*
G02X11495Y14404I20J22*
Y14409I30*
G03X11497Y14426I97J17*
G01Y14544*
G03X11492Y14574I99*
G02X11490Y14583I28J9*
X11492Y14592I30*
G03X11497Y14623I94J31*
G01Y14741*
G03X11492Y14771I99*
G02X11490Y14780I28J9*
X11492Y14789I30*
G03X11497Y14819I94J30*
G01Y14938*
G03X11492Y14968I99*
G02X11490Y14977I28J9*
X11492Y14986I30*
G03X11497Y15016I94J30*
G01Y15134*
G03X11492Y15165I99*
G02X11490Y15174I28J9*
X11492Y15183I30*
G03X11497Y15213I94J30*
G01Y15331*
G03X11411Y15429I99*
G02X11384Y15459I3J30*
G03X11385Y15462I98J3*
G01Y15619*
G03X11325Y15710I99*
G02X11306Y15738I11J28*
X11325Y15765I30*
G03X11385Y15856I39J91*
G01Y16013*
G03X11354Y16084I99*
G02X11345Y16106I21J22*
X11348Y16118I30*
G03X11369Y16211I196J93*
X11196Y16423I217*
G02X11172Y16452I6J29*
X11181Y16473I30*
G01X11779Y17072*
G03X11805Y17134I62J62*
G01Y18773*
G03X11779Y18836I88*
G01X10559Y20057*
G03X10496Y20083I63J63*
G01X10469*
G02X10439Y20113J30*
X10457Y20140I30*
G01X10934Y20339*
G03X11261Y20829I204J490*
X10730Y21361I531*
X10222Y20987J532*
G01X10059Y20465*
G02X10051Y20451I28J9*
G01X9840Y20265*
G03X9807Y20191I65J74*
G01Y19797*
G03X9811Y19768I98*
G02X9813Y19759I28J9*
X9804Y19738I30*
G01X9794Y19728*
G02X9773Y19719I21J21*
X9752Y19728J30*
G01X9749Y19730*
G02X9741Y19747I21J21*
G03X9716Y19797I88J12*
G01X9698Y19815*
G02X9689Y19837I21J22*
G01Y20191*
G03X9590Y20289I99*
G01X9476*
G02X9447Y20312J30*
G01X9276Y20963*
G03X8762Y21360I514J135*
X8231Y20828J532*
X8572Y20332I531*
G01X9066Y20143*
G02X9085Y20115I11J28*
X9061Y20086I30*
G03X9015Y20061I16J87*
G01X8152Y19199*
G03X8126Y19136I62J63*
G01Y14464*
G03X8152Y14402I88*
G01X8177Y14376*
G02X8186Y14355I21J21*
X8172Y14330I30*
G03X8127Y14247I53J83*
G01Y13853*
G03X8157Y13783I98*
G02X8166Y13761I21J22*
X8144Y13732I30*
G03X7991Y13525I64J207*
X8000Y13465I217*
G02X8001Y13456I29J9*
X7992Y13435I30*
G01X7978Y13421*
G03X7952Y13358I63J63*
G01Y13108*
G02X7922Y13078I30*
X7911Y13080J30*
G03X7833Y13095I78J202*
X7727Y13067J217*
G02X7713Y13063I14J26*
X7683Y13088J30*
G03X7625Y13138I58J9*
G01X7231*
G03X7172Y13079J59*
G01Y12843*
G03X7231Y12783I59*
G01X7620*
G02X7646Y12769J29*
G03X7808Y12663I187J109*
G02X7825Y12654I4J30*
G01X8044Y12436*
G02X8052Y12415I21J21*
G01Y12297*
G03X8151Y12198I99*
G01X8387*
G02X8408Y12190J30*
G01X8427Y12171*
G02X8436Y12150I21J21*
X8406Y12120I30*
G01X8151*
G03X8092Y12061J59*
G01Y11903*
G03X8151Y11844I59*
G01X8364*
G02X8394Y11814J30*
X8385Y11793I30*
G01X7996Y11403*
G03X7970Y11341I62J62*
G01Y11074*
G02X7961Y11053I30*
G01X7506Y10598*
G02X7485Y10589I21J21*
X7477Y10591J30*
G03X7416Y10599I61J208*
X7199Y10383J216*
X7416Y10166I217*
X7491Y10180J217*
G02X7501Y10181I10J29*
X7531Y10151J30*
X7522Y10130I30*
G01X6732Y9340*
G02X6711Y9332I21J21*
X6681Y9361J29*
G01Y9624*
G03X6622Y9683I59*
G01X6386*
G03X6327Y9624J59*
G01Y9230*
G03X6386Y9171I59*
G01X6491*
G02X6521Y9141J30*
X6512Y9120I30*
G01X6338Y8946*
G02X6317Y8937I21J21*
G01X5008*
G02X4986Y8946J30*
G01X4648Y9284*
G02X4640Y9305I22J21*
X4641Y9313I30*
G03X4650Y9374I208J61*
X4433Y9590I217*
X4316Y9556J216*
G02X4300Y9551I16J25*
X4270Y9581J30*
G01Y9803*
G02X4279Y9824I30*
G01X4660Y10205*
Y9584*
G03X4719Y9525I59*
G01X4955*
G03X5014Y9584J59*
G01Y9978*
G03X4955Y10037I59*
G01X4719*
G03X4660Y9978J59*
G01Y10205*
X4667Y10212*
G02X4688Y10221I21J21*
G01X4901*
G03X4964Y10247J88*
G01X5268Y10551*
G02X5274Y10555I21J21*
G03X5292Y10569I45J77*
G01X5300Y10578*
G02X5322Y10587I22J21*
X5351Y10557J30*
G01Y10431*
G02X5343Y10410I29*
G01X5325Y10393*
G03X5299Y10330I63J63*
G01Y10106*
G02X5270Y10076I29*
G03X5172Y9978J98*
G01Y9584*
G03X5270Y9486I98*
G01X5432*
G02X5462Y9456J30*
X5452Y9434I30*
G03X5382Y9275I147J159*
X5599Y9058I217*
X5762Y9132J217*
G02X5784Y9142I22J20*
X5796Y9140J30*
G03X5835Y9132I39J90*
G01X6071*
G03X6169Y9230J98*
G01Y9624*
G03X6071Y9722I98*
G01X5874*
G02X5853Y9731J30*
G01X5787Y9797*
G02X5778Y9818I21J21*
X5808Y9848I30*
G01X6054*
G03X6114Y9907J59*
G01Y10064*
G03X6054Y10123I60*
G01X5779*
G03X5763Y10121J59*
G02X5755Y10120I8J29*
X5725Y10150J30*
G01Y10174*
G02X5755Y10204I30*
X5761J30*
G03X5779Y10202I18J96*
G01X6054*
G03X6130Y10237J98*
G02X6153Y10248I23J19*
X6176Y10237J30*
G03X6192Y10221I75J63*
G01Y9906*
G03X6251Y9847I59*
G01X6527*
G03X6586Y9906J59*
G01Y10064*
G03X6527Y10123I59*
G01X6251*
G03X6192Y10064J59*
G01Y10221*
G03X6251Y10201I59J79*
G01X6527*
G03X6583Y10219J99*
G02X6600Y10224I17J25*
X6618Y10218J30*
G03X6752Y10171I134J170*
X6969Y10388J217*
X6752Y10604I217*
X6607Y10548J216*
G02X6587Y10541I20J23*
X6573Y10544J30*
G03X6527Y10556I46J87*
G01X6501*
G02X6473Y10576J30*
G03X6465Y10592I84J30*
G02X6461Y10607I26J15*
X6487Y10637I30*
G03X6572Y10735I14J98*
G01Y11010*
G03X6567Y11040I99*
G02X6566Y11049I29J9*
X6575Y11070I30*
G01X6581Y11076*
G02X6602Y11085I21J21*
X6611Y11084J30*
G03X6641Y11079I30J94*
G01X6916*
G03X6999Y11124J99*
G02X7024Y11138I25J16*
G01X7103*
G02X7133Y11108J30*
G03X7231Y11010I98*
G01X7625*
G03X7723Y11108J98*
G01Y11344*
G03X7625Y11443I98*
G01X7231*
G03X7133Y11345J99*
G02X7103Y11315I30*
G01X7041*
G02X7011Y11345J30*
X7012Y11352I30*
G03X7015Y11374I96J22*
G01Y11473*
G03X7007Y11511I99*
G02X7005Y11522I28J11*
X7007Y11534I30*
G03X7015Y11571I91J37*
G01Y11670*
G03X7007Y11707I99*
G02X7005Y11719I28J12*
X7007Y11730I30*
G03X7015Y11768I91J38*
G01Y11867*
G03X7007Y11904I99*
G02X7005Y11916I28J12*
X7007Y11927I30*
G03X7015Y11965I91J38*
G01Y12063*
G03X7007Y12101I99*
G02X7005Y12113I28J12*
X7007Y12124I30*
G03X7015Y12162I91J38*
G01Y12260*
G03X7012Y12283I99*
G02X7011Y12289I29J6*
X7041Y12319I30*
G01X7103*
G02X7133Y12290J30*
G03X7172Y12213I98J1*
G01Y11659*
G03X7231Y11600I59*
G01X7625*
G03X7684Y11659J59*
G01Y11895*
G03X7625Y11954I59*
G01X7231*
G03X7172Y11895J59*
G01Y12213*
G03X7231Y12193I59J78*
G01X7625*
G03X7723Y12291J98*
G01Y12528*
G03X7625Y12626I98*
G01X7231*
G03X7133Y12528J98*
G01Y12526*
G02X7103Y12496I30*
G01X7024*
G02X6999Y12510J30*
G03X6984Y12528I83J53*
G02X6975Y12550I21J22*
G01Y12552*
G03Y12556I59J4*
G01Y12654*
G03X6916Y12713I59*
G01X6641*
G03X6582Y12654J59*
G01Y12556*
G03Y12552I59*
G01Y12550*
G02X6573Y12528I30*
G03X6543Y12468I68J71*
G02X6513Y12441I30J3*
X6483Y12471J30*
G01Y12605*
G03X6447Y12659I59*
G02X6428Y12687I11J28*
G01Y12693*
G02X6458Y12723I30*
G01X6473*
G03X6572Y12821J98*
G01Y13097*
G03X6473Y13195I99*
G01X6375*
G03X6337Y13188J98*
G02X6326Y13185I11J27*
X6314Y13188J30*
G03X6277Y13195I37J91*
G01X6178*
G03X6156Y13193J98*
G02X6149Y13192I7J29*
X6119Y13222J30*
G01Y13256*
G02X6128Y13278I30*
G01X6303Y13453*
G03X6329Y13515I63J62*
G01Y14466*
G02X6359Y14496I30*
X6389Y14470J30*
G03X6486Y14382I97J10*
G01X6594*
G02X6624Y14352J30*
G01Y14204*
G03X6664Y14126I99*
G01Y13811*
G03X6723Y13752I59*
G01X6998*
G03X7057Y13811J59*
G01Y13968*
G03X6998Y14027I59*
G01X6723*
G03X6664Y13968J59*
G01Y14126*
G03X6723Y14106I59J78*
G01X6998*
G03X7074Y14141J98*
G02X7096Y14152I22J19*
X7119Y14141J30*
G03X7284Y14064I165J140*
X7501Y14281J217*
X7388Y14471I217*
G02X7372Y14497I14J26*
G01Y14599*
G03X7367Y14629I98*
G02X7366Y14638I29J9*
X7367Y14647I30*
G03X7372Y14677I93J30*
G01Y14795*
G03X7367Y14826I98*
G02X7366Y14835I29J9*
X7367Y14844I30*
G03X7372Y14874I93J30*
G01Y14992*
G03X7367Y15022I98*
G02X7366Y15032I29J10*
X7367Y15041I30*
G03X7372Y15071I93J30*
G01Y15189*
G03X7367Y15219I98*
G02X7366Y15228I29J9*
X7367Y15238I30*
G03X7372Y15268I93J30*
G01Y15386*
G03X7281Y15484I98*
G02X7253Y15514I2J30*
G01Y15661*
G03X7193Y15752I98*
G02X7175Y15779I12J27*
X7193Y15807I30*
G03X7253Y15897I38J90*
G01Y16055*
G03X7211Y16136I98*
G02X7198Y16160I17J24*
X7204Y16179I30*
G03X7249Y16312I171J133*
X7033Y16528I216*
X6816Y16312J216*
X6854Y16190I217*
G02X6859Y16173I25J17*
X6841Y16145I30*
G03X6781Y16055I38J90*
G01Y15897*
G03X6841Y15807I98*
G02X6859Y15779I12J28*
X6841Y15752I30*
G03X6781Y15661I38J91*
G01Y15543*
G02X6772Y15522I30*
G01X6754Y15504*
G03X6747Y15496I63J63*
G02X6723Y15484I24J18*
G01X6486*
G03X6388Y15386J98*
G01Y15268*
G03X6389Y15253I98*
G02Y15249I29J4*
X6360Y15219I29*
G01X6205*
G02X6184Y15227J30*
G01X5991Y15421*
G02X5982Y15442I21J21*
G01Y15809*
G02X6012Y15839I30*
G01X6090*
G03X6188Y15937J98*
G01Y16015*
G02X6218Y16045I30*
G01X6316*
G03X6379Y16071J89*
G01X7792Y17484*
G03X7818Y17547I63J63*
G01Y19573*
G03X7792Y19636I89*
G01X7676Y19752*
G02X7667Y19773I21J21*
G01Y20155*
G02X7685Y20183I30*
G01X7813Y20236*
G03X7873Y20327I38J91*
G01Y20563*
G03X7775Y20662I98*
G01X7381*
G03X7314Y20635J99*
G01X7096Y20428*
G02X7082Y20421I21J22*
G01X6612Y20312*
G03X6200Y19794I120J518*
X6732Y19263I532*
X7211Y19564J531*
G01X7433Y20025*
G02X7460Y20042I27J12*
X7490Y20013J29*
G01Y19724*
G03X7516Y19661I88*
G01X7632Y19545*
G02X7641Y19524I21J21*
G01Y17874*
G02X7611Y17844I30*
X7584Y17861J30*
G03X7388Y17985I196J93*
X7238Y17923J217*
G02X7217Y17915I21J22*
X7203Y17918J30*
G03X7196Y17922I46J87*
G02X7177Y17949I11J27*
X7196Y17977I30*
G03X7254Y18049I39J90*
X7255Y18067I97J18*
G01Y18225*
G03X7196Y18315I98*
G02X7177Y18343I11J28*
X7196Y18370I30*
G03X7255Y18461I39J91*
G01Y18618*
G03X7157Y18717I98*
G01X6881*
G03X6783Y18618J99*
G01Y18500*
G02X6774Y18479I30*
G01X6741Y18446*
G02X6720Y18437I21J21*
X6693Y18456J30*
G03X6685Y18471I91J38*
G02X6680Y18487I25J16*
X6685Y18503I30*
G03X6700Y18556I83J53*
G01Y18792*
G03X6602Y18890I98*
G01X6247*
G02X6226Y18899J30*
G01X6006Y19119*
G02X5997Y19140I21J21*
G01Y19430*
G03X5993Y19459I88*
G02X5991Y19468I28J9*
G01Y20187*
G02X6000Y20208I30*
G01X6690Y20899*
G02X6711Y20908I21J21*
G01X7221*
G02X7245Y20896J30*
G01X7303Y20819*
G03X7381Y20780I78J59*
G01X7775*
G03X7873Y20878J98*
G01Y21114*
G03X7820Y21202I98*
G01X7421Y21408*
G02X7406Y21425I13J27*
G01X7237Y21932*
G03X6733Y22295I504J168*
X6201Y21764J531*
X6572Y21257I532*
G01X6573*
X6932Y21143*
G02X6953Y21115I9J28*
X6923Y21085I30*
G01X6662*
G03X6600Y21059J89*
G01X5840Y20299*
G03X5814Y20236I63J63*
G01Y19555*
G02X5784Y19525I30*
G01X4332*
G03X4270Y19499J88*
G01X3967Y19197*
G03X3941Y19134I63J63*
G01Y14609*
G03X3967Y14546I89*
G01X4070Y14443*
G02X4079Y14421I21J22*
X4065Y14396I30*
G03X4020Y14313I53J83*
G01Y13920*
G03X4118Y13821I98*
G01X4355*
G03X4453Y13920J99*
G01Y14174*
G02X4483Y14204I30*
X4495Y14202J30*
G03X4529Y14195I34J82*
G01X4541*
G02X4571Y14165J30*
G01Y13920*
G03X4670Y13821I99*
G01X4686*
G02X4716Y13791J30*
X4712Y13777I30*
G03X4684Y13671I189J106*
X4875Y13456I217*
G02X4901Y13426I3J30*
X4899Y13414I29*
G03X4882Y13330I200J84*
X4925Y13200I217*
G02X4931Y13182I24J18*
X4924Y13162I30*
G03X4900Y13112I73J65*
G02X4870Y13087I30J5*
X4849Y13096J30*
G01X4577Y13368*
G03X4514Y13394I63J63*
G01X3485*
G03X3422Y13368J89*
G01X2815Y12761*
G03X2789Y12698I63J63*
G01Y9587*
G02X2774Y9561I30*
G03X2661Y9371I104J190*
X2878Y9155I217*
X3094Y9371J216*
X2982Y9561I216*
G02X2966Y9587I14J26*
G01Y12649*
G02X2975Y12670I30*
G01X3513Y13208*
G02X3534Y13217I21J21*
G01X3792*
G02X3822Y13187J30*
X3819Y13175I30*
G03X3802Y13091I200J84*
X3811Y13030I217*
G02X3812Y13021I29J9*
X3805Y13002I30*
G03X3784Y12944I67J58*
G01Y12883*
G02X3780Y12868I30*
G03X3768Y12824I77J44*
G01Y12516*
G03X3794Y12453I89*
G01X3917Y12330*
G02X3926Y12309I21J21*
X3925Y12304I30*
G03X3924Y12290I98J14*
G01Y12133*
G03X4023Y12034I99*
G01X4288*
G02X4318Y12004J30*
X4309Y11983I30*
G01X3181Y10855*
G03X3155Y10793I63J62*
G01Y8620*
G03X3181Y8558I89*
G01X3459Y8280*
G02X3468Y8259I21J21*
X3444Y8229I30*
G03X3269Y8017I41J212*
X3381Y7827I216*
G02X3397Y7801I14J26*
G01Y7432*
G03X3423Y7369I88*
G01X3507Y7285*
G02X3516Y7263I21J22*
X3486Y7233I30*
G03X3303Y7126I4J216*
G02X3277Y7112I26J16*
G01X3064*
G03X3002Y7086J89*
G01X2578Y6663*
G03X2552Y6600I63J63*
G01Y5828*
G03X2578Y5765I89*
G01X5149Y3195*
G03X5212Y3169I63J63*
G01X7451*
G02X7477Y3153J30*
G03X7667Y3041I190J105*
X7857Y3153J217*
G02X7883Y3169I26J14*
G01X8241*
G03X8304Y3195J89*
G01X9047Y3938*
G03X9073Y4001I63J63*
G01Y4352*
G03X9047Y4415I89*
G01X8808Y4653*
G03X8746Y4679I62J63*
G01X8457*
G03X8394Y4653J89*
G01X8019Y4278*
G02X7998Y4269I21J21*
X7968Y4299J30*
G03X7960Y4356I216J3*
G02X7958Y4365I28J9*
X7967Y4386I30*
G01X8799Y5218*
G02X8821Y5227I22J21*
G01X10932*
G02X10962Y5197J30*
X10959Y5184I30*
G03X10938Y5091I195J93*
X11036Y4909I216*
G02X11049Y4884I17J25*
X11044Y4867I30*
X11019Y4854I25J17*
X11002Y4860J30*
G03X10968Y4871I34J48*
G01X10535*
G03X10476Y4812J59*
G01Y4339*
G03X10505Y4289I59*
G02X10519Y4263I15J26*
X10500Y4235I29*
G03X10436Y4143I35J92*
G01Y4026*
G02X10406Y3996I30*
G01X10377*
G02X10349Y4017J30*
G03X10255Y4085I94J30*
G01X9980*
G03X9950Y4080J98*
G02X9941Y4079I9J29*
X9911Y4109J30*
X9920Y4130I30*
G01X9986Y4196*
G03X10012Y4252I62J63*
G02X10027Y4276I30J3*
G03X10140Y4466I103J190*
X9924Y4682I216*
X9723Y4548J216*
G02X9696Y4529I27J11*
X9669Y4545J30*
G03X9477Y4662I192J100*
X9260Y4445J217*
X9373Y4256I217*
G02X9388Y4229I15J27*
G01Y3799*
G03X9414Y3737I89*
G01X9500Y3651*
G02X9509Y3630I21J21*
G01Y3248*
G02X9493Y3222I30*
G03X9381Y3032I104J190*
X9597Y2816I216*
X9808Y2980J216*
G02X9837Y3003I29J7*
G01X9845*
G02X9874Y2980J30*
G03X10085Y2815I211J52*
X10301Y3032J217*
X10085Y3248I216*
X10024Y3240J216*
G02X10016Y3239I8J29*
X9995Y3247J30*
G01X9899Y3343*
G02X9890Y3364I21J21*
G01Y3369*
G02X9920Y3399I30*
X9940Y3392J30*
G03X9980Y3376I40J43*
G01X10255*
G03X10314Y3435J59*
G01Y3593*
G03X10255Y3652I59*
G01X9980*
G03X9940Y3637J59*
G02X9920Y3629I20J22*
X9890Y3659J30*
G01Y3715*
G02X9920Y3745I30*
X9934Y3742J30*
G03X9980Y3731I46J87*
G01X10255*
G03X10349Y3799J98*
G02X10377Y3819I28J10*
G01X10406*
G02X10436Y3789J30*
G01Y3670*
G03X10535Y3572I99*
G01X10929*
G02X10950Y3563J30*
G01X11062Y3451*
G03X11074Y3441I62J63*
G02X11087Y3416I17J25*
X11082Y3400I30*
G03X11048Y3283I183J117*
X11053Y3237I217*
G02X11054Y3231I29J6*
X11024Y3201I30*
G01X10950*
G03X10852Y3103J98*
G01Y2837*
G02X10822Y2808I30*
G01X10803*
G02X10773Y2837J29*
G01Y3103*
G03X10714Y3162I59*
G01X10556*
G03X10497Y3103J59*
G01Y2837*
G02X10467Y2808I30*
G01X10397*
G03X10311Y2756J99*
G02X10285Y2741I26J15*
G01X8759*
G03X8754J59*
G02X8752I2J30*
G01X5288*
G03X5154Y2685J189*
G01X3476Y1006*
G02X3454Y998I22J22*
G01X3296*
G02X3266Y1028J30*
G01Y3023*
X282*
G02X252Y3053J30*
G01Y20150*
X2730Y6551D02*
G02X2738Y6572I30D01*
G01X2913Y6747*
Y5845*
G03X2972Y5786I59*
G01X3327*
G03X3386Y5845J59*
G01Y6475*
G03X3327Y6534I59*
G01X2972*
G03X2913Y6475J59*
G01Y6747*
X3092Y6926*
G02X3113Y6935I21J21*
G01X3245*
G02X3255Y6933J30*
G03X3276Y6929I28J84*
G02X3300Y6913I3J30*
G03X3490Y6800I190J104*
X3706Y7014J217*
G02X3736Y7043I30J1*
X3757Y7034J30*
G01X4321Y6471*
G02X4330Y6450I21J21*
X4300Y6420I30*
X4287Y6423J30*
G03X4192Y6444I95J195*
X4098Y6423J216*
G02X4085Y6420I13J27*
X4055Y6450J30*
G01Y6475*
G03X3957Y6574I98*
G01X3602*
G03X3504Y6475J99*
G01Y5845*
G03X3602Y5747I98*
G01X3957*
G03X3990Y5753J98*
G02X4000Y5754I10J29*
X4029Y5730J30*
G03X4241Y5557I212J44*
X4431Y5670J217*
G02X4457Y5685I26J15*
G01X4469*
G02X4480Y5683J30*
G03X4488Y5680I34J82*
G02X4508Y5659I9J29*
G03X4544Y5607I95J27*
G01Y5292*
G03X4603Y5233I59*
G01X4879*
G03X4938Y5292J59*
G01Y5450*
G03X4879Y5509I59*
G01X4603*
G03X4544Y5450J59*
G01Y5607*
G03X4603Y5587I59J79*
G01X4879*
G03X4952Y5620J99*
G02X4974Y5630I22J20*
X5004Y5600J30*
G01Y4133*
G03X5030Y4070I88*
G01X5447Y3652*
G03X5510Y3626I63J63*
G01X8159*
G03X8221Y3652J89*
G01X8470Y3902*
G02X8492Y3910I22J22*
X8500Y3909J30*
G03X8561Y3901I61J208*
X8777Y4117J216*
X8561Y4334I216*
X8344Y4117J217*
X8353Y4056I217*
G02X8354Y4048I29J8*
X8345Y4027I30*
G01X8131Y3812*
G02X8109Y3804I22J21*
G01X5559*
G02X5538Y3812J29*
G01X5190Y4161*
G02X5181Y4182I21J21*
G01Y4350*
G02X5211Y4380I30*
X5225Y4377J30*
G03X5330Y4349I105J189*
X5547Y4566J217*
X5435Y4756I217*
G02X5419Y4782I14J26*
G01Y5997*
G03X5393Y6059I89*
G01X4070Y7382*
G02X4062Y7403I22J21*
X4063Y7412I30*
G03X4072Y7472I208J60*
X3855Y7689I217*
X3639Y7475J217*
G02X3609Y7446I30J1*
X3587Y7455J30*
G01X3583Y7460*
G02X3574Y7481I21J21*
G01Y7801*
G02X3589Y7827I30*
G03X3698Y7975I104J190*
G02X3727Y8000I29J5*
X3748Y7991J30*
G01X5907Y5832*
G03X5970Y5806I63J63*
G01X6164*
G02X6191Y5791J30*
G03X6380Y5678I189J104*
X6517Y5727J217*
G02X6536Y5733I19J24*
X6563Y5715J30*
G03X6764Y5581I201J82*
X6825Y5590J216*
G02X6834Y5591I9J29*
X6852Y5584J30*
G03X6888Y5568I55J70*
G02X6890Y5567I7J30*
G03X6915Y5563I25J85*
G01X7810*
G03X7873Y5589J89*
G01X7944Y5660*
G03X7966Y5697I63J63*
G02X7994Y5718I28J9*
X8002Y5717J30*
G03X8029Y5713I27J95*
G01X8127*
G03X8198Y5744J99*
G02X8220Y5753I22J21*
G01X8222*
G03X8225I3J59*
G01X8324*
G03X8383Y5812J59*
G01Y6093*
G02X8413Y6123I30*
X8422Y6121J30*
G03X8452Y6117I30J94*
G01X8498*
G02X8526Y6097J30*
G03X8547Y6064I83J30*
G01X8671Y5940*
G03X8734Y5914I63J62*
G01X8904*
G02X8930Y5898J30*
G03X9120Y5786I190J104*
X9169Y5791J216*
G02X9176Y5792I7J29*
X9206Y5762J30*
X9197Y5741I30*
G01X9185Y5729*
G02X9163Y5720I22J21*
G01X8555*
G03X8493Y5694J89*
G01X8003Y5204*
G02X7982Y5195I21J21*
G01X7420*
G03X7357Y5169J88*
G01X6817Y4630*
G03X6791Y4567I63J63*
G01Y4220*
G03X6817Y4158I89*
G01X6983Y3991*
G03X7046Y3966I63J63*
G01X7921*
G03X7983Y3991J88*
G01X8485Y4493*
G02X8506Y4502I21J21*
G01X8697*
G02X8718Y4493J30*
G01X8887Y4324*
G02X8896Y4303I21J21*
G01Y4050*
G02X8887Y4029I30*
G01X8213Y3355*
G02X8192Y3346I21J21*
G01X7883*
G02X7857Y3362J30*
G03X7667Y3474I190J104*
X7477Y3362J216*
G02X7451Y3346I26J14*
G01X5261*
G02X5239Y3355J30*
G01X2738Y5856*
G02X2730Y5877I22J21*
G01Y6551*
X3266Y590D02*
G02X3296Y620I30D01*
G01X3545*
G03X3679Y675J189*
G01X5358Y2354*
G02X5379Y2363I21J21*
G01X8657*
Y833*
G03X8696Y754I98*
G01Y439*
G03X8755Y380I59*
G01X9031*
G03X9090Y439J59*
G01Y597*
G03X9031Y656I59*
G01X8755*
G03X8696Y597J59*
G01Y754*
G03X8755Y734I59J79*
G01X9031*
G03X9129Y833J99*
G01Y990*
G03X9031Y1089I98*
G01X9012*
G02X8982Y1119J30*
G01Y1173*
G02X8995Y1198I30*
G03X9091Y1378I121J180*
X8874Y1595I217*
X8658Y1378J217*
X8787Y1180I216*
G02X8805Y1153I12J27*
G01Y1119*
G02X8775Y1089I30*
G01X8755*
G03X8657Y990J99*
G01Y2363*
X8871*
G03X8880J189*
G01X8882*
X9733*
Y1302*
G03X9792Y1243I59*
G01X10029*
G03X10088Y1302J59*
G01Y1696*
G03X10029Y1755I59*
G01X9792*
G03X9733Y1696J59*
G01Y2363*
X10285*
G02X10311Y2347J30*
G03X10334Y2319I86J47*
G02X10345Y2296I19J23*
X10334Y2273I30*
G03X10299Y2197I63J76*
G01Y1882*
G03X10315Y1829I98*
G02X10320Y1813I25J16*
X10302Y1785I30*
G03X10245Y1696I42J89*
G01Y1302*
G03X10344Y1204I99*
G01X10580*
G03X10678Y1302J98*
G01Y1657*
G02X10687Y1678I30*
G01X10705Y1696*
G02X10727Y1705I22J21*
G01X10797*
G02X10827Y1675J30*
X10808Y1647I30*
G03X10745Y1556I35J91*
G01Y1398*
G03X10843Y1300I98*
G01X11119*
G03X11133Y1301J98*
G02X11137I4J30*
X11167Y1271J30*
G01Y1249*
G02X11137Y1219I30*
X11131Y1220J30*
G03X11119Y1221I12J58*
G01X10843*
G03X10784Y1162J59*
G01Y1004*
G03X10843Y945I59*
G01X11119*
G03X11178Y1004J59*
G01Y1097*
G02X11208Y1127I30*
X11221Y1124J30*
G03X11265Y1113I44J88*
G01X11521*
G02X11551Y1083J30*
X11534Y1056I30*
G03X11508Y1038I36J80*
G01X11374Y905*
G03X11348Y842I63J63*
G01Y777*
G02X11333Y751I30*
G03X11220Y561I104J190*
X11437Y345I217*
X11612Y433J216*
G02X11636Y446I24J17*
X11663Y429J30*
G03X11803Y318I193J99*
G02X11826Y289I7J29*
G01Y282*
G02X11796Y252I30*
G01X3296*
G02X3266Y282J30*
G01Y590*
X4118Y19085D02*
G02X4127Y19106I30D01*
G01X4279Y19258*
Y18809*
G03X4338Y18750I59*
G01X4496*
G03X4555Y18809J59*
G01Y19085*
G03X4496Y19144I59*
G01X4338*
G03X4279Y19085J59*
G01Y19258*
X4360Y19339*
G02X4381Y19348I21J21*
G01X5790*
G02X5820Y19318J30*
G01Y19091*
G03X5846Y19029I89*
G01X6101Y18774*
G02X6110Y18753I21J21*
G01Y18611*
G02X6080Y18582I30*
G01X6027*
G03X5965Y18556J89*
G01X5688Y18279*
G02X5667Y18270I21J21*
X5637Y18300J30*
G01Y18418*
G03X5632Y18443I59*
G02X5629Y18456I27J13*
X5640Y18479I30*
G03X5677Y18556I62J77*
G01Y18792*
G03X5578Y18890I99*
G01X5185*
G03X5093Y18828J98*
G02X5065Y18810I28J12*
X5037Y18831J30*
G03X5015Y18868I85J26*
G01X4996Y18886*
G02X4988Y18907I22J21*
G01Y19085*
G03X4889Y19183I99*
G01X4732*
G03X4633Y19085J98*
G01Y18809*
G03X4721Y18711I99*
G02X4748Y18681I3J30*
X4718Y18651I30*
G01X4456*
G03X4358Y18553J98*
G01Y18317*
G03X4456Y18218I98*
G01X4811*
G02X4832Y18210J30*
G01X4914Y18127*
G02X4923Y18106I21J21*
G01Y18080*
G02X4893Y18050I30*
X4879Y18054J30*
G03X4850Y18061I29J52*
G01X4456*
G03X4397Y18002J59*
G01Y17766*
G03X4456Y17707I59*
G01X4850*
G03X4879Y17714J59*
G02X4893Y17718I14J26*
X4923Y17688J30*
G01Y17661*
G02X4914Y17640I30*
G01X4832Y17558*
G02X4811Y17549I21J21*
G01X4456*
G03X4358Y17451J98*
G01Y17214*
G03X4456Y17116I98*
G01X4850*
G03X4948Y17214J98*
G01Y17411*
G02X4957Y17433I30*
G01X5074Y17550*
G03X5100Y17612I62J62*
G01Y17691*
G02X5130Y17721I30*
X5143Y17718J30*
G03X5185Y17709I42J90*
G01X5263*
Y16725*
G03X5322Y16665I59*
G01X5716*
G03X5775Y16725J60*
G01Y17118*
G03X5716Y17177I59*
G01X5322*
G03X5263Y17118J59*
G01Y17709*
X5578*
G03X5677Y17808J99*
G01Y18005*
G02X5685Y18026I30*
G01X6055Y18396*
G02X6076Y18404I21J22*
G01X6080*
G02X6110Y18374J30*
G01Y18182*
G03X6125Y18129I98*
G02X6130Y18113I25J16*
X6125Y18097I30*
G03X6110Y18044I83J53*
G01Y17808*
G03X6208Y17709I98*
G01X6602*
G03X6700Y17807J99*
G02X6730Y17837I30*
G01X6738*
G02X6759Y17828J30*
G01X6774Y17813*
G02X6783Y17792I21J21*
G01Y17674*
G03X6822Y17595I98*
G01Y17280*
G03X6881Y17221I59*
G01X7157*
G03X7216Y17280J59*
G01Y17437*
G03X7157Y17496I59*
G01X6881*
G03X6822Y17437J59*
G01Y17595*
G03X6881Y17575I59J79*
G01X7157*
G03X7219Y17597J99*
G02X7237Y17603I18J24*
X7256Y17597J30*
G03X7388Y17552I132J171*
X7584Y17675J216*
G02X7611Y17692I27J13*
X7641Y17662J30*
G01Y17596*
G02X7632Y17575I30*
G01X6957Y16900*
G02X6936Y16891I21J21*
X6906Y16920J30*
G03X6689Y17129I217J8*
X6603Y17111J217*
G02X6591Y17108I12J27*
X6561Y17133J30*
G03X6464Y17217I97J15*
G01X6070*
G03X5972Y17118J99*
G01Y16725*
G03X6070Y16626I98*
G01X6464*
G03X6558Y16696J99*
G02X6587Y16718I29J8*
X6599Y16715J30*
G03X6682Y16696I90J197*
G02X6710Y16666I2J30*
X6702Y16645I30*
G01X6288Y16231*
G02X6267Y16223I21J21*
G01X6218*
G02X6188Y16252J29*
G01Y16331*
G03X6090Y16429I98*
G01X5696*
G03X5598Y16331J98*
G01Y15937*
G03X5696Y15839I98*
G01X5775*
G02X5805Y15809J30*
G01Y15442*
G02X5796Y15421I30*
G01X5455Y15080*
G02X5434Y15071I21J21*
X5404Y15101J30*
G01Y15175*
G02X5413Y15197I30*
G03X5443Y15268I68J71*
G01Y15386*
G03X5345Y15484I98*
G01X5063*
G02X5034Y15504J30*
G03X5015Y15535I83J29*
G02X5007Y15556I22J21*
G01Y15663*
G03X4947Y15753I98*
G02X4929Y15781I12J28*
X4947Y15808I30*
G03X5007Y15899I38J91*
G01Y16056*
G03X4909Y16155I98*
G01X4779*
G02X4749Y16185J30*
X4754Y16201I30*
G03X4790Y16321I180J120*
X4748Y16450I216*
G02X4742Y16468I24J18*
G01Y16535*
G02X4772Y16565I30*
G01X4850*
G03X4948Y16663J98*
G01Y16900*
G03X4850Y16998I98*
G01X4456*
G03X4358Y16900J98*
G01Y16663*
G03X4452Y16565I98*
G02X4481Y16535I1J30*
X4466Y16509I30*
G03X4357Y16321I108J188*
X4468Y16132I217*
G02X4483Y16110I15J26*
G03X4508Y16056I88J9*
G01X4526Y16038*
G02X4535Y16017I21J21*
G01Y15899*
G03X4595Y15808I98*
G02X4613Y15781I12J27*
X4595Y15753I30*
G03X4535Y15663I38J90*
G01Y15505*
Y15504*
Y15503*
G02X4517Y15476I30*
G03X4459Y15386I40J90*
G01Y15268*
G03X4489Y15197I98*
G02X4498Y15175I21J22*
G01Y15085*
G02X4489Y15063I30*
G03X4459Y14992I68J71*
G01Y14874*
G03X4464Y14844I98*
G02X4465Y14835I29J9*
X4464Y14826I30*
G03X4459Y14795I93J31*
G01Y14763*
G02X4450Y14742I30*
G01X4384Y14675*
G03X4358Y14613I62J62*
G01Y14478*
G02X4328Y14448I30*
X4305Y14458J30*
G03X4299Y14464I68J56*
G01X4127Y14637*
G02X4118Y14658I21J21*
G01Y19085*
X4495Y12463D02*
G03X4486Y12484I30D01*
G02X4456Y12556I68J72*
G01Y12654*
G02X4462Y12689I98*
G03X4464Y12699I28J10*
X4434Y12729I30*
X4432J30*
G02X4415Y12728I17J216*
X4389Y12730J217*
G03X4386I3J30*
X4356Y12700J30*
Y12695I30*
G02X4357Y12684I58J11*
G01Y12527*
G02X4298Y12467I59*
G01X4102*
G03X4072Y12438J29*
X4081Y12416I30*
G01X4100Y12398*
G03X4121Y12389I21J21*
G01X4298*
G02X4392Y12321J99*
G03X4420Y12300I28J9*
G01X4447*
G03X4472Y12314J30*
G02X4486Y12331I82J54*
G03X4495Y12353I21J22*
G01Y12355*
G02Y12359I59J4*
G01Y12457*
G02Y12461I59*
G01Y12463*
X4987Y12519D02*
G03X4958Y12549I30D01*
G01X4953*
G03X4924Y12528J29*
G02X4898Y12484I94J28*
G03X4889Y12463I21J21*
G01Y12461*
G02Y12457I59J4*
G01Y12359*
G02Y12355I59*
G01Y12353*
G03X4898Y12331I30*
G02X4928Y12271I68J71*
G03X4957Y12245I29J3*
X4987Y12274J29*
G01Y12519*
X5997Y11138D02*
G03X5967Y11168I30D01*
G01X5700*
G03X5670Y11138J30*
X5697Y11108I30*
G02X5757Y11078I11J98*
G03X5779Y11069I22J21*
G01X5781*
G02X5785I4J59*
G01X5883*
G02X5887J59*
G01X5889*
G03X5910Y11078J30*
G02X5970Y11108I71J68*
G03X5997Y11138I3J30*
G01X6391Y14849D02*
G03X6390Y14855I30D01*
G02X6388Y14874I96J19*
G01Y14992*
G02X6389Y15007I98*
G03Y15012I29J5*
X6360Y15041I29*
G01X6156*
G02X6094Y15067J89*
G01X5914Y15247*
G03X5893Y15255I21J21*
X5872Y15247J29*
G01X5496Y14871*
G02X5461Y14849I63J62*
G03X5441Y14821I10J28*
Y14815I30*
G02X5443Y14795I96J20*
G01Y14677*
G02X5438Y14647I98*
G03X5437Y14638I29J9*
X5438Y14629I30*
G02X5443Y14599I93J30*
G01Y14520*
G03X5452Y14498I30*
G01X5779Y14171*
G03X5800Y14163I21J22*
G01X6012*
G02X6096Y14115J99*
G03X6122Y14101I26J16*
X6152Y14131J30*
G01Y14579*
G02X6178Y14641I88*
G01X6335Y14799*
G02X6370Y14820I63J63*
G03X6391Y14849I9J29*
G01X6424Y12605D02*
Y11227D01*
X5243*
X5046Y11424*
Y12605*
X6424*
X6602Y21351D02*
X7144Y21901D01*
X7336Y21324*
X7308Y21127*
X6602Y21351*
X6739Y6997D02*
Y6999D01*
G02Y7003I59J4*
G01Y7088*
G03X6709Y7118I30*
X6695Y7115J30*
G02X6591Y7088I104J190*
X6478Y7120J217*
G03X6462Y7124I16J26*
X6439Y7113J30*
G02X6364Y7078I75J63*
G01X6088*
G02X5990Y7176J98*
G01Y7334*
G02X6050Y7424I98*
G03X6068Y7452I12J28*
X6050Y7479I30*
G02X5990Y7570I38J91*
G01Y7654*
G03X5960Y7684I30*
X5945Y7680J30*
G02X5837Y7652I108J188*
X5648Y7764J216*
G03X5621Y7779I27J14*
G01X4587*
G03X4557Y7750J29*
X4566Y7728I30*
G01X5685Y6609*
G03X5707Y6600I22J21*
X5728Y6609J30*
G01X5731Y6612*
G03X5740Y6633I21J21*
G01X5739Y6635*
G02Y6638I59J3*
G01Y6914*
G02X5798Y6973I59*
G01X5956*
G02X6015Y6914J59*
G01Y6638*
G02X5956Y6579I59*
G01X5798*
G02X5795J59*
G01X5794*
G03X5772Y6570J30*
G01X5770Y6567*
G03X5761Y6546I21J21*
X5770Y6525I30*
G01X5774Y6520*
G03X5795Y6512I21J22*
G01X5858*
G02X5915Y6491J89*
G03X5934Y6484I19J22*
X5943Y6485J29*
G02X6004Y6493I61J208*
X6220Y6277J216*
X6004Y6060I216*
X6002J217*
G01X6001*
G03X5971Y6031J29*
X5980Y6009I30*
G01X5998Y5992*
G03X6019Y5983I21J21*
G01X6164*
G03X6191Y5999J30*
G02X6380Y6111I189J104*
X6513Y6066J216*
G03X6532Y6059I19J23*
X6562Y6089J30*
X6560Y6097I30*
G02X6557Y6122I86J25*
G01Y6397*
G02X6583Y6460I89*
G01X6647Y6524*
G02X6694Y6548I63J63*
G03X6715Y6562I5J30*
G02X6730Y6582I83J52*
G03X6739Y6603I20J21*
G01Y6605*
G02Y6609I59J4*
G01Y6707*
G02Y6711I59*
G01Y6713*
G03X6730Y6735I29*
G02X6715Y6753I68J71*
G03X6690Y6766I25J17*
G01X6574*
G03X6553Y6758J30*
G01X6508Y6713*
G02X6470Y6691I62J63*
G03X6448Y6662I8J29*
G01Y6638*
G02X6350Y6540I98*
G01X6192*
G02X6094Y6638J98*
G01Y6914*
G02X6192Y7012I98*
G01X6350*
G02X6441Y6949J98*
G03X6469Y6930I28J11*
X6483Y6933J30*
G02X6525Y6944I42J78*
G01X6690*
G03X6715Y6957J29*
G02X6730Y6975I83J53*
G03X6739Y6997I20J22*
G01X7122Y19606D02*
X6634Y20216D01*
X7281Y20366*
X7420Y20227*
X7122Y19606*
X7379Y7854D02*
G02Y7858I30D01*
G03X7380Y7869I88J11*
G01Y7914*
G02X7401Y7942I30*
G03X7469Y8036I31J94*
G01Y8312*
G03X7468Y8323I99*
G02Y8326I30J3*
X7498Y8356I30*
G01X7519*
G02X7549Y8326J30*
X7548Y8321I30*
G03X7547Y8312I58J9*
G01Y8036*
G03X7606Y7977I59*
G01X7764*
G03X7823Y8036J59*
G01Y8312*
G03X7822Y8321I59*
G02Y8326I30J5*
X7852Y8356I30*
G01X9062*
Y7544*
G03X9121Y7485I59*
G01X9515*
G03X9574Y7544J59*
G01Y7780*
G03X9515Y7839I59*
G01X9121*
G03X9062Y7780J59*
G01Y8356*
X9358*
G02X9384Y8341J30*
G03X9574Y8228I190J104*
X9791Y8445J217*
X9767Y8544I217*
G02X9764Y8558I26J14*
X9793Y8588I29*
G01X9926*
Y7743*
G03X10143Y7527I217*
X10359Y7743J216*
X10143Y7960I216*
X9926Y7743J217*
G01Y8588*
X10881*
G03X10908Y8592J88*
G02X10917Y8593I9J29*
X10947Y8563J30*
G01Y8128*
G02X10938Y8107I30*
G01X9666Y6835*
G03X9640Y6777I62J62*
G02X9624Y6752I30J1*
G03X9567Y6707I104J190*
G02X9545Y6697I22J20*
X9516Y6718J30*
G03X9427Y6839I208J59*
G02X9414Y6864I17J25*
X9444Y6894I30*
G01X9515*
G03X9613Y6993J99*
G01Y7229*
G03X9515Y7327I98*
G01X9121*
G03X9023Y7229J98*
G01Y7223*
G02X9003Y7194I30*
G03X8970Y7174I30J83*
G01X8946Y7149*
G02X8924Y7140I22J21*
G01X8892*
G02X8862Y7170J30*
X8863Y7177I30*
G03X8865Y7199I96J22*
G01Y7298*
G03X8767Y7396I98*
G01X8452*
G03X8422Y7392J98*
G02X8413Y7390I9J28*
X8383Y7420J30*
G01Y7701*
G03X8324Y7760I59*
G01X8225*
G03X8193Y7751J59*
G02X8176Y7746I17J25*
X8160Y7751J30*
G03X8127Y7760I33J50*
G01X8029*
G03X8025J59*
G01X8023*
G02X8001Y7770J30*
G03X7930Y7800I71J69*
G01X7832*
G03X7761Y7770J99*
G02X7739Y7760I22J20*
G01X7737*
G03X7733I4J59*
G01X7635*
G03X7631J59*
G01X7629*
G02X7608Y7770J30*
G03X7536Y7800I72J69*
G01X7438*
G03X7416Y7797J99*
G02X7409Y7796I7J29*
X7379Y7826J30*
G01Y7854*
X7381Y20563D02*
X7775Y20327D01*
X7138Y20062*
X6999Y20201*
X7381Y20563*
X7775Y21114D02*
X7381Y20878D01*
X7089Y21267*
X7249Y21386*
X7775Y21114*
X8303Y19087D02*
G02X8312Y19108I30D01*
G01X8410Y19206*
Y18760*
G03X8469Y18701I59*
G01X8627*
G03X8686Y18760J59*
G01Y19036*
G03X8627Y19095I59*
G01X8469*
G03X8410Y19036J59*
G01Y19206*
X9105Y19901*
G02X9126Y19910I21J21*
G01X9226*
G02X9256Y19880J30*
G01Y19797*
G03X9354Y19699I98*
G01X9539*
G02X9568Y19677J30*
G03X9590Y19638I85J24*
G01X10272Y18957*
G02X10281Y18935I21J22*
G01Y18835*
G02X10272Y18813I30*
G03X10242Y18743I68J70*
G02X10212Y18713I30*
G01X10134*
G03X10071Y18687J89*
G01X9962Y18578*
G03X9936Y18515I63J63*
G01Y18068*
G02X9928Y18047I30*
G01X9860Y17979*
G02X9838Y17970I22J21*
X9809Y17999J30*
G03X9772Y18071I99J5*
G02X9761Y18094I19J23*
X9764Y18107I30*
G03X9769Y18132I54J25*
G01Y18368*
G03X9764Y18394I59*
G02X9761Y18406I27J12*
X9772Y18430I30*
G03X9809Y18506I62J76*
G01Y18743*
G03X9710Y18841I99*
G01X9316*
G03X9225Y18778J98*
G02X9197Y18759I28J11*
X9168Y18781J30*
G03X9146Y18819I85J24*
G01X9127Y18837*
G02X9119Y18859I22J22*
G01Y19036*
G03X9020Y19134I99*
G01X8863*
G03X8764Y19036J98*
G01Y18760*
G03X8852Y18662I99*
G02X8878Y18633I3J29*
X8849Y18603I29*
G01X8588*
G03X8489Y18504J99*
G01Y18268*
G03X8588Y18170I99*
G01X8942*
G02X8963Y18161J30*
G01X9047Y18077*
G02X9056Y18056I21J21*
G01Y18030*
G02X9026Y18000I30*
X9011Y18004J30*
G03X8981Y18012I30J51*
G01X8588*
G03X8529Y17953J59*
G01Y17717*
G03X8588Y17658I59*
G01X8981*
G03X9011Y17666J59*
G02X9026Y17670I15J26*
X9056Y17640J30*
G01Y17615*
G02X9047Y17594I30*
G01X8962Y17509*
G02X8941Y17500I21J21*
G01X8586*
G03X8488Y17402J98*
G01Y17166*
G03X8586Y17067I98*
G01X8980*
G03X9078Y17166J99*
G01Y17363*
G02X9087Y17384I30*
G01X9207Y17504*
G03X9233Y17566I63J62*
G01Y17642*
G02X9263Y17672I30*
X9275Y17669J30*
G03X9316Y17660I41J89*
G01X9395*
Y16676*
G03X9454Y16617I59*
G01X9848*
G03X9907Y16676J59*
G01Y17069*
G03X9848Y17128I59*
G01X9454*
G03X9395Y17069J59*
G01Y17660*
X9710*
G03X9809Y17758J98*
G02X9839Y17788I30*
G01X9882*
G03X9945Y17814J88*
G01X10088Y17956*
G03X10104Y17979I63J63*
G01Y16676*
G03X10202Y16577I98*
G01X10596*
G03X10694Y16665J99*
G02X10724Y16691I30J3*
X10742Y16685J29*
G03X10878Y16637I136J168*
X11095Y16853J216*
X10878Y17070I217*
X10743Y17022J217*
G02X10724Y17016I19J24*
X10694Y17046J30*
G01Y17069*
G03X10596Y17168I98*
G01X10202*
G03X10104Y17069J99*
G01Y17979*
G03X10114Y18019I79J40*
G01Y18466*
G02X10122Y18487I29*
G01X10162Y18527*
G02X10183Y18536I21J21*
G01X10212*
G02X10242Y18506J30*
G03X10257Y18453I98*
G02X10262Y18437I25J16*
X10257Y18421I30*
G03X10242Y18368I83J53*
G01Y18132*
G03X10257Y18079I98*
G02X10262Y18063I25J16*
X10257Y18047I30*
G03X10242Y17994I83J53*
G01Y17758*
G03X10340Y17660I98*
G01X10734*
G03X10832Y17758J98*
G02X10862Y17788I30*
G01X10874*
G02X10895Y17779J30*
G01X10902Y17772*
G02X10911Y17751I21J21*
G01Y17633*
G03X10950Y17554I98*
G01Y17239*
G03X11009Y17180I59*
G01X11285*
G03X11344Y17239J59*
G01Y17396*
G03X11285Y17456I59*
G01X11009*
G03X10950Y17396J60*
G01Y17554*
G03X11009Y17534I59J79*
G01X11285*
G03X11334Y17547J99*
G02X11348Y17551I14J26*
X11368Y17544J30*
G03X11510Y17491I142J163*
X11587Y17505J216*
G02X11598Y17507I11J28*
X11628Y17477J30*
G01Y17184*
G02X11619Y17162I30*
G01X10639Y16182*
G02X10618Y16174I21J22*
G01X10350*
G02X10320Y16204J30*
G01Y16282*
G03X10222Y16380I98*
G01X9828*
G03X9730Y16282J98*
G01Y15888*
G03X9828Y15790I98*
G01X9907*
G02X9937Y15760J30*
G01Y15395*
G02X9928Y15374I30*
G01X9579Y15025*
G02X9558Y15017I21J21*
X9528Y15046J29*
G01Y15121*
G02X9537Y15142I30*
G03X9567Y15213I68J71*
G01Y15331*
G03X9469Y15430I98*
G01X9187*
G02X9159Y15450J30*
G03X9143Y15478I84J30*
G02X9135Y15497I22J19*
G01Y15619*
G03X9075Y15709I98*
G02X9057Y15737I12J28*
X9075Y15764I30*
G03X9135Y15855I38J91*
G01Y16012*
G03X9047Y16110I98*
G02X9020Y16140I2J30*
X9027Y16159I29*
G03X9078Y16299I166J140*
X8997Y16468I217*
G02X8986Y16491I19J23*
X9007Y16520I30*
G03X9078Y16615I27J95*
G01Y16851*
G03X8980Y16949I98*
G01X8586*
G03X8488Y16851J98*
G01Y16615*
G03X8586Y16516I98*
G01X8665*
G02X8694Y16486J30*
G01Y16448*
G02X8688Y16430I29*
G03X8645Y16299I173J131*
X8700Y16155I216*
G02X8707Y16135I23J20*
X8706Y16127I30*
G03X8702Y16104I85J26*
G02X8693Y16083I30J1*
G03X8663Y16012I68J71*
G01Y15855*
G03X8723Y15764I98*
G02X8741Y15737I12J27*
X8723Y15709I30*
G03X8663Y15619I38J90*
G01Y15461*
G03Y15453I98*
G02Y15450I30J3*
X8645Y15422I30*
G03X8583Y15331I37J91*
G01Y15213*
G03X8613Y15142I99*
G02X8623Y15121I20J21*
G01Y15030*
G02X8613Y15008I30*
G03X8583Y14938I69J70*
G01Y14819*
G03X8588Y14789I99*
G02X8589Y14780I29J9*
X8588Y14771I30*
G03X8583Y14741I94J30*
G01Y14712*
G02X8574Y14691I30*
G01X8496Y14613*
G03X8470Y14550I63J63*
G01Y14404*
G02X8440Y14374I30*
X8416Y14386J30*
G03X8406Y14398I73J50*
G01X8312Y14492*
G02X8303Y14513I21J21*
G01Y19087*
X8607Y20424D02*
X9181Y20938D01*
X9364Y20242*
X9167Y20210*
X8607Y20424*
X8759Y2422D02*
X10414D01*
Y2682*
X8759*
Y2422*
X9115Y12483D02*
G03X9086Y12513I30D01*
G01X9081*
G03X9052Y12491J30*
G02X9026Y12448I94J28*
G03X9017Y12426I21J22*
G01Y12424*
G02Y12420I59J4*
G01Y12322*
G02Y12318I59*
G01Y12316*
G03X9026Y12295I30*
G02X9056Y12234I68J71*
G03X9085Y12208I29J4*
X9115Y12238J30*
G01Y12483*
X9978Y10133D02*
G02X10008Y10163I30D01*
X10010J30*
G03X10017I7J98*
G01X10293*
G03X10369Y10199J98*
G02X10392Y10210I23J19*
X10415Y10199J30*
G03X10431Y10184I75J64*
G01Y9869*
G03X10490Y9810I59*
G01X10765*
G03X10824Y9869J59*
G01Y10027*
G03X10765Y10086I59*
G01X10490*
G03X10431Y10027J59*
G01Y10184*
G03X10490Y10165I59J79*
G01X10765*
G03X10864Y10263J98*
G01Y10381*
G02X10873Y10402I30*
G01X10920Y10450*
G02X10941Y10459I21J21*
G01X10982*
G03X11029Y10472J88*
G02X11044Y10477I15J25*
X11074Y10447J30*
X11066Y10426I30*
G03X11043Y10366I66J60*
G01Y9390*
G02X11034Y9369I30*
G01X10974Y9308*
G02X10953Y9299I21J21*
X10923Y9329J30*
G01Y9592*
G03X10864Y9651I59*
G01X10628*
G03X10568Y9592J59*
G01Y9198*
G03X10620Y9139I60*
G02X10646Y9110I4J29*
X10616Y9080I30*
G01X10406*
G02X10376Y9110J30*
X10384Y9130I30*
G03X10411Y9198I71J68*
G01Y9592*
G03X10313Y9690I98*
G01X10116*
G02X10094Y9699J30*
G01X10036Y9757*
G02X10027Y9778I21J21*
X10057Y9808I30*
G01X10293*
G03X10352Y9867J59*
G01Y10025*
G03X10293Y10084I59*
G01X10017*
G03X10011Y10083J59*
G02X10008I3J30*
X9978Y10113J30*
G01Y10133*
X10013Y9110D02*
G03X10005Y9130I30D01*
G02X9978Y9198I71J68*
G01Y9552*
G03X9969Y9574I30*
G01X9872Y9671*
G03X9850Y9680I22J21*
X9820Y9650J30*
G01Y9593*
G02X9761Y9534I59*
G01X9368*
G02X9309Y9593J59*
G01Y9827*
G03X9279Y9857I30*
G01X9234*
G03X9205Y9836J30*
G02X9136Y9771I93J30*
G03X9113Y9742I7J29*
X9117Y9727I30*
G02X9148Y9616I186J111*
X8931Y9399I217*
X8715Y9616J217*
X8767Y9757I216*
G03X8774Y9777I23J20*
X8766Y9798I30*
G02X8738Y9866I70J68*
G01Y9964*
G03X8708Y9994I30*
X8687Y9985J30*
G01X8650Y9949*
G03X8641Y9928I21J21*
G01Y9649*
G02X8640Y9631I88*
G03X8639Y9625I29J6*
G01Y9493*
G03X8655Y9467I30*
G02X8767Y9277I105J190*
X8751Y9196I217*
G03X8749Y9185I28J11*
X8776Y9155I30*
G02X8915Y9085I21J215*
G03X8938Y9075I23J20*
X8967Y9105J30*
X8966Y9114I29*
G02X8956Y9179I207J65*
X9173Y9396I217*
X9362Y9283J217*
G03X9389Y9268I27J15*
G01X9517*
G02X9580Y9242J89*
G01X9733Y9089*
G03X9754Y9080I21J21*
G01X9983*
G03X10013Y9110J30*
G01X10125Y11101D02*
G03X10095Y11131I30D01*
G01X9828*
G03X9799Y11101J30*
X9825Y11071I29*
G02X9885Y11042I11J97*
G03X9907Y11032I22J20*
G01X9909Y11033*
G02X9913I4J59*
G01X10011*
G02X10015J59*
G01X10017Y11032*
G03X10038Y11042J30*
G02X10099Y11071I72J68*
G03X10125Y11101I4J30*
G01X10142Y19797D02*
X9905Y20191D01*
X10315Y20554*
X10460Y20414*
X10142Y19797*
X10317Y20958D02*
X10896Y20430D01*
X10250Y20161*
X10111Y20300*
X10317Y20958*
X10515Y14794D02*
G03X10514Y14800I30D01*
G02X10512Y14819I97J19*
G01Y14938*
G02X10513Y14952I99*
G03X10514Y14957I29J5*
X10484Y14987I30*
G01X10296*
G02X10233Y15013J88*
G01X10046Y15200*
G03X10025Y15208I21J22*
X10004Y15200J30*
G01X9620Y14816*
G02X9585Y14794I62J62*
G03X9565Y14766I10J28*
X9566Y14760I30*
G02X9567Y14741I97J19*
G01Y14623*
G02X9563Y14592I98*
G03X9561Y14583I28J9*
X9563Y14574I30*
G02X9567Y14544I94J30*
G01Y14465*
G03X9576Y14444I30*
G01X9881Y14139*
G02X9889Y14130I63J63*
G03X9891Y14127I23J18*
G01X9899Y14119*
G03X9920Y14111I21J22*
G01X10117*
G02X10215Y14025J99*
G03X10245Y13999I30J4*
X10274Y14029J30*
G01Y14522*
G02X10300Y14585I89*
G01X10460Y14744*
G02X10494Y14766I62J62*
G03X10515Y14794I9J28*
G01X10552Y12568D02*
Y11190D01*
X9371*
X9174Y11387*
Y12568*
X10552*
X11326Y4958D02*
G03X11371Y5091I172J133D01*
X11350Y5184I217*
G02X11347Y5197I27J13*
X11377Y5227I30*
G01X11738*
G02X11768Y5197J30*
G01Y5069*
G03X11827Y5010I59*
G01X12103*
G03X12162Y5069J59*
G01Y5150*
G02X12192Y5180I30*
G01X12347*
G02X12373Y5164J30*
G03X12563Y5052I190J104*
X12712Y5111J216*
G01Y4539*
G03X12772Y4480I60*
G01X12929*
G03X12988Y4539J59*
G01Y4814*
G03X12929Y4873I59*
G01X12772*
G03X12712Y4814J59*
G01Y5111*
G03X12780Y5268I149J157*
X12593Y5483I217*
G02X12568Y5509I4J29*
G01X12566Y5520*
G02Y5523I30J3*
X12586Y5551I30*
G03X12729Y5754I74J203*
X12512Y5971I217*
X12425Y5953J217*
G02X12413Y5950I12J27*
X12390Y5962J30*
G01X12386Y5966*
G02X12380Y5985I24J19*
X12387Y6003I30*
G03X12434Y6138I170J135*
X12217Y6355I217*
X12156Y6346J217*
G02X12148Y6345I8J29*
X12127Y6353J30*
G01X11903Y6577*
G02X11894Y6599I21J22*
G01Y8523*
G02X11903Y8544I30*
G01X12495Y9136*
G02X12516Y9144I21J22*
X12546Y9114J30*
G01Y8087*
G02X12537Y8066I30*
G01X12045Y7574*
G03X12019Y7512I63J62*
G01Y6840*
G03X12045Y6778I89*
G01X12079Y6744*
G02X12087Y6723I21J21*
X12086Y6715I29*
G03X12078Y6654I208J61*
X12294Y6437I216*
X12511Y6654J217*
X12395Y6845I217*
G02X12379Y6872I14J27*
X12380Y6879I30*
G01X12383Y6891*
G02X12412Y6913I29J8*
G03X12628Y7130J217*
X12620Y7190I216*
G02X12618Y7199I28J9*
X12627Y7220I30*
G01X12639Y7232*
G03X12665Y7294I63J62*
G01Y7327*
G02X12674Y7348I30*
G01X12807Y7482*
G02X12828Y7490I21J22*
G01X12838*
G03X12912Y7530J89*
G02X12937Y7543I25J17*
G01X13058*
G03X13108Y7556J99*
G01Y4540*
G03X13167Y4481I59*
G01X13324*
G03X13383Y4540J59*
G01Y4816*
G03X13324Y4875I59*
G01X13167*
G03X13108Y4816J59*
G01Y7556*
G03X13149Y7603I50J86*
G02X13154Y7611I27J12*
G01Y5756*
G03X13649Y5261I495*
X14012Y5419J495*
G01Y4125*
G03X14071Y4066I59*
G01X14701*
G03X14760Y4125J59*
G01Y4479*
G03X14701Y4538I59*
G01X14071*
G03X14012Y4479J59*
G01Y5419*
G03X14145Y5756I363J337*
X13649Y6251I496*
X13154Y5756J495*
G01Y7611*
G02X13176Y7621I22J20*
X13204Y7603J30*
G03X13264Y7548I91J39*
G02X13285Y7520I9J28*
G01Y7393*
G02X13269Y7367I30*
G03X13157Y7177I104J190*
X13373Y6960I216*
X13590Y7177J217*
X13477Y7367I217*
G02X13462Y7393I15J26*
G01Y7520*
G02X13483Y7548I30*
G03X13550Y7642I31J94*
G01Y7917*
G03X13452Y8016I98*
G01X13295*
G03X13204Y7956J99*
G02X13176Y7937I28J11*
X13149Y7956J30*
G03X13085Y8012I91J39*
G02X13064Y8032I8J29*
G03X13062Y8038I84J26*
G02X13060Y8049I28J11*
G01Y8133*
G02X13090Y8163I30*
X13111Y8154J30*
G03X13152Y8138I41J43*
G01X13546*
G03X13605Y8197J59*
G01Y8433*
G03X13546Y8492I59*
G01X13152*
G03X13111Y8475J59*
G02X13090Y8467I21J22*
X13060Y8497J30*
G01Y8636*
G02X13090Y8666I30*
X13104Y8662J30*
G03X13152Y8650I48J86*
G01X13546*
G03X13644Y8748J98*
G01Y8897*
G02X13674Y8927I30*
X13695Y8918J30*
G01X13740Y8872*
G02X13749Y8851I21J21*
G01Y8232*
G03X13775Y8169I89*
G01X13843Y8102*
G02X13851Y8080I22J22*
G01Y7726*
G03X13950Y7628I99*
G01X14186*
G03X14284Y7726J98*
G01Y8120*
G03X14186Y8218I98*
G01X13989*
G02X13968Y8227J30*
G01X13935Y8260*
G02X13926Y8281I21J21*
G01Y8900*
G03X13900Y8963I88*
G01X13726Y9138*
G02X13717Y9159I21J21*
G01Y9510*
G02X13731Y9535I30*
G03X13749Y9550I53J83*
G02X13770Y9559I21J21*
G01X13772*
G03X13776I4J59*
G01X13874*
G03X13878J59*
G01X13880*
G02X13902Y9550J30*
G03X13973Y9519I71J68*
G01X14071*
G03X14094Y9522J99*
G02X14101Y9523I7J29*
X14131Y9496J30*
G03X14134Y9479I88J7*
G02X14135Y9471I29J8*
X14120Y9445I30*
G03X14071Y9360I49J85*
G01Y9085*
G03X14109Y9006I98*
G02X14121Y8983I18J23*
X14108Y8958I30*
G03X14066Y8878I57J80*
G01Y8602*
G03X14165Y8504I99*
G01X14283*
G02X14304Y8495J30*
G01X14438Y8361*
G03X14442Y8358I63J63*
G01Y7726*
G03X14501Y7667I59*
G01X14737*
G03X14796Y7726J59*
G01Y8120*
G03X14737Y8179I59*
G01X14501*
G03X14442Y8120J59*
G01Y8358*
G03X14501Y8335I59J66*
G01X14783*
G02X14810Y8320J30*
G03X15000Y8207I190J104*
X15216Y8424J217*
X15000Y8640I216*
X14850Y8580J216*
G02X14829Y8571I21J21*
X14813Y8576J30*
G01X14789Y8591*
G02X14775Y8616I16J25*
G01Y8878*
G03X14716Y8937I59*
G01X14558*
G03X14499Y8878J59*
G01Y8623*
G02X14470Y8593I29*
X14448Y8601J30*
G01X14429Y8620*
G02X14421Y8641I22J21*
G01Y8878*
G03X14382Y8956I99*
G02X14371Y8980I19J24*
X14383Y9004I30*
G03X14425Y9085I56J81*
G01Y9360*
G03X14357Y9454I98*
G02X14336Y9480I9J28*
G03Y9486I88J6*
G02Y9489I29J3*
X14365Y9519I29*
G01X14366*
X14367*
X14465*
G03X14504Y9527J99*
G01Y9085*
G03X14563Y9025I59*
G01X14720*
G03X14779Y9085J60*
G01Y9360*
G03X14720Y9419I59*
G01X14563*
G03X14504Y9360J59*
G01Y9527*
G03X14563Y9618I39J91*
G01Y9893*
G03X14559Y9923I98*
G02X14558Y9932I28J9*
X14566Y9953I29*
G01X14573Y9959*
G02X14594Y9968I21J21*
X14603Y9967J30*
G03X14632Y9962I29J94*
G01X14908*
G03X14991Y10007J99*
G02X15016Y10021I25J16*
G01X15094*
G02X15124Y9992J30*
G03X15223Y9894I99*
G01X15617*
G03X15700Y9941J98*
G02X15726Y9955I26J16*
X15756Y9925J30*
G01Y282*
G02X15726Y252I30*
G01X13659*
G02X13629Y282J30*
G01Y651*
G03X13545Y748I98*
G02X13519Y778I4J30*
X13522Y791I30*
G03X13526Y799I52J27*
G02X13554Y820I28J9*
X13573Y813J30*
G03X13706Y768I133J171*
X13887Y866J216*
G02X13912Y879I25J17*
X13942Y849J30*
G01Y736*
G03X14001Y677I59*
G01X14277*
G03X14336Y736J59*
G01Y849*
G02X14360Y878I30*
G01X14377Y882*
G02X14383I6J30*
X14406Y871J30*
G03X14483Y834I77J62*
G01X14759*
G03X14830Y865J99*
G02X14852Y874I22J21*
X14871Y867J30*
G03X14899Y850I58J67*
G02X14919Y822I10J28*
G01Y816*
G03X15018Y717I99*
G01X15411*
G03X15510Y816J99*
G01Y1052*
G03X15411Y1150I99*
G01X15018*
G03X14932Y1101J98*
G02X14907Y1086I25J15*
X14893Y1090J30*
G03X14874Y1097I42J78*
G02X14853Y1118I8J29*
G03X14797Y1181I94J28*
G02X14779Y1208I12J27*
X14797Y1236I30*
G03X14857Y1326I38J90*
G01Y1484*
G03X14759Y1582I98*
G01X14483*
G03X14390Y1517J98*
G02X14362Y1497I28J10*
G01X14360*
G02X14330Y1527J30*
X14333Y1540I30*
G03X14339Y1566I53J26*
G01Y1723*
G03X14280Y1782I59*
G01X14004*
G03X13993Y1781J59*
G02X13988I5J30*
X13958Y1811J30*
X13959Y1818I30*
G03X13962Y1834I96J24*
G02X13991Y1861I29J3*
X13994J30*
G03X14004I10J98*
G01X14280*
G03X14374Y1933J98*
G02X14394Y1953I29J8*
G03X14402Y1956I26J85*
G02X14414Y1959I12J27*
X14444Y1929J30*
G01Y1923*
G03X14542Y1824I98*
G01X14778*
G03X14877Y1923J99*
G01Y2316*
G03X14876Y2328I99*
G02Y2332I30J4*
X14906Y2362I30*
X14922Y2357J30*
G03X14958Y2337I120J180*
G01Y1367*
G03X15018Y1308I60*
G01X15411*
G03X15470Y1367J59*
G01Y1603*
G03X15411Y1662I59*
G01X15018*
G03X14958Y1603J59*
G01Y2337*
G03X14974Y2331I84J200*
G02X14995Y2303I9J28*
G01Y1923*
G03X15093Y1824I98*
G01X15329*
G03X15428Y1923J99*
G01Y2277*
G02X15437Y2298I30*
G01X15506Y2368*
G03X15532Y2430I63J62*
G01Y5932*
G03X15506Y5994I89*
G01X15448Y6052*
G02X15439Y6073I21J21*
X15440Y6082I30*
G03X15449Y6142I208J60*
X15232Y6359I217*
X15016Y6142J217*
X15232Y5926I216*
X15293Y5935J216*
G02X15301Y5936I8J29*
X15323Y5927J30*
G01X15346Y5904*
G02X15355Y5882I21J22*
G01Y3137*
G02X15325Y3107I30*
X15301Y3119J30*
G03X15129Y3204I172J131*
X14912Y2988J216*
X14921Y2927I217*
G02X14922Y2919I29J8*
X14913Y2898I30*
G01X14825Y2809*
G02X14803Y2800I22J21*
G01X14667*
G02X14637Y2830J30*
X14638Y2839I30*
G03X14641Y2858I56J19*
G01Y3134*
G03X14582Y3193I59*
G01X14425*
G03X14366Y3134J59*
G01Y2858*
G03X14384Y2816I59*
G02X14393Y2795I21J21*
X14384Y2773I30*
G01X14219Y2608*
G02X14197Y2600I22J21*
G01X13992*
G02X13962Y2629J29*
G01Y2708*
G03X13959Y2730I99*
G02Y2737I29J7*
X13988Y2767I29*
X13998Y2765J30*
G03X14031Y2760I33J93*
G01X14189*
G03X14287Y2858J98*
G01Y3134*
G03X14219Y3227I98*
G02X14198Y3256I9J29*
G01Y3367*
G02X14228Y3396I30*
G01X14701*
G03X14800Y3495J99*
G01Y3849*
G03X14701Y3948I99*
G01X14071*
G03X13973Y3849J99*
G01Y3495*
G03X14010Y3418I98*
G02X14021Y3394I19J24*
G01Y3256*
G02X14001Y3227I30*
G03X13970Y3211I30J93*
G02X13952Y3205I18J24*
X13939Y3207J30*
G01X13927Y3213*
G02X13909Y3240I12J27*
Y3246I30*
G03X13913Y3284I213J38*
X13824Y3459I217*
G02X13812Y3483I17J24*
X13826Y3509I29*
G03X13874Y3594I50J85*
G01Y4302*
G03X13783Y4401I98*
G02X13755Y4430I2J29*
X13769Y4456I30*
G03X13816Y4540I51J84*
G01Y4816*
G03X13718Y4914I98*
G01X13560*
G03X13462Y4816J98*
G01Y4540*
G03X13494Y4467I98*
G02X13504Y4445I20J22*
X13500Y4432I30*
G03X13496Y4421I79J41*
G02X13467Y4401I29J10*
G01X13382*
G03X13284Y4302J99*
G01Y3871*
G02X13254Y3841I30*
G01X13157*
G03X13095Y3815J89*
G01X13053Y3773*
G03X13042Y3760I62J63*
G02X13017Y3746I25J16*
X12996Y3755J30*
G01X12943Y3808*
G03X12910Y3829I63J63*
G02X12890Y3857I10J28*
G01Y4302*
G03X12792Y4401I98*
G01X12623*
G02X12595Y4421J30*
G03X12592Y4428I84J30*
G02X12589Y4441I27J13*
X12599Y4464I30*
G03X12634Y4539I64J75*
G01Y4814*
G03X12535Y4913I99*
G01X12378*
G03X12279Y4814J99*
G01Y4539*
G03X12348Y4445I99*
G02X12369Y4416I9J29*
X12353Y4390I30*
G03X12300Y4302I45J88*
G01Y3802*
G02X12270Y3773I30*
X12245Y3786J29*
G03X12162Y3831I83J53*
G01X11886*
G03X11851Y3825J98*
G02X11841Y3823I10J28*
X11811Y3853J30*
G01Y3893*
G02X11841Y3923I30*
X11856Y3918J30*
G03X11886Y3910I30J51*
G01X12162*
G03X12221Y3969J59*
G01Y4127*
G03X12162Y4186I59*
G01X11886*
G03X11854Y4176J59*
G02X11838Y4171I16J25*
X11809Y4195J30*
G03X11785Y4238I87J20*
G01X11665Y4357*
G02X11657Y4379I22J22*
G01Y4457*
G02X11687Y4487I30*
G01X11727*
G03X11790Y4513J89*
G01X11845Y4569*
G02X11866Y4577I21J22*
G01X12103*
G03X12201Y4676J99*
G01Y4833*
G03X12103Y4932I98*
G01X11827*
G03X11729Y4833J99*
G01Y4715*
G02X11720Y4694I30*
G01X11708Y4682*
G02X11687Y4673I21J21*
X11657Y4703J30*
G01Y4812*
G03X11558Y4910I99*
G01X11350*
G02X11320Y4940J30*
X11326Y4958I30*
G01X11628Y18724D02*
G03X11619Y18746I30D01*
G01X10468Y19897*
G03X10447Y19906I21J21*
G01X10326*
G03X10300Y19889J30*
G01X10229Y19752*
G02X10142Y19699I87J45*
G01X10141*
X9905*
G02X9876Y19703J98*
G03X9867Y19705I9J28*
X9846Y19696J30*
G01X9836Y19686*
G03X9827Y19665I21J21*
X9836Y19644I30*
G01X10432Y19047*
G02X10458Y18984I62J63*
G01Y18871*
G03X10488Y18841I30*
G01X10734*
G02X10832Y18743J98*
G01Y18506*
G02X10817Y18453I98*
G03X10812Y18437I25J16*
X10817Y18421I30*
G02X10823Y18411I83J53*
G03X10850Y18394I27J13*
X10871Y18403J30*
G01X10906Y18438*
G03X10915Y18459I21J21*
G01Y18578*
G02X11013Y18676I98*
G01X11289*
G02X11387Y18578J98*
G01Y18420*
G02X11327Y18330I98*
G03X11309Y18302I12J28*
X11327Y18274I30*
G02X11387Y18184I38J90*
G01Y18026*
G02X11326Y17935I98*
G03X11307Y17907I11J28*
X11325Y17880I30*
G02X11338Y17873I40J90*
G03X11354Y17868I16J25*
X11373Y17875J30*
G02X11510Y17924I137J168*
X11587Y17909J217*
G03X11598Y17908I11J28*
X11628Y17937J29*
G01Y18724*
X12105Y18275D02*
G02X12130Y18305I30D01*
G03X12141Y18307I15J97*
G01X12248Y18337*
Y17706*
G03X12307Y17647I59*
G01X12465*
G03X12524Y17706J59*
G01Y17982*
G03X12465Y18041I59*
G01X12307*
G03X12248Y17982J59*
G01Y18337*
X12632Y18443*
G02X12640Y18444I8J29*
X12651Y18442J30*
G01X13114Y18245*
G03X13152Y18238I38J91*
X13156J98*
G01X13157*
G02X13175Y18231J30*
G03X13271Y18199I96J125*
G01X13321*
G02X13346Y18185J30*
G03X13429Y18140I83J53*
G01X13681*
G02X13709Y18120J30*
G03X13730Y18087I84J29*
G01X13980Y17837*
G02X13989Y17816I21J21*
G01Y17517*
G02X13980Y17496I30*
G01X13657Y17173*
G02X13636Y17164I21J21*
X13606Y17194J30*
G01Y17312*
G03X13601Y17337I59*
G02X13598Y17350I27J13*
X13609Y17373I30*
G03X13646Y17450I62J77*
G01Y17686*
G03X13547Y17784I99*
G01X13154*
G03X13063Y17723J98*
G02X13035Y17705I28J12*
X13006Y17727J30*
G03X12984Y17765I85J24*
G01X12966Y17783*
G02X12957Y17805I21J22*
G01Y17982*
G03X12858Y18080I99*
G01X12701*
G03X12602Y17982J98*
G01Y17706*
G03X12690Y17608I99*
G02X12717Y17579I3J29*
X12687Y17549I30*
G01X12425*
G03X12327Y17450J99*
G01Y17214*
G03X12425Y17116I98*
G01X12780*
G02X12801Y17107J30*
G01X12890Y17018*
G02X12899Y16997I21J21*
G01Y16973*
G02X12869Y16943I30*
X12852Y16948J30*
G03X12819Y16958I33J49*
G01X12425*
G03X12366Y16899J59*
G01Y16663*
G03X12425Y16604I59*
G01X12819*
G03X12852Y16614J59*
G02X12869Y16619I17J25*
X12899Y16589J30*
G01Y16565*
G02X12890Y16544I30*
G01X12801Y16455*
G02X12780Y16446I21J21*
G01X12425*
G03X12327Y16348J98*
G01Y16112*
G03X12425Y16013I98*
G01X12819*
G03X12917Y16112J99*
G01Y16309*
G02X12926Y16330I30*
G01X13050Y16454*
G03X13076Y16516I63J62*
G01Y16582*
G02X13106Y16612I30*
X13117Y16610J30*
G03X13154Y16603I37J92*
G01X13232*
Y15619*
G03X13291Y15560I59*
G01X13685*
G03X13744Y15619J59*
G01Y16013*
G03X13685Y16072I59*
G01X13291*
G03X13232Y16013J59*
G01Y16603*
X13547*
G03X13646Y16702J99*
G01Y16899*
G02X13655Y16920I30*
G01X14028Y17293*
G02X14049Y17302I21J21*
X14079Y17272J30*
G01Y17076*
G03X14094Y17023I98*
G02X14099Y17007I25J16*
X14094Y16991I30*
G03X14079Y16938I83J53*
G01Y16702*
G03X14113Y16627I98*
G02X14123Y16605I20J22*
G01Y16493*
G02X14108Y16467I30*
G03X13995Y16277I104J190*
X14033Y16154I217*
G02X14039Y16137I24J17*
X14016Y16108I30*
G03X13941Y16013I23J95*
G01Y15619*
G03X14039Y15521I98*
G01X14433*
G03X14532Y15619J98*
G01Y16013*
G03X14433Y16111I99*
G01X14418*
G02X14388Y16141J30*
X14393Y16157I30*
G03X14428Y16277I181J120*
X14316Y16467I216*
G02X14300Y16493I14J26*
G01Y16573*
G02X14330Y16603I30*
G01X14571*
G03X14665Y16674J99*
G02X14694Y16696I29J8*
X14715Y16687J30*
G01X14743Y16659*
G02X14752Y16638I21J21*
G01Y16520*
G03X14851Y16421I99*
G01X15126*
G03X15155Y16426J99*
G02X15164Y16427I9J29*
X15194Y16397J30*
G01Y16364*
G02X15164Y16334I30*
X15151Y16337J30*
G03X15126Y16342I25J54*
G01X14851*
G03X14791Y16283J59*
G01Y16126*
G03X14851Y16067I60*
G01X15126*
G03X15151Y16072J59*
G02X15164Y16075I13J27*
X15194Y16045J30*
G01Y15907*
G02X15185Y15886I30*
G01X14424Y15126*
G02X14403Y15117I21J21*
G01X14187*
G02X14158Y15147J30*
G01Y15225*
G03X14059Y15324I99*
G01X13665*
G03X13567Y15225J99*
G01Y14832*
G03X13665Y14733I98*
G01X13744*
G02X13774Y14703J30*
G01Y14339*
G02X13765Y14318I30*
G01X13422Y13974*
G02X13401Y13966I21J22*
X13371Y13996J30*
G01Y14070*
G02X13380Y14091I30*
G03X13410Y14162I68J71*
G01Y14280*
G03X13312Y14379I98*
G01X13030*
G02X13001Y14399J30*
G03X12984Y14428I83J30*
G02X12976Y14448I22J20*
G01Y14562*
G03X12917Y14652I98*
G02X12898Y14680I11J28*
X12917Y14707I30*
G03X12976Y14798I39J91*
G01Y14955*
G03X12878Y15054I98*
G01X12768*
G02X12738Y15084J30*
X12747Y15105I30*
G03X12810Y15258I153J153*
X12747Y15411I216*
G02X12738Y15432I21J21*
X12768Y15462I30*
G01X12819*
G03X12917Y15561J99*
G01Y15797*
G03X12819Y15895I98*
G01X12425*
G03X12327Y15797J98*
G01Y15561*
G03X12421Y15462I98*
G02X12450Y15432I1J30*
X12441Y15411I30*
G03X12377Y15258I153J153*
X12442Y15103I217*
G02X12451Y15082I21J21*
G01Y15018*
G03X12477Y14955I89*
G01X12495Y14937*
G02X12504Y14916I21J21*
G01Y14798*
G03X12564Y14707I98*
G02X12582Y14680I12J27*
X12564Y14652I30*
G03X12504Y14562I38J90*
G01Y14404*
G03Y14400I98*
G01Y14399*
G02X12486Y14371I30*
G03X12426Y14280I38J91*
G01Y14162*
G03X12456Y14091I98*
G02X12465Y14070I21J21*
G01Y13979*
G02X12456Y13958I30*
G03X12426Y13887I68J71*
G01Y13769*
G03X12431Y13738I98*
G02X12432Y13729I29J9*
X12431Y13720I30*
G03X12426Y13690I93J30*
G01Y13658*
G02X12417Y13637I30*
G01X12331Y13550*
G03X12327Y13546I63J62*
G02X12305Y13536I22J20*
X12275Y13566J30*
G01Y14272*
G03X12249Y14334I89*
G01X12113Y14470*
G02X12105Y14491I22J21*
G01Y18275*
X12113Y11935D02*
G03X12083Y11965I30D01*
X12079J30*
G02X12048Y11963I31J214*
X11855Y12083J216*
G03X11828Y12099I27J14*
X11810Y12094J30*
G02X11753Y12075I57J80*
G01X11360*
G02X11261Y12174J99*
G01Y12180*
G03X11241Y12208I30*
G02X11208Y12229I30J84*
G01X11194Y12243*
G03X11173Y12252I21J21*
X11143Y12222J30*
G01Y12125*
G02X11135Y12087I98*
G03X11133Y12076I28J11*
X11135Y12064I30*
G02X11143Y12027I90J37*
G01Y11928*
G02X11135Y11891I98*
G03X11133Y11879I28J12*
X11135Y11868I30*
G02X11143Y11830I90J38*
G01Y11731*
G02X11135Y11694I98*
G03X11133Y11682I28J12*
X11135Y11671I30*
G02X11143Y11633I90J38*
G01Y11535*
G02X11135Y11497I98*
G03X11133Y11485I28J12*
X11135Y11474I30*
G02X11143Y11436I90J38*
G01Y11338*
G02X11140Y11315I98*
G03Y11309I30J6*
X11170Y11279I30*
G01X11233*
G03X11263Y11308J30*
G02X11361Y11406I98*
G01X11725*
G03X11755Y11436J30*
G01Y11528*
G02Y11532I89*
G01Y11534*
G03X11725Y11564I30*
G01X11361*
G02X11302Y11623J59*
G01Y11859*
G02X11361Y11918I59*
G01X11755*
G02X11814Y11859J59*
G01Y11696*
G03X11844Y11666I30*
X11865Y11675J30*
G01X12105Y11914*
G03X12113Y11935I22J21*
G01X12261Y19123D02*
X12794Y18590D01*
X12115Y18402*
X12073Y18444*
X12261Y19123*
X12349Y5908D02*
G03X12343Y5926I30D01*
G01X12339Y5930*
G03X12316Y5942I23J18*
X12304Y5940J30*
G02X12217Y5921I87J198*
X12003Y6103J217*
G03X11974Y6128I29J5*
X11947Y6111J30*
G02X11753Y5991I194J96*
X11563Y6103J216*
G03X11537Y6119I26J14*
G01X11303*
G02X11240Y6145J88*
G01X11096Y6289*
G02X11070Y6351I63J62*
G01Y7371*
G02X11096Y7434I89*
G01X11345Y7682*
G03X11354Y7703I21J21*
G01Y7824*
G03X11324Y7854I30*
X11303Y7846J30*
G01X10258Y6801*
G03X10249Y6780I21J21*
G01Y6530*
G03X10265Y6504I30*
G02X10377Y6314I104J190*
X10161Y6097I216*
X9944Y6314J217*
X10056Y6504I217*
G03X10072Y6530I14J26*
G01Y6829*
G02X10098Y6892I89*
G01X11153Y7947*
G03X11162Y7968I21J21*
G01Y8011*
G03X11132Y8041I30*
X11107Y8028J30*
G02X11098Y8017I72J51*
G01X9859Y6778*
G03X9850Y6756I21J22*
X9861Y6733I30*
G02X9945Y6562I133J171*
X9728Y6345I217*
X9621Y6374J217*
G03X9606Y6378I15J26*
X9576Y6348J30*
G01Y5907*
G02X9550Y5844I88*
G01X9321Y5615*
G03X9312Y5593I21J22*
X9342Y5563I30*
G01X11977*
G03X11998Y5572J30*
G01X12243Y5817*
G02X12298Y5843I62J63*
G03X12322Y5858I2J30*
G02X12343Y5889I190J104*
G03X12349Y5908I24J19*
G01X12487Y11346D02*
G03X12478Y11368I30D01*
G02X12447Y11439I68J71*
G01Y11486*
G03X12422Y11516I30*
G02X12388Y11525I37J213*
G03X12379Y11526I9J29*
X12349Y11496J30*
G01Y11409*
G02X12290Y11350I59*
G01X12014*
G02X11980Y11361J59*
G03X11962Y11367I18J24*
X11932Y11337J30*
G01Y11290*
G03X11962Y11260I30*
X11974Y11263J30*
G02X12014Y11271I40J90*
G01X12290*
G02X12383Y11203J98*
G03X12412Y11183I29J10*
G01X12438*
G03X12463Y11196J30*
G02X12478Y11214I83J53*
G03X12487Y11236I21J22*
G01Y11238*
G02Y11242I59J4*
G01Y11340*
G02Y11344I59*
G01Y11346*
X12509Y18609D02*
X13093Y19132D01*
X13291Y18475*
X13152Y18336*
X12509Y18609*
X12979Y11403D02*
G03X12949Y11432I30D01*
G01X12945Y11433*
X12944*
G03X12916Y11411J30*
G02X12889Y11368I95J28*
G03X12880Y11346I21J22*
G01Y11344*
G02Y11340I59J4*
G01Y11242*
G02Y11238I59*
G01Y11236*
G03X12889Y11214I30*
G02X12919Y11154I68J71*
G03X12949Y11128I30J4*
X12979Y11158J30*
G01Y11403*
X13989Y10021D02*
G03X13959Y10051I30D01*
G01X13692*
G03X13662Y10021J30*
X13688Y9991I30*
G02X13749Y9961I10J98*
G03X13770Y9952I21J21*
G01X13772*
G02X13776I4J59*
G01X13874*
G02X13878J59*
G01X13880*
G03X13902Y9961J30*
G02X13962Y9991I71J68*
G03X13989Y10021I3J30*
G01X14328Y19300D02*
X14459Y18616D01*
X14056Y18809*
Y19006*
X14328Y19300*
X14358Y13743D02*
G03X14357Y13749I30D01*
G02X14355Y13769I96J20*
G01Y13887*
G02X14356Y13901I98*
G03Y13906I29J5*
X14327Y13936I29*
G01X14127*
G02X14065Y13962J88*
G01X13883Y14143*
G03X13862Y14152I21J21*
X13841Y14143J30*
G01X13463Y13765*
G02X13428Y13743I63J63*
G03X13408Y13715I10J28*
Y13709I30*
G02X13410Y13690I96J19*
G01Y13572*
G02X13405Y13541I98*
G03X13404Y13532I29J9*
X13405Y13523I30*
G02X13410Y13493I93J30*
G01Y13411*
G03X13419Y13390I30*
G01X13740Y13069*
G03X13761Y13060I21J21*
G01X13958*
G02X14056Y12961J99*
G01Y12577*
G03X14086Y12547I30*
X14107Y12555J30*
G01X14111Y12559*
G03X14120Y12580I21J21*
G01Y13474*
G02X14146Y13537I88*
G01X14302Y13693*
G02X14337Y13715I63J62*
G03X14358Y13743I9J28*
G01X14416Y11488D02*
Y10110D01*
X13235*
X13038Y10307*
Y11488*
X14416*
X14999Y11007D02*
G03X15006Y11045I91J38D01*
G01Y11143*
G03X15004Y11166I98*
G02X15003Y11172I29J6*
X15033Y11202I30*
G01X15094*
G02X15124Y11172J30*
G03X15164Y11094I99J1*
G01Y10543*
G03X15223Y10484I59*
G01X15617*
G03X15676Y10543J59*
G01Y10780*
G03X15617Y10839I59*
G01X15223*
G03X15164Y10780J59*
G01Y11094*
G03X15223Y11074I59J79*
G01X15617*
G03X15700Y11121J99*
G02X15726Y11136I26J15*
X15756Y11106J30*
G01Y10296*
G02X15726Y10266I30*
X15700Y10280J30*
G03X15617Y10327I83J51*
G01X15223*
G03X15124Y10229J98*
G01Y10228*
G02X15094Y10198I30*
G01X15033*
G02X15003Y10228J30*
X15004Y10235I30*
G03X15006Y10257I96J22*
G01Y10356*
G03X14999Y10394I98*
G02X14996Y10405I27J11*
X14999Y10417I30*
G03X15006Y10454I91J37*
G01Y10553*
G03X14999Y10590I98*
G02X14996Y10602I27J12*
X14999Y10613I30*
G03X15006Y10651I91J38*
G01Y10750*
G03X14999Y10787I98*
G02X14996Y10799I27J12*
X14999Y10810I30*
G03X15006Y10848I91J38*
G01Y10946*
G03X14999Y10984I98*
G02X14996Y10996I27J12*
X14999Y11007I30*
G37*
G54D10*
G01X0Y0D02*
Y20415D01*
X2522Y22929*
X15874*
Y0*
X0*
G54D11*
X1210Y4838D03*
X14567Y21659D03*
G54D12*
X899Y18753D02*
Y18649D01*
X898Y18637*
X897Y18625*
X896Y18615*
X894Y18605*
X891Y18596*
X888Y18588*
X884Y18582*
X879Y18576*
X874Y18570*
X869Y18566*
X863Y18563*
X856Y18559*
X849Y18557*
X842Y18555*
X834Y18554*
X825*
X819*
X813Y18555*
X808Y18556*
X802Y18557*
X797Y18559*
X791Y18561*
X787Y18564*
X782Y18567*
X774Y18574*
X767Y18582*
X762Y18591*
X758Y18600*
Y18604*
X757Y18609*
X756Y18614*
Y18620*
X755Y18626*
Y18633*
Y18641*
Y18650*
Y18753*
X899*
X936Y17494D02*
Y17330D01*
X927Y17332*
X919Y17333*
X911Y17335*
X904Y17337*
X897Y17339*
X891Y17342*
X886Y17345*
X881Y17349*
X874Y17355*
X868Y17362*
X863Y17369*
X859Y17376*
X856Y17384*
X854Y17393*
X852Y17401*
Y17411*
Y17419*
X854Y17427*
X855Y17435*
X858Y17442*
X861Y17449*
X865Y17456*
X870Y17462*
X875Y17468*
X881Y17473*
X887Y17478*
X895Y17482*
X902Y17486*
X910Y17489*
X918Y17491*
X927Y17493*
X936Y17494*
X1016Y17331D02*
X1023Y17280D01*
X1034Y17283*
X1044Y17287*
X1053Y17292*
X1062Y17297*
X1071Y17303*
X1078Y17309*
X1086Y17317*
X1092Y17324*
X1098Y17333*
X1103Y17342*
X1107Y17352*
X1110Y17362*
X1113Y17372*
X1115Y17384*
X1116Y17396*
X1117Y17408*
X1116Y17424*
X1114Y17439*
X1111Y17452*
X1107Y17465*
X1101Y17478*
X1095Y17489*
X1086Y17500*
X1077Y17510*
X1067Y17519*
X1056Y17526*
X1043Y17533*
X1030Y17538*
X1015Y17542*
X1000Y17545*
X984Y17546*
X967Y17547*
X949Y17546*
X932Y17545*
X916Y17542*
X901Y17538*
X887Y17532*
X874Y17526*
X863Y17518*
X852Y17509*
X843Y17500*
X834Y17489*
X827Y17478*
X822Y17466*
X817Y17453*
X814Y17440*
X812Y17426*
Y17411*
Y17396*
X814Y17383*
X817Y17370*
X821Y17358*
X827Y17346*
X834Y17335*
X842Y17325*
X851Y17315*
X862Y17306*
X873Y17299*
X886Y17293*
X899Y17287*
X914Y17283*
X930Y17280*
X946Y17278*
X963*
X966*
X969*
X973*
X977*
Y17496*
X989Y17495*
X1000Y17494*
X1010Y17491*
X1019Y17488*
X1028Y17485*
X1036Y17480*
X1044Y17475*
X1050Y17469*
X1056Y17463*
X1062Y17456*
X1066Y17449*
X1070Y17442*
X1073Y17434*
X1074Y17426*
X1076Y17417*
Y17408*
Y17401*
X1075Y17395*
X1074Y17389*
X1073Y17383*
X1071Y17377*
X1068Y17372*
X1065Y17367*
X1062Y17361*
X1058Y17357*
X1054Y17352*
X1049Y17348*
X1043Y17344*
X1037Y17341*
X1030Y17337*
X1023Y17334*
X1016Y17331*
X1110Y17999D02*
X818D01*
Y17955*
X859*
X849Y17947*
X840Y17939*
X832Y17929*
X824Y17918*
X822Y17912*
X819Y17906*
X817Y17900*
X815Y17894*
X813Y17887*
X812Y17880*
Y17874*
Y17866*
Y17858*
Y17851*
X813Y17844*
X815Y17837*
X817Y17830*
X819Y17824*
X822Y17819*
X825Y17813*
X832Y17804*
X841Y17796*
X851Y17789*
X863Y17784*
X856Y17780*
X851Y17775*
X845Y17770*
X840Y17765*
X836Y17760*
X832Y17755*
X828Y17750*
X824Y17744*
X821Y17738*
X819Y17732*
X817Y17726*
X815Y17720*
X813Y17714*
X812Y17707*
Y17700*
Y17694*
Y17683*
X813Y17673*
X815Y17664*
X817Y17655*
X821Y17647*
X825Y17640*
X830Y17633*
X836Y17627*
X842Y17621*
X849Y17617*
X857Y17613*
X866Y17609*
X876Y17607*
X886Y17605*
X897Y17604*
X910*
X1110*
Y17653*
X926*
X919*
X912*
X906Y17654*
X900*
X895Y17655*
X891Y17656*
X887Y17657*
X884Y17658*
X877Y17661*
X872Y17665*
X867Y17669*
X862Y17675*
X859Y17682*
X856Y17689*
X855Y17697*
X854Y17705*
X855Y17713*
X856Y17720*
X857Y17726*
X860Y17733*
X862Y17739*
X866Y17745*
X870Y17751*
X875Y17756*
X880Y17761*
X887Y17765*
X894Y17769*
X902Y17771*
X910Y17773*
X919Y17775*
X930Y17776*
X940*
X1110*
Y17826*
X920*
X912*
X905Y17827*
X898Y17828*
X891Y17829*
X886Y17831*
X880Y17833*
X875Y17835*
X871Y17838*
X867Y17841*
X864Y17845*
X861Y17849*
X859Y17854*
X857Y17859*
X856Y17865*
X855Y17871*
X854Y17878*
X855Y17888*
X857Y17898*
X861Y17907*
X865Y17916*
X872Y17924*
X879Y17931*
X887Y17937*
X898Y17942*
X903Y17943*
X909Y17945*
X916Y17946*
X923Y17948*
X931*
X940Y17949*
X949*
X958Y17950*
X1110*
Y17999*
Y18121D02*
X1067D01*
X1079Y18130*
X1089Y18140*
X1097Y18150*
X1104Y18161*
X1110Y18173*
X1113Y18186*
X1116Y18200*
X1117Y18214*
X1116Y18226*
X1114Y18239*
X1111Y18250*
X1107Y18262*
X1102Y18272*
X1096Y18282*
X1089Y18289*
X1082Y18295*
X1074Y18300*
X1065Y18304*
X1056Y18308*
X1045Y18310*
X1041Y18311*
X1037Y18312*
X1032*
X1026Y18313*
X1020*
X1014*
X1007*
X999*
X818*
Y18264*
X980*
X989*
X998Y18263*
X1006*
X1013*
X1019*
X1024Y18262*
X1028Y18261*
X1032*
X1041Y18258*
X1050Y18254*
X1057Y18248*
X1063Y18241*
X1068Y18233*
X1071Y18224*
X1073Y18214*
X1074Y18204*
X1073Y18193*
X1071Y18182*
X1068Y18172*
X1063Y18162*
X1056Y18153*
X1049Y18145*
X1041Y18139*
X1032Y18134*
X1026Y18133*
X1021Y18131*
X1014Y18130*
X1008Y18128*
X1000*
X992Y18127*
X984Y18126*
X974*
X818*
Y18077*
X1110*
Y18121*
Y18439D02*
X707D01*
Y18389*
X1110*
Y18439*
Y18806D02*
X707D01*
Y18654*
Y18645*
X708Y18635*
Y18627*
Y18619*
X709Y18611*
X710Y18605*
Y18599*
X711Y18593*
X714Y18579*
X718Y18566*
X723Y18554*
X730Y18543*
X737Y18534*
X747Y18525*
X757Y18518*
X769Y18511*
X782Y18506*
X795Y18502*
X809Y18500*
X824Y18499*
X836*
X849Y18501*
X860Y18504*
X871Y18507*
X882Y18511*
X892Y18517*
X901Y18524*
X911Y18532*
X915Y18536*
X919Y18541*
X923Y18546*
X926Y18551*
X929Y18557*
X932Y18563*
X935Y18570*
X937Y18578*
X939Y18585*
X941Y18593*
X943Y18602*
X944Y18610*
X945Y18620*
X946Y18629*
Y18639*
Y18650*
Y18753*
X1110*
Y18806*
X2318Y16755D02*
Y16640D01*
Y16631*
Y16623*
X2317Y16615*
X2316Y16608*
X2315Y16601*
X2314Y16594*
X2312Y16588*
X2310Y16583*
X2306Y16573*
X2301Y16565*
X2294Y16558*
X2286Y16552*
X2278Y16547*
X2269Y16544*
X2260Y16542*
X2250Y16541*
X2243*
X2236Y16542*
X2230Y16544*
X2224Y16546*
X2218Y16549*
X2213Y16553*
X2208Y16557*
X2203Y16562*
X2199Y16567*
X2195Y16574*
X2192Y16581*
X2189Y16588*
X2187Y16597*
X2186Y16606*
X2185Y16616*
X2184Y16627*
Y16755*
X2318*
X2344Y14765D02*
X2327D01*
X2310Y14764*
X2294Y14763*
X2280Y14762*
X2266Y14759*
X2253Y14757*
X2240Y14754*
X2229Y14751*
X2218Y14747*
X2208Y14742*
X2199Y14737*
X2190Y14732*
X2182Y14727*
X2175Y14720*
X2168Y14714*
X2162Y14706*
X2157Y14699*
X2152Y14691*
X2147Y14683*
X2144Y14674*
X2142Y14664*
X2140Y14654*
X2139Y14644*
X2138Y14634*
X2139Y14626*
Y14618*
X2140Y14610*
X2142Y14603*
X2144Y14596*
X2146Y14590*
X2148Y14583*
X2151Y14577*
X2159Y14565*
X2168Y14554*
X2177Y14545*
X2189Y14536*
X2202Y14528*
X2216Y14522*
X2232Y14516*
X2249Y14511*
X2258Y14509*
X2268Y14507*
X2279Y14506*
X2290Y14504*
X2303Y14503*
X2316*
X2329Y14502*
X2344*
X2361Y14503*
X2378*
X2394Y14504*
X2408Y14506*
X2422Y14508*
X2435Y14510*
X2447Y14513*
X2458Y14517*
X2469Y14521*
X2479Y14525*
X2488Y14530*
X2497Y14535*
X2505Y14541*
X2513Y14547*
X2519Y14553*
X2526Y14560*
X2531Y14568*
X2536Y14576*
X2540Y14584*
X2544Y14593*
X2546Y14603*
X2548Y14612*
X2549Y14623*
Y14634*
Y14648*
X2547Y14661*
X2544Y14674*
X2539Y14686*
X2533Y14697*
X2526Y14707*
X2518Y14717*
X2508Y14725*
X2501Y14730*
X2494Y14734*
X2487Y14739*
X2479Y14743*
X2470Y14746*
X2461Y14749*
X2452Y14753*
X2442Y14755*
X2431Y14758*
X2420Y14760*
X2409Y14761*
X2397Y14763*
X2384Y14764*
X2371*
X2358Y14765*
X2344*
Y14714D02*
X2356D01*
X2368*
X2379*
X2390Y14713*
X2400Y14712*
X2409Y14711*
X2418Y14710*
X2427Y14708*
X2435Y14707*
X2442Y14705*
X2449Y14703*
X2456Y14701*
X2462Y14699*
X2467Y14697*
X2472Y14694*
X2476Y14691*
X2484Y14685*
X2490Y14679*
X2496Y14672*
X2501Y14665*
X2504Y14658*
X2507Y14650*
X2508Y14642*
X2509Y14634*
X2508Y14625*
X2507Y14617*
X2504Y14610*
X2501Y14602*
X2496Y14595*
X2490Y14588*
X2484Y14582*
X2476Y14576*
X2472Y14573*
X2467Y14571*
X2461Y14568*
X2455Y14566*
X2449Y14564*
X2442Y14562*
X2434Y14560*
X2427Y14559*
X2418Y14557*
X2409Y14556*
X2399Y14555*
X2390Y14554*
X2379*
X2368Y14553*
X2356*
X2344*
X2332*
X2320*
X2309Y14554*
X2299*
X2288Y14555*
X2279Y14556*
X2270Y14557*
X2261Y14559*
X2253Y14560*
X2246Y14562*
X2239Y14564*
X2232Y14566*
X2227Y14568*
X2221Y14571*
X2216Y14573*
X2212Y14576*
X2205Y14582*
X2198Y14588*
X2192Y14595*
X2188Y14602*
X2184Y14610*
X2181Y14617*
X2180Y14626*
X2179Y14634*
X2180Y14642*
X2181Y14651*
X2183Y14658*
X2186Y14665*
X2191Y14671*
X2195Y14678*
X2201Y14684*
X2208Y14689*
X2213Y14692*
X2218Y14695*
X2224Y14697*
X2231Y14700*
X2237Y14702*
X2245Y14704*
X2252Y14706*
X2260Y14708*
X2269Y14710*
X2279Y14711*
X2288Y14712*
X2299Y14713*
X2309Y14714*
X2320*
X2332*
X2344*
X2347Y16419D02*
X2334Y16418D01*
X2322*
X2310Y16417*
X2299Y16415*
X2288Y16414*
X2277Y16411*
X2267Y16408*
X2257Y16405*
X2247Y16402*
X2238Y16398*
X2229Y16393*
X2221Y16388*
X2212Y16383*
X2205Y16377*
X2197Y16371*
X2190Y16365*
X2183Y16358*
X2176Y16351*
X2170Y16343*
X2165Y16336*
X2160Y16328*
X2155Y16320*
X2151Y16312*
X2147Y16303*
X2144Y16294*
X2141Y16285*
X2138Y16276*
X2136Y16266*
X2135Y16256*
X2134Y16247*
X2133Y16236*
Y16226*
Y16212*
X2134Y16199*
X2137Y16185*
X2140Y16173*
X2144Y16160*
X2148Y16148*
X2153Y16136*
X2160Y16125*
X2166Y16114*
X2174Y16104*
X2182Y16094*
X2192Y16086*
X2201Y16077*
X2211Y16070*
X2222Y16063*
X2234Y16057*
X2246Y16051*
X2258Y16047*
X2271Y16042*
X2285Y16039*
X2298Y16036*
X2312Y16035*
X2327Y16034*
X2342Y16033*
X2357Y16034*
X2372Y16035*
X2386Y16037*
X2400Y16040*
X2413Y16043*
X2427Y16047*
X2439Y16052*
X2451Y16058*
X2463Y16064*
X2474Y16071*
X2484Y16079*
X2494Y16088*
X2503Y16097*
X2511Y16107*
X2518Y16117*
X2525Y16128*
X2531Y16140*
X2536Y16151*
X2540Y16163*
X2543Y16175*
X2546Y16188*
X2548Y16200*
X2549Y16213*
Y16226*
Y16240*
X2548Y16254*
X2545Y16267*
X2543Y16280*
X2539Y16292*
X2534Y16304*
X2529Y16316*
X2522Y16328*
X2515Y16338*
X2507Y16349*
X2499Y16358*
X2490Y16367*
X2480Y16375*
X2469Y16382*
X2458Y16390*
X2447Y16395*
X2435Y16401*
X2423Y16406*
X2410Y16410*
X2398Y16413*
X2386Y16415*
X2373Y16417*
X2360Y16418*
X2347Y16419*
Y16364D02*
X2365Y16363D01*
X2382Y16361*
X2397Y16358*
X2412Y16354*
X2426Y16348*
X2439Y16341*
X2451Y16334*
X2462Y16325*
X2472Y16314*
X2480Y16304*
X2488Y16292*
X2494Y16280*
X2498Y16268*
X2501Y16254*
X2503Y16241*
X2504Y16226*
X2503Y16212*
X2501Y16197*
X2498Y16184*
X2493Y16171*
X2487Y16159*
X2480Y16148*
X2471Y16137*
X2462Y16127*
X2451Y16118*
X2438Y16110*
X2425Y16104*
X2410Y16098*
X2395Y16094*
X2378Y16091*
X2360Y16089*
X2342Y16088*
X2330Y16089*
X2318Y16090*
X2307Y16091*
X2295Y16093*
X2285Y16095*
X2275Y16098*
X2265Y16101*
X2256Y16105*
X2247Y16109*
X2239Y16114*
X2231Y16119*
X2223Y16125*
X2217Y16132*
X2210Y16138*
X2205Y16146*
X2199Y16154*
X2194Y16162*
X2190Y16170*
X2187Y16178*
X2184Y16188*
X2182Y16197*
X2180Y16206*
X2179Y16215*
Y16225*
X2180Y16239*
X2181Y16253*
X2184Y16265*
X2189Y16278*
X2194Y16290*
X2201Y16301*
X2209Y16312*
X2218Y16323*
X2223Y16328*
X2228Y16332*
X2234Y16337*
X2240Y16341*
X2247Y16344*
X2254Y16347*
X2262Y16351*
X2269Y16353*
X2278Y16356*
X2286Y16358*
X2296Y16360*
X2305Y16361*
X2315Y16362*
X2325Y16363*
X2336Y16364*
X2347*
X2401Y13980D02*
X2219D01*
X2401Y14106*
Y13980*
X2413Y15982D02*
X2409Y15932D01*
X2423Y15930*
X2436Y15926*
X2448Y15921*
X2458Y15915*
X2463Y15912*
X2468Y15908*
X2472Y15904*
X2476Y15899*
X2480Y15893*
X2483Y15888*
X2487Y15882*
X2490Y15875*
X2495Y15861*
X2499Y15846*
X2501Y15830*
X2502Y15813*
X2501Y15799*
X2499Y15785*
X2497Y15772*
X2493Y15760*
X2488Y15749*
X2482Y15739*
X2475Y15731*
X2468Y15725*
X2460Y15720*
X2451Y15716*
X2442Y15714*
X2433*
X2424*
X2416Y15716*
X2408Y15720*
X2400Y15725*
X2397Y15728*
X2394Y15731*
X2390Y15735*
X2387Y15740*
X2384Y15744*
X2381Y15749*
X2379Y15755*
X2376Y15761*
X2375Y15766*
X2373Y15772*
X2371Y15779*
X2368Y15787*
X2366Y15797*
X2363Y15808*
X2360Y15819*
X2357Y15833*
X2353Y15846*
X2350Y15858*
X2347Y15870*
X2344Y15880*
X2341Y15889*
X2338Y15897*
X2334Y15904*
X2332Y15910*
X2328Y15917*
X2323Y15924*
X2319Y15930*
X2315Y15936*
X2310Y15941*
X2305Y15945*
X2299Y15950*
X2294Y15953*
X2288Y15956*
X2282Y15960*
X2277Y15962*
X2270Y15964*
X2264Y15965*
X2257Y15967*
X2251*
X2244*
X2236*
X2229Y15966*
X2221Y15965*
X2214Y15963*
X2207Y15961*
X2201Y15958*
X2194Y15954*
X2187Y15950*
X2181Y15945*
X2175Y15941*
X2169Y15935*
X2164Y15929*
X2159Y15922*
X2154Y15915*
X2150Y15908*
X2147Y15900*
X2144Y15891*
X2141Y15882*
X2138Y15874*
X2136Y15865*
X2135Y15855*
X2134Y15846*
X2133Y15836*
Y15826*
Y15815*
X2134Y15804*
X2135Y15794*
X2136Y15784*
X2138Y15774*
X2141Y15765*
X2144Y15756*
X2147Y15747*
X2151Y15739*
X2155Y15731*
X2160Y15723*
X2165Y15717*
X2171Y15710*
X2177Y15704*
X2183Y15699*
X2190Y15694*
X2197Y15690*
X2204Y15686*
X2212Y15683*
X2220Y15680*
X2228Y15678*
X2236Y15676*
X2245Y15675*
X2253*
X2257Y15726*
X2248Y15727*
X2239Y15729*
X2231Y15732*
X2224Y15735*
X2217Y15738*
X2210Y15743*
X2205Y15748*
X2199Y15754*
X2195Y15760*
X2191Y15767*
X2188Y15775*
X2185Y15783*
X2182Y15792*
X2181Y15802*
X2180Y15812*
Y15824*
Y15836*
X2181Y15846*
X2182Y15856*
X2184Y15865*
X2187Y15874*
X2190Y15882*
X2194Y15888*
X2197Y15894*
X2202Y15899*
X2207Y15904*
X2212Y15908*
X2217Y15911*
X2223Y15913*
X2228Y15915*
X2234Y15916*
X2240*
X2245*
X2251Y15915*
X2255Y15914*
X2260Y15912*
X2264Y15910*
X2268Y15908*
X2272Y15904*
X2276Y15901*
X2279Y15896*
X2283Y15890*
X2287Y15882*
X2290Y15873*
X2294Y15862*
X2297Y15850*
X2301Y15836*
X2305Y15820*
X2308Y15805*
X2312Y15790*
X2315Y15777*
X2319Y15765*
X2322Y15755*
X2325Y15746*
X2328Y15738*
X2331Y15731*
X2334Y15723*
X2339Y15715*
X2344Y15707*
X2349Y15701*
X2354Y15694*
X2360Y15689*
X2366Y15684*
X2371Y15679*
X2378Y15675*
X2384Y15672*
X2391Y15669*
X2398Y15667*
X2406Y15665*
X2413Y15664*
X2421Y15663*
X2429Y15662*
X2437Y15663*
X2445Y15664*
X2453Y15665*
X2460Y15667*
X2468Y15669*
X2475Y15673*
X2482Y15677*
X2490Y15681*
X2496Y15686*
X2503Y15691*
X2509Y15697*
X2515Y15703*
X2520Y15710*
X2525Y15717*
X2529Y15725*
X2534Y15734*
X2537Y15742*
X2540Y15751*
X2543Y15760*
X2545Y15770*
X2547Y15780*
X2549Y15790*
Y15801*
Y15811*
Y15824*
Y15837*
X2547Y15849*
X2545Y15861*
X2543Y15872*
X2540Y15883*
X2537Y15893*
X2534Y15903*
X2529Y15912*
X2525Y15920*
X2519Y15928*
X2514Y15935*
X2507Y15942*
X2501Y15949*
X2494Y15955*
X2486Y15960*
X2477Y15965*
X2469Y15969*
X2460Y15973*
X2451Y15977*
X2442Y15979*
X2433Y15980*
X2423Y15982*
X2413*
X2495Y14818D02*
X2543D01*
Y15084*
X2534*
X2525Y15083*
X2517Y15081*
X2508Y15078*
X2495Y15073*
X2481Y15065*
X2468Y15056*
X2455Y15046*
X2448Y15040*
X2441Y15034*
X2434Y15027*
X2427Y15019*
X2419Y15010*
X2411Y15001*
X2403Y14991*
X2394Y14981*
X2381Y14965*
X2368Y14951*
X2357Y14938*
X2345Y14926*
X2335Y14916*
X2325Y14907*
X2317Y14899*
X2308Y14892*
X2301Y14887*
X2293Y14882*
X2285Y14878*
X2278Y14875*
X2271Y14872*
X2263Y14871*
X2256Y14869*
X2249*
X2242*
X2235Y14870*
X2228Y14872*
X2222Y14874*
X2216Y14877*
X2210Y14881*
X2205Y14885*
X2199Y14890*
X2195Y14895*
X2191Y14901*
X2187Y14908*
X2184Y14914*
X2182Y14921*
X2181Y14929*
X2180Y14937*
X2179Y14945*
X2180Y14954*
X2181Y14962*
X2182Y14970*
X2185Y14977*
X2188Y14984*
X2192Y14991*
X2196Y14997*
X2201Y15003*
X2207Y15007*
X2212Y15012*
X2219Y15015*
X2226Y15019*
X2234Y15021*
X2242Y15023*
X2251Y15024*
X2260*
X2255Y15075*
X2241Y15073*
X2228Y15071*
X2216Y15067*
X2205Y15062*
X2194Y15057*
X2185Y15051*
X2176Y15043*
X2168Y15036*
X2161Y15027*
X2155Y15017*
X2150Y15007*
X2146Y14995*
X2143Y14984*
X2140Y14971*
X2139Y14958*
X2138Y14944*
X2139Y14930*
X2140Y14916*
X2143Y14904*
X2146Y14892*
X2151Y14881*
X2157Y14871*
X2163Y14861*
X2171Y14852*
X2179Y14844*
X2188Y14837*
X2197Y14832*
X2207Y14827*
X2217Y14823*
X2227Y14820*
X2238Y14819*
X2250Y14818*
X2262Y14819*
X2274Y14821*
X2286Y14824*
X2298Y14828*
X2304Y14831*
X2310Y14834*
X2316Y14838*
X2321Y14841*
X2328Y14846*
X2334Y14851*
X2340Y14856*
X2347Y14861*
X2354Y14867*
X2361Y14875*
X2369Y14883*
X2377Y14892*
X2386Y14902*
X2396Y14913*
X2407Y14925*
X2418Y14938*
X2427Y14948*
X2435Y14958*
X2442Y14966*
X2449Y14974*
X2455Y14980*
X2460Y14986*
X2465Y14991*
X2468Y14995*
X2475Y15001*
X2482Y15006*
X2488Y15011*
X2495Y15015*
Y14818*
X2543Y13980D02*
X2446D01*
Y14155*
X2401*
X2140Y13971*
Y13931*
X2401*
Y13877*
X2446*
Y13931*
X2543*
Y13980*
Y14265D02*
Y14315D01*
X2228*
X2236Y14325*
X2245Y14336*
X2253Y14348*
X2262Y14362*
X2270Y14376*
X2277Y14390*
X2282Y14402*
X2287Y14414*
X2240*
X2229Y14394*
X2218Y14375*
X2206Y14358*
X2192Y14341*
X2185Y14334*
X2179Y14327*
X2172Y14321*
X2165Y14315*
X2158Y14310*
X2151Y14305*
X2145Y14301*
X2138Y14297*
Y14265*
X2543*
Y15588D02*
X2140D01*
Y15297*
X2188*
Y15535*
X2310*
Y15312*
X2358*
Y15535*
X2495*
Y15288*
X2543*
Y15588*
Y16808D02*
X2140D01*
Y16629*
Y16616*
X2141Y16604*
X2142Y16593*
X2143Y16582*
X2144Y16572*
X2146Y16563*
X2148Y16555*
X2151Y16547*
X2154Y16541*
X2157Y16534*
X2161Y16528*
X2166Y16522*
X2171Y16517*
X2177Y16512*
X2182Y16507*
X2189Y16503*
X2196Y16499*
X2203Y16495*
X2211Y16493*
X2218Y16490*
X2226Y16488*
X2234Y16487*
X2242Y16486*
X2250*
X2260*
X2271Y16488*
X2280Y16490*
X2290Y16493*
X2298Y16497*
X2307Y16502*
X2315Y16507*
X2322Y16514*
X2329Y16521*
X2336Y16530*
X2342Y16539*
X2346Y16549*
X2351Y16560*
X2355Y16572*
X2357Y16586*
X2360Y16599*
X2365Y16590*
X2370Y16581*
X2375Y16573*
X2380Y16567*
X2391Y16556*
X2404Y16545*
X2418Y16534*
X2433Y16523*
X2543Y16453*
Y16520*
X2459Y16573*
X2450Y16579*
X2442Y16584*
X2434Y16590*
X2427Y16595*
X2420Y16599*
X2414Y16604*
X2408Y16608*
X2404Y16612*
X2395Y16619*
X2387Y16626*
X2381Y16633*
X2377Y16639*
X2373Y16645*
X2370Y16651*
X2368Y16657*
X2366Y16663*
X2365Y16669*
X2364Y16675*
Y16683*
Y16693*
Y16755*
X2543*
Y16808*
X2878Y9371D02*
Y12698D01*
X3485Y13305*
X3002Y6160D02*
X2883D01*
X3149Y5875D02*
Y5756D01*
Y6446D02*
Y6564D01*
X3297Y6160D02*
X3416D01*
X3779D02*
X4125D01*
X4192Y6228*
X3927Y11197D02*
Y11052D01*
X3612Y10736*
X3987Y9951D02*
X4909Y10872D01*
X4019Y13091D02*
X3872Y12944D01*
Y12840*
X3857Y12824*
Y12516*
X4160Y12212*
X4111Y8974D02*
Y9101D01*
X3987Y9225*
Y9951*
X4134Y11092D02*
X4466Y11424D01*
X4160Y12212D02*
X4465D01*
X4466Y12211*
X4692*
X4160Y12556D02*
Y12438D01*
X4181Y9852D02*
Y9277D01*
X4887Y8572*
X5959*
X4237Y14116D02*
Y14402D01*
X4030Y14609*
Y19134*
X4332Y19437*
X5903*
X4241Y5774D02*
X4505D01*
X4514Y5765*
X4741*
X4269Y12605D02*
X4387D01*
X4351Y11620D02*
X3927Y11197D01*
X4368Y18947D02*
X4249D01*
X4417Y18838D02*
Y18720D01*
Y19055D02*
Y19174D01*
X4466Y11424D02*
X4692D01*
X4466Y18947D02*
X4585D01*
X4486Y17795D02*
X4393Y17703D01*
X4486Y17972D02*
X4393Y18065D01*
X4574Y16321D02*
X4571Y16318D01*
Y16119*
X4712Y15978*
X4771*
X4584Y12408D02*
X4465D01*
X4587Y15130D02*
X4468D01*
X4632Y5371D02*
X4514D01*
X4653Y16781D02*
Y16401D01*
X4574Y16321*
X4653Y17333D02*
X4732D01*
X5012Y17612*
Y18155*
X4732Y18435*
X4653D02*
X4732D01*
X4692Y11227D02*
Y10998D01*
X3820Y10126*
Y8626*
X4578Y7868*
X5837*
X4692Y11620D02*
X4351D01*
X4692Y12014D02*
X4466D01*
X3244Y10793*
Y8620*
X5598Y6266*
X5970Y5895*
X6380*
X4692Y12408D02*
X4417D01*
X4220Y12605*
X4160*
X4692D02*
Y12743D01*
X4636Y12799*
X4561*
X4415Y12945*
X4741Y5322D02*
Y5203D01*
Y5420D02*
Y5539D01*
X4748Y9781D02*
X4630D01*
X4800Y12408D02*
X4919D01*
X4820Y17795D02*
X4860Y17677D01*
X4820Y17972D02*
X4860Y18090D01*
X4837Y9614D02*
Y9495D01*
Y9948D02*
Y10067D01*
X4849Y5371D02*
X4968D01*
X4860Y12959D02*
X4514Y13305D01*
X3485*
X4901Y13671D02*
X5091D01*
X5430Y13332*
Y13330*
X5440Y13320*
Y12959*
X4909Y10872D02*
X5046D01*
X4925Y9781D02*
X5044D01*
X4951Y14736D02*
X4570D01*
X4446Y14613*
Y14366*
X4529Y14284*
X4788*
Y14116*
X4951Y15327D02*
Y15475D01*
X4842Y15584*
X4771*
X4952Y18674D02*
Y18655D01*
X4732Y18435*
X4952Y18674D02*
X5381D01*
X4952D02*
Y18805D01*
X4811Y18947*
X5046Y12443D02*
X4957D01*
X5046Y12959D02*
X4860D01*
X5099Y13330D02*
X5243Y13185D01*
Y12959*
X5223Y10632D02*
X4901Y10309D01*
X4639*
X4181Y9852*
X5243Y10872D02*
Y10646D01*
X5229Y10632*
X5223*
X5315Y15130D02*
X5434D01*
X5330Y4566D02*
Y5997D01*
X3855Y7472*
X5343Y13867D02*
X5080D01*
X4998Y13949*
X4788*
Y14116*
X5352Y16921D02*
X5233D01*
X5381Y17926D02*
X5460D01*
X6027Y18493*
X6146*
X6326Y18674*
X5440Y10872D02*
Y10382D01*
X5388Y10330*
Y9781*
X5519Y16754D02*
Y16636D01*
Y17089D02*
Y17207D01*
X5549Y18344D02*
X5667D01*
X5599Y9275D02*
Y9491D01*
X5388Y9702*
Y9781*
X5612Y7134D02*
X5780D01*
X5881Y7033*
X5908*
X5637Y13415D02*
Y12959D01*
X5686Y16921D02*
X5805D01*
X5735Y11916D02*
X5834Y11817D01*
Y10872*
X5735Y11916D02*
X6424Y12605D01*
X6779*
X5735Y11916D02*
X5542D01*
X5076Y12382*
X4981*
X4955Y12408*
X4692*
X5808Y9936D02*
Y9818D01*
Y10035D02*
X5781Y10153D01*
X5828Y6776D02*
X5709D01*
X5834Y10981D02*
Y11099D01*
Y12959D02*
Y13320D01*
X5894Y13380*
Y13867*
X5877Y6667D02*
Y6549D01*
Y6884D02*
Y7003D01*
X5893Y15393D02*
X6156Y15130D01*
X6880*
X5893Y15393D02*
X5433Y14933D01*
X4951*
X5893Y15393D02*
Y16134D01*
X6316*
X7729Y17547*
Y19573*
X7578Y19724*
Y20445*
X5894Y13867D02*
Y13931D01*
X5706Y14119*
X5286Y14539*
X4951*
X5903Y19437D02*
X5909Y19430D01*
Y19091*
X6326Y18674*
X5908Y7033D02*
X5877Y7002D01*
Y6776*
X5917Y10379D02*
X6162D01*
X6163*
X6389*
X5926Y6776D02*
X6045D01*
X5953Y9427D02*
Y9506D01*
X5637Y9822*
Y10872*
X5959Y8572D02*
X6312D01*
X6004Y6277D02*
X5858Y6423D01*
X5746*
X3539Y8630*
Y10207*
X4134Y10802*
Y11092*
X6025Y9936D02*
X6117Y9844D01*
X6025Y10035D02*
X6117Y10127D01*
X6227Y10872D02*
Y10708D01*
X6389Y10546*
Y10379*
X6267Y16921D02*
X6680D01*
X6689Y16912*
X6271Y6776D02*
X6446D01*
X6525Y6855*
X6956*
X6281Y9985D02*
X6162D01*
X6389Y9936D02*
Y9817D01*
Y9985D02*
X6163D01*
X6162*
X5917*
X6389Y10034D02*
Y10153D01*
Y10379D02*
X6743D01*
X6752Y10388*
X6395Y12575D02*
X6487Y12668D01*
X6405Y18300D02*
X6720D01*
X6960Y18540*
X7019*
X6405Y18674D02*
X6326D01*
X6415Y9427D02*
X6297D01*
X6453Y9260D02*
Y9141D01*
X6497Y9985D02*
X6616D01*
X6504Y9427D02*
Y9348D01*
X6175Y9020*
X5226*
X4837Y9409*
Y9781*
X6504Y9427D02*
X6415D01*
Y9771*
X6389Y9797*
Y9985*
X6504Y9594D02*
Y9713D01*
X6591Y7305D02*
X6541Y7255D01*
X6226*
X6593Y9427D02*
X6711D01*
X6670Y12605D02*
X6552D01*
X6752Y13890D02*
X6634D01*
X6779Y12605D02*
X6985D01*
X7009Y12629*
X7018*
X7349Y12961*
X7428*
X6779Y12624D02*
Y12743D01*
X6828Y6658D02*
X6709D01*
X6828Y7052D02*
X6709D01*
X6861Y13840D02*
Y13722D01*
Y13939D02*
Y14057D01*
Y14283D02*
X7282D01*
X7284Y14281*
X6880Y14539D02*
Y14303D01*
X6861Y14283*
X6880Y14736D02*
Y14933D01*
Y14736D02*
X6398D01*
X6240Y14579*
Y13515*
X6031Y13306*
Y12959*
X6887Y12605D02*
X7005D01*
X6905Y7637D02*
X6998Y7544D01*
X7290*
X6905Y7637D02*
X6698D01*
X6686Y7649*
X6226*
X6911Y17359D02*
X6792D01*
X6944Y9985D02*
X6389D01*
X6956Y6461D02*
X6710D01*
X6646Y6397*
Y6122*
X6764Y6004*
Y5797*
X6956Y6658D02*
X6630D01*
X6434Y6462*
X6128*
X6044Y6546*
Y6549*
X5877Y6717*
Y6776*
X6956Y7052D02*
X6710D01*
X6691Y7033*
X5908*
X6956Y7249D02*
X6647D01*
X6591Y7305*
X6962Y8865D02*
X6940D01*
X6706Y8631*
Y8572*
X6969Y13890D02*
X7087D01*
X7017Y15582D02*
X6958D01*
X6817Y15441*
Y15390*
X6880Y15327*
X7019Y17309D02*
Y17191D01*
Y17408D02*
Y17526D01*
Y17752D02*
Y18146D01*
Y17752D02*
X7373D01*
X7388Y17768*
X7019Y17752D02*
X6960D01*
X6787Y17926*
X6405*
X7033Y16312D02*
X7017Y16296D01*
Y15976*
X7127Y17359D02*
X7246D01*
X7261Y11777D02*
X7142D01*
X7261Y12961D02*
X7142D01*
X7290Y7544D02*
Y7868D01*
X7291Y7869*
Y8174*
X7334Y4376D02*
X7752Y4794D01*
X7960*
X8641Y5475*
X12026*
X12305Y5754*
X12512*
X7416Y10383D02*
X8058Y11025D01*
Y11341*
X8515Y11798*
Y11899*
X8594Y11978*
X8820*
X7428Y11226D02*
X7143D01*
X7142Y11227*
X6779*
X7428Y11689D02*
Y11570D01*
Y11866D02*
Y11984D01*
Y12409D02*
X7143D01*
X7141Y12408*
X6779*
X7428Y12872D02*
Y12754D01*
Y12961D02*
X7596D01*
Y12683*
X7804Y12474*
Y12467*
X7871Y12399*
Y11694*
X7428Y13049D02*
Y13168D01*
X7578Y20996D02*
X6662D01*
X5903Y20236*
Y19437*
X7596Y11777D02*
X7714D01*
X7636Y8066D02*
X7543Y7973D01*
X7636Y8282D02*
X7517Y8305D01*
X7667Y3258D02*
X5212D01*
X2641Y5828*
Y6600*
X3064Y7023*
X3277*
X3283Y7017*
X3490*
X7684Y7672D02*
Y7790D01*
X7685Y8174D02*
X7988D01*
X7990Y8175*
X8197*
X7685Y8174D02*
Y7947D01*
X7684*
Y7544*
X7734Y8066D02*
X7827Y7973D01*
X7734Y8282D02*
X7853Y8305D01*
X7871Y11694D02*
X7788Y11777D01*
X7428*
X7881Y5969D02*
Y5723D01*
X7810Y5652*
X6915*
X6913Y5654*
X6907*
X6764Y5797*
X8078Y7544D02*
X8275D01*
X8078D02*
X8275D01*
X8078Y7672D02*
Y7790D01*
X8100Y9442D02*
Y9885D01*
X8943Y10728*
X9174*
Y10836*
X8180Y11982D02*
X8062D01*
X8197Y8175D02*
X8842D01*
X9148Y7869*
Y7662*
X9318*
X8197Y8175D02*
Y7969D01*
X8199Y7967*
Y7955*
X8221Y7933*
X8208Y13525D02*
X8041Y13358D01*
Y12756*
X8229Y12568*
X8820*
X8221Y7933D02*
X8275Y7879D01*
Y7544*
X8221Y7933D02*
X8182D01*
X8078Y7829*
Y7544*
X8275Y5841D02*
Y5723D01*
Y7672D02*
Y7790D01*
X8289Y11933D02*
Y11814D01*
Y12031D02*
Y12150D01*
Y12376D02*
X8230D01*
X7833Y12772*
Y12878*
X8294Y5969D02*
X8413D01*
X8294Y7544D02*
X8413D01*
X8494Y13307D02*
X9410D01*
X9568Y13149*
Y12922*
X8499Y18898D02*
X8380D01*
X8548Y18790D02*
Y18671D01*
Y19006D02*
Y19125D01*
X8561Y4117D02*
X8159Y3715D01*
X5510*
X5092Y4133*
Y5825*
X3485Y7432*
Y8017*
X8597Y18898D02*
X8716D01*
X8609Y6461D02*
X9036D01*
X8609Y7052D02*
X8973D01*
X9033Y7111*
X9318*
X8617Y17746D02*
X8525Y17654D01*
X8617Y17924D02*
X8525Y18016D01*
X8711Y15075D02*
X8593D01*
X8755Y8940D02*
X9589D01*
X9656Y8873*
X10866*
X11295Y9302*
Y10211*
X11480Y10397*
X8783Y16733D02*
Y16378D01*
X8861Y16299*
X8783Y17284D02*
X8862D01*
X9144Y17566*
Y18105*
X8863Y18386*
X8785Y518D02*
X8666D01*
X8820Y11190D02*
Y10835D01*
X7675Y9690*
Y8827*
X8820Y11387D02*
X8594D01*
X8436Y11229*
Y10688*
X7345Y9597*
Y9020*
X8820Y11584D02*
X8495D01*
X8225Y11313*
Y10708*
X6366Y8848*
X4958*
X4433Y9374*
X8820Y12174D02*
X8549D01*
X8348Y12376*
X8289*
X8863Y18386D02*
X8784D01*
X8871Y2552D02*
X10437D01*
X8893Y469D02*
Y350D01*
Y567D02*
Y686D01*
Y912D02*
Y1359D01*
X8874Y1378*
X8894Y14050D02*
Y14217D01*
X8676*
X8559Y14335*
Y14550*
X8690Y14682*
X9075*
X8899Y15540D02*
X8955D01*
X9075Y15420*
Y15272*
X8899Y15934D02*
X8791D01*
Y16101*
X8804Y16114*
Y16242*
X8861Y16299*
X8928Y12371D02*
X9047D01*
X8931Y9616D02*
X8974Y9659D01*
Y9945*
X8952Y17746D02*
X8993Y17629D01*
X8952Y17924D02*
X8993Y18041D01*
X8974Y10339D02*
X9033D01*
X9371Y10677*
Y10836*
X8974Y10339D02*
X8915D01*
X8553Y9977*
Y9649*
X8550Y9646*
Y9277*
X9001Y518D02*
X9120D01*
X9075Y14485D02*
X9410D01*
X9818Y14076*
Y14075*
X9999Y13894*
Y13815*
X9083Y18624D02*
Y18606D01*
X8863Y18386*
X9083Y18624D02*
X9513D01*
X9083D02*
Y18757D01*
X8941Y18898*
X9120Y6002D02*
X8734D01*
X8609Y6127*
Y6264*
X9151Y7662D02*
X9032D01*
X9173Y9179D02*
X9517D01*
X9705Y8991*
X10782*
X11132Y9341*
Y10366*
X11534Y10769*
X9174Y12407D02*
X9085D01*
X9174Y12922D02*
X8831D01*
X8694Y12786*
X8523*
X8467Y12842*
X8247*
X9308Y6659D02*
X9488Y6479D01*
Y5907*
X9212Y5631*
X8555*
X8031Y5107*
X7420*
X6880Y4567*
Y4220*
X7046Y4054*
X7921*
X8457Y4590*
X8746*
X8984Y4352*
Y4001*
X8241Y3258*
X7667*
X9318Y7573D02*
Y7455D01*
Y7751D02*
Y7869D01*
X9371Y12922D02*
Y13149D01*
X8765*
X8609Y12993*
X9397Y9711D02*
X9279D01*
X9440Y15075D02*
X9558D01*
X9448Y13815D02*
X9227D01*
X9159Y13883*
X8894*
Y14050*
X9472Y19994D02*
Y19915D01*
X9653Y19735*
Y19701*
X9702Y19652*
X9754Y19600*
X10370Y18984*
Y18624*
X9472Y19994D02*
X9266D01*
X9261Y19999*
X9077*
X8214Y19136*
Y14464*
X8343Y14336*
Y14050*
X9477Y4445D02*
Y3799D01*
X9597Y3679*
Y3032*
X9484Y16872D02*
X9365D01*
X9485Y7662D02*
X9604D01*
X9513Y17876D02*
X9882D01*
X10025Y18019*
Y18515*
X10134Y18624*
X10370*
X9565Y9622D02*
Y9504D01*
Y10262D02*
Y10105D01*
X9404Y9945*
X8974*
X9565Y10262D02*
Y10537D01*
X9568Y10541*
Y10836*
X9574Y8445D02*
X7071D01*
X6833Y8207*
X5794*
X5689Y8311*
X4642*
X4320Y8634*
X9651Y16705D02*
Y16587D01*
Y17040D02*
Y17158D01*
X9681Y18162D02*
X9799Y18126D01*
X9681Y18339D02*
X9799Y18374D01*
X9728Y6562D02*
Y6773D01*
X11035Y8079*
Y8579*
X12069Y9612*
Y10359*
X12340Y10631*
Y10781*
X12457Y10897*
X12683*
X9732Y9636D02*
X9850D01*
X9765Y12922D02*
Y13295D01*
X9670Y13390*
X9818Y16872D02*
X9937D01*
X9822Y1499D02*
X9703D01*
X9863Y11879D02*
X9962Y11781D01*
Y10836*
X9863Y11879D02*
X9696D01*
X9204Y12371*
X8820*
X9863Y11879D02*
X10552Y12568D01*
X10907*
X9868Y9277D02*
Y9487D01*
X9643Y9711*
X9565*
X9911Y1332D02*
Y1213D01*
Y1667D02*
Y1785D01*
X9962Y10944D02*
Y11063D01*
Y12922D02*
Y13321D01*
X9999Y13358*
Y13815*
Y1499D02*
X10118D01*
X10009Y3465D02*
X9956Y3350D01*
X10009Y3563D02*
X9956Y3679D01*
X10023Y19994D02*
X10496D01*
X11717Y18773*
Y17134*
X10667Y16085*
X10025*
Y15346D02*
X10296Y15075D01*
X11004*
X10025Y15346D02*
X9558Y14878D01*
X9075*
X10025Y16085D02*
Y15346D01*
X10085Y3032D02*
X9802Y3315D01*
Y4137*
X9924Y4259*
Y4466*
X10155Y9897D02*
Y9778D01*
Y9995D02*
Y10114D01*
Y10340D02*
X10327D01*
X10159Y12922D02*
Y13237D01*
X10363Y13441*
Y14522*
X10522Y14682*
X11004*
X10194Y9395D02*
Y9474D01*
X9889Y9779*
Y10462*
X9765Y10587*
Y10836*
X10226Y3465D02*
X10318Y3373D01*
X10226Y3563D02*
X10318Y3656D01*
X10263Y9946D02*
X10382D01*
X10327Y10340D02*
X10381D01*
X10383Y10342*
X10628*
X10356Y10836D02*
Y10536D01*
X10327Y10507*
Y10340*
X10370Y18624D02*
X10537D01*
X10399Y16872D02*
X10859D01*
X10878Y16853*
X10519Y9948D02*
X10401D01*
X10523Y12539D02*
X10615Y12631D01*
X10537Y18250D02*
X10844D01*
X11092Y18499*
X11151*
X10564Y4369D02*
X10472Y4276D01*
X10564Y4782D02*
X10472Y4875D01*
X10586Y2857D02*
X10467Y2847D01*
X10586Y3073D02*
X10493Y3166D01*
X10628Y9899D02*
Y9780D01*
Y9948D02*
X10401D01*
X10399Y9946*
X10155*
X10628Y9997D02*
Y10116D01*
X10634Y1794D02*
Y2040D01*
Y1794D02*
Y1781D01*
X10642Y1772*
Y1759*
X10462Y1578*
Y1499*
X10635Y2965D02*
Y2553D01*
X10634Y2552*
X10657Y9395D02*
X10539D01*
X10684Y2857D02*
X10803Y2847D01*
X10684Y3073D02*
X10777Y3166D01*
X10736Y9948D02*
X10854D01*
X10746Y9395D02*
Y9316D01*
X10539Y9109*
X10035*
X9868Y9277*
X10746Y9395D02*
Y9702D01*
X10828Y9785*
Y9807*
X10687Y9948*
X10628*
X10746Y9562D02*
Y9681D01*
X10751Y3906D02*
X10446D01*
X10445Y3908*
X10118*
X10751Y4576D02*
Y5017D01*
X10749Y5019*
X10760Y3344D02*
X10635Y3220D01*
Y2965*
X10798Y12568D02*
X10680D01*
X10831Y2040D02*
Y2168D01*
X11052*
X11080Y2196*
X11423*
X10831Y2552D02*
Y2424D01*
X11019*
X11089Y2353*
X11423*
X10834Y9395D02*
X10953D01*
X10873Y1083D02*
X10754D01*
X10877Y13824D02*
X10759D01*
X10907Y12588D02*
Y12706D01*
X10923Y17876D02*
X11088Y17711D01*
X11147*
X10923Y17876D02*
Y17936D01*
X11092Y18105*
X11151*
X10923Y17876D02*
X10537D01*
X10938Y4782D02*
X10985Y4899D01*
X10981Y1034D02*
Y915D01*
Y1132D02*
Y1251D01*
X10986Y13775D02*
Y13657D01*
Y13873D02*
Y13992D01*
X11004Y14485D02*
Y14237D01*
X10986Y14218*
X11004Y14682D02*
Y14878D01*
X11015Y12568D02*
X11134D01*
X11029Y2965D02*
X11047Y2983D01*
X11423*
X11039Y17318D02*
X10920D01*
X11089Y1083D02*
X11208D01*
X11094Y13824D02*
X11212D01*
X11147Y17269D02*
Y17150D01*
Y17367D02*
Y17485D01*
Y17711D02*
X11506D01*
X11510Y17707*
X11148Y15541D02*
X11089D01*
X10948Y15399*
Y15329*
X11004Y15272*
X11152Y16211D02*
X11148Y16207D01*
Y15934*
X11199Y10765D02*
X10982Y10547D01*
X10892*
X10687Y10342*
X10628*
X11255Y17318D02*
X11374D01*
X11265Y3283D02*
X11423Y3125D01*
Y2983*
X11267Y13138D02*
Y13054D01*
X11478Y12843*
X11342Y3906D02*
Y3926D01*
X11063Y4205*
Y4245*
X10751Y4556*
Y4576*
X11342D02*
X11727D01*
X11906Y4754*
X11965*
X11362Y14219D02*
X11361Y14218D01*
X10986*
X11389Y12843D02*
X11271D01*
X11391Y11741D02*
X11273D01*
X11423Y1881D02*
X11176D01*
X10981Y1686*
Y1477*
X11423Y2039D02*
X11151D01*
X10907Y1794*
X10634*
X11423Y2511D02*
X11772D01*
X11423Y2668D02*
X11669D01*
X11772Y2565*
Y2511*
X11423Y2983D02*
Y2826D01*
X11437Y561D02*
Y842D01*
X11570Y976*
X11698*
X11478Y12843D02*
X11556D01*
X11478D02*
X11203Y12568D01*
X10907*
X11556Y12292D02*
X11271D01*
X11192Y12371*
X10907*
X11556Y12754D02*
Y12636D01*
Y12932D02*
Y13050D01*
X11558Y11190D02*
X11273D01*
X11272*
X10907*
X11558Y11652D02*
Y11534D01*
Y11741D02*
X11637D01*
X11842Y11945*
Y12636*
X11635Y12843*
X11556*
X11558Y11829D02*
Y11948D01*
X11698Y3259D02*
Y3387D01*
X11567*
X11440Y3514*
X11124*
X10751Y3887*
Y3906*
X11724Y12843D02*
X11842D01*
X11726Y11741D02*
X11844D01*
X11856Y976D02*
Y528D01*
Y3259D02*
Y3452D01*
X11722Y3586*
Y4175*
X11342Y4556*
Y4576*
X11856Y5148D02*
X11738D01*
X11859Y10483D02*
Y9654D01*
X10881Y8676*
X9189*
X11916Y3999D02*
X11874Y3881D01*
X11916Y4097D02*
X11872Y4214D01*
X11965Y5099D02*
Y4980D01*
X12024Y3654D02*
Y3270D01*
X12013Y3259*
X12024Y4048D02*
Y4263D01*
X11919Y4368*
X12073Y5148D02*
X12192D01*
X12132Y3999D02*
X12225Y3906D01*
X12132Y4097D02*
X12225Y4190D01*
X12134Y10815D02*
X12152Y10833D01*
Y11094*
X12457*
X12683*
X12152Y11439D02*
Y11320D01*
X12260Y11488D02*
X12379D01*
X12337Y17844D02*
X12218D01*
X12386Y17736D02*
Y17617D01*
Y17952D02*
Y18071D01*
X12435Y17844D02*
X12554D01*
X12455Y16692D02*
X12362Y16600D01*
X12455Y16870D02*
X12362Y16962D01*
X12459Y11729D02*
X12580D01*
X12683Y11626*
Y11488*
X12554Y14024D02*
X12435D01*
X12563Y5268D02*
X12187D01*
X12139Y5315*
X8771*
X7752Y4296*
X12564Y2117D02*
Y2125D01*
Y2117D02*
X12165D01*
X11772Y2511*
X12564Y2125D02*
X12797Y2357D01*
Y2364*
X12943Y2511*
X12564Y2125D02*
X12166Y2523D01*
X12565Y2116D02*
Y2094D01*
X12949Y1710*
X12565Y2116D02*
X12485Y2036D01*
Y2035*
X12172Y1722*
X12565Y2116D02*
X12564Y2117D01*
X12565Y2116D02*
X12567D01*
X12575Y11291D02*
X12457D01*
X12594Y15258D02*
X12622Y15286D01*
Y15679*
X12595Y3948D02*
X12511D01*
Y4391*
X12457Y4446*
Y4676*
X12622Y17332D02*
X12701D01*
X12679Y19007D02*
X12016Y18345D01*
Y14442*
X12186Y14272*
Y13005*
X12683Y10110D02*
Y9450D01*
X11805Y8572*
Y6550*
X12217Y6138*
X12683Y10307D02*
X12457D01*
X12339Y10189*
Y9382*
X11442Y8486*
Y7654*
X11159Y7371*
Y6351*
X11303Y6207*
X11753*
X12683Y10504D02*
X12457D01*
X12221Y10267*
Y9547*
X11250Y8576*
Y7919*
X10161Y6829*
Y6314*
X12683Y11291D02*
X12408D01*
X12211Y11488*
X12152*
X12701Y17332D02*
X12987Y17046D01*
Y16516*
X12701Y16230*
X12622*
X12740Y14483D02*
X12804D01*
X12918Y14369*
Y14221*
X12740Y14877D02*
X12681D01*
X12540Y15018*
Y15204*
X12594Y15258*
X12789Y16692D02*
X12835Y16575D01*
X12789Y16870D02*
X12835Y16987D01*
X12792Y11291D02*
X12910D01*
X12801Y4676D02*
X12683D01*
X12850Y4568D02*
Y4450D01*
Y4785D02*
Y4903D01*
X12899Y4676D02*
X13018D01*
X12918Y13631D02*
X12537D01*
X12394Y13488*
Y13305*
X12527Y13172*
X12737*
Y13005*
X12918Y13828D02*
X13400D01*
X13862Y14290*
X12921Y17568D02*
X13350D01*
X12921D02*
Y17552D01*
X12701Y17332*
X12921Y17568D02*
Y17703D01*
X12780Y17844*
X12949Y1710D02*
X13430Y1229D01*
Y976*
X12958D02*
Y616D01*
X12790Y449*
X12958Y3259D02*
Y3668D01*
X12880Y3745*
X12595*
Y3948*
X12980Y7779D02*
X12838Y7638D01*
Y7579*
X12779*
X12576Y7376*
Y7294*
X12412Y7130*
X13038Y9756D02*
Y9529D01*
X12634Y9126*
Y8038*
X12108Y7512*
Y6840*
X12294Y6654*
X13038Y11326D02*
X12949D01*
X13038Y11842D02*
X12638D01*
X12545Y11936*
X12252*
X11844Y11528*
Y11022*
X11797Y10975*
X11352*
X11348Y10971*
X11066*
X10848Y10754*
X13115Y976D02*
Y811D01*
X13167Y760*
Y454*
X13334*
X13115Y3259D02*
Y3710D01*
X13157Y3752*
X13579*
Y3948*
X13181Y8226D02*
X13125Y8112D01*
X13181Y8404D02*
X13125Y8518D01*
X13196Y4678D02*
X13078D01*
X13235Y9756D02*
Y9484D01*
X12971Y9221*
Y8014*
X12980Y8006*
Y7779*
X13235Y11842D02*
Y12069D01*
X13160Y12143*
X12382*
X13245Y4570D02*
Y4451D01*
Y4786D02*
Y4905D01*
X13282Y14024D02*
X13401D01*
X13289Y12765D02*
X13017D01*
X12944Y12837*
X12737*
Y13005*
X13295Y4678D02*
X13413D01*
X13321Y15816D02*
X13202D01*
X13349Y9292D02*
X13431Y9375D01*
Y9756*
X13349Y9292D02*
Y8866D01*
X13350Y16820D02*
X13429D01*
X14077Y17468*
Y17568*
X13350Y17194D02*
X13429D01*
X13636Y17400*
Y17723*
X13584Y17774*
X13525*
X13357Y17942*
X13141*
X12958Y18126*
X12659*
X12553Y18019*
Y18011*
X12386Y17844*
X13363Y9292D02*
X13349D01*
X13373Y7779D02*
Y7177D01*
X13431Y11842D02*
Y12069D01*
X13151Y12349*
X12219*
X12048Y12179*
X13488Y15648D02*
Y15530D01*
Y15983D02*
Y16102D01*
X13516Y8226D02*
X13608Y8134D01*
X13516Y8404D02*
X13608Y8496D01*
X13518Y17238D02*
X13636D01*
X13579Y3948D02*
Y4391D01*
X13639Y4451*
Y4678*
X13605Y12275D02*
X13628Y12252D01*
Y11842*
X13626Y18356D02*
X13793D01*
Y18149*
X14077Y17865*
Y17568*
X13656Y15816D02*
X13774D01*
X13704Y18907D02*
X13626D01*
X13706Y1251D02*
X13713Y1258D01*
X13863*
X13913Y1208*
X14139*
X13706Y1251D02*
Y984D01*
Y2353D02*
X14385D01*
X14569Y2537*
X15042*
X13706Y2983D02*
Y3274D01*
X13696Y3284*
X13727Y10799D02*
X13559D01*
X13067Y11291*
X12683*
X13825Y9647D02*
Y9529D01*
Y9756D02*
Y9336D01*
X13878Y9282*
X13825Y9756D02*
Y10700D01*
X13727Y10799*
X13825Y9864D02*
Y9982D01*
Y11842D02*
Y12069D01*
X13840Y12083*
Y12765*
Y12843*
X13249Y13434*
X12918*
X13862Y14290D02*
X14127Y14024D01*
X14847*
X13862Y15028D02*
Y14290D01*
X14031Y815D02*
X13912D01*
X14033Y1693D02*
X14010Y1812D01*
X14068Y7923D02*
Y8002D01*
X13838Y8232*
Y8900*
X13628Y9110*
Y9756*
X14077Y17568D02*
X14374D01*
X14101Y4302D02*
X13982D01*
X14110Y2996D02*
X13719D01*
X13706Y2983*
X14110Y2996D02*
Y3400D01*
X14116Y3406*
Y3672*
X14386*
X14137Y521D02*
X14139Y523D01*
Y815*
Y765D02*
Y647D01*
X14142Y1644D02*
X14533D01*
X14598Y1709*
X14142Y2038D02*
X13707D01*
X13706Y2039*
X14142Y2038D02*
X14368D01*
X14450Y2119*
X14660*
X14236Y15816D02*
Y16252D01*
X14212Y16277*
X14244Y8740D02*
Y8979D01*
X14248Y8983*
Y9222*
X14247Y815D02*
X14366D01*
X14248Y9222D02*
Y9474D01*
X14219Y9503*
Y9756*
X14250Y1595D02*
X14368Y1558D01*
X14250Y1693D02*
X14342Y1786D01*
X14374Y16820D02*
X14212D01*
Y16277*
X14374Y17194D02*
X14738D01*
X14930Y17386*
X14989*
X14386Y4154D02*
Y4036D01*
Y4450D02*
Y4568D01*
Y11458D02*
X14479Y11551D01*
X14454Y2888D02*
X14362Y2795D01*
X14454Y3104D02*
X14362Y3197D01*
X14530Y7923D02*
X14412D01*
X14553Y2888D02*
X14671Y2858D01*
X14553Y3104D02*
X14645Y3197D01*
X14588Y8632D02*
X14470Y8627D01*
X14588Y8848D02*
X14496Y8941D01*
X14592Y9222D02*
X14474D01*
X14619Y7755D02*
Y7637D01*
Y8090D02*
Y8209D01*
X14621Y1405D02*
X14394D01*
X14391Y1409*
X13706*
X14642Y9114D02*
Y8996D01*
Y9331D02*
Y9449D01*
X14646Y18377D02*
X15282Y17741D01*
Y15858*
X14452Y15028*
X13862*
X14662Y11488D02*
X14543D01*
X14672Y4302D02*
X14790D01*
X14686Y8632D02*
X14805Y8624D01*
X14686Y8848D02*
X14779Y8941D01*
X14691Y9222D02*
X14809D01*
X14708Y7923D02*
X14826D01*
X14719Y12776D02*
X14601D01*
X14757Y16820D02*
X14930Y16992D01*
X14989*
X14757Y16820D02*
X14374D01*
X14757D02*
Y16770D01*
X14929Y16598*
X14988*
X14770Y11507D02*
Y11626D01*
X14827Y12727D02*
Y12608D01*
Y12825D02*
Y12943D01*
Y13169D02*
X15236D01*
X14847Y13434D02*
Y13189D01*
X14827Y13169*
X14847Y13631D02*
Y13828D01*
Y13631D02*
X14365D01*
X14208Y13474*
Y12531*
X14022Y12345*
Y11842*
X14847Y14221D02*
X14784Y14285D01*
Y14347*
X14925Y14488*
X14984*
X14878Y11488D02*
X14997D01*
X14880Y16155D02*
X14788Y16063D01*
X14880Y16254D02*
X14788Y16346D01*
X14936Y12776D02*
X15054D01*
X14952Y11755D02*
X14900D01*
X14770Y11626*
Y11488*
X14986Y15159D02*
X14984Y15158D01*
Y14882*
X14988Y16205D02*
Y16019D01*
X14804Y15834*
X15000Y8424D02*
X14501D01*
X14244Y8681*
Y8740*
X15047Y1485D02*
X14929D01*
X15097Y16155D02*
X15133Y16037D01*
X15097Y16254D02*
X15133Y16372D01*
X15129Y2988D02*
X14852Y2711D01*
X14447*
X14247Y2511*
X13706*
X15214Y934D02*
X14929D01*
X14851Y1012*
X14621*
X15214Y1396D02*
Y1278D01*
Y1574D02*
Y1692D01*
X15232Y6142D02*
X15443Y5932D01*
Y2430*
X15211Y2198*
Y2119*
X15252Y10662D02*
X15134D01*
X15252Y11842D02*
X15134D01*
X15382Y1485D02*
X15500D01*
X15420Y10110D02*
X15134D01*
X14770*
X15420Y10573D02*
Y10455D01*
Y10662D02*
X15341D01*
X15134Y10868*
Y10983*
X15420Y10750D02*
Y10869D01*
Y11291D02*
X15134D01*
X14770*
X15420Y11753D02*
Y11635D01*
Y11931D02*
Y12049D01*
X15587Y10662D02*
X15706D01*
X15587Y11842D02*
X15706D01*
G54D13*
X6732Y19794D02*
X7202Y20264D01*
X7319*
X7499Y20445*
X7578*
Y20996D02*
X7349Y21226D01*
X7270*
X7150Y21345*
Y21346*
X6733Y21764*
X9472Y19994D02*
X9265Y20201D01*
Y20325*
X8762Y20828*
X10023Y19994D02*
Y20073D01*
X10361Y20411*
Y20461*
X10730Y20829*
X12679Y19007D02*
X13096Y18590D01*
Y18531*
X13271Y18356*
X13626*
X14646Y19006D02*
X14215D01*
X14116Y18907*
X13704*
G54D14*
X14646Y19006D02*
Y18377D01*
G54D15*
X8871Y2552D02*
X5288D01*
X3545Y809*
X1754*
G54D16*
X585Y3220D03*
X590Y6583D03*
X859Y10224D03*
Y12899D03*
X869Y3808D03*
X871Y9376D03*
X1016Y20088D03*
X1167Y3220D03*
X1229Y6650D03*
X1722Y20774D03*
X1777Y3229D03*
X2121Y18949D03*
X2384Y17498D03*
Y18265D03*
X2509Y21602D03*
X2513Y3229D03*
X2878Y9371D03*
X3054Y13889D03*
X3203Y3211D03*
X3235Y22308D03*
X3358Y11508D03*
X3464Y16344D03*
X3473Y15501D03*
X3485Y8017D03*
X3490Y7017D03*
Y2834D03*
X3499Y449D03*
X3508Y1328D03*
Y2068D03*
X3612Y10736D03*
X3777Y6771D03*
X3855Y7472D03*
X4019Y13091D03*
X4111Y8974D03*
X4154Y3395D03*
X4192Y6228D03*
X4199Y2153D03*
X4217Y458D03*
X4241Y5774D03*
X4307Y18135D03*
X4320Y8634D03*
X4338Y15134D03*
X4345Y22369D03*
X4415Y12945D03*
X4433Y9374D03*
X4468Y1077D03*
X4574Y16321D03*
X4800Y2718D03*
X4822Y4923D03*
X4901Y13671D03*
X4979Y1659D03*
X5099Y13330D03*
X5113Y458D03*
X5300Y16021D03*
X5330Y4566D03*
X5481Y2171D03*
X5564Y19125D03*
X5573Y19723D03*
X5599Y9275D03*
X5605Y5966D03*
X5612Y7134D03*
X5637Y13415D03*
X5698Y21097D03*
X5733Y14469D03*
X5797Y20659D03*
X5813Y2915D03*
X5837Y7868D03*
X5838Y22389D03*
X5849Y458D03*
X5959Y8572D03*
X6004Y6277D03*
X6072Y14887D03*
X6132Y20173D03*
X6173Y19156D03*
X6267Y21158D03*
X6272Y16488D03*
X6380Y5895D03*
X6512Y1417D03*
X6591Y7305D03*
X6689Y16912D03*
X6752Y10388D03*
X6753Y20735D03*
X6764Y5797D03*
X6848Y13369D03*
X6905Y7637D03*
X6944Y9985D03*
X6962Y8865D03*
X7033Y16312D03*
X7068Y2924D03*
X7284Y14281D03*
X7334Y4376D03*
X7345Y9020D03*
X7387Y16609D03*
X7388Y17768D03*
X7416Y10383D03*
X7463Y2198D03*
X7465Y18414D03*
X7477Y19335D03*
X7667Y3258D03*
X7675Y8827D03*
X7715Y22409D03*
X7752Y4296D03*
X7816Y968D03*
X7833Y12878D03*
X7871Y19915D03*
Y11694D03*
X7977Y15402D03*
X8008Y17428D03*
Y18458D03*
X8019Y2924D03*
X8051Y19508D03*
X8100Y9442D03*
X8197Y8175D03*
X8208Y13525D03*
X8232Y21766D03*
X8247Y12842D03*
X8421Y17583D03*
X8467Y2216D03*
X8474Y15121D03*
X8494Y13307D03*
X8505Y16410D03*
X8550Y9277D03*
X8561Y4117D03*
X8609Y12993D03*
X8755Y8940D03*
X8861Y16299D03*
X8874Y1378D03*
X8931Y9616D03*
X9036Y6461D03*
X9067Y22449D03*
X9120Y6002D03*
X9149Y3220D03*
X9173Y9179D03*
X9189Y8676D03*
X9308Y6659D03*
X9403Y15953D03*
X9477Y4445D03*
X9513Y19021D03*
X9574Y8445D03*
X9597Y3032D03*
X9670Y13390D03*
X9726Y21618D03*
X9728Y6562D03*
X9846Y5986D03*
X9854Y7438D03*
X9868Y9277D03*
X9924Y4466D03*
X9925Y14308D03*
X10025Y14962D03*
X10085Y3032D03*
X10143Y7743D03*
X10161Y6314D03*
X10268Y5882D03*
X10399Y22449D03*
X10526Y16383D03*
X10550Y19636D03*
X10749Y5019D03*
X10760Y3344D03*
X10821Y13365D03*
X10848Y10754D03*
X10878Y16853D03*
X11040Y20013D03*
X11148Y19050D03*
X11152Y16211D03*
X11154Y5091D03*
X11199Y10765D03*
X11265Y3283D03*
X11267Y13138D03*
X11362Y14219D03*
X11367Y22469D03*
X11437Y561D03*
X11480Y10397D03*
X11510Y17707D03*
X11523Y6632D03*
X11534Y10769D03*
X11559Y9927D03*
X11584Y19439D03*
X11602Y16515D03*
X11731Y15040D03*
X11753Y6207D03*
X11833Y14006D03*
X11856Y528D03*
X11859Y10483D03*
X11919Y4368D03*
X11959Y21551D03*
X11979Y18865D03*
X12048Y12179D03*
X12134Y10815D03*
X12166Y2523D03*
X12172Y1722D03*
X12217Y6138D03*
X12245Y17082D03*
X12294Y6654D03*
X12295Y14748D03*
X12382Y12143D03*
X12412Y7130D03*
X12416Y22449D03*
X12459Y11729D03*
X12470Y20475D03*
X12512Y5754D03*
X12563Y5268D03*
X12567Y2116D03*
X12594Y15258D03*
X12943Y2511D03*
X12949Y1710D03*
X13079Y6578D03*
X13244Y14980D03*
X13357Y17942D03*
X13363Y9292D03*
X13373Y7177D03*
X13486Y22469D03*
X13605Y12275D03*
X13666Y13468D03*
X13696Y3284D03*
X13706Y984D03*
X13708Y19896D03*
X13802Y21309D03*
X13878Y9282D03*
X13994Y13797D03*
X14137Y521D03*
X14212Y16277D03*
X14365Y14657D03*
X14572Y6759D03*
X14598Y1709D03*
X14605Y18029D03*
X14804Y15834D03*
X14838Y22469D03*
X14952Y11755D03*
X14986Y15159D03*
X15000Y8424D03*
X15042Y2537D03*
X15129Y2988D03*
X15134Y10983D03*
X15232Y6142D03*
X15236Y13169D03*
X15302Y20674D03*
X15322Y21662D03*
X15342Y19806D03*
X15403Y18414D03*
X15420Y12499D03*
X15441Y15411D03*
X15559Y16690D03*
Y17675D03*
G54D17*
X6732Y19794D03*
X6733Y21764D03*
X8762Y20828D03*
X10730Y20829D03*
X12679Y19007D03*
X14646Y19006D03*
G54D18*
X4237Y14116D03*
X4788D03*
X4837Y9781D03*
X5343Y13867D03*
X5388Y9781D03*
X5894Y13867D03*
X5953Y9427D03*
X6504D03*
X8343Y14050D03*
X8894D03*
X9448Y13815D03*
X9472Y19994D03*
X9911Y1499D03*
X9999Y13815D03*
X10023Y19994D03*
X10194Y9395D03*
X10462Y1499D03*
X10746Y9395D03*
X12186Y13005D03*
X12737D03*
X13289Y12765D03*
X13840D03*
X14068Y7923D03*
X14619D03*
X14660Y2119D03*
X15211D03*
G54D19*
X4653Y16781D03*
Y17333D03*
Y17884D03*
Y18435D03*
X7428Y11226D03*
Y11777D03*
Y12409D03*
Y12961D03*
X7578Y20445D03*
Y20996D03*
X8783Y16733D03*
Y17284D03*
X8784Y17835D03*
Y18386D03*
X9318Y7111D03*
Y7662D03*
X9565Y9711D03*
Y10262D03*
X11556Y12292D03*
Y12843D03*
X11558Y11190D03*
Y11741D03*
X12622Y15679D03*
Y16230D03*
Y16781D03*
Y17332D03*
X13349Y8315D03*
Y8866D03*
X13626Y18356D03*
Y18907D03*
X15214Y934D03*
Y1485D03*
X15420Y10110D03*
Y10662D03*
Y11291D03*
Y11842D03*
G54D20*
X494Y809D03*
X1754D03*
X12595Y3948D03*
X13579D03*
G54D21*
X4692Y11227D03*
Y11424D03*
Y11620D03*
Y11817D03*
Y12014D03*
Y12211D03*
Y12408D03*
Y12605D03*
X6779Y11227D03*
Y11424D03*
Y11620D03*
Y11817D03*
Y12014D03*
Y12211D03*
Y12408D03*
Y12605D03*
X8820Y11190D03*
Y11387D03*
Y11584D03*
Y11781D03*
Y11978D03*
Y12174D03*
Y12371D03*
Y12568D03*
X10907Y11190D03*
Y11387D03*
Y11584D03*
Y11781D03*
Y11978D03*
Y12174D03*
Y12371D03*
Y12568D03*
X12683Y10110D03*
Y10307D03*
Y10504D03*
Y10700D03*
Y10897D03*
Y11094D03*
Y11291D03*
Y11488D03*
X14770Y10110D03*
Y10307D03*
Y10504D03*
Y10700D03*
Y10897D03*
Y11094D03*
Y11291D03*
Y11488D03*
G54D22*
X5046Y10872D03*
Y12959D03*
X5243Y10872D03*
Y12959D03*
X5440Y10872D03*
Y12959D03*
X5637Y10872D03*
Y12959D03*
X5834Y10872D03*
Y12959D03*
X6031Y10872D03*
Y12959D03*
X6227Y10872D03*
Y12959D03*
X6424Y10872D03*
Y12959D03*
X9174Y10836D03*
Y12922D03*
X9371Y10836D03*
Y12922D03*
X9568Y10836D03*
Y12922D03*
X9765Y10836D03*
Y12922D03*
X9962Y10836D03*
Y12922D03*
X10159Y10836D03*
Y12922D03*
X10356Y10836D03*
Y12922D03*
X10552Y10836D03*
Y12922D03*
X13038Y9756D03*
Y11842D03*
X13235Y9756D03*
Y11842D03*
X13431Y9756D03*
Y11842D03*
X13628Y9756D03*
Y11842D03*
X13825Y9756D03*
Y11842D03*
X14022Y9756D03*
Y11842D03*
X14219Y9756D03*
Y11842D03*
X14416Y9756D03*
Y11842D03*
G54D23*
X5519Y16921D03*
X5893Y16134D03*
X6267Y16921D03*
X9651Y16872D03*
X10025Y16085D03*
X10399Y16872D03*
X12790Y449D03*
X13334Y454D03*
X13488Y15816D03*
X13862Y15028D03*
X14236Y15816D03*
G54D24*
X4417Y18947D03*
X4811D03*
X5877Y6776D03*
X6271D03*
X6312Y8572D03*
X6706D03*
X7291Y8174D03*
X7685D03*
X8548Y18898D03*
X8941D03*
X10635Y2965D03*
X11029D03*
X12386Y17844D03*
X12457Y4676D03*
X12780Y17844D03*
X12850Y4676D03*
X12980Y7779D03*
X13245Y4678D03*
X13373Y7779D03*
X13639Y4678D03*
X14110Y2996D03*
X14244Y8740D03*
X14248Y9222D03*
X14504Y2996D03*
X14637Y8740D03*
X14642Y9222D03*
G54D25*
X10437Y2040D03*
Y2552D03*
X10634Y2040D03*
Y2552D03*
X10831Y2040D03*
Y2552D03*
X11698Y976D03*
Y3259D03*
X11856Y976D03*
Y3259D03*
X12013Y976D03*
Y3259D03*
X12171Y976D03*
Y3259D03*
X12328Y976D03*
Y3259D03*
X12486Y976D03*
Y3259D03*
X12643Y976D03*
Y3259D03*
X12800Y976D03*
Y3259D03*
X12958Y976D03*
Y3259D03*
X13115Y976D03*
Y3259D03*
X13273Y976D03*
Y3259D03*
X13430Y976D03*
Y3259D03*
G54D26*
X7290Y5969D03*
Y7544D03*
X7487Y5969D03*
Y7544D03*
X7684Y5969D03*
Y7544D03*
X7881Y5969D03*
Y7544D03*
X8078Y5969D03*
Y7544D03*
X8275Y5969D03*
Y7544D03*
G54D27*
X6956Y6264D03*
Y6461D03*
Y6658D03*
Y6855D03*
Y7052D03*
Y7249D03*
X8609Y6264D03*
Y6461D03*
Y6658D03*
Y6855D03*
Y7052D03*
Y7249D03*
G54D28*
X4951Y14539D03*
Y14736D03*
Y14933D03*
Y15130D03*
Y15327D03*
X6880Y14539D03*
Y14736D03*
Y14933D03*
Y15130D03*
Y15327D03*
X9075Y14485D03*
Y14682D03*
Y14878D03*
Y15075D03*
Y15272D03*
X11004Y14485D03*
Y14682D03*
Y14878D03*
Y15075D03*
Y15272D03*
X12918Y13434D03*
Y13631D03*
Y13828D03*
Y14024D03*
Y14221D03*
X14847Y13434D03*
Y13631D03*
Y13828D03*
Y14024D03*
Y14221D03*
G54D29*
X10751Y3906D03*
Y4576D03*
X11342Y3906D03*
Y4576D03*
G54D30*
X12564Y2117D03*
G54D31*
X14386Y3672D03*
Y4302D03*
G54D70*
X4160Y12212D03*
Y12605D03*
X4741Y5371D03*
Y5765D03*
X4771Y15584D03*
Y15978D03*
X5917Y9985D03*
Y10379D03*
X6226Y7255D03*
Y7649D03*
X6389Y9985D03*
Y10379D03*
X6861Y13890D03*
Y14283D03*
X7017Y15582D03*
Y15976D03*
X7019Y17359D03*
Y17752D03*
Y18146D03*
Y18540D03*
X8289Y11982D03*
Y12376D03*
X8893Y518D03*
Y912D03*
X8899Y15540D03*
Y15934D03*
X8974Y9945D03*
Y10339D03*
X10118Y3514D03*
Y3908D03*
X10155Y9946D03*
Y10340D03*
X10628Y9948D03*
Y10342D03*
X10981Y1083D03*
Y1477D03*
X10986Y13824D03*
Y14218D03*
X11147Y17318D03*
Y17711D03*
X11148Y15541D03*
Y15934D03*
X11151Y18105D03*
Y18499D03*
X11965Y4754D03*
Y5148D03*
X12024Y3654D03*
Y4048D03*
X12152Y11094D03*
Y11488D03*
X12740Y14483D03*
Y14877D03*
X14139Y815D03*
Y1208D03*
X14142Y1644D03*
Y2038D03*
X14621Y1012D03*
Y1405D03*
X14827Y12776D03*
Y13169D03*
X14984Y14488D03*
Y14882D03*
X14988Y16205D03*
Y16598D03*
X14989Y16992D03*
Y17386D03*
G54D71*
X5381Y17926D03*
Y18300D03*
Y18674D03*
X6405Y17926D03*
Y18300D03*
Y18674D03*
X9513Y17876D03*
Y18250D03*
Y18624D03*
X10537Y17876D03*
Y18250D03*
Y18624D03*
X13350Y16820D03*
Y17194D03*
Y17568D03*
X14374Y16820D03*
Y17194D03*
Y17568D03*
G54D72*
X3149Y6160D03*
X3779D03*
G54D73*
X11423Y1251D03*
Y1409D03*
Y1566D03*
Y1724D03*
Y1881D03*
Y2039D03*
Y2196D03*
Y2353D03*
Y2511D03*
Y2668D03*
Y2826D03*
Y2983D03*
X13706Y1251D03*
Y1409D03*
Y1566D03*
Y1724D03*
Y1881D03*
Y2039D03*
Y2196D03*
Y2353D03*
Y2511D03*
Y2668D03*
Y2826D03*
Y2983D03*
M02*
